  0
SECTION
  2
HEADER
  9
$ACADVER
  1
AC1015
  9
$ACADMAINTVER
 70
     6
  9
$DWGCODEPAGE
  3
ANSI_1252
  9
$INSBASE
 10
0.0
 20
0.0
 30
0.0
  9
$EXTMIN
 10
-251.3651989489
 20
107.95
 30
0.0
  9
$EXTMAX
 10
251.3650623195
 20
649.2999065514
 30
0.0
  9
$LIMMIN
 10
0.0
 20
0.0
  9
$LIMMAX
 10
420.0
 20
297.0
  9
$ORTHOMODE
 70
     0
  9
$REGENMODE
 70
     1
  9
$FILLMODE
 70
     1
  9
$QTEXTMODE
 70
     0
  9
$MIRRTEXT
 70
     1
  9
$LTSCALE
 40
1.0
  9
$ATTMODE
 70
     1
  9
$TEXTSIZE
 40
3.5
  9
$TRACEWID
 40
1.0
  9
$TEXTSTYLE
  7
Standard
  9
$CLAYER
  8
0
  9
$CELTYPE
  6
ByLayer
  9
$CECOLOR
 62
   256
  9
$CELTSCALE
 40
1.0
  9
$DISPSILH
 70
     0
  9
$DIMSCALE
 40
1.0
  9
$DIMASZ
 40
3.302
  9
$DIMEXO
 40
1.0
  9
$DIMDLI
 40
3.75
  9
$DIMRND
 40
0.0
  9
$DIMDLE
 40
0.0
  9
$DIMEXE
 40
1.0
  9
$DIMTP
 40
0.0
  9
$DIMTM
 40
0.0
  9
$DIMTXT
 40
3.5
  9
$DIMCEN
 40
2.5
  9
$DIMTSZ
 40
0.0
  9
$DIMTOL
 70
     0
  9
$DIMLIM
 70
     0
  9
$DIMTIH
 70
     1
  9
$DIMTOH
 70
     1
  9
$DIMSE1
 70
     0
  9
$DIMSE2
 70
     0
  9
$DIMTAD
 70
     1
  9
$DIMZIN
 70
     0
  9
$DIMBLK
  1

  9
$DIMASO
 70
     1
  9
$DIMSHO
 70
     1
  9
$DIMPOST
  1

  9
$DIMAPOST
  1

  9
$DIMALT
 70
     0
  9
$DIMALTD
 70
     3
  9
$DIMALTF
 40
0.0393700787
  9
$DIMLFAC
 40
1.0
  9
$DIMTOFL
 70
     1
  9
$DIMTVP
 40
0.0
  9
$DIMTIX
 70
     0
  9
$DIMSOXD
 70
     0
  9
$DIMSAH
 70
     0
  9
$DIMBLK1
  1

  9
$DIMBLK2
  1

  9
$DIMSTYLE
  2
ISO-25
  9
$DIMCLRD
 70
     0
  9
$DIMCLRE
 70
     0
  9
$DIMCLRT
 70
     0
  9
$DIMTFAC
 40
1.0
  9
$DIMGAP
 40
1.524
  9
$DIMJUST
 70
     0
  9
$DIMSD1
 70
     0
  9
$DIMSD2
 70
     0
  9
$DIMTOLJ
 70
     0
  9
$DIMTZIN
 70
     0
  9
$DIMALTZ
 70
     0
  9
$DIMALTTZ
 70
     0
  9
$DIMUPT
 70
     0
  9
$DIMDEC
 70
     2
  9
$DIMTDEC
 70
     2
  9
$DIMALTU
 70
     2
  9
$DIMALTTD
 70
     3
  9
$DIMTXSTY
  7
Standard
  9
$DIMAUNIT
 70
     0
  9
$DIMADEC
 70
     2
  9
$DIMALTRND
 40
0.0
  9
$DIMAZIN
 70
     0
  9
$DIMDSEP
 70
    44
  9
$DIMATFIT
 70
     3
  9
$DIMFRAC
 70
     0
  9
$DIMLDRBLK
  1

  9
$DIMLUNIT
 70
     2
  9
$DIMLWD
 70
    -2
  9
$DIMLWE
 70
    -2
  9
$DIMTMOVE
 70
     0
  9
$LUNITS
 70
     2
  9
$LUPREC
 70
     2
  9
$SKETCHINC
 40
1.0
  9
$FILLETRAD
 40
10.0
  9
$AUNITS
 70
     0
  9
$AUPREC
 70
     2
  9
$MENU
  1
.
  9
$ELEVATION
 40
0.0
  9
$PELEVATION
 40
0.0
  9
$THICKNESS
 40
0.0
  9
$LIMCHECK
 70
     0
  9
$CHAMFERA
 40
0.0
  9
$CHAMFERB
 40
0.0
  9
$CHAMFERC
 40
0.0
  9
$CHAMFERD
 40
0.0
  9
$SKPOLY
 70
     0
  9
$TDCREATE
 40
2459016.924685856
  9
$TDUCREATE
 40
2459017.091352523
  9
$TDUPDATE
 40
2459016.924774954
  9
$TDUUPDATE
 40
2459017.09144162
  9
$TDINDWG
 40
0.0000000116
  9
$TDUSRTIMER
 40
0.0000000116
  9
$USRTIMER
 70
     1
  9
$ANGBASE
 50
0.0
  9
$ANGDIR
 70
     0
  9
$PDMODE
 70
     0
  9
$PDSIZE
 40
-1.0
  9
$PLINEWID
 40
0.0
  9
$SPLFRAME
 70
     0
  9
$SPLINETYPE
 70
     6
  9
$SPLINESEGS
 70
     8
  9
$HANDSEED
  5
B0
  9
$SURFTAB1
 70
     6
  9
$SURFTAB2
 70
     6
  9
$SURFTYPE
 70
     6
  9
$SURFU
 70
     6
  9
$SURFV
 70
     6
  9
$UCSBASE
  2

  9
$UCSNAME
  2

  9
$UCSORG
 10
0.0
 20
0.0
 30
0.0
  9
$UCSXDIR
 10
1.0
 20
0.0
 30
0.0
  9
$UCSYDIR
 10
0.0
 20
1.0
 30
0.0
  9
$UCSORTHOREF
  2

  9
$UCSORTHOVIEW
 70
     0
  9
$UCSORGTOP
 10
0.0
 20
0.0
 30
0.0
  9
$UCSORGBOTTOM
 10
0.0
 20
0.0
 30
0.0
  9
$UCSORGLEFT
 10
0.0
 20
0.0
 30
0.0
  9
$UCSORGRIGHT
 10
0.0
 20
0.0
 30
0.0
  9
$UCSORGFRONT
 10
0.0
 20
0.0
 30
0.0
  9
$UCSORGBACK
 10
0.0
 20
0.0
 30
0.0
  9
$PUCSBASE
  2

  9
$PUCSNAME
  2

  9
$PUCSORG
 10
0.0
 20
0.0
 30
0.0
  9
$PUCSXDIR
 10
1.0
 20
0.0
 30
0.0
  9
$PUCSYDIR
 10
0.0
 20
1.0
 30
0.0
  9
$PUCSORTHOREF
  2

  9
$PUCSORTHOVIEW
 70
     0
  9
$PUCSORGTOP
 10
0.0
 20
0.0
 30
0.0
  9
$PUCSORGBOTTOM
 10
0.0
 20
0.0
 30
0.0
  9
$PUCSORGLEFT
 10
0.0
 20
0.0
 30
0.0
  9
$PUCSORGRIGHT
 10
0.0
 20
0.0
 30
0.0
  9
$PUCSORGFRONT
 10
0.0
 20
0.0
 30
0.0
  9
$PUCSORGBACK
 10
0.0
 20
0.0
 30
0.0
  9
$USERI1
 70
     0
  9
$USERI2
 70
     0
  9
$USERI3
 70
     0
  9
$USERI4
 70
     0
  9
$USERI5
 70
     0
  9
$USERR1
 40
0.0
  9
$USERR2
 40
0.0
  9
$USERR3
 40
0.0
  9
$USERR4
 40
0.0
  9
$USERR5
 40
0.0
  9
$WORLDVIEW
 70
     1
  9
$SHADEDGE
 70
     3
  9
$SHADEDIF
 70
    70
  9
$TILEMODE
 70
     1
  9
$MAXACTVP
 70
    64
  9
$PINSBASE
 10
0.0
 20
0.0
 30
0.0
  9
$PLIMCHECK
 70
     0
  9
$PEXTMIN
 10
1.0000000000E+20
 20
1.0000000000E+20
 30
1.0000000000E+20
  9
$PEXTMAX
 10
-1.0000000000E+20
 20
-1.0000000000E+20
 30
-1.0000000000E+20
  9
$PLIMMIN
 10
0.0
 20
0.0
  9
$PLIMMAX
 10
420.0
 20
297.0
  9
$UNITMODE
 70
     0
  9
$VISRETAIN
 70
     1
  9
$PLINEGEN
 70
     0
  9
$PSLTSCALE
 70
     1
  9
$TREEDEPTH
 70
  3020
  9
$CMLSTYLE
  2
Standard
  9
$CMLJUST
 70
     0
  9
$CMLSCALE
 40
20.0
  9
$PROXYGRAPHICS
 70
     1
  9
$MEASUREMENT
 70
     1
  9
$CELWEIGHT
370
    -1
  9
$ENDCAPS
280
     0
  9
$JOINSTYLE
280
     0
  9
$LWDISPLAY
290
     1
  9
$INSUNITS
 70
     4
  9
$HYPERLINKBASE
  1

  9
$STYLESHEET
  1

  9
$XEDIT
290
     1
  9
$CEPSNTYPE
380
     0
  9
$PSTYLEMODE
290
     1
  9
$FINGERPRINTGUID
  2
{c9a01bf1-46c7-4ee3-b410-a4d71d38feed}
  9
$VERSIONGUID
  2
{FAEB1C32-E019-11D5-929B-00C0DF256EC4}
  9
$EXTNAMES
290
     1
  9
$PSVPSCALE
 40
0.0
  9
$OLESTARTUP
290
     0
  0
ENDSEC
  0
SECTION
  2
CLASSES
  0
CLASS
  1
ACDBDICTIONARYWDFLT
  2
AcDbDictionaryWithDefault
  3
ObjectDBX Classes
 90
        0
280
     0
281
     0
  0
CLASS
  1
VISUALSTYLE
  2
AcDbVisualStyle
  3
ObjectDBX Classes
 90
     4095
280
     0
281
     0
  0
CLASS
  1
MATERIAL
  2
AcDbMaterial
  3
ObjectDBX Classes
 90
     1153
280
     0
281
     0
  0
CLASS
  1
SCALE
  2
AcDbScale
  3
ObjectDBX Classes
 90
     1153
280
     0
281
     0
  0
CLASS
  1
TABLESTYLE
  2
AcDbTableStyle
  3
ObjectDBX Classes
 90
     4095
280
     0
281
     0
  0
CLASS
  1
MLEADERSTYLE
  2
AcDbMLeaderStyle
  3
ACDB_MLEADERSTYLE_CLASS
 90
     4095
280
     0
281
     0
  0
CLASS
  1
SUN
  2
AcDbSun
  3
SCENEOE
 90
     1153
280
     0
281
     0
  0
CLASS
  1
ACDBPLACEHOLDER
  2
AcDbPlaceHolder
  3
ObjectDBX Classes
 90
        0
280
     0
281
     0
  0
CLASS
  1
LAYOUT
  2
AcDbLayout
  3
ObjectDBX Classes
 90
        0
280
     0
281
     0
  0
ENDSEC
  0
SECTION
  2
TABLES
  0
TABLE
  2
VPORT
  5
8
330
0
100
AcDbSymbolTable
 70
     1
  0
VPORT
  5
29
330
8
100
AcDbSymbolTableRecord
100
AcDbViewportTableRecord
  2
*Active
 70
     0
 10
0.0
 20
0.0
 11
1.0
 21
1.0
 12
-0.0000683147
 22
378.6249532757
 13
0.0
 23
0.0
 14
10.0
 24
10.0
 15
10.0
 25
10.0
 16
0.0
 26
0.0
 36
1.0
 17
0.0
 27
0.0
 37
0.0
 40
552.1769046824
 41
0.9286604748
 42
50.0
 43
0.0
 44
0.0
 50
0.0
 51
0.0
 71
     0
 72
   100
 73
     1
 74
     3
 75
     0
 76
     0
 77
     0
 78
     0
281
     0
 65
     1
110
0.0
120
0.0
130
0.0
111
1.0
121
0.0
131
0.0
112
0.0
122
1.0
132
0.0
 79
     0
146
0.0
  0
ENDTAB
  0
TABLE
  2
LTYPE
  5
5
330
0
100
AcDbSymbolTable
 70
     6
  0
LTYPE
  5
14
330
5
100
AcDbSymbolTableRecord
100
AcDbLinetypeTableRecord
  2
ByBlock
 70
     0
  3

 72
    65
 73
     0
 40
0.0
  0
LTYPE
  5
15
330
5
100
AcDbSymbolTableRecord
100
AcDbLinetypeTableRecord
  2
ByLayer
 70
     0
  3

 72
    65
 73
     0
 40
0.0
  0
LTYPE
  5
16
330
5
100
AcDbSymbolTableRecord
100
AcDbLinetypeTableRecord
  2
Continuous
 70
     0
  3
Solid line
 72
    65
 73
     0
 40
0.0
  0
LTYPE
  5
6E
330
5
100
AcDbSymbolTableRecord
100
AcDbLinetypeTableRecord
  2
HIDDEN
 70
     0
  3
Hidden __ __ __ __ __ __ __ __ __ __ __ __ __ __
 72
    65
 73
     2
 40
1.905
 49
1.27
 74
     0
 49
-0.635
 74
     0
  0
LTYPE
  5
6F
330
5
100
AcDbSymbolTableRecord
100
AcDbLinetypeTableRecord
  2
PHANTOM
 70
     0
  3
Phantom ______  __  __  ______  __  __  ______
 72
    65
 73
     6
 40
12.7
 49
6.35
 74
     0
 49
-1.27
 74
     0
 49
1.27
 74
     0
 49
-1.27
 74
     0
 49
1.27
 74
     0
 49
-1.27
 74
     0
  0
LTYPE
  5
70
330
5
100
AcDbSymbolTableRecord
100
AcDbLinetypeTableRecord
  2
CENTER
 70
     0
  3
Center ____ _ ____ _ ____ _ ____ _ ____ _ ____
 72
    65
 73
     4
 40
10.16
 49
6.35
 74
     0
 49
-1.27
 74
     0
 49
1.27
 74
     0
 49
-1.27
 74
     0
  0
LTYPE
  5
71
330
5
100
AcDbSymbolTableRecord
100
AcDbLinetypeTableRecord
  2
CENTERX2
 70
     0
  3
Center (2x) ________  __  ________  __  _____
 72
    65
 73
     4
 40
20.32
 49
12.7
 74
     0
 49
-2.54
 74
     0
 49
2.54
 74
     0
 49
-2.54
 74
     0
  0
LTYPE
  5
72
330
5
100
AcDbSymbolTableRecord
100
AcDbLinetypeTableRecord
  2
DOT2
 70
     0
  3
Dot (.5x) ........................................
 72
    65
 73
     2
 40
0.635
 49
0.0
 74
     0
 49
-0.635
 74
     0
  0
ENDTAB
  0
TABLE
  2
LAYER
  5
2
330
0
100
AcDbSymbolTable
 70
     1
  0
LAYER
  5
10
330
2
100
AcDbSymbolTableRecord
100
AcDbLayerTableRecord
  2
0
 70
     0
 62
     7
  6
Continuous
370
    -3
390
F
  0
ENDTAB
  0
TABLE
  2
STYLE
  5
3
330
0
100
AcDbSymbolTable
 70
     2
  0
STYLE
  5
11
330
3
100
AcDbSymbolTableRecord
100
AcDbTextStyleTableRecord
  2
Standard
 70
     0
 40
0.0
 41
1.0
 50
0.0
 71
     0
 42
3.5
  3
txt
  4

  0
STYLE
  5
AD
330
3
100
AcDbSymbolTableRecord
100
AcDbTextStyleTableRecord
  2
SLDTEXTSTYLE0
 70
     0
 40
0.0
 41
0.7
 50
0.0
 71
     0
 42
3.5
  3
TXT
  4

  0
ENDTAB
  0
TABLE
  2
VIEW
  5
6
330
0
100
AcDbSymbolTable
 70
     0
  0
ENDTAB
  0
TABLE
  2
UCS
  5
7
330
0
100
AcDbSymbolTable
 70
     0
  0
ENDTAB
  0
TABLE
  2
APPID
  5
9
330
0
100
AcDbSymbolTable
 70
     1
  0
APPID
  5
12
330
9
100
AcDbSymbolTableRecord
100
AcDbRegAppTableRecord
  2
ACAD
 70
     0
  0
ENDTAB
  0
TABLE
  2
DIMSTYLE
  5
A
330
0
100
AcDbSymbolTable
 70
     1
100
AcDbDimStyleTable
  0
DIMSTYLE
105
27
330
A
100
AcDbSymbolTableRecord
100
AcDbDimStyleTableRecord
  2
ISO-25
 70
     0
 41
2.5
 42
0.625
 43
3.75
 44
1.25
 73
     0
 74
     0
 77
     1
 78
     8
140
2.5
141
2.5
143
0.0393700787
147
0.625
171
     3
172
     1
178
     0
271
     2
272
     2
274
     3
278
    44
283
     0
284
     8
340
11
  0
ENDTAB
  0
TABLE
  2
BLOCK_RECORD
  5
1
330
0
100
AcDbSymbolTable
 70
     1
  0
BLOCK_RECORD
  5
1F
330
1
100
AcDbSymbolTableRecord
100
AcDbBlockTableRecord
  2
*Model_Space
340
22
  0
BLOCK_RECORD
  5
1B
330
1
100
AcDbSymbolTableRecord
100
AcDbBlockTableRecord
  2
*Paper_Space
340
1E
  0
BLOCK_RECORD
  5
23
330
1
100
AcDbSymbolTableRecord
100
AcDbBlockTableRecord
  2
*Paper_Space0
340
26
  0
ENDTAB
  0
ENDSEC
  0
SECTION
  2
BLOCKS
  0
BLOCK
  5
20
330
1F
100
AcDbEntity
  8
0
100
AcDbBlockBegin
  2
*Model_Space
 70
     0
 10
0.0
 20
0.0
 30
0.0
  3
*Model_Space
  1

  0
ENDBLK
  5
21
330
1F
100
AcDbEntity
  8
0
100
AcDbBlockEnd
  0
BLOCK
  5
1C
330
1B
100
AcDbEntity
 67
     1
  8
0
100
AcDbBlockBegin
  2
*Paper_Space
 70
     0
 10
0.0
 20
0.0
 30
0.0
  3
*Paper_Space
  1

  0
ENDBLK
  5
1D
330
1B
100
AcDbEntity
 67
     1
  8
0
100
AcDbBlockEnd
  0
BLOCK
  5
24
330
23
100
AcDbEntity
  8
0
100
AcDbBlockBegin
  2
*Paper_Space0
 70
     0
 10
0.0
 20
0.0
 30
0.0
  3
*Paper_Space0
  1

  0
ENDBLK
  5
25
330
23
100
AcDbEntity
  8
0
100
AcDbBlockEnd
  0
ENDSEC
  0
SECTION
  2
ENTITIES
  0
SPLINE
  5
77
330
1F
100
AcDbEntity
  8
0
  6
Continuous
 62
     7
370
    25
100
AcDbSpline
210
0.0
220
0.0
230
1.0
 70
     8
 71
     3
 72
    22
 73
    18
 74
     0
 42
0.000000001
 43
0.00000001
 40
0.0
 40
0.0
 40
0.0
 40
0.0
 40
0.0350869526673773
 40
0.1075909810820194
 40
0.1801054723110275
 40
0.2526199675182734
 40
0.3251344605176196
 40
0.3976489492226316
 40
0.4701634316259988
 40
0.5426779058342901
 40
0.6151923701022001
 40
0.687706822864075
 40
0.7602212627621642
 40
0.83273568867123
 40
0.9052500997187799
 40
0.9777644953008839
 40
1.0
 40
1.0
 40
1.0
 40
1.0
 10
225.7707085606308
 20
250.3660446045335
 30
0.0
 10
225.8219092668062
 20
249.6101339990246
 30
0.0
 10
225.9789116221181
 20
247.2922021903547
 30
0.0
 10
226.0131804459009
 20
243.3996824626885
 30
0.0
 10
225.7536630611393
 20
238.706882226531
 30
0.0
 10
225.1752429143596
 20
234.0417027376997
 30
0.0
 10
224.2856713428882
 20
229.4260018282156
 30
0.0
 10
223.0875986376917
 20
224.8805090157415
 30
0.0
 10
221.5868096913325
 20
220.4258194491244
 30
0.0
 10
219.7899960534224
 20
216.0820637633117
 30
0.0
 10
217.7052976498088
 20
211.8689032240167
 30
0.0
 10
215.3421798405304
 20
207.8053331805562
 30
0.0
 10
212.7111631521955
 20
203.909941513298
 30
0.0
 10
209.8247716739888
 20
200.199554808186
 30
0.0
 10
206.6937199830684
 20
196.6938969766391
 30
0.0
 10
204.11580401734
 20
194.1596222026785
 30
0.0
 10
202.5874375214802
 20
192.799587868384
 30
0.0
 10
202.2287669550753
 20
192.4804207796439
 30
0.0
  0
SPLINE
  5
78
330
1F
100
AcDbEntity
  8
0
  6
Continuous
 62
     7
370
    25
100
AcDbSpline
210
0.0
220
0.0
230
1.0
 70
     8
 71
     3
 72
    24
 73
    20
 74
     0
 42
0.000000001
 43
0.00000001
 40
0.0
 40
0.0
 40
0.0
 40
0.0
 40
0.0350852592813444
 40
0.0971740429765244
 40
0.1592686622181835
 40
0.2213632768004323
 40
0.2834578851287735
 40
0.3455524873060448
 40
0.4076470835170496
 40
0.4697416740256742
 40
0.5318362591713944
 40
0.593930839364787
 40
0.6560254150820397
 40
0.7181199868587105
 40
0.780214555282576
 40
0.8423091209858697
 40
0.9044036846368695
 40
0.966498246931086
 40
1.0
 40
1.0
 40
1.0
 40
1.0
 10
218.9917030524853
 20
173.397339964583
 30
0.0
 10
219.7612208846302
 20
174.086740593301
 30
0.0
 10
221.8925193394147
 20
175.996142082567
 30
0.0
 10
225.2141040967408
 20
179.3117065073214
 30
0.0
 10
228.8806959472558
 20
183.3944845992125
 30
0.0
 10
232.303247776991
 20
187.6849652161631
 30
0.0
 10
235.4739649768162
 20
192.164464352212
 30
0.0
 10
238.3813491032634
 20
196.8192862555038
 30
0.0
 10
241.0160218832992
 20
201.6336835187258
 30
0.0
 10
243.3691759809739
 20
206.5917735658638
 30
0.0
 10
245.4330246124526
 20
211.6770914925658
 30
0.0
 10
247.2007260379993
 20
216.8727796927216
 30
0.0
 10
248.6663911621756
 20
222.1616034976599
 30
0.0
 10
249.8252647441402
 20
227.5260343685361
 30
0.0
 10
250.6731095282384
 20
232.948244140867
 30
0.0
 10
251.2085851655337
 20
238.4103936485031
 30
0.0
 10
251.4244248140192
 20
243.8938377623216
 30
0.0
 10
251.3533018843548
 20
248.5399350498336
 30
0.0
 10
251.1616320020082
 20
251.3484193458036
 30
0.0
 10
251.0944612429184
 20
252.3326533826919
 30
0.0
  0
SPLINE
  5
79
330
1F
100
AcDbEntity
  8
0
  6
Continuous
 62
     7
370
    25
100
AcDbSpline
210
0.0
220
0.0
230
1.0
 70
     8
 71
     3
 72
    22
 73
    18
 74
     0
 42
0.000000001
 43
0.00000001
 40
0.0
 40
0.0
 40
0.0
 40
0.0
 40
0.0350869811987119
 40
0.1075908756071129
 40
0.1801052397401071
 40
0.2526196237022841
 40
0.3251340234412962
 40
0.3976484385558309
 40
0.4701628683681958
 40
0.5426773119351218
 40
0.6151917680647785
 40
0.6877062353383091
 40
0.7602207121354714
 40
0.832735196663913
 40
0.9052496869915277
 40
0.977764181081445
 40
1.0
 40
1.0
 40
1.0
 40
1.0
 10
-202.2287669550755
 20
192.4804207796437
 30
0.0
 10
-202.7930264672254
 20
192.9860326420964
 30
0.0
 10
-204.5232743514197
 20
194.5364431117388
 30
0.0
 10
-207.2646157533459
 20
197.3001549901036
 30
0.0
 10
-210.3541195051027
 20
200.8420302452648
 30
0.0
 10
-213.1959633173215
 20
204.5866988875535
 30
0.0
 10
-215.7804426781794
 20
208.5130977078073
 30
0.0
 10
-218.0949873389523
 20
212.6045316412935
 30
0.0
 10
-220.1293656577791
 20
216.8422140894036
 30
0.0
 10
-221.8743194805617
 20
221.2070583161323
 30
0.0
 10
-223.3219554856625
 20
225.6793028343947
 30
0.0
 10
-224.4657943234085
 20
230.2387379655075
 30
0.0
 10
-225.3003966798392
 20
234.8647093777412
 30
0.0
 10
-225.8229873972576
 20
239.536425708488
 30
0.0
 10
-226.0274731867634
 20
244.2322835662557
 30
0.0
 10
-225.9501060657274
 20
247.8464368765571
 30
0.0
 10
-225.8048070505294
 20
249.8871370600048
 30
0.0
 10
-225.7707085606311
 20
250.3660446045334
 30
0.0
  0
SPLINE
  5
7A
330
1F
100
AcDbEntity
  8
0
  6
Continuous
 62
     7
370
    25
100
AcDbSpline
210
0.0
220
0.0
230
1.0
 70
     8
 71
     3
 72
    24
 73
    20
 74
     0
 42
0.000000001
 43
0.00000001
 40
0.0
 40
0.0
 40
0.0
 40
0.0
 40
0.035085288271992
 40
0.09717400967701
 40
0.1592685699996288
 40
0.2213631314194179
 40
0.2834576929803162
 40
0.3455522554049828
 40
0.4076468194051371
 40
0.4697413856715594
 40
0.5318359548650355
 40
0.5939305276075287
 40
0.656025104473945
 40
0.7181196859845421
 40
0.7802142725980041
 40
0.8423088647053815
 40
0.9044034626248927
 40
0.9664980665977388
 40
1.0
 40
1.0
 40
1.0
 40
1.0
 10
-251.0944612429187
 20
252.3326533826919
 30
0.0
 10
-251.1643819855736
 20
251.3018600414854
 30
0.0
 10
-251.3580380522045
 20
248.4469220590218
 30
0.0
 10
-251.4226813609123
 20
243.7542125963481
 30
0.0
 10
-251.1989225208707
 20
238.2712712114
 30
0.0
 10
-250.6554282001864
 20
232.8099091827182
 30
0.0
 10
-249.7996568282106
 20
227.3889471275214
 30
0.0
 10
-248.632932758436
 20
222.0262184429381
 30
0.0
 10
-247.1595306568533
 20
216.7395460673143
 30
0.0
 10
-245.3842284010042
 20
211.5464512675257
 30
0.0
 10
-243.312941169945
 20
206.4641600677881
 30
0.0
 10
-240.9525350200677
 20
201.509520149571
 30
0.0
 10
-238.3108214141542
 20
196.698984347535
 30
0.0
 10
-235.3966289323891
 20
192.0484245970462
 30
0.0
 10
-232.219366235854
 20
187.5735658975632
 30
0.0
 10
-228.7905242880717
 20
183.2881192622827
 30
0.0
 10
-225.1179123182748
 20
179.2105092614883
 30
0.0
 10
-221.8242174842569
 20
175.9328444515362
 30
0.0
 10
-219.7267598605387
 20
174.0553206668448
 30
0.0
 10
-218.9917030524856
 20
173.3973399645828
 30
0.0
  0
SPLINE
  5
7F
330
1F
100
AcDbEntity
  8
0
  6
Continuous
 62
     7
370
    25
100
AcDbSpline
210
0.0
220
0.0
230
1.0
 70
     8
 71
     3
 72
    28
 73
    24
 74
     0
 42
0.000000001
 43
0.00000001
 40
0.0
 40
0.0
 40
0.0
 40
0.0
 40
0.0240634758283039
 40
0.0737884818216362
 40
0.1235206609528034
 40
0.1732528394179083
 40
0.2229850131573443
 40
0.2727171809000555
 40
0.322449341484405
 40
0.3721814938781114
 40
0.4219136371969074
 40
0.471645770720542
 40
0.5213778939057181
 40
0.5711100063960164
 40
0.6208421080281861
 40
0.6705741988352117
 40
0.7203062790456676
 40
0.7700383490795635
 40
0.8197704095407468
 40
0.86950246120602
 40
0.9192345050111055
 40
0.9689665420336606
 40
1.0
 40
1.0
 40
1.0
 40
1.0
 10
-203.2381236588562
 20
540.5150634040549
 30
0.0
 10
-203.172008296188
 20
541.269815795505
 30
0.0
 10
-202.969271489952
 20
543.5841960418884
 30
0.0
 10
-202.4021778564933
 20
547.4353384111165
 30
0.0
 10
-201.4212679096186
 20
552.031811179909
 30
0.0
 10
-200.1295428298703
 20
556.5517612064647
 30
0.0
 10
-198.5380356496961
 20
560.9747894484598
 30
0.0
 10
-196.6525650748107
 20
565.2808237639154
 30
0.0
 10
-194.482026956047
 20
569.4504102324266
 30
0.0
 10
-192.0361379615888
 20
573.4646881265281
 30
0.0
 10
-189.3259854394426
 20
577.3055054458243
 30
0.0
 10
-186.3638181739371
 20
580.9554929654379
 30
0.0
 10
-183.1630335930843
 20
584.3981447009536
 30
0.0
 10
-179.7381058753656
 20
587.6178929215233
 30
0.0
 10
-176.1045231085386
 20
590.6001751525148
 30
0.0
 10
-172.2787180846434
 20
593.3315132467022
 30
0.0
 10
-168.2779880174515
 20
595.7995248579921
 30
0.0
 10
-164.1204393529146
 20
597.9931641177102
 30
0.0
 10
-159.82481971954
 20
599.9020823265429
 30
0.0
 10
-155.4107547821183
 20
601.519247094815
 30
0.0
 10
-150.897459117335
 20
602.8313740233369
 30
0.0
 10
-146.8833045074016
 20
603.7265482529
 30
0.0
 10
-144.3700556056131
 20
604.1150842947114
 30
0.0
 10
-143.4043609836298
 20
604.2643759807664
 30
0.0
  0
SPLINE
  5
80
330
1F
100
AcDbEntity
  8
0
  6
Continuous
 62
     7
370
    25
100
AcDbSpline
210
0.0
220
0.0
230
1.0
 70
     8
 71
     3
 72
    31
 73
    27
 74
     0
 42
0.000000001
 43
0.00000001
 40
0.0
 40
0.0
 40
0.0
 40
0.0
 40
0.0240623589464736
 40
0.0666444761771226
 40
0.1092305976975095
 40
0.1518167187219312
 40
0.1944028376947038
 40
0.2369889541941438
 40
0.279575067831649
 40
0.3221611782565347
 40
0.3647472851607
 40
0.4073333882826949
 40
0.4499194874111491
 40
0.4925055823877398
 40
0.5350916731090636
 40
0.5776777595281575
 40
0.620263841655067
 40
0.6628499195567445
 40
0.7054359933561255
 40
0.7480220632305449
 40
0.7906081294093585
 40
0.8331941921709027
 40
0.8757802518388116
 40
0.9183663087777252
 40
0.9609523633884689
 40
0.9999999999999999
 40
0.9999999999999999
 40
0.9999999999999999
 40
0.9999999999999999
 10
-146.9703420791101
 20
629.4128108988021
 30
0.0
 10
-147.9918108913234
 20
629.2577695745133
 30
0.0
 10
-150.8209289371749
 20
628.8283583157909
 30
0.0
 10
-155.4162466925097
 20
627.8748812886752
 30
0.0
 10
-160.7205648914188
 20
626.468663417884
 30
0.0
 10
-165.9345514308785
 20
624.7549796946996
 30
0.0
 10
-171.041448106251
 20
622.7451885129532
 30
0.0
 10
-176.0241316334755
 20
620.4444460366747
 30
0.0
 10
-180.86612823483
 20
617.8607864901886
 30
0.0
 10
-185.5513670469191
 20
615.0026696934495
 30
0.0
 10
-190.0643141178192
 20
611.8796030066558
 30
0.0
 10
-194.3900022971143
 20
608.5019356330814
 30
0.0
 10
-198.514086671507
 20
604.8808709656482
 30
0.0
 10
-202.4228905615128
 20
601.0284169260251
 30
0.0
 10
-206.1034513774299
 20
596.9573494989498
 30
0.0
 10
-209.5435631802208
 20
592.68116944107
 30
0.0
 10
-212.7318183646114
 20
588.2140578366217
 30
0.0
 10
-215.657641094728
 20
583.5708286741094
 30
0.0
 10
-218.3113387487716
 20
578.7668809656002
 30
0.0
 10
-220.6840729641686
 20
573.8181430834163
 30
0.0
 10
-222.7681169637436
 20
568.7410370706314
 30
0.0
 10
-224.5560302097224
 20
563.5523602405964
 30
0.0
 10
-226.0438589370176
 20
558.2694680989218
 30
0.0
 10
-227.2192967963792
 20
552.9093262214991
 30
0.0
 10
-228.0814024763408
 20
547.64182315843
 30
0.0
 10
-228.4064142724798
 20
544.1512900410542
 30
0.0
 10
-228.5618763411438
 20
542.4816721822132
 30
0.0
  0
SPLINE
  5
81
330
1F
100
AcDbEntity
  8
0
  6
Continuous
 62
     7
370
    25
100
AcDbSpline
210
0.0
220
0.0
230
1.0
 70
     8
 71
     3
 72
    28
 73
    24
 74
     0
 42
0.000000001
 43
0.00000001
 40
0.0
 40
0.0
 40
0.0
 40
0.0
 40
0.0240635105709751
 40
0.0737883585553168
 40
0.1235203825976173
 40
0.1732524135631113
 40
0.2229844500585527
 40
0.2727164932925302
 40
0.322448544352972
 40
0.3721806041863251
 40
0.4219126735806059
 40
0.4716447531511181
 40
0.5213768433293081
 40
0.5711089443549328
 40
0.6208410562717845
 40
0.6705731789268924
 40
0.7203053119731883
 40
0.7700374548758683
 40
0.819769606922036
 40
0.8695017672335343
 40
0.919233934782855
 40
0.9689661084116814
 40
1.0
 40
1.0
 40
1.0
 40
1.0
 10
143.4043609836297
 20
604.2643759807662
 30
0.0
 10
144.1534244891745
 20
604.1506062046861
 30
0.0
 10
146.4503531257846
 20
603.8017425172627
 30
0.0
 10
150.2579074043481
 20
602.9919568008928
 30
0.0
 10
154.7831001366545
 20
601.7220007339924
 30
0.0
 10
159.2122435593546
 20
600.1467026405488
 30
0.0
 10
163.5256781026091
 20
598.2783647769721
 30
0.0
 10
167.703740218257
 20
596.1240648792783
 30
0.0
 10
171.727578156697
 20
593.6939124514764
 30
0.0
 10
175.5789841207828
 20
590.9987985786415
 30
0.0
 10
179.2405443812044
 20
588.0509373713522
 30
0.0
 10
182.6956999262651
 20
584.863652462263
 30
0.0
 10
185.9288259552951
 20
581.4513591515762
 30
0.0
 10
188.9253021904593
 20
577.8294879163334
 30
0.0
 10
191.6715757686063
 20
574.014417460487
 30
0.0
 10
194.1552357760355
 20
570.0234006494051
 30
0.0
 10
196.3650196201441
 20
565.8744836684014
 30
0.0
 10
198.2910497375297
 20
561.5864357106201
 30
0.0
 10
199.9241849227532
 20
557.1786217480384
 30
0.0
 10
201.2586492646978
 20
552.6710730774942
 30
0.0
 10
202.2824012289909
 20
548.0838066201568
 30
0.0
 10
202.9216365959024
 20
544.0210623185603
 30
0.0
 10
203.1502718789317
 20
541.4882729949211
 30
0.0
 10
203.2381236588559
 20
540.5150634040548
 30
0.0
  0
SPLINE
  5
82
330
1F
100
AcDbEntity
  8
0
  6
Continuous
 62
     7
370
    25
100
AcDbSpline
210
0.0
220
0.0
230
1.0
 70
     8
 71
     3
 72
    31
 73
    27
 74
     0
 42
0.000000001
 43
0.00000001
 40
0.0
 40
0.0
 40
0.0
 40
0.0
 40
0.0240623942462556
 40
0.0666444381289378
 40
0.109230487139232
 40
0.1518165381874954
 40
0.1944025906459936
 40
0.2369886449746022
 40
0.2795747016087251
 40
0.3221607609531846
 40
0.3647468233768799
 40
0.4073328892079123
 40
0.4499189587291966
 40
0.4925050321747385
 40
0.5350911097265267
 40
0.5776771915121163
 40
0.6202632776029582
 40
0.6628493680134399
 40
0.705435462700684
 40
0.7480215615651461
 40
0.7906076644519265
 40
0.8331937711527786
 40
0.8757798814089554
 40
0.9183659949145613
 40
0.9609521113206431
 40
1.0
 40
1.0
 40
1.0
 40
1.0
 10
228.5618763411435
 20
542.4816721822132
 30
0.0
 10
228.471818461516
 20
543.5109017159905
 30
0.0
 10
228.2223895507666
 20
546.3615084877986
 30
0.0
 10
227.5617679991297
 20
551.0079357483138
 30
0.0
 10
226.4942010970533
 20
556.3905960609127
 30
0.0
 10
225.1140636624496
 20
561.7025738643752
 30
0.0
 10
223.4316303370117
 20
566.9264256858661
 30
0.0
 10
221.4509627952133
 20
572.0447363617265
 30
0.0
 10
219.1790361351646
 20
577.0405566969653
 30
0.0
 10
216.6232756993799
 20
581.8973126437074
 30
0.0
 10
213.7921862632551
 20
586.5988996487099
 30
0.0
 10
210.6951486429973
 20
591.1297255052369
 30
0.0
 10
207.3424355296311
 20
595.474764894146
 30
0.0
 10
203.7451648418453
 20
599.6196084314128
 30
0.0
 10
199.9152662389182
 20
603.5505107401802
 30
0.0
 10
195.865440613173
 20
607.2544356669265
 30
0.0
 10
191.6091183759549
 20
610.7191006950416
 30
0.0
 10
187.1604142482484
 20
613.9330133165687
 30
0.0
 10
182.5340827348722
 20
616.8855254060588
 30
0.0
 10
177.7454607409007
 20
619.5668078498599
 30
0.0
 10
172.8104482474624
 20
621.9681096157732
 30
0.0
 10
167.7453378924425
 20
624.080941566852
 30
0.0
 10
162.5672001685569
 20
625.9002589740293
 30
0.0
 10
157.2921875902926
 20
627.4127060162589
 30
0.0
 10
152.089781789049
 20
628.606588623259
 30
0.0
 10
148.6267903304441
 20
629.1519492510092
 30
0.0
 10
146.97034207911
 20
629.4128108988018
 30
0.0
  0
SPLINE
  5
87
330
1F
100
AcDbEntity
  8
0
  6
Continuous
 62
     7
370
    25
100
AcDbSpline
210
0.0
220
0.0
230
1.0
 70
     8
 71
     3
 72
    12
 73
     8
 74
     0
 42
0.000000001
 43
0.00000001
 40
0.0
 40
0.0
 40
0.0
 40
0.0
 40
0.1155172920865409
 40
0.3542222710900646
 40
0.5929616826830784
 40
0.8317011009449976
 40
1.0
 40
1.0
 40
1.0
 40
1.0
 10
-9.806562158023112
 20
623.2081880534703
 30
0.0
 10
-9.055401849692467
 20
623.3071240510294
 30
0.0
 10
-6.752043576973777
 20
623.6105014338859
 30
0.0
 10
-2.869311880535498
 20
623.8921023195461
 30
0.0
 10
1.829939042496075
 20
623.9262525094716
 30
0.0
 10
6.062982887980642
 20
623.6854345774717
 30
0.0
 10
8.711482174068061
 20
623.3477932489654
 30
0.0
 10
9.806562158023034
 20
623.2081880534704
 30
0.0
  0
SPLINE
  5
88
330
1F
100
AcDbEntity
  8
0
  6
Continuous
 62
     7
370
    25
100
AcDbSpline
210
0.0
220
0.0
230
1.0
 70
     8
 71
     3
 72
    13
 73
     9
 74
     0
 42
0.000000001
 43
0.00000001
 40
0.0
 40
0.0
 40
0.0
 40
0.0
 40
0.1155130502860952
 40
0.3199315040863793
 40
0.5243691883042267
 40
0.7288068823544582
 40
0.933244578081311
 40
1.0
 40
1.0
 40
1.0
 40
1.0
 10
13.37254325350335
 20
648.3566229715061
 30
0.0
 10
12.34823797160774
 20
648.4916715708414
 30
0.0
 10
9.511263892325415
 20
648.8657098410026
 30
0.0
 10
4.832051066625359
 20
649.2271837766172
 30
0.0
 10
-0.6542251649463696
 20
649.3516774757924
 30
0.0
 10
-6.138653400064763
 20
649.1526434052419
 30
0.0
 10
-10.37755828173111
 20
648.7634964315405
 30
0.0
 10
-12.78093991150175
 20
648.4369932241107
 30
0.0
 10
-13.37254325350346
 20
648.3566229715061
 30
0.0
  0
LINE
  5
95
330
1F
100
AcDbEntity
  8
0
  6
Continuous
 62
     7
370
    25
100
AcDbLine
 10
-218.9917030525
 20
173.3973399646
 30
0.0
 11
-144.4858485639
 21
107.95
 31
0.0
  0
LINE
  5
96
330
1F
100
AcDbEntity
  8
0
  6
Continuous
 62
     7
370
    25
100
AcDbLine
 10
-105.9985575398
 20
107.95
 30
0.0
 11
-202.2287669551
 21
192.4804207796
 31
0.0
  0
LINE
  5
97
330
1F
100
AcDbEntity
  8
0
  6
Continuous
 62
     7
370
    25
100
AcDbLine
 10
144.4858485639
 20
107.95
 30
0.0
 11
218.9917030525
 21
173.3973399646
 31
0.0
  0
LINE
  5
98
330
1F
100
AcDbEntity
  8
0
  6
Continuous
 62
     7
370
    25
100
AcDbLine
 10
202.2287669551
 20
192.4804207796
 30
0.0
 11
105.9985575398
 21
107.95
 31
0.0
  0
LINE
  5
99
330
1F
100
AcDbEntity
  8
0
  6
Continuous
 62
     7
370
    25
100
AcDbLine
 10
251.0944612429
 20
252.3326533827
 30
0.0
 11
228.5618763411
 21
542.4816721822
 31
0.0
  0
LINE
  5
9A
330
1F
100
AcDbEntity
  8
0
  6
Continuous
 62
     7
370
    25
100
AcDbLine
 10
203.2381236589
 20
540.5150634041
 30
0.0
 11
225.7707085606
 21
250.3660446045
 31
0.0
  0
LINE
  5
9B
330
1F
100
AcDbEntity
  8
0
  6
Continuous
 62
     7
370
    25
100
AcDbLine
 10
-228.5618763411
 20
542.4816721822
 30
0.0
 11
-251.0944612429
 21
252.3326533827
 31
0.0
  0
LINE
  5
9C
330
1F
100
AcDbEntity
  8
0
  6
Continuous
 62
     7
370
    25
100
AcDbLine
 10
-225.7707085606
 20
250.3660446045
 30
0.0
 11
-203.2381236589
 21
540.5150634041
 31
0.0
  0
LINE
  5
9D
330
1F
100
AcDbEntity
  8
0
  6
Continuous
 62
     7
370
    25
100
AcDbLine
 10
146.9703420791
 20
629.4128108988
 30
0.0
 11
13.3725432535
 21
648.3566229715
 31
0.0
  0
LINE
  5
9E
330
1F
100
AcDbEntity
  8
0
  6
Continuous
 62
     7
370
    25
100
AcDbLine
 10
9.806562158
 20
623.2081880535
 30
0.0
 11
143.4043609836
 21
604.2643759808
 31
0.0
  0
LINE
  5
9F
330
1F
100
AcDbEntity
  8
0
  6
Continuous
 62
     7
370
    25
100
AcDbLine
 10
-13.3725432535
 20
648.3566229715
 30
0.0
 11
-146.9703420791
 21
629.4128108988
 31
0.0
  0
LINE
  5
A0
330
1F
100
AcDbEntity
  8
0
  6
Continuous
 62
     7
370
    25
100
AcDbLine
 10
-143.4043609836
 20
604.2643759808
 30
0.0
 11
-9.806562158
 21
623.2081880535
 31
0.0
  0
LINE
  5
A1
330
1F
100
AcDbEntity
  8
0
  6
Continuous
 62
     7
370
    25
100
AcDbLine
 10
-105.9985575398
 20
107.95
 30
0.0
 11
-144.4857835867
 21
107.95
 31
0.0
  0
LINE
  5
A2
330
1F
100
AcDbEntity
  8
0
  6
Continuous
 62
     7
370
    25
100
AcDbLine
 10
144.4858485639
 20
107.95
 30
0.0
 11
105.998622517
 21
107.95
 31
0.0
  0
LINE
  5
A3
330
1F
100
AcDbEntity
  8
0
  6
Continuous
 62
     8
370
    25
100
AcDbLine
 10
-143.4043535344
 20
604.2647678403
 30
0.0
 11
-146.9703412097
 21
629.4128109465
 31
0.0
  0
LINE
  5
A4
330
1F
100
AcDbEntity
  8
0
  6
Continuous
 62
     8
370
    25
100
AcDbLine
 10
146.9703412108
 20
629.4128109466
 30
0.0
 11
143.4043535344
 21
604.2647678403
 31
0.0
  0
LINE
  5
A5
330
1F
100
AcDbEntity
  8
0
  6
Continuous
 62
     8
370
    25
100
AcDbLine
 10
13.3725432535
 20
648.3566229715
 30
0.0
 11
9.8065547088
 21
623.208579913
 31
0.0
  0
LINE
  5
A6
330
1F
100
AcDbEntity
  8
0
  6
Continuous
 62
     8
370
    25
100
AcDbLine
 10
-9.8065547088
 20
623.208579913
 30
0.0
 11
-13.3725432535
 21
648.3566229715
 31
0.0
  0
ARC
  5
A7
330
1F
100
AcDbEntity
  8
0
  6
Continuous
 62
     8
370
    25
100
AcDbCircle
 10
1027.1044916408
 20
-904.2929492595
 30
0.0
 40
1647.474456832899
100
AcDbArc
 50
138.261637286
 51
139.1450058916
  0
ARC
  5
A8
330
1F
100
AcDbEntity
  8
0
  6
Continuous
 62
     8
370
    25
100
AcDbCircle
 10
-1027.104491641
 20
-904.2929492597
 30
0.0
 40
1647.474456833211
100
AcDbArc
 50
40.8549941084
 51
41.738362714
  0
ARC
  5
A9
330
1F
100
AcDbEntity
  8
0
  6
Continuous
 62
     8
370
    25
100
AcDbCircle
 10
323.0044297859
 20
-837.7844525693
 30
0.0
 40
1092.486320047356
100
AcDbArc
 50
93.7740689316
 51
95.1062051136
  0
ARC
  5
AA
330
1F
100
AcDbEntity
  8
0
  6
Continuous
 62
     8
370
    25
100
AcDbCircle
 10
-323.0044290145
 20
-837.7844430201
 30
0.0
 40
1092.48631046743
100
AcDbArc
 50
84.8937948822
 51
86.2259310758
  0
ARC
  5
AB
330
1F
100
AcDbEntity
  8
0
  6
Continuous
 62
     8
370
    25
100
AcDbCircle
 10
300.466127777
 20
-547.5646618157
 30
0.0
 40
1092.41532012185
100
AcDbArc
 50
93.7740140468
 51
95.1062368156
  0
ARC
  5
AC
330
1F
100
AcDbEntity
  8
0
  6
Continuous
 62
     8
370
    25
100
AcDbCircle
 10
-300.466127777
 20
-547.5646618167
 30
0.0
 40
1092.415320122785
100
AcDbArc
 50
84.8937631844
 51
86.2259859532
  0
MTEXT
  5
AE
330
1F
100
AcDbEntity
  8
0
  6
Continuous
 62
     7
100
AcDbMText
 10
-251.3651989489
 20
106.9304336083
 30
0.0
 40
4.83362
 41
0.0
 71
     1
 72
     1
  1
SOLIDWORKS Educational Product.
  7
SLDTEXTSTYLE0
 73
     1
 44
1.0
  0
MTEXT
  5
AF
330
1F
100
AcDbEntity
  8
0
  6
Continuous
 62
     7
100
AcDbMText
 10
-251.3651989489
 20
99.6800036083
 30
0.0
 40
4.83362
 41
0.0
 71
     1
 72
     1
  1
For Instructional Use Only.
  7
SLDTEXTSTYLE0
 73
     1
 44
1.0
  0
ENDSEC
  0
SECTION
  2
OBJECTS
  0
DICTIONARY
  5
C
330
0
100
AcDbDictionary
281
     1
  3
ACAD_GROUP
350
D
  3
ACAD_LAYOUT
350
1A
  3
ACAD_MLINESTYLE
350
17
  3
ACAD_PLOTSETTINGS
350
19
  3
ACAD_PLOTSTYLENAME
350
E
  3
ACAD_SCALELIST
350
47
  0
DICTIONARY
  5
D
102
{ACAD_REACTORS
330
C
102
}
330
C
100
AcDbDictionary
281
     1
  0
DICTIONARY
  5
1A
102
{ACAD_REACTORS
330
C
102
}
330
C
100
AcDbDictionary
281
     1
  3
Layout1
350
1E
  3
Layout2
350
26
  3
Model
350
22
  0
DICTIONARY
  5
17
102
{ACAD_REACTORS
330
C
102
}
330
C
100
AcDbDictionary
281
     1
  3
Standard
350
18
  0
DICTIONARY
  5
19
102
{ACAD_REACTORS
330
C
102
}
330
C
100
AcDbDictionary
281
     1
  0
ACDBDICTIONARYWDFLT
  5
E
102
{ACAD_REACTORS
330
C
102
}
330
C
100
AcDbDictionary
281
     1
  3
Normal
350
F
100
AcDbDictionaryWithDefault
340
F
  0
DICTIONARY
  5
47
102
{ACAD_REACTORS
330
C
102
}
330
C
100
AcDbDictionary
281
     1
  3
A0
350
48
  3
A1
350
49
  3
A2
350
4A
  3
A3
350
4B
  3
A4
350
4C
  3
A5
350
4D
  3
A6
350
4E
  3
A7
350
4F
  3
A8
350
50
  3
A9
350
51
  3
B0
350
52
  3
B1
350
53
  3
B2
350
54
  3
B3
350
55
  3
B4
350
56
  3
B5
350
57
  3
B6
350
58
  3
B7
350
59
  3
B8
350
5A
  3
B9
350
5B
  3
C0
350
5C
  3
C1
350
5D
  3
C2
350
5E
  3
C3
350
5F
  3
C4
350
60
  3
C5
350
61
  3
C6
350
62
  3
C7
350
63
  3
C8
350
64
  3
C9
350
65
  3
D0
350
66
  3
D1
350
67
  3
D2
350
68
  0
LAYOUT
  5
1E
102
{ACAD_REACTORS
330
1A
102
}
330
1A
100
AcDbPlotSettings
  1

  2
none_device
  4

  6

 40
0.0
 41
0.0
 42
0.0
 43
0.0
 44
0.0
 45
0.0
 46
0.0
 47
0.0
 48
0.0
 49
0.0
140
0.0
141
0.0
142
1.0
143
1.0
 70
   688
 72
     1
 73
     0
 74
     5
  7

 75
    16
147
1.0
148
0.0
149
0.0
100
AcDbLayout
  1
Layout1
 70
     1
 71
     1
 10
0.0
 20
0.0
 11
420.0
 21
297.0
 12
0.0
 22
0.0
 32
0.0
 14
1.0000000000E+20
 24
1.0000000000E+20
 34
1.0000000000E+20
 15
-1.0000000000E+20
 25
-1.0000000000E+20
 35
-1.0000000000E+20
146
0.0
 13
0.0
 23
0.0
 33
0.0
 16
1.0
 26
0.0
 36
0.0
 17
0.0
 27
1.0
 37
0.0
 76
     0
330
1B
  0
LAYOUT
  5
26
102
{ACAD_REACTORS
330
1A
102
}
330
1A
100
AcDbPlotSettings
  1

  2
none_device
  4

  6

 40
0.0
 41
0.0
 42
0.0
 43
0.0
 44
0.0
 45
0.0
 46
0.0
 47
0.0
 48
0.0
 49
0.0
140
0.0
141
0.0
142
1.0
143
1.0
 70
   688
 72
     1
 73
     0
 74
     5
  7

 75
    16
147
1.0
148
0.0
149
0.0
100
AcDbLayout
  1
Layout2
 70
     1
 71
     2
 10
0.0
 20
0.0
 11
0.0
 21
0.0
 12
0.0
 22
0.0
 32
0.0
 14
0.0
 24
0.0
 34
0.0
 15
0.0
 25
0.0
 35
0.0
146
0.0
 13
0.0
 23
0.0
 33
0.0
 16
1.0
 26
0.0
 36
0.0
 17
0.0
 27
1.0
 37
0.0
 76
     0
330
23
  0
LAYOUT
  5
22
102
{ACAD_REACTORS
330
1A
102
}
330
1A
100
AcDbPlotSettings
  1

  2
none_device
  4
ANSI_A_(11.00_x_8.50_Inches)
  6

 40
6.35
 41
19.05
 42
6.35000508
 43
19.05000254
 44
279.4
 45
215.9
 46
133.3500244327
 47
-60.5923631578
 48
0.0
 49
0.0
140
0.0
141
0.0
142
0.0155444748
143
1.0
 70
  1696
 72
     0
 73
     0
 74
     0
  7

 75
     0
147
0.0179189148
148
-1300.4909072572
149
0.0
100
AcDbLayout
  1
Model
 70
     1
 71
     0
 10
0.0
 20
0.0
 11
420.0
 21
297.0
 12
0.0
 22
0.0
 32
0.0
 14
-251.3651989489
 24
107.95
 34
0.0
 15
251.3650623195
 25
649.2999065514
 35
0.0
146
0.0
 13
0.0
 23
0.0
 33
0.0
 16
1.0
 26
0.0
 36
0.0
 17
0.0
 27
1.0
 37
0.0
 76
     0
330
1F
331
29
  0
MLINESTYLE
  5
18
102
{ACAD_REACTORS
330
17
102
}
330
17
100
AcDbMlineStyle
  2
Standard
 70
     0
  3

 62
   256
 51
90.0
 52
90.0
 71
     2
 49
0.5
 62
   256
  6
BYLAYER
 49
-0.5
 62
   256
  6
BYLAYER
  0
ACDBPLACEHOLDER
  5
F
102
{ACAD_REACTORS
330
E
102
}
330
E
  0
SCALE
  5
48
102
{ACAD_REACTORS
330
47
102
}
330
47
100
AcDbScale
 70
     0
300
1:1
140
1.0
141
1.0
290
     1
  0
SCALE
  5
49
102
{ACAD_REACTORS
330
47
102
}
330
47
100
AcDbScale
 70
     0
300
1:2
140
1.0
141
2.0
290
     0
  0
SCALE
  5
4A
102
{ACAD_REACTORS
330
47
102
}
330
47
100
AcDbScale
 70
     0
300
1:4
140
1.0
141
4.0
290
     0
  0
SCALE
  5
4B
102
{ACAD_REACTORS
330
47
102
}
330
47
100
AcDbScale
 70
     0
300
1:5
140
1.0
141
5.0
290
     0
  0
SCALE
  5
4C
102
{ACAD_REACTORS
330
47
102
}
330
47
100
AcDbScale
 70
     0
300
1:8
140
1.0
141
8.0
290
     0
  0
SCALE
  5
4D
102
{ACAD_REACTORS
330
47
102
}
330
47
100
AcDbScale
 70
     0
300
1:10
140
1.0
141
10.0
290
     0
  0
SCALE
  5
4E
102
{ACAD_REACTORS
330
47
102
}
330
47
100
AcDbScale
 70
     0
300
1:16
140
1.0
141
16.0
290
     0
  0
SCALE
  5
4F
102
{ACAD_REACTORS
330
47
102
}
330
47
100
AcDbScale
 70
     0
300
1:20
140
1.0
141
20.0
290
     0
  0
SCALE
  5
50
102
{ACAD_REACTORS
330
47
102
}
330
47
100
AcDbScale
 70
     0
300
1:30
140
1.0
141
30.0
290
     0
  0
SCALE
  5
51
102
{ACAD_REACTORS
330
47
102
}
330
47
100
AcDbScale
 70
     0
300
1:40
140
1.0
141
40.0
290
     0
  0
SCALE
  5
52
102
{ACAD_REACTORS
330
47
102
}
330
47
100
AcDbScale
 70
     0
300
1:50
140
1.0
141
50.0
290
     0
  0
SCALE
  5
53
102
{ACAD_REACTORS
330
47
102
}
330
47
100
AcDbScale
 70
     0
300
1:100
140
1.0
141
100.0
290
     0
  0
SCALE
  5
54
102
{ACAD_REACTORS
330
47
102
}
330
47
100
AcDbScale
 70
     0
300
2:1
140
2.0
141
1.0
290
     0
  0
SCALE
  5
55
102
{ACAD_REACTORS
330
47
102
}
330
47
100
AcDbScale
 70
     0
300
4:1
140
4.0
141
1.0
290
     0
  0
SCALE
  5
56
102
{ACAD_REACTORS
330
47
102
}
330
47
100
AcDbScale
 70
     0
300
8:1
140
8.0
141
1.0
290
     0
  0
SCALE
  5
57
102
{ACAD_REACTORS
330
47
102
}
330
47
100
AcDbScale
 70
     0
300
10:1
140
10.0
141
1.0
290
     0
  0
SCALE
  5
58
102
{ACAD_REACTORS
330
47
102
}
330
47
100
AcDbScale
 70
     0
300
100:1
140
100.0
141
1.0
290
     0
  0
SCALE
  5
59
102
{ACAD_REACTORS
330
47
102
}
330
47
100
AcDbScale
 70
     0
300
1/128" = 1'-0"
140
0.0078125
141
12.0
290
     0
  0
SCALE
  5
5A
102
{ACAD_REACTORS
330
47
102
}
330
47
100
AcDbScale
 70
     0
300
1/64" = 1'-0"
140
0.015625
141
12.0
290
     0
  0
SCALE
  5
5B
102
{ACAD_REACTORS
330
47
102
}
330
47
100
AcDbScale
 70
     0
300
1/32" = 1'-0"
140
0.03125
141
12.0
290
     0
  0
SCALE
  5
5C
102
{ACAD_REACTORS
330
47
102
}
330
47
100
AcDbScale
 70
     0
300
1/16" = 1'-0"
140
0.0625
141
12.0
290
     0
  0
SCALE
  5
5D
102
{ACAD_REACTORS
330
47
102
}
330
47
100
AcDbScale
 70
     0
300
3/32" = 1'-0"
140
0.09375
141
12.0
290
     0
  0
SCALE
  5
5E
102
{ACAD_REACTORS
330
47
102
}
330
47
100
AcDbScale
 70
     0
300
1/8" = 1'-0"
140
0.125
141
12.0
290
     0
  0
SCALE
  5
5F
102
{ACAD_REACTORS
330
47
102
}
330
47
100
AcDbScale
 70
     0
300
3/16" = 1'-0"
140
0.1875
141
12.0
290
     0
  0
SCALE
  5
60
102
{ACAD_REACTORS
330
47
102
}
330
47
100
AcDbScale
 70
     0
300
1/4" = 1'-0"
140
0.25
141
12.0
290
     0
  0
SCALE
  5
61
102
{ACAD_REACTORS
330
47
102
}
330
47
100
AcDbScale
 70
     0
300
3/8" = 1'-0"
140
0.375
141
12.0
290
     0
  0
SCALE
  5
62
102
{ACAD_REACTORS
330
47
102
}
330
47
100
AcDbScale
 70
     0
300
1/2" = 1'-0"
140
0.5
141
12.0
290
     0
  0
SCALE
  5
63
102
{ACAD_REACTORS
330
47
102
}
330
47
100
AcDbScale
 70
     0
300
3/4" = 1'-0"
140
0.75
141
12.0
290
     0
  0
SCALE
  5
64
102
{ACAD_REACTORS
330
47
102
}
330
47
100
AcDbScale
 70
     0
300
1" = 1'-0"
140
1.0
141
12.0
290
     0
  0
SCALE
  5
65
102
{ACAD_REACTORS
330
47
102
}
330
47
100
AcDbScale
 70
     0
300
1-1/2" = 1'-0"
140
1.5
141
12.0
290
     0
  0
SCALE
  5
66
102
{ACAD_REACTORS
330
47
102
}
330
47
100
AcDbScale
 70
     0
300
3" = 1'-0"
140
3.0
141
12.0
290
     0
  0
SCALE
  5
67
102
{ACAD_REACTORS
330
47
102
}
330
47
100
AcDbScale
 70
     0
300
6" = 1'-0"
140
6.0
141
12.0
290
     0
  0
SCALE
  5
68
102
{ACAD_REACTORS
330
47
102
}
330
47
100
AcDbScale
 70
     0
300
1'-0" = 1'-0"
140
12.0
141
12.0
290
     0
  0
ENDSEC
  0
EOF
