G04 EAGLE Gerber RS-274X export*
G75*
%MOMM*%
%FSLAX34Y34*%
%LPD*%
%INBottom Copper*%
%IPPOS*%
%AMOC8*
5,1,8,0,0,1.08239X$1,22.5*%
G01*
%ADD10C,1.524000*%
%ADD11R,1.879600X1.879600*%
%ADD12C,1.879600*%
%ADD13C,1.308000*%
%ADD14C,1.508000*%
%ADD15C,0.756400*%
%ADD16C,0.254000*%


D10*
X130810Y388620D02*
X146050Y388620D01*
X146050Y363220D02*
X130810Y363220D01*
X186690Y388620D02*
X201930Y388620D01*
X201930Y363220D02*
X186690Y363220D01*
X817880Y402590D02*
X817880Y417830D01*
X843280Y417830D02*
X843280Y402590D01*
X817880Y436880D02*
X817880Y452120D01*
X843280Y452120D02*
X843280Y436880D01*
X762000Y690880D02*
X746760Y690880D01*
X746760Y716280D02*
X762000Y716280D01*
X728980Y690880D02*
X713740Y690880D01*
X713740Y716280D02*
X728980Y716280D01*
X330200Y389890D02*
X314960Y389890D01*
X314960Y364490D02*
X330200Y364490D01*
X295910Y389890D02*
X280670Y389890D01*
X280670Y364490D02*
X295910Y364490D01*
X109220Y388620D02*
X93980Y388620D01*
X93980Y363220D02*
X109220Y363220D01*
X838200Y276860D02*
X838200Y261620D01*
X863600Y261620D02*
X863600Y276860D01*
X838200Y299720D02*
X838200Y314960D01*
X863600Y314960D02*
X863600Y299720D01*
X914400Y685800D02*
X929640Y685800D01*
X929640Y711200D02*
X914400Y711200D01*
X896620Y685800D02*
X881380Y685800D01*
X881380Y711200D02*
X896620Y711200D01*
X416560Y389890D02*
X401320Y389890D01*
X401320Y364490D02*
X416560Y364490D01*
X383540Y389890D02*
X368300Y389890D01*
X368300Y364490D02*
X383540Y364490D01*
X835660Y144780D02*
X835660Y129540D01*
X861060Y129540D02*
X861060Y144780D01*
X835660Y165100D02*
X835660Y180340D01*
X861060Y180340D02*
X861060Y165100D01*
X1074420Y668020D02*
X1089660Y668020D01*
X1089660Y693420D02*
X1074420Y693420D01*
X1054100Y668020D02*
X1038860Y668020D01*
X1038860Y693420D02*
X1054100Y693420D01*
X520700Y259080D02*
X505460Y259080D01*
X505460Y233680D02*
X520700Y233680D01*
X482600Y259080D02*
X467360Y259080D01*
X467360Y233680D02*
X482600Y233680D01*
X652780Y259080D02*
X668020Y259080D01*
X668020Y233680D02*
X652780Y233680D01*
X629920Y259080D02*
X614680Y259080D01*
X614680Y233680D02*
X629920Y233680D01*
X721360Y259080D02*
X736600Y259080D01*
X736600Y233680D02*
X721360Y233680D01*
X703580Y259080D02*
X688340Y259080D01*
X688340Y233680D02*
X703580Y233680D01*
X556260Y259080D02*
X541020Y259080D01*
X541020Y233680D02*
X556260Y233680D01*
X579120Y259080D02*
X594360Y259080D01*
X594360Y233680D02*
X579120Y233680D01*
X825500Y551180D02*
X825500Y566420D01*
X850900Y566420D02*
X850900Y551180D01*
X825500Y586740D02*
X825500Y601980D01*
X850900Y601980D02*
X850900Y586740D01*
X582930Y683260D02*
X567690Y683260D01*
X567690Y708660D02*
X582930Y708660D01*
X549910Y683260D02*
X534670Y683260D01*
X534670Y708660D02*
X549910Y708660D01*
X238760Y388620D02*
X223520Y388620D01*
X223520Y363220D02*
X238760Y363220D01*
D11*
X83820Y167640D03*
D12*
X109220Y167640D03*
X134620Y167640D03*
D13*
X393700Y176340D02*
X393700Y189420D01*
X698500Y189420D02*
X698500Y176340D01*
X673100Y176340D02*
X673100Y189420D01*
X647700Y189420D02*
X647700Y176340D01*
X622300Y176340D02*
X622300Y189420D01*
X596900Y189420D02*
X596900Y176340D01*
X571500Y176340D02*
X571500Y189420D01*
X546100Y189420D02*
X546100Y176340D01*
X520700Y176340D02*
X520700Y189420D01*
X495300Y189420D02*
X495300Y176340D01*
X469900Y176340D02*
X469900Y189420D01*
X698500Y37020D02*
X698500Y23940D01*
X673100Y23940D02*
X673100Y37020D01*
X520700Y37020D02*
X520700Y23940D01*
X495300Y23940D02*
X495300Y37020D01*
X469900Y37020D02*
X469900Y23940D01*
X444500Y23940D02*
X444500Y37020D01*
X368300Y37020D02*
X368300Y23940D01*
X368300Y176340D02*
X368300Y189420D01*
X419100Y189420D02*
X419100Y176340D01*
X444500Y176340D02*
X444500Y189420D01*
X393700Y37020D02*
X393700Y23940D01*
X419100Y23940D02*
X419100Y37020D01*
X647700Y37020D02*
X647700Y23940D01*
X546100Y23940D02*
X546100Y37020D01*
X571500Y37020D02*
X571500Y23940D01*
X596900Y23940D02*
X596900Y37020D01*
X622300Y37020D02*
X622300Y23940D01*
D14*
X504190Y532638D03*
X524764Y522732D03*
X538988Y504952D03*
X544322Y482600D03*
X538988Y460248D03*
X524764Y442468D03*
X504190Y432562D03*
X481330Y432562D03*
X460756Y442468D03*
X446532Y460248D03*
X441198Y482600D03*
X460756Y522732D03*
X481330Y532638D03*
X504190Y509778D03*
X522478Y489204D03*
X516382Y463550D03*
X469138Y463550D03*
X463042Y489204D03*
X481330Y509778D03*
X492760Y474980D03*
X492760Y452120D03*
X446532Y504952D03*
D10*
X1426210Y388620D02*
X1441450Y388620D01*
X1441450Y363220D02*
X1426210Y363220D01*
X1482090Y388620D02*
X1497330Y388620D01*
X1497330Y363220D02*
X1482090Y363220D01*
X2113280Y402590D02*
X2113280Y417830D01*
X2138680Y417830D02*
X2138680Y402590D01*
X2113280Y436880D02*
X2113280Y452120D01*
X2138680Y452120D02*
X2138680Y436880D01*
X2057400Y690880D02*
X2042160Y690880D01*
X2042160Y716280D02*
X2057400Y716280D01*
X2024380Y690880D02*
X2009140Y690880D01*
X2009140Y716280D02*
X2024380Y716280D01*
X1625600Y389890D02*
X1610360Y389890D01*
X1610360Y364490D02*
X1625600Y364490D01*
X1591310Y389890D02*
X1576070Y389890D01*
X1576070Y364490D02*
X1591310Y364490D01*
X1404620Y388620D02*
X1389380Y388620D01*
X1389380Y363220D02*
X1404620Y363220D01*
X2133600Y276860D02*
X2133600Y261620D01*
X2159000Y261620D02*
X2159000Y276860D01*
X2133600Y299720D02*
X2133600Y314960D01*
X2159000Y314960D02*
X2159000Y299720D01*
X2209800Y685800D02*
X2225040Y685800D01*
X2225040Y711200D02*
X2209800Y711200D01*
X2192020Y685800D02*
X2176780Y685800D01*
X2176780Y711200D02*
X2192020Y711200D01*
X1711960Y389890D02*
X1696720Y389890D01*
X1696720Y364490D02*
X1711960Y364490D01*
X1678940Y389890D02*
X1663700Y389890D01*
X1663700Y364490D02*
X1678940Y364490D01*
X2131060Y144780D02*
X2131060Y129540D01*
X2156460Y129540D02*
X2156460Y144780D01*
X2131060Y165100D02*
X2131060Y180340D01*
X2156460Y180340D02*
X2156460Y165100D01*
X2369820Y668020D02*
X2385060Y668020D01*
X2385060Y693420D02*
X2369820Y693420D01*
X2349500Y668020D02*
X2334260Y668020D01*
X2334260Y693420D02*
X2349500Y693420D01*
X1816100Y259080D02*
X1800860Y259080D01*
X1800860Y233680D02*
X1816100Y233680D01*
X1778000Y259080D02*
X1762760Y259080D01*
X1762760Y233680D02*
X1778000Y233680D01*
X1948180Y259080D02*
X1963420Y259080D01*
X1963420Y233680D02*
X1948180Y233680D01*
X1925320Y259080D02*
X1910080Y259080D01*
X1910080Y233680D02*
X1925320Y233680D01*
X2016760Y259080D02*
X2032000Y259080D01*
X2032000Y233680D02*
X2016760Y233680D01*
X1998980Y259080D02*
X1983740Y259080D01*
X1983740Y233680D02*
X1998980Y233680D01*
X1851660Y259080D02*
X1836420Y259080D01*
X1836420Y233680D02*
X1851660Y233680D01*
X1874520Y259080D02*
X1889760Y259080D01*
X1889760Y233680D02*
X1874520Y233680D01*
X2120900Y551180D02*
X2120900Y566420D01*
X2146300Y566420D02*
X2146300Y551180D01*
X2120900Y586740D02*
X2120900Y601980D01*
X2146300Y601980D02*
X2146300Y586740D01*
X1878330Y683260D02*
X1863090Y683260D01*
X1863090Y708660D02*
X1878330Y708660D01*
X1845310Y683260D02*
X1830070Y683260D01*
X1830070Y708660D02*
X1845310Y708660D01*
X1534160Y388620D02*
X1518920Y388620D01*
X1518920Y363220D02*
X1534160Y363220D01*
D11*
X1379220Y167640D03*
D12*
X1404620Y167640D03*
X1430020Y167640D03*
D13*
X1689100Y176340D02*
X1689100Y189420D01*
X1993900Y189420D02*
X1993900Y176340D01*
X1968500Y176340D02*
X1968500Y189420D01*
X1943100Y189420D02*
X1943100Y176340D01*
X1917700Y176340D02*
X1917700Y189420D01*
X1892300Y189420D02*
X1892300Y176340D01*
X1866900Y176340D02*
X1866900Y189420D01*
X1841500Y189420D02*
X1841500Y176340D01*
X1816100Y176340D02*
X1816100Y189420D01*
X1790700Y189420D02*
X1790700Y176340D01*
X1765300Y176340D02*
X1765300Y189420D01*
X1993900Y37020D02*
X1993900Y23940D01*
X1968500Y23940D02*
X1968500Y37020D01*
X1816100Y37020D02*
X1816100Y23940D01*
X1790700Y23940D02*
X1790700Y37020D01*
X1765300Y37020D02*
X1765300Y23940D01*
X1739900Y23940D02*
X1739900Y37020D01*
X1663700Y37020D02*
X1663700Y23940D01*
X1663700Y176340D02*
X1663700Y189420D01*
X1714500Y189420D02*
X1714500Y176340D01*
X1739900Y176340D02*
X1739900Y189420D01*
X1689100Y37020D02*
X1689100Y23940D01*
X1714500Y23940D02*
X1714500Y37020D01*
X1943100Y37020D02*
X1943100Y23940D01*
X1841500Y23940D02*
X1841500Y37020D01*
X1866900Y37020D02*
X1866900Y23940D01*
X1892300Y23940D02*
X1892300Y37020D01*
X1917700Y37020D02*
X1917700Y23940D01*
D14*
X1799590Y532638D03*
X1820164Y522732D03*
X1834388Y504952D03*
X1839722Y482600D03*
X1834388Y460248D03*
X1820164Y442468D03*
X1799590Y432562D03*
X1776730Y432562D03*
X1756156Y442468D03*
X1741932Y460248D03*
X1736598Y482600D03*
X1756156Y522732D03*
X1776730Y532638D03*
X1799590Y509778D03*
X1817878Y489204D03*
X1811782Y463550D03*
X1764538Y463550D03*
X1758442Y489204D03*
X1776730Y509778D03*
X1788160Y474980D03*
X1788160Y452120D03*
X1741932Y504952D03*
D10*
X2719070Y388620D02*
X2734310Y388620D01*
X2734310Y363220D02*
X2719070Y363220D01*
X2774950Y388620D02*
X2790190Y388620D01*
X2790190Y363220D02*
X2774950Y363220D01*
X3406140Y402590D02*
X3406140Y417830D01*
X3431540Y417830D02*
X3431540Y402590D01*
X3406140Y436880D02*
X3406140Y452120D01*
X3431540Y452120D02*
X3431540Y436880D01*
X3350260Y690880D02*
X3335020Y690880D01*
X3335020Y716280D02*
X3350260Y716280D01*
X3317240Y690880D02*
X3302000Y690880D01*
X3302000Y716280D02*
X3317240Y716280D01*
X2918460Y389890D02*
X2903220Y389890D01*
X2903220Y364490D02*
X2918460Y364490D01*
X2884170Y389890D02*
X2868930Y389890D01*
X2868930Y364490D02*
X2884170Y364490D01*
X2697480Y388620D02*
X2682240Y388620D01*
X2682240Y363220D02*
X2697480Y363220D01*
X3426460Y276860D02*
X3426460Y261620D01*
X3451860Y261620D02*
X3451860Y276860D01*
X3426460Y299720D02*
X3426460Y314960D01*
X3451860Y314960D02*
X3451860Y299720D01*
X3502660Y685800D02*
X3517900Y685800D01*
X3517900Y711200D02*
X3502660Y711200D01*
X3484880Y685800D02*
X3469640Y685800D01*
X3469640Y711200D02*
X3484880Y711200D01*
X3004820Y389890D02*
X2989580Y389890D01*
X2989580Y364490D02*
X3004820Y364490D01*
X2971800Y389890D02*
X2956560Y389890D01*
X2956560Y364490D02*
X2971800Y364490D01*
X3423920Y144780D02*
X3423920Y129540D01*
X3449320Y129540D02*
X3449320Y144780D01*
X3423920Y165100D02*
X3423920Y180340D01*
X3449320Y180340D02*
X3449320Y165100D01*
X3662680Y668020D02*
X3677920Y668020D01*
X3677920Y693420D02*
X3662680Y693420D01*
X3642360Y668020D02*
X3627120Y668020D01*
X3627120Y693420D02*
X3642360Y693420D01*
X3108960Y259080D02*
X3093720Y259080D01*
X3093720Y233680D02*
X3108960Y233680D01*
X3070860Y259080D02*
X3055620Y259080D01*
X3055620Y233680D02*
X3070860Y233680D01*
X3241040Y259080D02*
X3256280Y259080D01*
X3256280Y233680D02*
X3241040Y233680D01*
X3218180Y259080D02*
X3202940Y259080D01*
X3202940Y233680D02*
X3218180Y233680D01*
X3309620Y259080D02*
X3324860Y259080D01*
X3324860Y233680D02*
X3309620Y233680D01*
X3291840Y259080D02*
X3276600Y259080D01*
X3276600Y233680D02*
X3291840Y233680D01*
X3144520Y259080D02*
X3129280Y259080D01*
X3129280Y233680D02*
X3144520Y233680D01*
X3167380Y259080D02*
X3182620Y259080D01*
X3182620Y233680D02*
X3167380Y233680D01*
X3413760Y551180D02*
X3413760Y566420D01*
X3439160Y566420D02*
X3439160Y551180D01*
X3413760Y586740D02*
X3413760Y601980D01*
X3439160Y601980D02*
X3439160Y586740D01*
X3171190Y683260D02*
X3155950Y683260D01*
X3155950Y708660D02*
X3171190Y708660D01*
X3138170Y683260D02*
X3122930Y683260D01*
X3122930Y708660D02*
X3138170Y708660D01*
X2827020Y388620D02*
X2811780Y388620D01*
X2811780Y363220D02*
X2827020Y363220D01*
D11*
X2672080Y167640D03*
D12*
X2697480Y167640D03*
X2722880Y167640D03*
D13*
X2981960Y176340D02*
X2981960Y189420D01*
X3286760Y189420D02*
X3286760Y176340D01*
X3261360Y176340D02*
X3261360Y189420D01*
X3235960Y189420D02*
X3235960Y176340D01*
X3210560Y176340D02*
X3210560Y189420D01*
X3185160Y189420D02*
X3185160Y176340D01*
X3159760Y176340D02*
X3159760Y189420D01*
X3134360Y189420D02*
X3134360Y176340D01*
X3108960Y176340D02*
X3108960Y189420D01*
X3083560Y189420D02*
X3083560Y176340D01*
X3058160Y176340D02*
X3058160Y189420D01*
X3286760Y37020D02*
X3286760Y23940D01*
X3261360Y23940D02*
X3261360Y37020D01*
X3108960Y37020D02*
X3108960Y23940D01*
X3083560Y23940D02*
X3083560Y37020D01*
X3058160Y37020D02*
X3058160Y23940D01*
X3032760Y23940D02*
X3032760Y37020D01*
X2956560Y37020D02*
X2956560Y23940D01*
X2956560Y176340D02*
X2956560Y189420D01*
X3007360Y189420D02*
X3007360Y176340D01*
X3032760Y176340D02*
X3032760Y189420D01*
X2981960Y37020D02*
X2981960Y23940D01*
X3007360Y23940D02*
X3007360Y37020D01*
X3235960Y37020D02*
X3235960Y23940D01*
X3134360Y23940D02*
X3134360Y37020D01*
X3159760Y37020D02*
X3159760Y23940D01*
X3185160Y23940D02*
X3185160Y37020D01*
X3210560Y37020D02*
X3210560Y23940D01*
D14*
X3092450Y532638D03*
X3113024Y522732D03*
X3127248Y504952D03*
X3132582Y482600D03*
X3127248Y460248D03*
X3113024Y442468D03*
X3092450Y432562D03*
X3069590Y432562D03*
X3049016Y442468D03*
X3034792Y460248D03*
X3029458Y482600D03*
X3049016Y522732D03*
X3069590Y532638D03*
X3092450Y509778D03*
X3110738Y489204D03*
X3104642Y463550D03*
X3057398Y463550D03*
X3051302Y489204D03*
X3069590Y509778D03*
X3081020Y474980D03*
X3081020Y452120D03*
X3034792Y504952D03*
D15*
X558800Y106680D03*
X533400Y55880D03*
D16*
X393700Y55880D01*
X368300Y30480D01*
D15*
X457200Y93980D03*
D16*
X431800Y93980D01*
X558800Y106680D02*
X558800Y81280D01*
X533400Y55880D01*
X431800Y93980D02*
X393700Y55880D01*
X368300Y30480D02*
X213360Y30480D01*
X109220Y134620D01*
X109220Y167640D01*
D15*
X177800Y299720D03*
X254000Y299720D03*
X340360Y304800D03*
X426720Y304800D03*
D16*
X238760Y299720D02*
X177800Y299720D01*
X254000Y299720D02*
X320040Y299720D01*
X340360Y304800D02*
X360680Y304800D01*
X426720Y304800D01*
X243840Y299720D02*
X238760Y299720D01*
X320040Y299720D02*
X335280Y299720D01*
X335280Y304800D01*
X340360Y304800D01*
X254000Y299720D02*
X243840Y299720D01*
D15*
X365760Y533400D03*
D16*
X355600Y533400D01*
X330200Y508000D01*
X330200Y487680D01*
D15*
X330200Y487680D03*
X411480Y645160D03*
D16*
X411480Y635000D02*
X416560Y629920D01*
X436880Y629920D01*
X441960Y624840D01*
X441960Y599440D01*
D15*
X441960Y599440D03*
X965200Y624840D03*
D16*
X969010Y624840D02*
X969010Y577850D01*
D15*
X969010Y577850D03*
D16*
X969010Y624840D02*
X965200Y624840D01*
D15*
X975360Y452120D03*
D16*
X975360Y436880D01*
X970280Y431800D01*
D15*
X970280Y431800D03*
X995680Y309880D03*
D16*
X980440Y294640D01*
X980440Y284480D01*
D15*
X980440Y284480D03*
X995680Y172720D03*
D16*
X980440Y157480D01*
X980440Y147426D01*
D15*
X980440Y147426D03*
X706120Y868680D03*
D16*
X726440Y868680D01*
X731520Y863600D01*
D15*
X731520Y863600D03*
X878840Y863600D03*
D16*
X894080Y863600D01*
X904240Y853440D01*
D15*
X904240Y853440D03*
D16*
X411480Y645160D02*
X411480Y635000D01*
D15*
X1036320Y858520D03*
D16*
X1051560Y858520D01*
X1061720Y848360D01*
D15*
X1061720Y848360D03*
X599440Y756920D03*
D16*
X592864Y750344D01*
X592864Y726440D01*
D15*
X592864Y726440D03*
X770664Y736600D03*
D16*
X772160Y738096D01*
X772160Y767080D01*
D15*
X772160Y767080D03*
X935990Y723900D03*
D16*
X936625Y724535D01*
X939800Y727710D01*
X939800Y762000D01*
D15*
X939800Y762000D03*
X1100864Y711200D03*
D16*
X1102360Y712696D01*
X1102360Y751840D01*
D15*
X1102360Y751840D03*
X543560Y863600D03*
D16*
X568960Y863600D01*
X574040Y858520D01*
D15*
X574040Y858520D03*
D16*
X330200Y487680D02*
X330200Y462280D01*
X264160Y396240D01*
X264160Y355600D01*
X360680Y309880D02*
X360680Y304800D01*
X279400Y340360D02*
X264160Y355600D01*
X279400Y340360D02*
X330200Y340360D01*
X360680Y309880D01*
X965200Y624840D02*
X965200Y690880D01*
X936625Y719455D01*
X936625Y724535D01*
D15*
X528320Y614680D03*
D16*
X520700Y622300D01*
X518160Y624840D01*
X441960Y624840D01*
X518160Y624840D02*
X518160Y714784D01*
X532356Y728980D01*
D15*
X542516Y728980D03*
D16*
X532356Y728980D01*
X529045Y452802D02*
X520484Y452802D01*
X529045Y452802D02*
X543560Y438287D01*
X519802Y452120D02*
X492760Y452120D01*
X519802Y452120D02*
X520484Y452802D01*
X543560Y438287D02*
X543560Y360680D01*
X431800Y248920D01*
X431800Y233680D01*
D15*
X431800Y233680D03*
X447040Y233680D03*
D16*
X447040Y254000D01*
X553720Y360680D02*
X553720Y462280D01*
X543734Y472266D01*
X540042Y472266D01*
X539868Y472440D01*
X538480Y472440D01*
X532050Y478870D01*
X496650Y478870D02*
X492760Y474980D01*
X553720Y360680D02*
X447040Y254000D01*
X496650Y478870D02*
X532050Y478870D01*
X71120Y411480D02*
X71120Y167640D01*
X83820Y167640D01*
X457534Y533066D02*
X465037Y533066D01*
X495945Y509778D02*
X504190Y509778D01*
X495945Y509778D02*
X495241Y510481D01*
X485611Y520112D01*
X477991Y520112D01*
X465037Y533066D01*
X450624Y539976D02*
X199616Y539976D01*
X450624Y539976D02*
X457534Y533066D01*
X199616Y539976D02*
X71120Y411480D01*
X481330Y509778D02*
X494538Y509778D01*
X495241Y510481D01*
X494284Y489204D02*
X463042Y489204D01*
X494284Y489204D02*
X502920Y497840D01*
X516500Y497840D01*
X518198Y499538D01*
X548603Y492934D02*
X554656Y486881D01*
X554656Y486744D01*
X529788Y499538D02*
X518198Y499538D01*
X529788Y499538D02*
X536392Y492934D01*
X548603Y492934D01*
D15*
X746760Y96520D03*
D16*
X762254Y112014D02*
X762254Y279146D01*
X554656Y486744D01*
X762254Y112014D02*
X746760Y96520D01*
D15*
X762000Y76200D03*
D16*
X746760Y76200D01*
X736600Y86360D01*
X736600Y101600D02*
X751840Y116840D01*
X751840Y279400D01*
D15*
X563880Y467360D03*
D16*
X736600Y101600D02*
X736600Y86360D01*
X751840Y279400D02*
X563880Y467360D01*
D15*
X421640Y718820D03*
D16*
X337820Y718820D01*
X30480Y411480D01*
X30480Y116840D01*
X86360Y60960D01*
X127000Y60960D01*
D15*
X127000Y60960D03*
X462280Y152400D03*
D16*
X452120Y142240D01*
X335280Y142240D01*
D15*
X335280Y142240D03*
X495300Y93980D03*
D16*
X469900Y93980D02*
X457200Y106680D01*
X452120Y106680D01*
X393700Y106680D01*
X368300Y132080D01*
X469900Y93980D02*
X495300Y93980D01*
X170180Y132080D02*
X134620Y167640D01*
D15*
X452120Y106680D03*
D16*
X323850Y153670D02*
X302260Y132080D01*
X323850Y153670D02*
X353060Y182880D01*
X368300Y132080D02*
X302260Y132080D01*
X170180Y132080D01*
X353060Y182880D02*
X368300Y182880D01*
D15*
X579120Y599440D03*
X421640Y467360D03*
D16*
X436880Y467360D01*
X441786Y472266D01*
X462106Y472266D02*
X467360Y477520D01*
X472440Y477520D01*
X485314Y464646D02*
X500206Y464646D01*
X485314Y464646D02*
X472440Y477520D01*
X509444Y473884D02*
X525352Y473884D01*
X509444Y473884D02*
X500206Y464646D01*
X525352Y473884D02*
X538988Y460248D01*
X462106Y472266D02*
X441786Y472266D01*
X579120Y599440D02*
X701040Y599440D01*
X775335Y533400D01*
X800100Y533400D01*
X825500Y558800D01*
D15*
X563880Y609600D03*
D16*
X708660Y609600D01*
X774700Y543560D01*
X795020Y543560D01*
X810260Y558800D01*
X810260Y579120D01*
X825500Y594360D01*
D15*
X335280Y177800D03*
D16*
X264160Y177800D02*
X242824Y199136D01*
X226917Y199136D01*
X222853Y203200D02*
X91440Y203200D01*
X222853Y203200D02*
X226917Y199136D01*
X91440Y203200D02*
X91440Y299720D01*
D15*
X91440Y299720D03*
D16*
X96520Y304800D01*
X96520Y309880D02*
X162560Y309880D01*
X177800Y309880D01*
X187960Y330200D02*
X193040Y330200D01*
X274320Y330200D01*
X284480Y330200D01*
X299720Y314960D02*
X345440Y314960D01*
X96520Y309880D02*
X96520Y304800D01*
D15*
X345440Y314960D03*
D16*
X187960Y320040D02*
X187960Y330200D01*
D15*
X187960Y320040D03*
D16*
X274320Y320040D02*
X274320Y330200D01*
D15*
X274320Y320040D03*
D16*
X284480Y330200D02*
X299720Y314960D01*
X335280Y177800D02*
X264160Y177800D01*
X177800Y309880D02*
X187960Y320040D01*
D15*
X647700Y93980D03*
D16*
X698500Y43180D01*
X698500Y30480D01*
D15*
X502920Y213360D03*
D16*
X406400Y213360D01*
X400050Y219710D01*
D15*
X400050Y219710D03*
X107950Y227330D03*
X201930Y227330D03*
X285750Y227330D03*
X374650Y227330D03*
D16*
X201930Y227330D02*
X107950Y227330D01*
X201930Y227330D02*
X285750Y227330D01*
X374650Y227330D01*
X533400Y170180D02*
X546100Y157480D01*
X685800Y157480D01*
X508000Y220980D02*
X412750Y220980D01*
X508000Y220980D02*
X533400Y195580D01*
X533400Y170180D01*
X698500Y170180D02*
X698500Y182880D01*
X698500Y170180D02*
X685800Y157480D01*
X412750Y220980D02*
X406400Y227330D01*
X374650Y227330D01*
D15*
X904240Y553720D03*
D16*
X987426Y553720D01*
X1036320Y602614D01*
D15*
X1036320Y602614D03*
X213360Y218440D03*
D16*
X594360Y33020D02*
X596900Y30480D01*
X594360Y33020D02*
X594360Y111760D01*
X574040Y132080D01*
X477520Y162560D02*
X386080Y162560D01*
X381000Y167640D01*
X381000Y198120D02*
X375920Y203200D01*
X228600Y203200D01*
X213360Y218440D01*
X508000Y132080D02*
X574040Y132080D01*
X508000Y132080D02*
X477520Y162560D01*
X381000Y167640D02*
X381000Y198120D01*
D15*
X299720Y218440D03*
D16*
X309880Y208280D01*
X391160Y208280D02*
X396240Y203200D01*
X477520Y203200D02*
X482600Y198120D01*
X482600Y172720D01*
X497840Y157480D01*
X502920Y157480D01*
X523240Y137160D01*
X604520Y137160D02*
X622300Y119380D01*
X622300Y30480D01*
X391160Y208280D02*
X309880Y208280D01*
X396240Y203200D02*
X477520Y203200D01*
X523240Y137160D02*
X604520Y137160D01*
X635000Y43180D02*
X647700Y30480D01*
X635000Y43180D02*
X635000Y132080D01*
X622300Y144780D01*
X533400Y144780D02*
X508000Y170180D01*
X508000Y195580D01*
X533400Y144780D02*
X622300Y144780D01*
D15*
X387350Y219710D03*
D16*
X398780Y208280D01*
X495300Y208280D01*
X508000Y195580D01*
X546100Y198120D02*
X546100Y182880D01*
X513080Y233680D02*
X474980Y233680D01*
X513080Y233680D02*
X513080Y231140D01*
X546100Y198120D01*
X571500Y182880D02*
X571500Y231140D01*
X568960Y231140D01*
X551180Y231140D01*
X548640Y233680D01*
X568960Y231140D02*
X584200Y231140D01*
X586740Y233680D01*
X622300Y233680D02*
X647700Y233680D01*
X660400Y233680D01*
X596900Y208280D02*
X596900Y182880D01*
X596900Y208280D02*
X622300Y233680D01*
X622300Y200660D02*
X622300Y182880D01*
X622300Y200660D02*
X640080Y218440D01*
X680720Y218440D01*
X695960Y233680D01*
X728980Y233680D01*
D15*
X772160Y563880D03*
D16*
X635000Y701040D01*
X635000Y822758D02*
X554254Y903504D01*
D15*
X554254Y903504D03*
D16*
X635000Y822758D02*
X635000Y701040D01*
D15*
X695960Y574040D03*
D16*
X772160Y497840D01*
X772160Y455930D02*
X817880Y410210D01*
X772160Y455930D02*
X772160Y497840D01*
D15*
X421640Y441960D03*
D16*
X441960Y421640D01*
X497840Y421640D01*
X504190Y427990D01*
X504190Y432562D01*
D15*
X695960Y589280D03*
D16*
X817880Y467360D01*
X817880Y444500D01*
X524764Y442468D02*
X513588Y442468D01*
X513080Y441960D01*
X508000Y447040D01*
X502295Y447040D01*
X497041Y441786D01*
X488480Y441786D01*
X483226Y447040D01*
D15*
X421640Y452120D03*
D16*
X442252Y449914D02*
X450813Y449914D01*
X442252Y449914D02*
X440046Y452120D01*
X421640Y452120D01*
X453701Y452802D02*
X466678Y452802D01*
X453701Y452802D02*
X450813Y449914D01*
X466678Y452802D02*
X472440Y447040D01*
X483226Y447040D01*
D15*
X924560Y381000D03*
D16*
X985520Y381000D01*
X1036320Y431800D01*
D15*
X1036320Y431800D03*
D16*
X619760Y340360D02*
X548640Y269240D01*
D15*
X619760Y340360D03*
X782320Y558800D03*
D16*
X782320Y589280D01*
D15*
X701040Y904240D03*
D16*
X701040Y872900D02*
X699544Y871404D01*
X701040Y872900D02*
X701040Y904240D01*
X699544Y672056D02*
X782320Y589280D01*
X699544Y672056D02*
X699544Y871404D01*
X548640Y269240D02*
X548640Y259080D01*
D15*
X695960Y538480D03*
D16*
X741680Y492760D01*
X741680Y365760D02*
X838200Y269240D01*
X741680Y365760D02*
X741680Y492760D01*
D15*
X513080Y406400D03*
D16*
X497840Y406400D01*
X492760Y411480D01*
X436213Y411480D01*
X421306Y426386D01*
X359076Y426386D01*
X322580Y389890D01*
D15*
X695960Y553720D03*
D16*
X756920Y492760D01*
X756920Y388620D02*
X838200Y307340D01*
X756920Y388620D02*
X756920Y492760D01*
D15*
X502920Y416560D03*
D16*
X436880Y416560D01*
X421640Y431800D01*
X330200Y431800D01*
X288290Y389890D01*
X622300Y307340D02*
X622300Y259080D01*
X622300Y307340D02*
X642620Y327660D01*
D15*
X640080Y330200D03*
X792480Y568960D03*
D16*
X792480Y716280D01*
X848360Y772160D02*
X848360Y909320D01*
X863600Y924560D01*
D15*
X863600Y924560D03*
D16*
X848360Y772160D02*
X792480Y716280D01*
X640080Y330200D02*
X642620Y327660D01*
X802640Y170180D02*
X835660Y137160D01*
X711200Y487680D02*
X695960Y502920D01*
D15*
X695960Y502920D03*
D16*
X802640Y248920D02*
X802640Y170180D01*
X802640Y248920D02*
X711200Y340360D01*
X711200Y487680D01*
X812800Y195580D02*
X835660Y172720D01*
X812800Y195580D02*
X812800Y264160D01*
X726440Y350520D01*
X726440Y487680D01*
X693420Y520700D01*
D15*
X693420Y520700D03*
X513080Y396240D03*
D16*
X441960Y396240D01*
X421640Y416560D01*
X386080Y416560D01*
X375920Y406400D02*
X375920Y389890D01*
X375920Y406400D02*
X386080Y416560D01*
D15*
X802640Y579120D03*
D16*
X802640Y703580D01*
X1041400Y942340D01*
D15*
X1041400Y942340D03*
X655320Y330200D03*
D16*
X690880Y294640D02*
X690880Y264160D01*
X690880Y294640D02*
X655320Y330200D01*
X690880Y264160D02*
X695960Y259080D01*
D15*
X1854200Y106680D03*
X1828800Y55880D03*
D16*
X1689100Y55880D01*
X1663700Y30480D01*
D15*
X1752600Y93980D03*
D16*
X1727200Y93980D01*
X1854200Y106680D02*
X1854200Y81280D01*
X1828800Y55880D01*
X1727200Y93980D02*
X1689100Y55880D01*
X1663700Y30480D02*
X1508760Y30480D01*
X1404620Y134620D01*
X1404620Y167640D01*
D15*
X1473200Y299720D03*
X1549400Y299720D03*
X1635760Y304800D03*
X1722120Y304800D03*
D16*
X1534160Y299720D02*
X1473200Y299720D01*
X1549400Y299720D02*
X1615440Y299720D01*
X1635760Y304800D02*
X1656080Y304800D01*
X1722120Y304800D01*
X1539240Y299720D02*
X1534160Y299720D01*
X1615440Y299720D02*
X1630680Y299720D01*
X1630680Y304800D01*
X1635760Y304800D01*
X1549400Y299720D02*
X1539240Y299720D01*
D15*
X1661160Y533400D03*
D16*
X1651000Y533400D01*
X1625600Y508000D01*
X1625600Y487680D01*
D15*
X1625600Y487680D03*
X1706880Y645160D03*
D16*
X1706880Y635000D02*
X1711960Y629920D01*
X1732280Y629920D01*
X1737360Y624840D01*
X1737360Y599440D01*
D15*
X1737360Y599440D03*
X2260600Y624840D03*
D16*
X2264410Y624840D02*
X2264410Y577850D01*
D15*
X2264410Y577850D03*
D16*
X2264410Y624840D02*
X2260600Y624840D01*
D15*
X2270760Y452120D03*
D16*
X2270760Y436880D01*
X2265680Y431800D01*
D15*
X2265680Y431800D03*
X2291080Y309880D03*
D16*
X2275840Y294640D01*
X2275840Y284480D01*
D15*
X2275840Y284480D03*
X2291080Y172720D03*
D16*
X2275840Y157480D01*
X2275840Y147426D01*
D15*
X2275840Y147426D03*
X2001520Y868680D03*
D16*
X2021840Y868680D01*
X2026920Y863600D01*
D15*
X2026920Y863600D03*
X2174240Y863600D03*
D16*
X2189480Y863600D01*
X2199640Y853440D01*
D15*
X2199640Y853440D03*
D16*
X1706880Y645160D02*
X1706880Y635000D01*
D15*
X2331720Y858520D03*
D16*
X2346960Y858520D01*
X2357120Y848360D01*
D15*
X2357120Y848360D03*
X1894840Y756920D03*
D16*
X1888264Y750344D01*
X1888264Y726440D01*
D15*
X1888264Y726440D03*
X2066064Y736600D03*
D16*
X2067560Y738096D01*
X2067560Y767080D01*
D15*
X2067560Y767080D03*
X2231390Y723900D03*
D16*
X2232025Y724535D01*
X2235200Y727710D01*
X2235200Y762000D01*
D15*
X2235200Y762000D03*
X2396264Y711200D03*
D16*
X2397760Y712696D01*
X2397760Y751840D01*
D15*
X2397760Y751840D03*
X1838960Y863600D03*
D16*
X1864360Y863600D01*
X1869440Y858520D01*
D15*
X1869440Y858520D03*
D16*
X1625600Y487680D02*
X1625600Y462280D01*
X1559560Y396240D01*
X1559560Y355600D01*
X1656080Y309880D02*
X1656080Y304800D01*
X1574800Y340360D02*
X1559560Y355600D01*
X1574800Y340360D02*
X1625600Y340360D01*
X1656080Y309880D01*
X2260600Y624840D02*
X2260600Y690880D01*
X2232025Y719455D01*
X2232025Y724535D01*
D15*
X1823720Y614680D03*
D16*
X1816100Y622300D01*
X1813560Y624840D01*
X1737360Y624840D01*
X1813560Y624840D02*
X1813560Y714784D01*
X1827756Y728980D01*
D15*
X1837916Y728980D03*
D16*
X1827756Y728980D01*
X1824445Y452802D02*
X1815884Y452802D01*
X1824445Y452802D02*
X1838960Y438287D01*
X1815202Y452120D02*
X1788160Y452120D01*
X1815202Y452120D02*
X1815884Y452802D01*
X1838960Y438287D02*
X1838960Y360680D01*
X1727200Y248920D01*
X1727200Y233680D01*
D15*
X1727200Y233680D03*
X1742440Y233680D03*
D16*
X1742440Y254000D01*
X1849120Y360680D02*
X1849120Y462280D01*
X1839134Y472266D01*
X1835442Y472266D01*
X1835268Y472440D01*
X1833880Y472440D01*
X1827450Y478870D01*
X1792050Y478870D02*
X1788160Y474980D01*
X1849120Y360680D02*
X1742440Y254000D01*
X1792050Y478870D02*
X1827450Y478870D01*
X1366520Y411480D02*
X1366520Y167640D01*
X1379220Y167640D01*
X1752934Y533066D02*
X1760437Y533066D01*
X1791345Y509778D02*
X1799590Y509778D01*
X1791345Y509778D02*
X1790641Y510481D01*
X1781011Y520112D01*
X1773391Y520112D01*
X1760437Y533066D01*
X1746024Y539976D02*
X1495016Y539976D01*
X1746024Y539976D02*
X1752934Y533066D01*
X1495016Y539976D02*
X1366520Y411480D01*
X1776730Y509778D02*
X1789938Y509778D01*
X1790641Y510481D01*
X1789684Y489204D02*
X1758442Y489204D01*
X1789684Y489204D02*
X1798320Y497840D01*
X1811900Y497840D01*
X1813598Y499538D01*
X1844003Y492934D02*
X1850056Y486881D01*
X1850056Y486744D01*
X1825188Y499538D02*
X1813598Y499538D01*
X1825188Y499538D02*
X1831792Y492934D01*
X1844003Y492934D01*
D15*
X2042160Y96520D03*
D16*
X2057654Y112014D02*
X2057654Y279146D01*
X1850056Y486744D01*
X2057654Y112014D02*
X2042160Y96520D01*
D15*
X2057400Y76200D03*
D16*
X2042160Y76200D01*
X2032000Y86360D01*
X2032000Y101600D02*
X2047240Y116840D01*
X2047240Y279400D01*
D15*
X1859280Y467360D03*
D16*
X2032000Y101600D02*
X2032000Y86360D01*
X2047240Y279400D02*
X1859280Y467360D01*
D15*
X1717040Y718820D03*
D16*
X1633220Y718820D01*
X1325880Y411480D01*
X1325880Y116840D01*
X1381760Y60960D01*
X1422400Y60960D01*
D15*
X1422400Y60960D03*
X1757680Y152400D03*
D16*
X1747520Y142240D01*
X1630680Y142240D01*
D15*
X1630680Y142240D03*
X1790700Y93980D03*
D16*
X1765300Y93980D02*
X1752600Y106680D01*
X1747520Y106680D01*
X1689100Y106680D01*
X1663700Y132080D01*
X1765300Y93980D02*
X1790700Y93980D01*
X1465580Y132080D02*
X1430020Y167640D01*
D15*
X1747520Y106680D03*
D16*
X1619250Y153670D02*
X1597660Y132080D01*
X1619250Y153670D02*
X1648460Y182880D01*
X1663700Y132080D02*
X1597660Y132080D01*
X1465580Y132080D01*
X1648460Y182880D02*
X1663700Y182880D01*
D15*
X1874520Y599440D03*
X1717040Y467360D03*
D16*
X1732280Y467360D01*
X1737186Y472266D01*
X1757506Y472266D02*
X1762760Y477520D01*
X1767840Y477520D01*
X1780714Y464646D02*
X1795606Y464646D01*
X1780714Y464646D02*
X1767840Y477520D01*
X1804844Y473884D02*
X1820752Y473884D01*
X1804844Y473884D02*
X1795606Y464646D01*
X1820752Y473884D02*
X1834388Y460248D01*
X1757506Y472266D02*
X1737186Y472266D01*
X1874520Y599440D02*
X1996440Y599440D01*
X2070735Y533400D01*
X2095500Y533400D01*
X2120900Y558800D01*
D15*
X1859280Y609600D03*
D16*
X2004060Y609600D01*
X2070100Y543560D01*
X2090420Y543560D01*
X2105660Y558800D01*
X2105660Y579120D01*
X2120900Y594360D01*
D15*
X1630680Y177800D03*
D16*
X1559560Y177800D02*
X1538224Y199136D01*
X1522317Y199136D01*
X1518253Y203200D02*
X1386840Y203200D01*
X1518253Y203200D02*
X1522317Y199136D01*
X1386840Y203200D02*
X1386840Y299720D01*
D15*
X1386840Y299720D03*
D16*
X1391920Y304800D01*
X1391920Y309880D02*
X1457960Y309880D01*
X1473200Y309880D01*
X1483360Y330200D02*
X1488440Y330200D01*
X1569720Y330200D01*
X1579880Y330200D01*
X1595120Y314960D02*
X1640840Y314960D01*
X1391920Y309880D02*
X1391920Y304800D01*
D15*
X1640840Y314960D03*
D16*
X1483360Y320040D02*
X1483360Y330200D01*
D15*
X1483360Y320040D03*
D16*
X1569720Y320040D02*
X1569720Y330200D01*
D15*
X1569720Y320040D03*
D16*
X1579880Y330200D02*
X1595120Y314960D01*
X1630680Y177800D02*
X1559560Y177800D01*
X1473200Y309880D02*
X1483360Y320040D01*
D15*
X1943100Y93980D03*
D16*
X1993900Y43180D01*
X1993900Y30480D01*
D15*
X1798320Y213360D03*
D16*
X1701800Y213360D01*
X1695450Y219710D01*
D15*
X1695450Y219710D03*
X1403350Y227330D03*
X1497330Y227330D03*
X1581150Y227330D03*
X1670050Y227330D03*
D16*
X1497330Y227330D02*
X1403350Y227330D01*
X1497330Y227330D02*
X1581150Y227330D01*
X1670050Y227330D01*
X1828800Y170180D02*
X1841500Y157480D01*
X1981200Y157480D01*
X1803400Y220980D02*
X1708150Y220980D01*
X1803400Y220980D02*
X1828800Y195580D01*
X1828800Y170180D01*
X1993900Y170180D02*
X1993900Y182880D01*
X1993900Y170180D02*
X1981200Y157480D01*
X1708150Y220980D02*
X1701800Y227330D01*
X1670050Y227330D01*
D15*
X2199640Y553720D03*
D16*
X2282826Y553720D01*
X2331720Y602614D01*
D15*
X2331720Y602614D03*
X1508760Y218440D03*
D16*
X1889760Y33020D02*
X1892300Y30480D01*
X1889760Y33020D02*
X1889760Y111760D01*
X1869440Y132080D01*
X1772920Y162560D02*
X1681480Y162560D01*
X1676400Y167640D01*
X1676400Y198120D02*
X1671320Y203200D01*
X1524000Y203200D01*
X1508760Y218440D01*
X1803400Y132080D02*
X1869440Y132080D01*
X1803400Y132080D02*
X1772920Y162560D01*
X1676400Y167640D02*
X1676400Y198120D01*
D15*
X1595120Y218440D03*
D16*
X1605280Y208280D01*
X1686560Y208280D02*
X1691640Y203200D01*
X1772920Y203200D02*
X1778000Y198120D01*
X1778000Y172720D01*
X1793240Y157480D01*
X1798320Y157480D01*
X1818640Y137160D01*
X1899920Y137160D02*
X1917700Y119380D01*
X1917700Y30480D01*
X1686560Y208280D02*
X1605280Y208280D01*
X1691640Y203200D02*
X1772920Y203200D01*
X1818640Y137160D02*
X1899920Y137160D01*
X1930400Y43180D02*
X1943100Y30480D01*
X1930400Y43180D02*
X1930400Y132080D01*
X1917700Y144780D01*
X1828800Y144780D02*
X1803400Y170180D01*
X1803400Y195580D01*
X1828800Y144780D02*
X1917700Y144780D01*
D15*
X1682750Y219710D03*
D16*
X1694180Y208280D01*
X1790700Y208280D01*
X1803400Y195580D01*
X1841500Y198120D02*
X1841500Y182880D01*
X1808480Y233680D02*
X1770380Y233680D01*
X1808480Y233680D02*
X1808480Y231140D01*
X1841500Y198120D01*
X1866900Y182880D02*
X1866900Y231140D01*
X1864360Y231140D01*
X1846580Y231140D01*
X1844040Y233680D01*
X1864360Y231140D02*
X1879600Y231140D01*
X1882140Y233680D01*
X1917700Y233680D02*
X1943100Y233680D01*
X1955800Y233680D01*
X1892300Y208280D02*
X1892300Y182880D01*
X1892300Y208280D02*
X1917700Y233680D01*
X1917700Y200660D02*
X1917700Y182880D01*
X1917700Y200660D02*
X1935480Y218440D01*
X1976120Y218440D01*
X1991360Y233680D01*
X2024380Y233680D01*
D15*
X2067560Y563880D03*
D16*
X1930400Y701040D01*
X1930400Y822758D02*
X1849654Y903504D01*
D15*
X1849654Y903504D03*
D16*
X1930400Y822758D02*
X1930400Y701040D01*
D15*
X1991360Y574040D03*
D16*
X2067560Y497840D01*
X2067560Y455930D02*
X2113280Y410210D01*
X2067560Y455930D02*
X2067560Y497840D01*
D15*
X1717040Y441960D03*
D16*
X1737360Y421640D01*
X1793240Y421640D01*
X1799590Y427990D01*
X1799590Y432562D01*
D15*
X1991360Y589280D03*
D16*
X2113280Y467360D01*
X2113280Y444500D01*
X1820164Y442468D02*
X1808988Y442468D01*
X1808480Y441960D01*
X1803400Y447040D01*
X1797695Y447040D01*
X1792441Y441786D01*
X1783880Y441786D01*
X1778626Y447040D01*
D15*
X1717040Y452120D03*
D16*
X1737652Y449914D02*
X1746213Y449914D01*
X1737652Y449914D02*
X1735446Y452120D01*
X1717040Y452120D01*
X1749101Y452802D02*
X1762078Y452802D01*
X1749101Y452802D02*
X1746213Y449914D01*
X1762078Y452802D02*
X1767840Y447040D01*
X1778626Y447040D01*
D15*
X2219960Y381000D03*
D16*
X2280920Y381000D01*
X2331720Y431800D01*
D15*
X2331720Y431800D03*
D16*
X1915160Y340360D02*
X1844040Y269240D01*
D15*
X1915160Y340360D03*
X2077720Y558800D03*
D16*
X2077720Y589280D01*
D15*
X1996440Y904240D03*
D16*
X1996440Y872900D02*
X1994944Y871404D01*
X1996440Y872900D02*
X1996440Y904240D01*
X1994944Y672056D02*
X2077720Y589280D01*
X1994944Y672056D02*
X1994944Y871404D01*
X1844040Y269240D02*
X1844040Y259080D01*
D15*
X1991360Y538480D03*
D16*
X2037080Y492760D01*
X2037080Y365760D02*
X2133600Y269240D01*
X2037080Y365760D02*
X2037080Y492760D01*
D15*
X1808480Y406400D03*
D16*
X1793240Y406400D01*
X1788160Y411480D01*
X1731613Y411480D01*
X1716706Y426386D01*
X1654476Y426386D01*
X1617980Y389890D01*
D15*
X1991360Y553720D03*
D16*
X2052320Y492760D01*
X2052320Y388620D02*
X2133600Y307340D01*
X2052320Y388620D02*
X2052320Y492760D01*
D15*
X1798320Y416560D03*
D16*
X1732280Y416560D01*
X1717040Y431800D01*
X1625600Y431800D01*
X1583690Y389890D01*
X1917700Y307340D02*
X1917700Y259080D01*
X1917700Y307340D02*
X1938020Y327660D01*
D15*
X1935480Y330200D03*
X2087880Y568960D03*
D16*
X2087880Y716280D01*
X2143760Y772160D02*
X2143760Y909320D01*
X2159000Y924560D01*
D15*
X2159000Y924560D03*
D16*
X2143760Y772160D02*
X2087880Y716280D01*
X1935480Y330200D02*
X1938020Y327660D01*
X2098040Y170180D02*
X2131060Y137160D01*
X2006600Y487680D02*
X1991360Y502920D01*
D15*
X1991360Y502920D03*
D16*
X2098040Y248920D02*
X2098040Y170180D01*
X2098040Y248920D02*
X2006600Y340360D01*
X2006600Y487680D01*
X2108200Y195580D02*
X2131060Y172720D01*
X2108200Y195580D02*
X2108200Y264160D01*
X2021840Y350520D01*
X2021840Y487680D01*
X1988820Y520700D01*
D15*
X1988820Y520700D03*
X1808480Y396240D03*
D16*
X1737360Y396240D01*
X1717040Y416560D01*
X1681480Y416560D01*
X1671320Y406400D02*
X1671320Y389890D01*
X1671320Y406400D02*
X1681480Y416560D01*
D15*
X2098040Y579120D03*
D16*
X2098040Y703580D01*
X2336800Y942340D01*
D15*
X2336800Y942340D03*
X1950720Y330200D03*
D16*
X1986280Y294640D02*
X1986280Y264160D01*
X1986280Y294640D02*
X1950720Y330200D01*
X1986280Y264160D02*
X1991360Y259080D01*
D15*
X3147060Y106680D03*
X3121660Y55880D03*
D16*
X2981960Y55880D01*
X2956560Y30480D01*
D15*
X3045460Y93980D03*
D16*
X3020060Y93980D01*
X3147060Y106680D02*
X3147060Y81280D01*
X3121660Y55880D01*
X3020060Y93980D02*
X2981960Y55880D01*
X2956560Y30480D02*
X2801620Y30480D01*
X2697480Y134620D01*
X2697480Y167640D01*
D15*
X2766060Y299720D03*
X2842260Y299720D03*
X2928620Y304800D03*
X3014980Y304800D03*
D16*
X2827020Y299720D02*
X2766060Y299720D01*
X2842260Y299720D02*
X2908300Y299720D01*
X2928620Y304800D02*
X2948940Y304800D01*
X3014980Y304800D01*
X2832100Y299720D02*
X2827020Y299720D01*
X2908300Y299720D02*
X2923540Y299720D01*
X2923540Y304800D01*
X2928620Y304800D01*
X2842260Y299720D02*
X2832100Y299720D01*
D15*
X2954020Y533400D03*
D16*
X2943860Y533400D01*
X2918460Y508000D01*
X2918460Y487680D01*
D15*
X2918460Y487680D03*
X2999740Y645160D03*
D16*
X2999740Y635000D02*
X3004820Y629920D01*
X3025140Y629920D01*
X3030220Y624840D01*
X3030220Y599440D01*
D15*
X3030220Y599440D03*
X3553460Y624840D03*
D16*
X3557270Y624840D02*
X3557270Y577850D01*
D15*
X3557270Y577850D03*
D16*
X3557270Y624840D02*
X3553460Y624840D01*
D15*
X3563620Y452120D03*
D16*
X3563620Y436880D01*
X3558540Y431800D01*
D15*
X3558540Y431800D03*
X3583940Y309880D03*
D16*
X3568700Y294640D01*
X3568700Y284480D01*
D15*
X3568700Y284480D03*
X3583940Y172720D03*
D16*
X3568700Y157480D01*
X3568700Y147426D01*
D15*
X3568700Y147426D03*
X3294380Y868680D03*
D16*
X3314700Y868680D01*
X3319780Y863600D01*
D15*
X3319780Y863600D03*
X3467100Y863600D03*
D16*
X3482340Y863600D01*
X3492500Y853440D01*
D15*
X3492500Y853440D03*
D16*
X2999740Y645160D02*
X2999740Y635000D01*
D15*
X3624580Y858520D03*
D16*
X3639820Y858520D01*
X3649980Y848360D01*
D15*
X3649980Y848360D03*
X3187700Y756920D03*
D16*
X3181124Y750344D01*
X3181124Y726440D01*
D15*
X3181124Y726440D03*
X3358924Y736600D03*
D16*
X3360420Y738096D01*
X3360420Y767080D01*
D15*
X3360420Y767080D03*
X3524250Y723900D03*
D16*
X3524885Y724535D01*
X3528060Y727710D01*
X3528060Y762000D01*
D15*
X3528060Y762000D03*
X3689124Y711200D03*
D16*
X3690620Y712696D01*
X3690620Y751840D01*
D15*
X3690620Y751840D03*
X3131820Y863600D03*
D16*
X3157220Y863600D01*
X3162300Y858520D01*
D15*
X3162300Y858520D03*
D16*
X2918460Y487680D02*
X2918460Y462280D01*
X2852420Y396240D01*
X2852420Y355600D01*
X2948940Y309880D02*
X2948940Y304800D01*
X2867660Y340360D02*
X2852420Y355600D01*
X2867660Y340360D02*
X2918460Y340360D01*
X2948940Y309880D01*
X3553460Y624840D02*
X3553460Y690880D01*
X3524885Y719455D01*
X3524885Y724535D01*
D15*
X3116580Y614680D03*
D16*
X3108960Y622300D01*
X3106420Y624840D01*
X3030220Y624840D01*
X3106420Y624840D02*
X3106420Y714784D01*
X3120616Y728980D01*
D15*
X3130776Y728980D03*
D16*
X3120616Y728980D01*
X3117305Y452802D02*
X3108744Y452802D01*
X3117305Y452802D02*
X3131820Y438287D01*
X3108062Y452120D02*
X3081020Y452120D01*
X3108062Y452120D02*
X3108744Y452802D01*
X3131820Y438287D02*
X3131820Y360680D01*
X3020060Y248920D01*
X3020060Y233680D01*
D15*
X3020060Y233680D03*
X3035300Y233680D03*
D16*
X3035300Y254000D01*
X3141980Y360680D02*
X3141980Y462280D01*
X3131994Y472266D01*
X3128302Y472266D01*
X3128128Y472440D01*
X3126740Y472440D01*
X3120310Y478870D01*
X3084910Y478870D02*
X3081020Y474980D01*
X3141980Y360680D02*
X3035300Y254000D01*
X3084910Y478870D02*
X3120310Y478870D01*
X2659380Y411480D02*
X2659380Y167640D01*
X2672080Y167640D01*
X3045794Y533066D02*
X3053297Y533066D01*
X3084205Y509778D02*
X3092450Y509778D01*
X3084205Y509778D02*
X3083501Y510481D01*
X3073871Y520112D01*
X3066251Y520112D01*
X3053297Y533066D01*
X3038884Y539976D02*
X2787876Y539976D01*
X3038884Y539976D02*
X3045794Y533066D01*
X2787876Y539976D02*
X2659380Y411480D01*
X3069590Y509778D02*
X3082798Y509778D01*
X3083501Y510481D01*
X3082544Y489204D02*
X3051302Y489204D01*
X3082544Y489204D02*
X3091180Y497840D01*
X3104760Y497840D01*
X3106458Y499538D01*
X3136863Y492934D02*
X3142916Y486881D01*
X3142916Y486744D01*
X3118048Y499538D02*
X3106458Y499538D01*
X3118048Y499538D02*
X3124652Y492934D01*
X3136863Y492934D01*
D15*
X3335020Y96520D03*
D16*
X3350514Y112014D02*
X3350514Y279146D01*
X3142916Y486744D01*
X3350514Y112014D02*
X3335020Y96520D01*
D15*
X3350260Y76200D03*
D16*
X3335020Y76200D01*
X3324860Y86360D01*
X3324860Y101600D02*
X3340100Y116840D01*
X3340100Y279400D01*
D15*
X3152140Y467360D03*
D16*
X3324860Y101600D02*
X3324860Y86360D01*
X3340100Y279400D02*
X3152140Y467360D01*
D15*
X3009900Y718820D03*
D16*
X2926080Y718820D01*
X2618740Y411480D01*
X2618740Y116840D01*
X2674620Y60960D01*
X2715260Y60960D01*
D15*
X2715260Y60960D03*
X3050540Y152400D03*
D16*
X3040380Y142240D01*
X2923540Y142240D01*
D15*
X2923540Y142240D03*
X3083560Y93980D03*
D16*
X3058160Y93980D02*
X3045460Y106680D01*
X3040380Y106680D01*
X2981960Y106680D01*
X2956560Y132080D01*
X3058160Y93980D02*
X3083560Y93980D01*
X2758440Y132080D02*
X2722880Y167640D01*
D15*
X3040380Y106680D03*
D16*
X2912110Y153670D02*
X2890520Y132080D01*
X2912110Y153670D02*
X2941320Y182880D01*
X2956560Y132080D02*
X2890520Y132080D01*
X2758440Y132080D01*
X2941320Y182880D02*
X2956560Y182880D01*
D15*
X3167380Y599440D03*
X3009900Y467360D03*
D16*
X3025140Y467360D01*
X3030046Y472266D01*
X3050366Y472266D02*
X3055620Y477520D01*
X3060700Y477520D01*
X3073574Y464646D02*
X3088466Y464646D01*
X3073574Y464646D02*
X3060700Y477520D01*
X3097704Y473884D02*
X3113612Y473884D01*
X3097704Y473884D02*
X3088466Y464646D01*
X3113612Y473884D02*
X3127248Y460248D01*
X3050366Y472266D02*
X3030046Y472266D01*
X3167380Y599440D02*
X3289300Y599440D01*
X3363595Y533400D01*
X3388360Y533400D01*
X3413760Y558800D01*
D15*
X3152140Y609600D03*
D16*
X3296920Y609600D01*
X3362960Y543560D01*
X3383280Y543560D01*
X3398520Y558800D01*
X3398520Y579120D01*
X3413760Y594360D01*
D15*
X2923540Y177800D03*
D16*
X2852420Y177800D02*
X2831084Y199136D01*
X2815177Y199136D01*
X2811113Y203200D02*
X2679700Y203200D01*
X2811113Y203200D02*
X2815177Y199136D01*
X2679700Y203200D02*
X2679700Y299720D01*
D15*
X2679700Y299720D03*
D16*
X2684780Y304800D01*
X2684780Y309880D02*
X2750820Y309880D01*
X2766060Y309880D01*
X2776220Y330200D02*
X2781300Y330200D01*
X2862580Y330200D01*
X2872740Y330200D01*
X2887980Y314960D02*
X2933700Y314960D01*
X2684780Y309880D02*
X2684780Y304800D01*
D15*
X2933700Y314960D03*
D16*
X2776220Y320040D02*
X2776220Y330200D01*
D15*
X2776220Y320040D03*
D16*
X2862580Y320040D02*
X2862580Y330200D01*
D15*
X2862580Y320040D03*
D16*
X2872740Y330200D02*
X2887980Y314960D01*
X2923540Y177800D02*
X2852420Y177800D01*
X2766060Y309880D02*
X2776220Y320040D01*
D15*
X3235960Y93980D03*
D16*
X3286760Y43180D01*
X3286760Y30480D01*
D15*
X3091180Y213360D03*
D16*
X2994660Y213360D01*
X2988310Y219710D01*
D15*
X2988310Y219710D03*
X2696210Y227330D03*
X2790190Y227330D03*
X2874010Y227330D03*
X2962910Y227330D03*
D16*
X2790190Y227330D02*
X2696210Y227330D01*
X2790190Y227330D02*
X2874010Y227330D01*
X2962910Y227330D01*
X3121660Y170180D02*
X3134360Y157480D01*
X3274060Y157480D01*
X3096260Y220980D02*
X3001010Y220980D01*
X3096260Y220980D02*
X3121660Y195580D01*
X3121660Y170180D01*
X3286760Y170180D02*
X3286760Y182880D01*
X3286760Y170180D02*
X3274060Y157480D01*
X3001010Y220980D02*
X2994660Y227330D01*
X2962910Y227330D01*
D15*
X3492500Y553720D03*
D16*
X3575686Y553720D01*
X3624580Y602614D01*
D15*
X3624580Y602614D03*
X2801620Y218440D03*
D16*
X3182620Y33020D02*
X3185160Y30480D01*
X3182620Y33020D02*
X3182620Y111760D01*
X3162300Y132080D01*
X3065780Y162560D02*
X2974340Y162560D01*
X2969260Y167640D01*
X2969260Y198120D02*
X2964180Y203200D01*
X2816860Y203200D01*
X2801620Y218440D01*
X3096260Y132080D02*
X3162300Y132080D01*
X3096260Y132080D02*
X3065780Y162560D01*
X2969260Y167640D02*
X2969260Y198120D01*
D15*
X2887980Y218440D03*
D16*
X2898140Y208280D01*
X2979420Y208280D02*
X2984500Y203200D01*
X3065780Y203200D02*
X3070860Y198120D01*
X3070860Y172720D01*
X3086100Y157480D01*
X3091180Y157480D01*
X3111500Y137160D01*
X3192780Y137160D02*
X3210560Y119380D01*
X3210560Y30480D01*
X2979420Y208280D02*
X2898140Y208280D01*
X2984500Y203200D02*
X3065780Y203200D01*
X3111500Y137160D02*
X3192780Y137160D01*
X3223260Y43180D02*
X3235960Y30480D01*
X3223260Y43180D02*
X3223260Y132080D01*
X3210560Y144780D01*
X3121660Y144780D02*
X3096260Y170180D01*
X3096260Y195580D01*
X3121660Y144780D02*
X3210560Y144780D01*
D15*
X2975610Y219710D03*
D16*
X2987040Y208280D01*
X3083560Y208280D01*
X3096260Y195580D01*
X3134360Y198120D02*
X3134360Y182880D01*
X3101340Y233680D02*
X3063240Y233680D01*
X3101340Y233680D02*
X3101340Y231140D01*
X3134360Y198120D01*
X3159760Y182880D02*
X3159760Y231140D01*
X3157220Y231140D01*
X3139440Y231140D01*
X3136900Y233680D01*
X3157220Y231140D02*
X3172460Y231140D01*
X3175000Y233680D01*
X3210560Y233680D02*
X3235960Y233680D01*
X3248660Y233680D01*
X3185160Y208280D02*
X3185160Y182880D01*
X3185160Y208280D02*
X3210560Y233680D01*
X3210560Y200660D02*
X3210560Y182880D01*
X3210560Y200660D02*
X3228340Y218440D01*
X3268980Y218440D01*
X3284220Y233680D01*
X3317240Y233680D01*
D15*
X3360420Y563880D03*
D16*
X3223260Y701040D01*
X3223260Y822758D02*
X3142514Y903504D01*
D15*
X3142514Y903504D03*
D16*
X3223260Y822758D02*
X3223260Y701040D01*
D15*
X3284220Y574040D03*
D16*
X3360420Y497840D01*
X3360420Y455930D02*
X3406140Y410210D01*
X3360420Y455930D02*
X3360420Y497840D01*
D15*
X3009900Y441960D03*
D16*
X3030220Y421640D01*
X3086100Y421640D01*
X3092450Y427990D01*
X3092450Y432562D01*
D15*
X3284220Y589280D03*
D16*
X3406140Y467360D01*
X3406140Y444500D01*
X3113024Y442468D02*
X3101848Y442468D01*
X3101340Y441960D01*
X3096260Y447040D01*
X3090555Y447040D01*
X3085301Y441786D01*
X3076740Y441786D01*
X3071486Y447040D01*
D15*
X3009900Y452120D03*
D16*
X3030512Y449914D02*
X3039073Y449914D01*
X3030512Y449914D02*
X3028306Y452120D01*
X3009900Y452120D01*
X3041961Y452802D02*
X3054938Y452802D01*
X3041961Y452802D02*
X3039073Y449914D01*
X3054938Y452802D02*
X3060700Y447040D01*
X3071486Y447040D01*
D15*
X3512820Y381000D03*
D16*
X3573780Y381000D01*
X3624580Y431800D01*
D15*
X3624580Y431800D03*
D16*
X3208020Y340360D02*
X3136900Y269240D01*
D15*
X3208020Y340360D03*
X3370580Y558800D03*
D16*
X3370580Y589280D01*
D15*
X3289300Y904240D03*
D16*
X3289300Y872900D02*
X3287804Y871404D01*
X3289300Y872900D02*
X3289300Y904240D01*
X3287804Y672056D02*
X3370580Y589280D01*
X3287804Y672056D02*
X3287804Y871404D01*
X3136900Y269240D02*
X3136900Y259080D01*
D15*
X3284220Y538480D03*
D16*
X3329940Y492760D01*
X3329940Y365760D02*
X3426460Y269240D01*
X3329940Y365760D02*
X3329940Y492760D01*
D15*
X3101340Y406400D03*
D16*
X3086100Y406400D01*
X3081020Y411480D01*
X3024473Y411480D01*
X3009566Y426386D01*
X2947336Y426386D01*
X2910840Y389890D01*
D15*
X3284220Y553720D03*
D16*
X3345180Y492760D01*
X3345180Y388620D02*
X3426460Y307340D01*
X3345180Y388620D02*
X3345180Y492760D01*
D15*
X3091180Y416560D03*
D16*
X3025140Y416560D01*
X3009900Y431800D01*
X2918460Y431800D01*
X2876550Y389890D01*
X3210560Y307340D02*
X3210560Y259080D01*
X3210560Y307340D02*
X3230880Y327660D01*
D15*
X3228340Y330200D03*
X3380740Y568960D03*
D16*
X3380740Y716280D01*
X3436620Y772160D02*
X3436620Y909320D01*
X3451860Y924560D01*
D15*
X3451860Y924560D03*
D16*
X3436620Y772160D02*
X3380740Y716280D01*
X3228340Y330200D02*
X3230880Y327660D01*
X3390900Y170180D02*
X3423920Y137160D01*
X3299460Y487680D02*
X3284220Y502920D01*
D15*
X3284220Y502920D03*
D16*
X3390900Y248920D02*
X3390900Y170180D01*
X3390900Y248920D02*
X3299460Y340360D01*
X3299460Y487680D01*
X3401060Y195580D02*
X3423920Y172720D01*
X3401060Y195580D02*
X3401060Y264160D01*
X3314700Y350520D01*
X3314700Y487680D01*
X3281680Y520700D01*
D15*
X3281680Y520700D03*
X3101340Y396240D03*
D16*
X3030220Y396240D01*
X3009900Y416560D01*
X2974340Y416560D01*
X2964180Y406400D02*
X2964180Y389890D01*
X2964180Y406400D02*
X2974340Y416560D01*
D15*
X3390900Y579120D03*
D16*
X3390900Y703580D01*
X3629660Y942340D01*
D15*
X3629660Y942340D03*
X3243580Y330200D03*
D16*
X3279140Y294640D02*
X3279140Y264160D01*
X3279140Y294640D02*
X3243580Y330200D01*
X3279140Y264160D02*
X3284220Y259080D01*
M02*
