G04 EAGLE Gerber RS-274X export*
G75*
%MOMM*%
%FSLAX34Y34*%
%LPD*%
%INSoldermask Top*%
%IPPOS*%
%AMOC8*
5,1,8,0,0,1.08239X$1,22.5*%
G01*
%ADD10R,1.203200X1.303200*%
%ADD11R,1.303200X1.203200*%
%ADD12R,1.603200X1.703200*%
%ADD13R,1.703200X1.603200*%
%ADD14C,1.727200*%
%ADD15R,1.403200X1.003200*%
%ADD16C,0.441406*%
%ADD17R,1.003200X1.403200*%
%ADD18R,2.082800X2.082800*%
%ADD19C,2.082800*%
%ADD20R,1.703200X1.803200*%
%ADD21R,1.403200X1.403200*%
%ADD22R,1.803200X1.703200*%
%ADD23C,1.511200*%
%ADD24R,1.600200X0.635000*%
%ADD25R,0.635000X1.600200*%
%ADD26R,0.803200X2.403200*%
%ADD27R,2.403200X0.803200*%
%ADD28R,0.736600X2.184400*%
%ADD29C,1.711200*%
%ADD30C,0.959600*%


D10*
X438150Y90560D03*
X438150Y107560D03*
X264160Y521580D03*
X264160Y504580D03*
D11*
X351400Y543560D03*
X334400Y543560D03*
D10*
X396240Y666360D03*
X396240Y649360D03*
X381000Y125340D03*
X381000Y108340D03*
X360680Y125340D03*
X360680Y108340D03*
D11*
X127880Y325120D03*
X110880Y325120D03*
D10*
X71120Y285360D03*
X71120Y268360D03*
X86360Y285360D03*
X86360Y268360D03*
X421640Y90560D03*
X421640Y107560D03*
D12*
X980350Y628650D03*
X1000850Y628650D03*
D13*
X1068070Y572680D03*
X1068070Y593180D03*
D12*
X972730Y563880D03*
X993230Y563880D03*
X980350Y645160D03*
X1000850Y645160D03*
D10*
X579120Y747640D03*
X579120Y730640D03*
X563880Y747640D03*
X563880Y730640D03*
D13*
X508000Y862240D03*
X508000Y882740D03*
D12*
X569050Y934720D03*
X548550Y934720D03*
D11*
X94860Y121920D03*
X77860Y121920D03*
D13*
X589280Y858430D03*
X589280Y878930D03*
X525780Y882740D03*
X525780Y862240D03*
D11*
X226940Y325120D03*
X209940Y325120D03*
X181220Y284480D03*
X164220Y284480D03*
X181220Y269240D03*
X164220Y269240D03*
D12*
X967650Y487680D03*
X988150Y487680D03*
D13*
X1068070Y421550D03*
X1068070Y442050D03*
D12*
X960030Y414020D03*
X980530Y414020D03*
D11*
X123580Y121920D03*
X140580Y121920D03*
D12*
X967650Y469900D03*
X988150Y469900D03*
D10*
X759460Y752720D03*
X759460Y735720D03*
X739140Y752720D03*
X739140Y735720D03*
D13*
X670560Y860970D03*
X670560Y881470D03*
D12*
X723990Y942340D03*
X703490Y942340D03*
D13*
X749300Y853350D03*
X749300Y873850D03*
X688340Y881470D03*
X688340Y860970D03*
D11*
X313300Y322580D03*
X296300Y322580D03*
X272660Y266700D03*
X255660Y266700D03*
X272660Y281940D03*
X255660Y281940D03*
X313300Y467360D03*
X296300Y467360D03*
D12*
X993050Y344170D03*
X1013550Y344170D03*
D13*
X1071880Y269150D03*
X1071880Y289650D03*
D12*
X970190Y271780D03*
X990690Y271780D03*
X993050Y327660D03*
X1013550Y327660D03*
D10*
X906780Y752720D03*
X906780Y735720D03*
X927100Y752720D03*
X927100Y735720D03*
D13*
X858520Y860970D03*
X858520Y881470D03*
D12*
X896710Y932180D03*
X876210Y932180D03*
D11*
X437760Y706120D03*
X420760Y706120D03*
D13*
X916940Y843190D03*
X916940Y863690D03*
X840740Y881470D03*
X840740Y860970D03*
D11*
X402200Y322580D03*
X385200Y322580D03*
X359020Y265430D03*
X342020Y265430D03*
X359020Y280670D03*
X342020Y280670D03*
D12*
X990510Y208280D03*
X1011010Y208280D03*
D13*
X1069340Y139610D03*
X1069340Y160110D03*
D12*
X965110Y134620D03*
X985610Y134620D03*
D10*
X452120Y613800D03*
X452120Y630800D03*
D12*
X990510Y190500D03*
X1011010Y190500D03*
D10*
X1089660Y737480D03*
X1089660Y720480D03*
X1069340Y737480D03*
X1069340Y720480D03*
D13*
X1018540Y850810D03*
X1018540Y871310D03*
D12*
X1061810Y927100D03*
X1041310Y927100D03*
D13*
X1079500Y850810D03*
X1079500Y871310D03*
X1002030Y871310D03*
X1002030Y850810D03*
D11*
X296300Y482600D03*
X313300Y482600D03*
D10*
X375920Y649360D03*
X375920Y666360D03*
D14*
X146050Y388620D02*
X130810Y388620D01*
X130810Y363220D02*
X146050Y363220D01*
X186690Y388620D02*
X201930Y388620D01*
X201930Y363220D02*
X186690Y363220D01*
X817880Y402590D02*
X817880Y417830D01*
X843280Y417830D02*
X843280Y402590D01*
X817880Y436880D02*
X817880Y452120D01*
X843280Y452120D02*
X843280Y436880D01*
X762000Y690880D02*
X746760Y690880D01*
X746760Y716280D02*
X762000Y716280D01*
X728980Y690880D02*
X713740Y690880D01*
X713740Y716280D02*
X728980Y716280D01*
X330200Y389890D02*
X314960Y389890D01*
X314960Y364490D02*
X330200Y364490D01*
X295910Y389890D02*
X280670Y389890D01*
X280670Y364490D02*
X295910Y364490D01*
X109220Y388620D02*
X93980Y388620D01*
X93980Y363220D02*
X109220Y363220D01*
X838200Y276860D02*
X838200Y261620D01*
X863600Y261620D02*
X863600Y276860D01*
X838200Y299720D02*
X838200Y314960D01*
X863600Y314960D02*
X863600Y299720D01*
X914400Y685800D02*
X929640Y685800D01*
X929640Y711200D02*
X914400Y711200D01*
X896620Y685800D02*
X881380Y685800D01*
X881380Y711200D02*
X896620Y711200D01*
X416560Y389890D02*
X401320Y389890D01*
X401320Y364490D02*
X416560Y364490D01*
X383540Y389890D02*
X368300Y389890D01*
X368300Y364490D02*
X383540Y364490D01*
X835660Y144780D02*
X835660Y129540D01*
X861060Y129540D02*
X861060Y144780D01*
X835660Y165100D02*
X835660Y180340D01*
X861060Y180340D02*
X861060Y165100D01*
X1074420Y668020D02*
X1089660Y668020D01*
X1089660Y693420D02*
X1074420Y693420D01*
X1054100Y668020D02*
X1038860Y668020D01*
X1038860Y693420D02*
X1054100Y693420D01*
X520700Y259080D02*
X505460Y259080D01*
X505460Y233680D02*
X520700Y233680D01*
X482600Y259080D02*
X467360Y259080D01*
X467360Y233680D02*
X482600Y233680D01*
X652780Y259080D02*
X668020Y259080D01*
X668020Y233680D02*
X652780Y233680D01*
X629920Y259080D02*
X614680Y259080D01*
X614680Y233680D02*
X629920Y233680D01*
X721360Y259080D02*
X736600Y259080D01*
X736600Y233680D02*
X721360Y233680D01*
X703580Y259080D02*
X688340Y259080D01*
X688340Y233680D02*
X703580Y233680D01*
X556260Y259080D02*
X541020Y259080D01*
X541020Y233680D02*
X556260Y233680D01*
X579120Y259080D02*
X594360Y259080D01*
X594360Y233680D02*
X579120Y233680D01*
X825500Y551180D02*
X825500Y566420D01*
X850900Y566420D02*
X850900Y551180D01*
X825500Y586740D02*
X825500Y601980D01*
X850900Y601980D02*
X850900Y586740D01*
X582930Y683260D02*
X567690Y683260D01*
X567690Y708660D02*
X582930Y708660D01*
X549910Y683260D02*
X534670Y683260D01*
X534670Y708660D02*
X549910Y708660D01*
X238760Y388620D02*
X223520Y388620D01*
X223520Y363220D02*
X238760Y363220D01*
D15*
X469900Y613300D03*
D16*
X474709Y628491D02*
X474709Y634109D01*
X474709Y628491D02*
X465091Y628491D01*
X465091Y634109D01*
X474709Y634109D01*
X474709Y632684D02*
X465091Y632684D01*
D17*
X354440Y561340D03*
D16*
X339249Y566149D02*
X333631Y566149D01*
X339249Y566149D02*
X339249Y556531D01*
X333631Y556531D01*
X333631Y566149D01*
X333631Y560724D02*
X339249Y560724D01*
X339249Y564917D02*
X333631Y564917D01*
D17*
X963820Y546100D03*
D16*
X979011Y541291D02*
X984629Y541291D01*
X979011Y541291D02*
X979011Y550909D01*
X984629Y550909D01*
X984629Y541291D01*
X984629Y545484D02*
X979011Y545484D01*
X979011Y549677D02*
X984629Y549677D01*
D15*
X607060Y849520D03*
D16*
X611869Y864711D02*
X611869Y870329D01*
X611869Y864711D02*
X602251Y864711D01*
X602251Y870329D01*
X611869Y870329D01*
X611869Y868904D02*
X602251Y868904D01*
D17*
X958740Y393700D03*
D16*
X973931Y388891D02*
X979549Y388891D01*
X973931Y388891D02*
X973931Y398509D01*
X979549Y398509D01*
X979549Y388891D01*
X979549Y393084D02*
X973931Y393084D01*
X973931Y397277D02*
X979549Y397277D01*
D15*
X769620Y854600D03*
D16*
X774429Y869791D02*
X774429Y875409D01*
X774429Y869791D02*
X764811Y869791D01*
X764811Y875409D01*
X774429Y875409D01*
X774429Y873984D02*
X764811Y873984D01*
D17*
X968900Y256540D03*
D16*
X984091Y251731D02*
X989709Y251731D01*
X984091Y251731D02*
X984091Y261349D01*
X989709Y261349D01*
X989709Y251731D01*
X989709Y255924D02*
X984091Y255924D01*
X984091Y260117D02*
X989709Y260117D01*
D15*
X937260Y849520D03*
D16*
X942069Y864711D02*
X942069Y870329D01*
X942069Y864711D02*
X932451Y864711D01*
X932451Y870329D01*
X942069Y870329D01*
X942069Y868904D02*
X932451Y868904D01*
D17*
X966360Y119380D03*
D16*
X981551Y114571D02*
X987169Y114571D01*
X981551Y114571D02*
X981551Y124189D01*
X987169Y124189D01*
X987169Y114571D01*
X987169Y118764D02*
X981551Y118764D01*
X981551Y122957D02*
X987169Y122957D01*
D15*
X1094740Y846980D03*
D16*
X1099549Y862171D02*
X1099549Y867789D01*
X1099549Y862171D02*
X1089931Y862171D01*
X1089931Y867789D01*
X1099549Y867789D01*
X1099549Y866364D02*
X1089931Y866364D01*
D11*
X770500Y144780D03*
X753500Y144780D03*
D10*
X452120Y646820D03*
X452120Y663820D03*
X472440Y649360D03*
X472440Y666360D03*
D11*
X411090Y509270D03*
X394090Y509270D03*
X402200Y528320D03*
X385200Y528320D03*
X384420Y548640D03*
X367420Y548640D03*
D10*
X375920Y491880D03*
X375920Y508880D03*
X284480Y521580D03*
X284480Y504580D03*
D11*
X315840Y548640D03*
X298840Y548640D03*
X318380Y568960D03*
X301380Y568960D03*
X732400Y144780D03*
X715400Y144780D03*
X143120Y340360D03*
X126120Y340360D03*
X93100Y340360D03*
X110100Y340360D03*
D12*
X882560Y594360D03*
X903060Y594360D03*
X924470Y571500D03*
X944970Y571500D03*
X927010Y546100D03*
X947510Y546100D03*
D13*
X927100Y614770D03*
X927100Y594270D03*
X1050290Y572680D03*
X1050290Y593180D03*
D12*
X1013370Y570230D03*
X1033870Y570230D03*
X1013370Y552450D03*
X1033870Y552450D03*
D13*
X546100Y777150D03*
X546100Y797650D03*
D10*
X749300Y64380D03*
X749300Y47380D03*
X546100Y757800D03*
X546100Y740800D03*
X566420Y763660D03*
X566420Y780660D03*
X586740Y763660D03*
X586740Y780660D03*
D13*
X568960Y797470D03*
X568960Y817970D03*
X586740Y817790D03*
X586740Y838290D03*
D12*
X530770Y820420D03*
X551270Y820420D03*
X569050Y916940D03*
X548550Y916940D03*
D13*
X591820Y896530D03*
X591820Y917030D03*
X612140Y888910D03*
X612140Y909410D03*
D10*
X774700Y47380D03*
X774700Y64380D03*
D11*
X244720Y340360D03*
X227720Y340360D03*
X194700Y340360D03*
X211700Y340360D03*
D12*
X886370Y444500D03*
X906870Y444500D03*
X909230Y424180D03*
X929730Y424180D03*
X921930Y403860D03*
X942430Y403860D03*
D13*
X927100Y462370D03*
X927100Y441870D03*
X1049020Y421550D03*
X1049020Y442050D03*
D12*
X1008290Y414020D03*
X1028790Y414020D03*
X1010830Y393700D03*
X1031330Y393700D03*
D10*
X718820Y760340D03*
X718820Y743340D03*
X419100Y550300D03*
X419100Y567300D03*
X739140Y766200D03*
X739140Y783200D03*
X759460Y766200D03*
X759460Y783200D03*
D13*
X718820Y774610D03*
X718820Y795110D03*
X739140Y797470D03*
X739140Y817970D03*
X759460Y815250D03*
X759460Y835750D03*
D12*
X695870Y815340D03*
X716370Y815340D03*
X723990Y922020D03*
X703490Y922020D03*
D13*
X749300Y899070D03*
X749300Y919570D03*
X769620Y901610D03*
X769620Y922110D03*
D10*
X439420Y563000D03*
X439420Y580000D03*
D11*
X331080Y340360D03*
X314080Y340360D03*
X281060Y340360D03*
X298060Y340360D03*
D12*
X899070Y307340D03*
X919570Y307340D03*
X907960Y284480D03*
X928460Y284480D03*
X929550Y266700D03*
X950050Y266700D03*
D13*
X937260Y322670D03*
X937260Y302170D03*
X1054100Y269150D03*
X1054100Y289650D03*
D12*
X1015910Y270510D03*
X1036410Y270510D03*
X1015910Y251460D03*
X1036410Y251460D03*
D10*
X886460Y760340D03*
X886460Y743340D03*
X459740Y580780D03*
X459740Y597780D03*
X906780Y766200D03*
X906780Y783200D03*
X927100Y766200D03*
X927100Y783200D03*
D13*
X886460Y774610D03*
X886460Y795110D03*
X916940Y797470D03*
X916940Y817970D03*
X937260Y815250D03*
X937260Y835750D03*
D12*
X868590Y815340D03*
X889090Y815340D03*
X896710Y911860D03*
X876210Y911860D03*
D13*
X916940Y883830D03*
X916940Y904330D03*
X937260Y883830D03*
X937260Y904330D03*
D11*
X402980Y589280D03*
X419980Y589280D03*
X417440Y340360D03*
X400440Y340360D03*
X367420Y340360D03*
X384420Y340360D03*
D12*
X896530Y170180D03*
X917030Y170180D03*
X893990Y149860D03*
X914490Y149860D03*
X916850Y129540D03*
X937350Y129540D03*
D13*
X937260Y188050D03*
X937260Y167550D03*
X1049020Y139610D03*
X1049020Y160110D03*
D12*
X1010830Y124460D03*
X1031330Y124460D03*
X1013370Y104140D03*
X1033870Y104140D03*
D10*
X1043940Y745100D03*
X1043940Y728100D03*
D11*
X437760Y685800D03*
X420760Y685800D03*
D10*
X1069340Y756040D03*
X1069340Y773040D03*
X1089660Y753500D03*
X1089660Y770500D03*
D13*
X1043940Y761910D03*
X1043940Y782410D03*
X1069340Y789850D03*
X1069340Y810350D03*
X1089660Y812710D03*
X1089660Y833210D03*
D12*
X1023530Y800100D03*
X1044030Y800100D03*
X1061810Y906780D03*
X1041310Y906780D03*
D13*
X1089660Y891450D03*
X1089660Y911950D03*
X1109980Y893990D03*
X1109980Y914490D03*
D18*
X83820Y167640D03*
D19*
X109220Y167640D03*
X134620Y167640D03*
D20*
X495300Y632220D03*
D21*
X485300Y598970D03*
X505300Y598970D03*
D20*
X1120140Y870980D03*
D21*
X1110140Y837730D03*
X1130140Y837730D03*
D22*
X332980Y586740D03*
D21*
X366230Y576740D03*
X366230Y596740D03*
D22*
X997980Y520700D03*
D21*
X964730Y530700D03*
X964730Y510700D03*
D20*
X632460Y870980D03*
D21*
X622460Y837730D03*
X642460Y837730D03*
D22*
X982740Y368300D03*
D21*
X949490Y378300D03*
X949490Y358300D03*
D20*
X795020Y876060D03*
D21*
X785020Y842810D03*
X805020Y842810D03*
D22*
X992900Y231140D03*
D21*
X959650Y241140D03*
X959650Y221140D03*
D20*
X967740Y870980D03*
D21*
X957740Y837730D03*
X977740Y837730D03*
D22*
X977660Y93980D03*
D21*
X944410Y103980D03*
X944410Y83980D03*
D23*
X393700Y176340D02*
X393700Y189420D01*
X698500Y189420D02*
X698500Y176340D01*
X673100Y176340D02*
X673100Y189420D01*
X647700Y189420D02*
X647700Y176340D01*
X622300Y176340D02*
X622300Y189420D01*
X596900Y189420D02*
X596900Y176340D01*
X571500Y176340D02*
X571500Y189420D01*
X546100Y189420D02*
X546100Y176340D01*
X520700Y176340D02*
X520700Y189420D01*
X495300Y189420D02*
X495300Y176340D01*
X469900Y176340D02*
X469900Y189420D01*
X698500Y37020D02*
X698500Y23940D01*
X673100Y23940D02*
X673100Y37020D01*
X520700Y37020D02*
X520700Y23940D01*
X495300Y23940D02*
X495300Y37020D01*
X469900Y37020D02*
X469900Y23940D01*
X444500Y23940D02*
X444500Y37020D01*
X368300Y37020D02*
X368300Y23940D01*
X368300Y176340D02*
X368300Y189420D01*
X419100Y189420D02*
X419100Y176340D01*
X444500Y176340D02*
X444500Y189420D01*
X393700Y37020D02*
X393700Y23940D01*
X419100Y23940D02*
X419100Y37020D01*
X647700Y37020D02*
X647700Y23940D01*
X546100Y23940D02*
X546100Y37020D01*
X571500Y37020D02*
X571500Y23940D01*
X596900Y23940D02*
X596900Y37020D01*
X622300Y37020D02*
X622300Y23940D01*
D24*
X955802Y451710D03*
X955802Y445210D03*
X955802Y438710D03*
X955802Y432210D03*
X999998Y432210D03*
X999998Y438710D03*
X999998Y445210D03*
X999998Y451710D03*
D25*
X706530Y844042D03*
X713030Y844042D03*
X719530Y844042D03*
X726030Y844042D03*
X726030Y888238D03*
X719530Y888238D03*
X713030Y888238D03*
X706530Y888238D03*
D24*
X965962Y309470D03*
X965962Y302970D03*
X965962Y296470D03*
X965962Y289970D03*
X1010158Y289970D03*
X1010158Y296470D03*
X1010158Y302970D03*
X1010158Y309470D03*
D25*
X879250Y838962D03*
X885750Y838962D03*
X892250Y838962D03*
X898750Y838962D03*
X898750Y883158D03*
X892250Y883158D03*
X885750Y883158D03*
X879250Y883158D03*
D24*
X965962Y172310D03*
X965962Y165810D03*
X965962Y159310D03*
X965962Y152810D03*
X1010158Y152810D03*
X1010158Y159310D03*
X1010158Y165810D03*
X1010158Y172310D03*
D25*
X1036730Y833882D03*
X1043230Y833882D03*
X1049730Y833882D03*
X1056230Y833882D03*
X1056230Y878078D03*
X1049730Y878078D03*
X1043230Y878078D03*
X1036730Y878078D03*
D26*
X476250Y67980D03*
X476250Y119980D03*
X463550Y67980D03*
X488950Y67980D03*
X501650Y67980D03*
X463550Y119980D03*
X488950Y119980D03*
X501650Y119980D03*
D27*
X723300Y113030D03*
X775300Y113030D03*
X723300Y125730D03*
X723300Y100330D03*
X723300Y87630D03*
X775300Y125730D03*
X775300Y100330D03*
X775300Y87630D03*
D25*
X411890Y615442D03*
X418390Y615442D03*
X424890Y615442D03*
X431390Y615442D03*
X431390Y659638D03*
X424890Y659638D03*
X418390Y659638D03*
X411890Y659638D03*
D24*
X354838Y503330D03*
X354838Y509830D03*
X354838Y516330D03*
X354838Y522830D03*
X310642Y522830D03*
X310642Y516330D03*
X310642Y509830D03*
X310642Y503330D03*
X960882Y609190D03*
X960882Y602690D03*
X960882Y596190D03*
X960882Y589690D03*
X1005078Y589690D03*
X1005078Y596190D03*
X1005078Y602690D03*
X1005078Y609190D03*
D25*
X549050Y844042D03*
X555550Y844042D03*
X562050Y844042D03*
X568550Y844042D03*
X568550Y888238D03*
X562050Y888238D03*
X555550Y888238D03*
X549050Y888238D03*
D28*
X146050Y296418D03*
X133350Y296418D03*
X120650Y296418D03*
X107950Y296418D03*
X107950Y247142D03*
X120650Y247142D03*
X133350Y247142D03*
X146050Y247142D03*
X240030Y296418D03*
X227330Y296418D03*
X214630Y296418D03*
X201930Y296418D03*
X201930Y247142D03*
X214630Y247142D03*
X227330Y247142D03*
X240030Y247142D03*
X326390Y297688D03*
X313690Y297688D03*
X300990Y297688D03*
X288290Y297688D03*
X288290Y248412D03*
X300990Y248412D03*
X313690Y248412D03*
X326390Y248412D03*
X412750Y296418D03*
X400050Y296418D03*
X387350Y296418D03*
X374650Y296418D03*
X374650Y247142D03*
X387350Y247142D03*
X400050Y247142D03*
X412750Y247142D03*
D11*
X474100Y144780D03*
X491100Y144780D03*
D29*
X504190Y532638D03*
X524764Y522732D03*
X538988Y504952D03*
X544322Y482600D03*
X538988Y460248D03*
X524764Y442468D03*
X504190Y432562D03*
X481330Y432562D03*
X460756Y442468D03*
X446532Y460248D03*
X441198Y482600D03*
X460756Y522732D03*
X481330Y532638D03*
X504190Y509778D03*
X522478Y489204D03*
X516382Y463550D03*
X469138Y463550D03*
X463042Y489204D03*
X481330Y509778D03*
X492760Y474980D03*
X492760Y452120D03*
X446532Y504952D03*
D10*
X1733550Y90560D03*
X1733550Y107560D03*
X1559560Y521580D03*
X1559560Y504580D03*
D11*
X1646800Y543560D03*
X1629800Y543560D03*
D10*
X1691640Y666360D03*
X1691640Y649360D03*
X1676400Y125340D03*
X1676400Y108340D03*
X1656080Y125340D03*
X1656080Y108340D03*
D11*
X1423280Y325120D03*
X1406280Y325120D03*
D10*
X1366520Y285360D03*
X1366520Y268360D03*
X1381760Y285360D03*
X1381760Y268360D03*
X1717040Y90560D03*
X1717040Y107560D03*
D12*
X2275750Y628650D03*
X2296250Y628650D03*
D13*
X2363470Y572680D03*
X2363470Y593180D03*
D12*
X2268130Y563880D03*
X2288630Y563880D03*
X2275750Y645160D03*
X2296250Y645160D03*
D10*
X1874520Y747640D03*
X1874520Y730640D03*
X1859280Y747640D03*
X1859280Y730640D03*
D13*
X1803400Y862240D03*
X1803400Y882740D03*
D12*
X1864450Y934720D03*
X1843950Y934720D03*
D11*
X1390260Y121920D03*
X1373260Y121920D03*
D13*
X1884680Y858430D03*
X1884680Y878930D03*
X1821180Y882740D03*
X1821180Y862240D03*
D11*
X1522340Y325120D03*
X1505340Y325120D03*
X1476620Y284480D03*
X1459620Y284480D03*
X1476620Y269240D03*
X1459620Y269240D03*
D12*
X2263050Y487680D03*
X2283550Y487680D03*
D13*
X2363470Y421550D03*
X2363470Y442050D03*
D12*
X2255430Y414020D03*
X2275930Y414020D03*
D11*
X1418980Y121920D03*
X1435980Y121920D03*
D12*
X2263050Y469900D03*
X2283550Y469900D03*
D10*
X2054860Y752720D03*
X2054860Y735720D03*
X2034540Y752720D03*
X2034540Y735720D03*
D13*
X1965960Y860970D03*
X1965960Y881470D03*
D12*
X2019390Y942340D03*
X1998890Y942340D03*
D13*
X2044700Y853350D03*
X2044700Y873850D03*
X1983740Y881470D03*
X1983740Y860970D03*
D11*
X1608700Y322580D03*
X1591700Y322580D03*
X1568060Y266700D03*
X1551060Y266700D03*
X1568060Y281940D03*
X1551060Y281940D03*
X1608700Y467360D03*
X1591700Y467360D03*
D12*
X2288450Y344170D03*
X2308950Y344170D03*
D13*
X2367280Y269150D03*
X2367280Y289650D03*
D12*
X2265590Y271780D03*
X2286090Y271780D03*
X2288450Y327660D03*
X2308950Y327660D03*
D10*
X2202180Y752720D03*
X2202180Y735720D03*
X2222500Y752720D03*
X2222500Y735720D03*
D13*
X2153920Y860970D03*
X2153920Y881470D03*
D12*
X2192110Y932180D03*
X2171610Y932180D03*
D11*
X1733160Y706120D03*
X1716160Y706120D03*
D13*
X2212340Y843190D03*
X2212340Y863690D03*
X2136140Y881470D03*
X2136140Y860970D03*
D11*
X1697600Y322580D03*
X1680600Y322580D03*
X1654420Y265430D03*
X1637420Y265430D03*
X1654420Y280670D03*
X1637420Y280670D03*
D12*
X2285910Y208280D03*
X2306410Y208280D03*
D13*
X2364740Y139610D03*
X2364740Y160110D03*
D12*
X2260510Y134620D03*
X2281010Y134620D03*
D10*
X1747520Y613800D03*
X1747520Y630800D03*
D12*
X2285910Y190500D03*
X2306410Y190500D03*
D10*
X2385060Y737480D03*
X2385060Y720480D03*
X2364740Y737480D03*
X2364740Y720480D03*
D13*
X2313940Y850810D03*
X2313940Y871310D03*
D12*
X2357210Y927100D03*
X2336710Y927100D03*
D13*
X2374900Y850810D03*
X2374900Y871310D03*
X2297430Y871310D03*
X2297430Y850810D03*
D11*
X1591700Y482600D03*
X1608700Y482600D03*
D10*
X1671320Y649360D03*
X1671320Y666360D03*
D14*
X1441450Y388620D02*
X1426210Y388620D01*
X1426210Y363220D02*
X1441450Y363220D01*
X1482090Y388620D02*
X1497330Y388620D01*
X1497330Y363220D02*
X1482090Y363220D01*
X2113280Y402590D02*
X2113280Y417830D01*
X2138680Y417830D02*
X2138680Y402590D01*
X2113280Y436880D02*
X2113280Y452120D01*
X2138680Y452120D02*
X2138680Y436880D01*
X2057400Y690880D02*
X2042160Y690880D01*
X2042160Y716280D02*
X2057400Y716280D01*
X2024380Y690880D02*
X2009140Y690880D01*
X2009140Y716280D02*
X2024380Y716280D01*
X1625600Y389890D02*
X1610360Y389890D01*
X1610360Y364490D02*
X1625600Y364490D01*
X1591310Y389890D02*
X1576070Y389890D01*
X1576070Y364490D02*
X1591310Y364490D01*
X1404620Y388620D02*
X1389380Y388620D01*
X1389380Y363220D02*
X1404620Y363220D01*
X2133600Y276860D02*
X2133600Y261620D01*
X2159000Y261620D02*
X2159000Y276860D01*
X2133600Y299720D02*
X2133600Y314960D01*
X2159000Y314960D02*
X2159000Y299720D01*
X2209800Y685800D02*
X2225040Y685800D01*
X2225040Y711200D02*
X2209800Y711200D01*
X2192020Y685800D02*
X2176780Y685800D01*
X2176780Y711200D02*
X2192020Y711200D01*
X1711960Y389890D02*
X1696720Y389890D01*
X1696720Y364490D02*
X1711960Y364490D01*
X1678940Y389890D02*
X1663700Y389890D01*
X1663700Y364490D02*
X1678940Y364490D01*
X2131060Y144780D02*
X2131060Y129540D01*
X2156460Y129540D02*
X2156460Y144780D01*
X2131060Y165100D02*
X2131060Y180340D01*
X2156460Y180340D02*
X2156460Y165100D01*
X2369820Y668020D02*
X2385060Y668020D01*
X2385060Y693420D02*
X2369820Y693420D01*
X2349500Y668020D02*
X2334260Y668020D01*
X2334260Y693420D02*
X2349500Y693420D01*
X1816100Y259080D02*
X1800860Y259080D01*
X1800860Y233680D02*
X1816100Y233680D01*
X1778000Y259080D02*
X1762760Y259080D01*
X1762760Y233680D02*
X1778000Y233680D01*
X1948180Y259080D02*
X1963420Y259080D01*
X1963420Y233680D02*
X1948180Y233680D01*
X1925320Y259080D02*
X1910080Y259080D01*
X1910080Y233680D02*
X1925320Y233680D01*
X2016760Y259080D02*
X2032000Y259080D01*
X2032000Y233680D02*
X2016760Y233680D01*
X1998980Y259080D02*
X1983740Y259080D01*
X1983740Y233680D02*
X1998980Y233680D01*
X1851660Y259080D02*
X1836420Y259080D01*
X1836420Y233680D02*
X1851660Y233680D01*
X1874520Y259080D02*
X1889760Y259080D01*
X1889760Y233680D02*
X1874520Y233680D01*
X2120900Y551180D02*
X2120900Y566420D01*
X2146300Y566420D02*
X2146300Y551180D01*
X2120900Y586740D02*
X2120900Y601980D01*
X2146300Y601980D02*
X2146300Y586740D01*
X1878330Y683260D02*
X1863090Y683260D01*
X1863090Y708660D02*
X1878330Y708660D01*
X1845310Y683260D02*
X1830070Y683260D01*
X1830070Y708660D02*
X1845310Y708660D01*
X1534160Y388620D02*
X1518920Y388620D01*
X1518920Y363220D02*
X1534160Y363220D01*
D15*
X1765300Y613300D03*
D16*
X1770109Y628491D02*
X1770109Y634109D01*
X1770109Y628491D02*
X1760491Y628491D01*
X1760491Y634109D01*
X1770109Y634109D01*
X1770109Y632684D02*
X1760491Y632684D01*
D17*
X1649840Y561340D03*
D16*
X1634649Y566149D02*
X1629031Y566149D01*
X1634649Y566149D02*
X1634649Y556531D01*
X1629031Y556531D01*
X1629031Y566149D01*
X1629031Y560724D02*
X1634649Y560724D01*
X1634649Y564917D02*
X1629031Y564917D01*
D17*
X2259220Y546100D03*
D16*
X2274411Y541291D02*
X2280029Y541291D01*
X2274411Y541291D02*
X2274411Y550909D01*
X2280029Y550909D01*
X2280029Y541291D01*
X2280029Y545484D02*
X2274411Y545484D01*
X2274411Y549677D02*
X2280029Y549677D01*
D15*
X1902460Y849520D03*
D16*
X1907269Y864711D02*
X1907269Y870329D01*
X1907269Y864711D02*
X1897651Y864711D01*
X1897651Y870329D01*
X1907269Y870329D01*
X1907269Y868904D02*
X1897651Y868904D01*
D17*
X2254140Y393700D03*
D16*
X2269331Y388891D02*
X2274949Y388891D01*
X2269331Y388891D02*
X2269331Y398509D01*
X2274949Y398509D01*
X2274949Y388891D01*
X2274949Y393084D02*
X2269331Y393084D01*
X2269331Y397277D02*
X2274949Y397277D01*
D15*
X2065020Y854600D03*
D16*
X2069829Y869791D02*
X2069829Y875409D01*
X2069829Y869791D02*
X2060211Y869791D01*
X2060211Y875409D01*
X2069829Y875409D01*
X2069829Y873984D02*
X2060211Y873984D01*
D17*
X2264300Y256540D03*
D16*
X2279491Y251731D02*
X2285109Y251731D01*
X2279491Y251731D02*
X2279491Y261349D01*
X2285109Y261349D01*
X2285109Y251731D01*
X2285109Y255924D02*
X2279491Y255924D01*
X2279491Y260117D02*
X2285109Y260117D01*
D15*
X2232660Y849520D03*
D16*
X2237469Y864711D02*
X2237469Y870329D01*
X2237469Y864711D02*
X2227851Y864711D01*
X2227851Y870329D01*
X2237469Y870329D01*
X2237469Y868904D02*
X2227851Y868904D01*
D17*
X2261760Y119380D03*
D16*
X2276951Y114571D02*
X2282569Y114571D01*
X2276951Y114571D02*
X2276951Y124189D01*
X2282569Y124189D01*
X2282569Y114571D01*
X2282569Y118764D02*
X2276951Y118764D01*
X2276951Y122957D02*
X2282569Y122957D01*
D15*
X2390140Y846980D03*
D16*
X2394949Y862171D02*
X2394949Y867789D01*
X2394949Y862171D02*
X2385331Y862171D01*
X2385331Y867789D01*
X2394949Y867789D01*
X2394949Y866364D02*
X2385331Y866364D01*
D11*
X2065900Y144780D03*
X2048900Y144780D03*
D10*
X1747520Y646820D03*
X1747520Y663820D03*
X1767840Y649360D03*
X1767840Y666360D03*
D11*
X1706490Y509270D03*
X1689490Y509270D03*
X1697600Y528320D03*
X1680600Y528320D03*
X1679820Y548640D03*
X1662820Y548640D03*
D10*
X1671320Y491880D03*
X1671320Y508880D03*
X1579880Y521580D03*
X1579880Y504580D03*
D11*
X1611240Y548640D03*
X1594240Y548640D03*
X1613780Y568960D03*
X1596780Y568960D03*
X2027800Y144780D03*
X2010800Y144780D03*
X1438520Y340360D03*
X1421520Y340360D03*
X1388500Y340360D03*
X1405500Y340360D03*
D12*
X2177960Y594360D03*
X2198460Y594360D03*
X2219870Y571500D03*
X2240370Y571500D03*
X2222410Y546100D03*
X2242910Y546100D03*
D13*
X2222500Y614770D03*
X2222500Y594270D03*
X2345690Y572680D03*
X2345690Y593180D03*
D12*
X2308770Y570230D03*
X2329270Y570230D03*
X2308770Y552450D03*
X2329270Y552450D03*
D13*
X1841500Y777150D03*
X1841500Y797650D03*
D10*
X2044700Y64380D03*
X2044700Y47380D03*
X1841500Y757800D03*
X1841500Y740800D03*
X1861820Y763660D03*
X1861820Y780660D03*
X1882140Y763660D03*
X1882140Y780660D03*
D13*
X1864360Y797470D03*
X1864360Y817970D03*
X1882140Y817790D03*
X1882140Y838290D03*
D12*
X1826170Y820420D03*
X1846670Y820420D03*
X1864450Y916940D03*
X1843950Y916940D03*
D13*
X1887220Y896530D03*
X1887220Y917030D03*
X1907540Y888910D03*
X1907540Y909410D03*
D10*
X2070100Y47380D03*
X2070100Y64380D03*
D11*
X1540120Y340360D03*
X1523120Y340360D03*
X1490100Y340360D03*
X1507100Y340360D03*
D12*
X2181770Y444500D03*
X2202270Y444500D03*
X2204630Y424180D03*
X2225130Y424180D03*
X2217330Y403860D03*
X2237830Y403860D03*
D13*
X2222500Y462370D03*
X2222500Y441870D03*
X2344420Y421550D03*
X2344420Y442050D03*
D12*
X2303690Y414020D03*
X2324190Y414020D03*
X2306230Y393700D03*
X2326730Y393700D03*
D10*
X2014220Y760340D03*
X2014220Y743340D03*
X1714500Y550300D03*
X1714500Y567300D03*
X2034540Y766200D03*
X2034540Y783200D03*
X2054860Y766200D03*
X2054860Y783200D03*
D13*
X2014220Y774610D03*
X2014220Y795110D03*
X2034540Y797470D03*
X2034540Y817970D03*
X2054860Y815250D03*
X2054860Y835750D03*
D12*
X1991270Y815340D03*
X2011770Y815340D03*
X2019390Y922020D03*
X1998890Y922020D03*
D13*
X2044700Y899070D03*
X2044700Y919570D03*
X2065020Y901610D03*
X2065020Y922110D03*
D10*
X1734820Y563000D03*
X1734820Y580000D03*
D11*
X1626480Y340360D03*
X1609480Y340360D03*
X1576460Y340360D03*
X1593460Y340360D03*
D12*
X2194470Y307340D03*
X2214970Y307340D03*
X2203360Y284480D03*
X2223860Y284480D03*
X2224950Y266700D03*
X2245450Y266700D03*
D13*
X2232660Y322670D03*
X2232660Y302170D03*
X2349500Y269150D03*
X2349500Y289650D03*
D12*
X2311310Y270510D03*
X2331810Y270510D03*
X2311310Y251460D03*
X2331810Y251460D03*
D10*
X2181860Y760340D03*
X2181860Y743340D03*
X1755140Y580780D03*
X1755140Y597780D03*
X2202180Y766200D03*
X2202180Y783200D03*
X2222500Y766200D03*
X2222500Y783200D03*
D13*
X2181860Y774610D03*
X2181860Y795110D03*
X2212340Y797470D03*
X2212340Y817970D03*
X2232660Y815250D03*
X2232660Y835750D03*
D12*
X2163990Y815340D03*
X2184490Y815340D03*
X2192110Y911860D03*
X2171610Y911860D03*
D13*
X2212340Y883830D03*
X2212340Y904330D03*
X2232660Y883830D03*
X2232660Y904330D03*
D11*
X1698380Y589280D03*
X1715380Y589280D03*
X1712840Y340360D03*
X1695840Y340360D03*
X1662820Y340360D03*
X1679820Y340360D03*
D12*
X2191930Y170180D03*
X2212430Y170180D03*
X2189390Y149860D03*
X2209890Y149860D03*
X2212250Y129540D03*
X2232750Y129540D03*
D13*
X2232660Y188050D03*
X2232660Y167550D03*
X2344420Y139610D03*
X2344420Y160110D03*
D12*
X2306230Y124460D03*
X2326730Y124460D03*
X2308770Y104140D03*
X2329270Y104140D03*
D10*
X2339340Y745100D03*
X2339340Y728100D03*
D11*
X1733160Y685800D03*
X1716160Y685800D03*
D10*
X2364740Y756040D03*
X2364740Y773040D03*
X2385060Y753500D03*
X2385060Y770500D03*
D13*
X2339340Y761910D03*
X2339340Y782410D03*
X2364740Y789850D03*
X2364740Y810350D03*
X2385060Y812710D03*
X2385060Y833210D03*
D12*
X2318930Y800100D03*
X2339430Y800100D03*
X2357210Y906780D03*
X2336710Y906780D03*
D13*
X2385060Y891450D03*
X2385060Y911950D03*
X2405380Y893990D03*
X2405380Y914490D03*
D18*
X1379220Y167640D03*
D19*
X1404620Y167640D03*
X1430020Y167640D03*
D20*
X1790700Y632220D03*
D21*
X1780700Y598970D03*
X1800700Y598970D03*
D20*
X2415540Y870980D03*
D21*
X2405540Y837730D03*
X2425540Y837730D03*
D22*
X1628380Y586740D03*
D21*
X1661630Y576740D03*
X1661630Y596740D03*
D22*
X2293380Y520700D03*
D21*
X2260130Y530700D03*
X2260130Y510700D03*
D20*
X1927860Y870980D03*
D21*
X1917860Y837730D03*
X1937860Y837730D03*
D22*
X2278140Y368300D03*
D21*
X2244890Y378300D03*
X2244890Y358300D03*
D20*
X2090420Y876060D03*
D21*
X2080420Y842810D03*
X2100420Y842810D03*
D22*
X2288300Y231140D03*
D21*
X2255050Y241140D03*
X2255050Y221140D03*
D20*
X2263140Y870980D03*
D21*
X2253140Y837730D03*
X2273140Y837730D03*
D22*
X2273060Y93980D03*
D21*
X2239810Y103980D03*
X2239810Y83980D03*
D23*
X1689100Y176340D02*
X1689100Y189420D01*
X1993900Y189420D02*
X1993900Y176340D01*
X1968500Y176340D02*
X1968500Y189420D01*
X1943100Y189420D02*
X1943100Y176340D01*
X1917700Y176340D02*
X1917700Y189420D01*
X1892300Y189420D02*
X1892300Y176340D01*
X1866900Y176340D02*
X1866900Y189420D01*
X1841500Y189420D02*
X1841500Y176340D01*
X1816100Y176340D02*
X1816100Y189420D01*
X1790700Y189420D02*
X1790700Y176340D01*
X1765300Y176340D02*
X1765300Y189420D01*
X1993900Y37020D02*
X1993900Y23940D01*
X1968500Y23940D02*
X1968500Y37020D01*
X1816100Y37020D02*
X1816100Y23940D01*
X1790700Y23940D02*
X1790700Y37020D01*
X1765300Y37020D02*
X1765300Y23940D01*
X1739900Y23940D02*
X1739900Y37020D01*
X1663700Y37020D02*
X1663700Y23940D01*
X1663700Y176340D02*
X1663700Y189420D01*
X1714500Y189420D02*
X1714500Y176340D01*
X1739900Y176340D02*
X1739900Y189420D01*
X1689100Y37020D02*
X1689100Y23940D01*
X1714500Y23940D02*
X1714500Y37020D01*
X1943100Y37020D02*
X1943100Y23940D01*
X1841500Y23940D02*
X1841500Y37020D01*
X1866900Y37020D02*
X1866900Y23940D01*
X1892300Y23940D02*
X1892300Y37020D01*
X1917700Y37020D02*
X1917700Y23940D01*
D24*
X2251202Y451710D03*
X2251202Y445210D03*
X2251202Y438710D03*
X2251202Y432210D03*
X2295398Y432210D03*
X2295398Y438710D03*
X2295398Y445210D03*
X2295398Y451710D03*
D25*
X2001930Y844042D03*
X2008430Y844042D03*
X2014930Y844042D03*
X2021430Y844042D03*
X2021430Y888238D03*
X2014930Y888238D03*
X2008430Y888238D03*
X2001930Y888238D03*
D24*
X2261362Y309470D03*
X2261362Y302970D03*
X2261362Y296470D03*
X2261362Y289970D03*
X2305558Y289970D03*
X2305558Y296470D03*
X2305558Y302970D03*
X2305558Y309470D03*
D25*
X2174650Y838962D03*
X2181150Y838962D03*
X2187650Y838962D03*
X2194150Y838962D03*
X2194150Y883158D03*
X2187650Y883158D03*
X2181150Y883158D03*
X2174650Y883158D03*
D24*
X2261362Y172310D03*
X2261362Y165810D03*
X2261362Y159310D03*
X2261362Y152810D03*
X2305558Y152810D03*
X2305558Y159310D03*
X2305558Y165810D03*
X2305558Y172310D03*
D25*
X2332130Y833882D03*
X2338630Y833882D03*
X2345130Y833882D03*
X2351630Y833882D03*
X2351630Y878078D03*
X2345130Y878078D03*
X2338630Y878078D03*
X2332130Y878078D03*
D26*
X1771650Y67980D03*
X1771650Y119980D03*
X1758950Y67980D03*
X1784350Y67980D03*
X1797050Y67980D03*
X1758950Y119980D03*
X1784350Y119980D03*
X1797050Y119980D03*
D27*
X2018700Y113030D03*
X2070700Y113030D03*
X2018700Y125730D03*
X2018700Y100330D03*
X2018700Y87630D03*
X2070700Y125730D03*
X2070700Y100330D03*
X2070700Y87630D03*
D25*
X1707290Y615442D03*
X1713790Y615442D03*
X1720290Y615442D03*
X1726790Y615442D03*
X1726790Y659638D03*
X1720290Y659638D03*
X1713790Y659638D03*
X1707290Y659638D03*
D24*
X1650238Y503330D03*
X1650238Y509830D03*
X1650238Y516330D03*
X1650238Y522830D03*
X1606042Y522830D03*
X1606042Y516330D03*
X1606042Y509830D03*
X1606042Y503330D03*
X2256282Y609190D03*
X2256282Y602690D03*
X2256282Y596190D03*
X2256282Y589690D03*
X2300478Y589690D03*
X2300478Y596190D03*
X2300478Y602690D03*
X2300478Y609190D03*
D25*
X1844450Y844042D03*
X1850950Y844042D03*
X1857450Y844042D03*
X1863950Y844042D03*
X1863950Y888238D03*
X1857450Y888238D03*
X1850950Y888238D03*
X1844450Y888238D03*
D28*
X1441450Y296418D03*
X1428750Y296418D03*
X1416050Y296418D03*
X1403350Y296418D03*
X1403350Y247142D03*
X1416050Y247142D03*
X1428750Y247142D03*
X1441450Y247142D03*
X1535430Y296418D03*
X1522730Y296418D03*
X1510030Y296418D03*
X1497330Y296418D03*
X1497330Y247142D03*
X1510030Y247142D03*
X1522730Y247142D03*
X1535430Y247142D03*
X1621790Y297688D03*
X1609090Y297688D03*
X1596390Y297688D03*
X1583690Y297688D03*
X1583690Y248412D03*
X1596390Y248412D03*
X1609090Y248412D03*
X1621790Y248412D03*
X1708150Y296418D03*
X1695450Y296418D03*
X1682750Y296418D03*
X1670050Y296418D03*
X1670050Y247142D03*
X1682750Y247142D03*
X1695450Y247142D03*
X1708150Y247142D03*
D11*
X1769500Y144780D03*
X1786500Y144780D03*
D29*
X1799590Y532638D03*
X1820164Y522732D03*
X1834388Y504952D03*
X1839722Y482600D03*
X1834388Y460248D03*
X1820164Y442468D03*
X1799590Y432562D03*
X1776730Y432562D03*
X1756156Y442468D03*
X1741932Y460248D03*
X1736598Y482600D03*
X1756156Y522732D03*
X1776730Y532638D03*
X1799590Y509778D03*
X1817878Y489204D03*
X1811782Y463550D03*
X1764538Y463550D03*
X1758442Y489204D03*
X1776730Y509778D03*
X1788160Y474980D03*
X1788160Y452120D03*
X1741932Y504952D03*
D10*
X3026410Y90560D03*
X3026410Y107560D03*
X2852420Y521580D03*
X2852420Y504580D03*
D11*
X2939660Y543560D03*
X2922660Y543560D03*
D10*
X2984500Y666360D03*
X2984500Y649360D03*
X2969260Y125340D03*
X2969260Y108340D03*
X2948940Y125340D03*
X2948940Y108340D03*
D11*
X2716140Y325120D03*
X2699140Y325120D03*
D10*
X2659380Y285360D03*
X2659380Y268360D03*
X2674620Y285360D03*
X2674620Y268360D03*
X3009900Y90560D03*
X3009900Y107560D03*
D12*
X3568610Y628650D03*
X3589110Y628650D03*
D13*
X3656330Y572680D03*
X3656330Y593180D03*
D12*
X3560990Y563880D03*
X3581490Y563880D03*
X3568610Y645160D03*
X3589110Y645160D03*
D10*
X3167380Y747640D03*
X3167380Y730640D03*
X3152140Y747640D03*
X3152140Y730640D03*
D13*
X3096260Y862240D03*
X3096260Y882740D03*
D12*
X3157310Y934720D03*
X3136810Y934720D03*
D11*
X2683120Y121920D03*
X2666120Y121920D03*
D13*
X3177540Y858430D03*
X3177540Y878930D03*
X3114040Y882740D03*
X3114040Y862240D03*
D11*
X2815200Y325120D03*
X2798200Y325120D03*
X2769480Y284480D03*
X2752480Y284480D03*
X2769480Y269240D03*
X2752480Y269240D03*
D12*
X3555910Y487680D03*
X3576410Y487680D03*
D13*
X3656330Y421550D03*
X3656330Y442050D03*
D12*
X3548290Y414020D03*
X3568790Y414020D03*
D11*
X2711840Y121920D03*
X2728840Y121920D03*
D12*
X3555910Y469900D03*
X3576410Y469900D03*
D10*
X3347720Y752720D03*
X3347720Y735720D03*
X3327400Y752720D03*
X3327400Y735720D03*
D13*
X3258820Y860970D03*
X3258820Y881470D03*
D12*
X3312250Y942340D03*
X3291750Y942340D03*
D13*
X3337560Y853350D03*
X3337560Y873850D03*
X3276600Y881470D03*
X3276600Y860970D03*
D11*
X2901560Y322580D03*
X2884560Y322580D03*
X2860920Y266700D03*
X2843920Y266700D03*
X2860920Y281940D03*
X2843920Y281940D03*
X2901560Y467360D03*
X2884560Y467360D03*
D12*
X3581310Y344170D03*
X3601810Y344170D03*
D13*
X3660140Y269150D03*
X3660140Y289650D03*
D12*
X3558450Y271780D03*
X3578950Y271780D03*
X3581310Y327660D03*
X3601810Y327660D03*
D10*
X3495040Y752720D03*
X3495040Y735720D03*
X3515360Y752720D03*
X3515360Y735720D03*
D13*
X3446780Y860970D03*
X3446780Y881470D03*
D12*
X3484970Y932180D03*
X3464470Y932180D03*
D11*
X3026020Y706120D03*
X3009020Y706120D03*
D13*
X3505200Y843190D03*
X3505200Y863690D03*
X3429000Y881470D03*
X3429000Y860970D03*
D11*
X2990460Y322580D03*
X2973460Y322580D03*
X2947280Y265430D03*
X2930280Y265430D03*
X2947280Y280670D03*
X2930280Y280670D03*
D12*
X3578770Y208280D03*
X3599270Y208280D03*
D13*
X3657600Y139610D03*
X3657600Y160110D03*
D12*
X3553370Y134620D03*
X3573870Y134620D03*
D10*
X3040380Y613800D03*
X3040380Y630800D03*
D12*
X3578770Y190500D03*
X3599270Y190500D03*
D10*
X3677920Y737480D03*
X3677920Y720480D03*
X3657600Y737480D03*
X3657600Y720480D03*
D13*
X3606800Y850810D03*
X3606800Y871310D03*
D12*
X3650070Y927100D03*
X3629570Y927100D03*
D13*
X3667760Y850810D03*
X3667760Y871310D03*
X3590290Y871310D03*
X3590290Y850810D03*
D11*
X2884560Y482600D03*
X2901560Y482600D03*
D10*
X2964180Y649360D03*
X2964180Y666360D03*
D14*
X2734310Y388620D02*
X2719070Y388620D01*
X2719070Y363220D02*
X2734310Y363220D01*
X2774950Y388620D02*
X2790190Y388620D01*
X2790190Y363220D02*
X2774950Y363220D01*
X3406140Y402590D02*
X3406140Y417830D01*
X3431540Y417830D02*
X3431540Y402590D01*
X3406140Y436880D02*
X3406140Y452120D01*
X3431540Y452120D02*
X3431540Y436880D01*
X3350260Y690880D02*
X3335020Y690880D01*
X3335020Y716280D02*
X3350260Y716280D01*
X3317240Y690880D02*
X3302000Y690880D01*
X3302000Y716280D02*
X3317240Y716280D01*
X2918460Y389890D02*
X2903220Y389890D01*
X2903220Y364490D02*
X2918460Y364490D01*
X2884170Y389890D02*
X2868930Y389890D01*
X2868930Y364490D02*
X2884170Y364490D01*
X2697480Y388620D02*
X2682240Y388620D01*
X2682240Y363220D02*
X2697480Y363220D01*
X3426460Y276860D02*
X3426460Y261620D01*
X3451860Y261620D02*
X3451860Y276860D01*
X3426460Y299720D02*
X3426460Y314960D01*
X3451860Y314960D02*
X3451860Y299720D01*
X3502660Y685800D02*
X3517900Y685800D01*
X3517900Y711200D02*
X3502660Y711200D01*
X3484880Y685800D02*
X3469640Y685800D01*
X3469640Y711200D02*
X3484880Y711200D01*
X3004820Y389890D02*
X2989580Y389890D01*
X2989580Y364490D02*
X3004820Y364490D01*
X2971800Y389890D02*
X2956560Y389890D01*
X2956560Y364490D02*
X2971800Y364490D01*
X3423920Y144780D02*
X3423920Y129540D01*
X3449320Y129540D02*
X3449320Y144780D01*
X3423920Y165100D02*
X3423920Y180340D01*
X3449320Y180340D02*
X3449320Y165100D01*
X3662680Y668020D02*
X3677920Y668020D01*
X3677920Y693420D02*
X3662680Y693420D01*
X3642360Y668020D02*
X3627120Y668020D01*
X3627120Y693420D02*
X3642360Y693420D01*
X3108960Y259080D02*
X3093720Y259080D01*
X3093720Y233680D02*
X3108960Y233680D01*
X3070860Y259080D02*
X3055620Y259080D01*
X3055620Y233680D02*
X3070860Y233680D01*
X3241040Y259080D02*
X3256280Y259080D01*
X3256280Y233680D02*
X3241040Y233680D01*
X3218180Y259080D02*
X3202940Y259080D01*
X3202940Y233680D02*
X3218180Y233680D01*
X3309620Y259080D02*
X3324860Y259080D01*
X3324860Y233680D02*
X3309620Y233680D01*
X3291840Y259080D02*
X3276600Y259080D01*
X3276600Y233680D02*
X3291840Y233680D01*
X3144520Y259080D02*
X3129280Y259080D01*
X3129280Y233680D02*
X3144520Y233680D01*
X3167380Y259080D02*
X3182620Y259080D01*
X3182620Y233680D02*
X3167380Y233680D01*
X3413760Y551180D02*
X3413760Y566420D01*
X3439160Y566420D02*
X3439160Y551180D01*
X3413760Y586740D02*
X3413760Y601980D01*
X3439160Y601980D02*
X3439160Y586740D01*
X3171190Y683260D02*
X3155950Y683260D01*
X3155950Y708660D02*
X3171190Y708660D01*
X3138170Y683260D02*
X3122930Y683260D01*
X3122930Y708660D02*
X3138170Y708660D01*
X2827020Y388620D02*
X2811780Y388620D01*
X2811780Y363220D02*
X2827020Y363220D01*
D15*
X3058160Y613300D03*
D16*
X3062969Y628491D02*
X3062969Y634109D01*
X3062969Y628491D02*
X3053351Y628491D01*
X3053351Y634109D01*
X3062969Y634109D01*
X3062969Y632684D02*
X3053351Y632684D01*
D17*
X2942700Y561340D03*
D16*
X2927509Y566149D02*
X2921891Y566149D01*
X2927509Y566149D02*
X2927509Y556531D01*
X2921891Y556531D01*
X2921891Y566149D01*
X2921891Y560724D02*
X2927509Y560724D01*
X2927509Y564917D02*
X2921891Y564917D01*
D17*
X3552080Y546100D03*
D16*
X3567271Y541291D02*
X3572889Y541291D01*
X3567271Y541291D02*
X3567271Y550909D01*
X3572889Y550909D01*
X3572889Y541291D01*
X3572889Y545484D02*
X3567271Y545484D01*
X3567271Y549677D02*
X3572889Y549677D01*
D15*
X3195320Y849520D03*
D16*
X3200129Y864711D02*
X3200129Y870329D01*
X3200129Y864711D02*
X3190511Y864711D01*
X3190511Y870329D01*
X3200129Y870329D01*
X3200129Y868904D02*
X3190511Y868904D01*
D17*
X3547000Y393700D03*
D16*
X3562191Y388891D02*
X3567809Y388891D01*
X3562191Y388891D02*
X3562191Y398509D01*
X3567809Y398509D01*
X3567809Y388891D01*
X3567809Y393084D02*
X3562191Y393084D01*
X3562191Y397277D02*
X3567809Y397277D01*
D15*
X3357880Y854600D03*
D16*
X3362689Y869791D02*
X3362689Y875409D01*
X3362689Y869791D02*
X3353071Y869791D01*
X3353071Y875409D01*
X3362689Y875409D01*
X3362689Y873984D02*
X3353071Y873984D01*
D17*
X3557160Y256540D03*
D16*
X3572351Y251731D02*
X3577969Y251731D01*
X3572351Y251731D02*
X3572351Y261349D01*
X3577969Y261349D01*
X3577969Y251731D01*
X3577969Y255924D02*
X3572351Y255924D01*
X3572351Y260117D02*
X3577969Y260117D01*
D15*
X3525520Y849520D03*
D16*
X3530329Y864711D02*
X3530329Y870329D01*
X3530329Y864711D02*
X3520711Y864711D01*
X3520711Y870329D01*
X3530329Y870329D01*
X3530329Y868904D02*
X3520711Y868904D01*
D17*
X3554620Y119380D03*
D16*
X3569811Y114571D02*
X3575429Y114571D01*
X3569811Y114571D02*
X3569811Y124189D01*
X3575429Y124189D01*
X3575429Y114571D01*
X3575429Y118764D02*
X3569811Y118764D01*
X3569811Y122957D02*
X3575429Y122957D01*
D15*
X3683000Y846980D03*
D16*
X3687809Y862171D02*
X3687809Y867789D01*
X3687809Y862171D02*
X3678191Y862171D01*
X3678191Y867789D01*
X3687809Y867789D01*
X3687809Y866364D02*
X3678191Y866364D01*
D11*
X3358760Y144780D03*
X3341760Y144780D03*
D10*
X3040380Y646820D03*
X3040380Y663820D03*
X3060700Y649360D03*
X3060700Y666360D03*
D11*
X2999350Y509270D03*
X2982350Y509270D03*
X2990460Y528320D03*
X2973460Y528320D03*
X2972680Y548640D03*
X2955680Y548640D03*
D10*
X2964180Y491880D03*
X2964180Y508880D03*
X2872740Y521580D03*
X2872740Y504580D03*
D11*
X2904100Y548640D03*
X2887100Y548640D03*
X2906640Y568960D03*
X2889640Y568960D03*
X3320660Y144780D03*
X3303660Y144780D03*
X2731380Y340360D03*
X2714380Y340360D03*
X2681360Y340360D03*
X2698360Y340360D03*
D12*
X3470820Y594360D03*
X3491320Y594360D03*
X3512730Y571500D03*
X3533230Y571500D03*
X3515270Y546100D03*
X3535770Y546100D03*
D13*
X3515360Y614770D03*
X3515360Y594270D03*
X3638550Y572680D03*
X3638550Y593180D03*
D12*
X3601630Y570230D03*
X3622130Y570230D03*
X3601630Y552450D03*
X3622130Y552450D03*
D13*
X3134360Y777150D03*
X3134360Y797650D03*
D10*
X3337560Y64380D03*
X3337560Y47380D03*
X3134360Y757800D03*
X3134360Y740800D03*
X3154680Y763660D03*
X3154680Y780660D03*
X3175000Y763660D03*
X3175000Y780660D03*
D13*
X3157220Y797470D03*
X3157220Y817970D03*
X3175000Y817790D03*
X3175000Y838290D03*
D12*
X3119030Y820420D03*
X3139530Y820420D03*
X3157310Y916940D03*
X3136810Y916940D03*
D13*
X3180080Y896530D03*
X3180080Y917030D03*
X3200400Y888910D03*
X3200400Y909410D03*
D10*
X3362960Y47380D03*
X3362960Y64380D03*
D11*
X2832980Y340360D03*
X2815980Y340360D03*
X2782960Y340360D03*
X2799960Y340360D03*
D12*
X3474630Y444500D03*
X3495130Y444500D03*
X3497490Y424180D03*
X3517990Y424180D03*
X3510190Y403860D03*
X3530690Y403860D03*
D13*
X3515360Y462370D03*
X3515360Y441870D03*
X3637280Y421550D03*
X3637280Y442050D03*
D12*
X3596550Y414020D03*
X3617050Y414020D03*
X3599090Y393700D03*
X3619590Y393700D03*
D10*
X3307080Y760340D03*
X3307080Y743340D03*
X3007360Y550300D03*
X3007360Y567300D03*
X3327400Y766200D03*
X3327400Y783200D03*
X3347720Y766200D03*
X3347720Y783200D03*
D13*
X3307080Y774610D03*
X3307080Y795110D03*
X3327400Y797470D03*
X3327400Y817970D03*
X3347720Y815250D03*
X3347720Y835750D03*
D12*
X3284130Y815340D03*
X3304630Y815340D03*
X3312250Y922020D03*
X3291750Y922020D03*
D13*
X3337560Y899070D03*
X3337560Y919570D03*
X3357880Y901610D03*
X3357880Y922110D03*
D10*
X3027680Y563000D03*
X3027680Y580000D03*
D11*
X2919340Y340360D03*
X2902340Y340360D03*
X2869320Y340360D03*
X2886320Y340360D03*
D12*
X3487330Y307340D03*
X3507830Y307340D03*
X3496220Y284480D03*
X3516720Y284480D03*
X3517810Y266700D03*
X3538310Y266700D03*
D13*
X3525520Y322670D03*
X3525520Y302170D03*
X3642360Y269150D03*
X3642360Y289650D03*
D12*
X3604170Y270510D03*
X3624670Y270510D03*
X3604170Y251460D03*
X3624670Y251460D03*
D10*
X3474720Y760340D03*
X3474720Y743340D03*
X3048000Y580780D03*
X3048000Y597780D03*
X3495040Y766200D03*
X3495040Y783200D03*
X3515360Y766200D03*
X3515360Y783200D03*
D13*
X3474720Y774610D03*
X3474720Y795110D03*
X3505200Y797470D03*
X3505200Y817970D03*
X3525520Y815250D03*
X3525520Y835750D03*
D12*
X3456850Y815340D03*
X3477350Y815340D03*
X3484970Y911860D03*
X3464470Y911860D03*
D13*
X3505200Y883830D03*
X3505200Y904330D03*
X3525520Y883830D03*
X3525520Y904330D03*
D11*
X2991240Y589280D03*
X3008240Y589280D03*
X3005700Y340360D03*
X2988700Y340360D03*
X2955680Y340360D03*
X2972680Y340360D03*
D12*
X3484790Y170180D03*
X3505290Y170180D03*
X3482250Y149860D03*
X3502750Y149860D03*
X3505110Y129540D03*
X3525610Y129540D03*
D13*
X3525520Y188050D03*
X3525520Y167550D03*
X3637280Y139610D03*
X3637280Y160110D03*
D12*
X3599090Y124460D03*
X3619590Y124460D03*
X3601630Y104140D03*
X3622130Y104140D03*
D10*
X3632200Y745100D03*
X3632200Y728100D03*
D11*
X3026020Y685800D03*
X3009020Y685800D03*
D10*
X3657600Y756040D03*
X3657600Y773040D03*
X3677920Y753500D03*
X3677920Y770500D03*
D13*
X3632200Y761910D03*
X3632200Y782410D03*
X3657600Y789850D03*
X3657600Y810350D03*
X3677920Y812710D03*
X3677920Y833210D03*
D12*
X3611790Y800100D03*
X3632290Y800100D03*
X3650070Y906780D03*
X3629570Y906780D03*
D13*
X3677920Y891450D03*
X3677920Y911950D03*
X3698240Y893990D03*
X3698240Y914490D03*
D18*
X2672080Y167640D03*
D19*
X2697480Y167640D03*
X2722880Y167640D03*
D20*
X3083560Y632220D03*
D21*
X3073560Y598970D03*
X3093560Y598970D03*
D20*
X3708400Y870980D03*
D21*
X3698400Y837730D03*
X3718400Y837730D03*
D22*
X2921240Y586740D03*
D21*
X2954490Y576740D03*
X2954490Y596740D03*
D22*
X3586240Y520700D03*
D21*
X3552990Y530700D03*
X3552990Y510700D03*
D20*
X3220720Y870980D03*
D21*
X3210720Y837730D03*
X3230720Y837730D03*
D22*
X3571000Y368300D03*
D21*
X3537750Y378300D03*
X3537750Y358300D03*
D20*
X3383280Y876060D03*
D21*
X3373280Y842810D03*
X3393280Y842810D03*
D22*
X3581160Y231140D03*
D21*
X3547910Y241140D03*
X3547910Y221140D03*
D20*
X3556000Y870980D03*
D21*
X3546000Y837730D03*
X3566000Y837730D03*
D22*
X3565920Y93980D03*
D21*
X3532670Y103980D03*
X3532670Y83980D03*
D23*
X2981960Y176340D02*
X2981960Y189420D01*
X3286760Y189420D02*
X3286760Y176340D01*
X3261360Y176340D02*
X3261360Y189420D01*
X3235960Y189420D02*
X3235960Y176340D01*
X3210560Y176340D02*
X3210560Y189420D01*
X3185160Y189420D02*
X3185160Y176340D01*
X3159760Y176340D02*
X3159760Y189420D01*
X3134360Y189420D02*
X3134360Y176340D01*
X3108960Y176340D02*
X3108960Y189420D01*
X3083560Y189420D02*
X3083560Y176340D01*
X3058160Y176340D02*
X3058160Y189420D01*
X3286760Y37020D02*
X3286760Y23940D01*
X3261360Y23940D02*
X3261360Y37020D01*
X3108960Y37020D02*
X3108960Y23940D01*
X3083560Y23940D02*
X3083560Y37020D01*
X3058160Y37020D02*
X3058160Y23940D01*
X3032760Y23940D02*
X3032760Y37020D01*
X2956560Y37020D02*
X2956560Y23940D01*
X2956560Y176340D02*
X2956560Y189420D01*
X3007360Y189420D02*
X3007360Y176340D01*
X3032760Y176340D02*
X3032760Y189420D01*
X2981960Y37020D02*
X2981960Y23940D01*
X3007360Y23940D02*
X3007360Y37020D01*
X3235960Y37020D02*
X3235960Y23940D01*
X3134360Y23940D02*
X3134360Y37020D01*
X3159760Y37020D02*
X3159760Y23940D01*
X3185160Y23940D02*
X3185160Y37020D01*
X3210560Y37020D02*
X3210560Y23940D01*
D24*
X3544062Y451710D03*
X3544062Y445210D03*
X3544062Y438710D03*
X3544062Y432210D03*
X3588258Y432210D03*
X3588258Y438710D03*
X3588258Y445210D03*
X3588258Y451710D03*
D25*
X3294790Y844042D03*
X3301290Y844042D03*
X3307790Y844042D03*
X3314290Y844042D03*
X3314290Y888238D03*
X3307790Y888238D03*
X3301290Y888238D03*
X3294790Y888238D03*
D24*
X3554222Y309470D03*
X3554222Y302970D03*
X3554222Y296470D03*
X3554222Y289970D03*
X3598418Y289970D03*
X3598418Y296470D03*
X3598418Y302970D03*
X3598418Y309470D03*
D25*
X3467510Y838962D03*
X3474010Y838962D03*
X3480510Y838962D03*
X3487010Y838962D03*
X3487010Y883158D03*
X3480510Y883158D03*
X3474010Y883158D03*
X3467510Y883158D03*
D24*
X3554222Y172310D03*
X3554222Y165810D03*
X3554222Y159310D03*
X3554222Y152810D03*
X3598418Y152810D03*
X3598418Y159310D03*
X3598418Y165810D03*
X3598418Y172310D03*
D25*
X3624990Y833882D03*
X3631490Y833882D03*
X3637990Y833882D03*
X3644490Y833882D03*
X3644490Y878078D03*
X3637990Y878078D03*
X3631490Y878078D03*
X3624990Y878078D03*
D26*
X3064510Y67980D03*
X3064510Y119980D03*
X3051810Y67980D03*
X3077210Y67980D03*
X3089910Y67980D03*
X3051810Y119980D03*
X3077210Y119980D03*
X3089910Y119980D03*
D27*
X3311560Y113030D03*
X3363560Y113030D03*
X3311560Y125730D03*
X3311560Y100330D03*
X3311560Y87630D03*
X3363560Y125730D03*
X3363560Y100330D03*
X3363560Y87630D03*
D25*
X3000150Y615442D03*
X3006650Y615442D03*
X3013150Y615442D03*
X3019650Y615442D03*
X3019650Y659638D03*
X3013150Y659638D03*
X3006650Y659638D03*
X3000150Y659638D03*
D24*
X2943098Y503330D03*
X2943098Y509830D03*
X2943098Y516330D03*
X2943098Y522830D03*
X2898902Y522830D03*
X2898902Y516330D03*
X2898902Y509830D03*
X2898902Y503330D03*
X3549142Y609190D03*
X3549142Y602690D03*
X3549142Y596190D03*
X3549142Y589690D03*
X3593338Y589690D03*
X3593338Y596190D03*
X3593338Y602690D03*
X3593338Y609190D03*
D25*
X3137310Y844042D03*
X3143810Y844042D03*
X3150310Y844042D03*
X3156810Y844042D03*
X3156810Y888238D03*
X3150310Y888238D03*
X3143810Y888238D03*
X3137310Y888238D03*
D28*
X2734310Y296418D03*
X2721610Y296418D03*
X2708910Y296418D03*
X2696210Y296418D03*
X2696210Y247142D03*
X2708910Y247142D03*
X2721610Y247142D03*
X2734310Y247142D03*
X2828290Y296418D03*
X2815590Y296418D03*
X2802890Y296418D03*
X2790190Y296418D03*
X2790190Y247142D03*
X2802890Y247142D03*
X2815590Y247142D03*
X2828290Y247142D03*
X2914650Y297688D03*
X2901950Y297688D03*
X2889250Y297688D03*
X2876550Y297688D03*
X2876550Y248412D03*
X2889250Y248412D03*
X2901950Y248412D03*
X2914650Y248412D03*
X3001010Y296418D03*
X2988310Y296418D03*
X2975610Y296418D03*
X2962910Y296418D03*
X2962910Y247142D03*
X2975610Y247142D03*
X2988310Y247142D03*
X3001010Y247142D03*
D11*
X3062360Y144780D03*
X3079360Y144780D03*
D29*
X3092450Y532638D03*
X3113024Y522732D03*
X3127248Y504952D03*
X3132582Y482600D03*
X3127248Y460248D03*
X3113024Y442468D03*
X3092450Y432562D03*
X3069590Y432562D03*
X3049016Y442468D03*
X3034792Y460248D03*
X3029458Y482600D03*
X3049016Y522732D03*
X3069590Y532638D03*
X3092450Y509778D03*
X3110738Y489204D03*
X3104642Y463550D03*
X3057398Y463550D03*
X3051302Y489204D03*
X3069590Y509778D03*
X3081020Y474980D03*
X3081020Y452120D03*
X3034792Y504952D03*
D30*
X558800Y106680D03*
X533400Y55880D03*
X457200Y93980D03*
X177800Y299720D03*
X254000Y299720D03*
X340360Y304800D03*
X426720Y304800D03*
X365760Y533400D03*
X330200Y487680D03*
X411480Y645160D03*
X441960Y599440D03*
X965200Y624840D03*
X969010Y577850D03*
X975360Y452120D03*
X970280Y431800D03*
X995680Y309880D03*
X980440Y284480D03*
X995680Y172720D03*
X980440Y147426D03*
X706120Y868680D03*
X731520Y863600D03*
X878840Y863600D03*
X904240Y853440D03*
X1036320Y858520D03*
X1061720Y848360D03*
X599440Y756920D03*
X592864Y726440D03*
X770664Y736600D03*
X772160Y767080D03*
X935990Y723900D03*
X939800Y762000D03*
X1100864Y711200D03*
X1102360Y751840D03*
X543560Y863600D03*
X574040Y858520D03*
X528320Y614680D03*
X542516Y728980D03*
X431800Y233680D03*
X447040Y233680D03*
X746760Y96520D03*
X762000Y76200D03*
X563880Y467360D03*
X421640Y718820D03*
X127000Y60960D03*
X462280Y152400D03*
X335280Y142240D03*
X495300Y93980D03*
X452120Y106680D03*
X579120Y599440D03*
X421640Y467360D03*
X563880Y609600D03*
X335280Y177800D03*
X91440Y299720D03*
X345440Y314960D03*
X187960Y320040D03*
X274320Y320040D03*
X647700Y93980D03*
X502920Y213360D03*
X400050Y219710D03*
X107950Y227330D03*
X201930Y227330D03*
X285750Y227330D03*
X374650Y227330D03*
X904240Y553720D03*
X1036320Y602614D03*
X213360Y218440D03*
X299720Y218440D03*
X387350Y219710D03*
X772160Y563880D03*
X554254Y903504D03*
X695960Y574040D03*
X421640Y441960D03*
X695960Y589280D03*
X421640Y452120D03*
X924560Y381000D03*
X1036320Y431800D03*
X619760Y340360D03*
X782320Y558800D03*
X701040Y904240D03*
X695960Y538480D03*
X513080Y406400D03*
X695960Y553720D03*
X502920Y416560D03*
X640080Y330200D03*
X792480Y568960D03*
X863600Y924560D03*
X695960Y502920D03*
X693420Y520700D03*
X513080Y396240D03*
X802640Y579120D03*
X1041400Y942340D03*
X655320Y330200D03*
X1854200Y106680D03*
X1828800Y55880D03*
X1752600Y93980D03*
X1473200Y299720D03*
X1549400Y299720D03*
X1635760Y304800D03*
X1722120Y304800D03*
X1661160Y533400D03*
X1625600Y487680D03*
X1706880Y645160D03*
X1737360Y599440D03*
X2260600Y624840D03*
X2264410Y577850D03*
X2270760Y452120D03*
X2265680Y431800D03*
X2291080Y309880D03*
X2275840Y284480D03*
X2291080Y172720D03*
X2275840Y147426D03*
X2001520Y868680D03*
X2026920Y863600D03*
X2174240Y863600D03*
X2199640Y853440D03*
X2331720Y858520D03*
X2357120Y848360D03*
X1894840Y756920D03*
X1888264Y726440D03*
X2066064Y736600D03*
X2067560Y767080D03*
X2231390Y723900D03*
X2235200Y762000D03*
X2396264Y711200D03*
X2397760Y751840D03*
X1838960Y863600D03*
X1869440Y858520D03*
X1823720Y614680D03*
X1837916Y728980D03*
X1727200Y233680D03*
X1742440Y233680D03*
X2042160Y96520D03*
X2057400Y76200D03*
X1859280Y467360D03*
X1717040Y718820D03*
X1422400Y60960D03*
X1757680Y152400D03*
X1630680Y142240D03*
X1790700Y93980D03*
X1747520Y106680D03*
X1874520Y599440D03*
X1717040Y467360D03*
X1859280Y609600D03*
X1630680Y177800D03*
X1386840Y299720D03*
X1640840Y314960D03*
X1483360Y320040D03*
X1569720Y320040D03*
X1943100Y93980D03*
X1798320Y213360D03*
X1695450Y219710D03*
X1403350Y227330D03*
X1497330Y227330D03*
X1581150Y227330D03*
X1670050Y227330D03*
X2199640Y553720D03*
X2331720Y602614D03*
X1508760Y218440D03*
X1595120Y218440D03*
X1682750Y219710D03*
X2067560Y563880D03*
X1849654Y903504D03*
X1991360Y574040D03*
X1717040Y441960D03*
X1991360Y589280D03*
X1717040Y452120D03*
X2219960Y381000D03*
X2331720Y431800D03*
X1915160Y340360D03*
X2077720Y558800D03*
X1996440Y904240D03*
X1991360Y538480D03*
X1808480Y406400D03*
X1991360Y553720D03*
X1798320Y416560D03*
X1935480Y330200D03*
X2087880Y568960D03*
X2159000Y924560D03*
X1991360Y502920D03*
X1988820Y520700D03*
X1808480Y396240D03*
X2098040Y579120D03*
X2336800Y942340D03*
X1950720Y330200D03*
X3147060Y106680D03*
X3121660Y55880D03*
X3045460Y93980D03*
X2766060Y299720D03*
X2842260Y299720D03*
X2928620Y304800D03*
X3014980Y304800D03*
X2954020Y533400D03*
X2918460Y487680D03*
X2999740Y645160D03*
X3030220Y599440D03*
X3553460Y624840D03*
X3557270Y577850D03*
X3563620Y452120D03*
X3558540Y431800D03*
X3583940Y309880D03*
X3568700Y284480D03*
X3583940Y172720D03*
X3568700Y147426D03*
X3294380Y868680D03*
X3319780Y863600D03*
X3467100Y863600D03*
X3492500Y853440D03*
X3624580Y858520D03*
X3649980Y848360D03*
X3187700Y756920D03*
X3181124Y726440D03*
X3358924Y736600D03*
X3360420Y767080D03*
X3524250Y723900D03*
X3528060Y762000D03*
X3689124Y711200D03*
X3690620Y751840D03*
X3131820Y863600D03*
X3162300Y858520D03*
X3116580Y614680D03*
X3130776Y728980D03*
X3020060Y233680D03*
X3035300Y233680D03*
X3335020Y96520D03*
X3350260Y76200D03*
X3152140Y467360D03*
X3009900Y718820D03*
X2715260Y60960D03*
X3050540Y152400D03*
X2923540Y142240D03*
X3083560Y93980D03*
X3040380Y106680D03*
X3167380Y599440D03*
X3009900Y467360D03*
X3152140Y609600D03*
X2923540Y177800D03*
X2679700Y299720D03*
X2933700Y314960D03*
X2776220Y320040D03*
X2862580Y320040D03*
X3235960Y93980D03*
X3091180Y213360D03*
X2988310Y219710D03*
X2696210Y227330D03*
X2790190Y227330D03*
X2874010Y227330D03*
X2962910Y227330D03*
X3492500Y553720D03*
X3624580Y602614D03*
X2801620Y218440D03*
X2887980Y218440D03*
X2975610Y219710D03*
X3360420Y563880D03*
X3142514Y903504D03*
X3284220Y574040D03*
X3009900Y441960D03*
X3284220Y589280D03*
X3009900Y452120D03*
X3512820Y381000D03*
X3624580Y431800D03*
X3208020Y340360D03*
X3370580Y558800D03*
X3289300Y904240D03*
X3284220Y538480D03*
X3101340Y406400D03*
X3284220Y553720D03*
X3091180Y416560D03*
X3228340Y330200D03*
X3380740Y568960D03*
X3451860Y924560D03*
X3284220Y502920D03*
X3281680Y520700D03*
X3101340Y396240D03*
X3390900Y579120D03*
X3629660Y942340D03*
X3243580Y330200D03*
M02*
