G04 EAGLE Gerber RS-274X export*
G75*
%MOMM*%
%FSLAX34Y34*%
%LPD*%
%INSolderpaste Bottom*%
%IPPOS*%
%AMOC8*
5,1,8,0,0,1.08239X$1,22.5*%
G01*
%ADD10R,1.000000X1.100000*%
%ADD11R,1.400000X1.500000*%
%ADD12R,1.100000X1.000000*%
%ADD13R,0.600000X2.200000*%
%ADD14R,0.800000X0.900000*%
%ADD15R,0.900000X0.800000*%
%ADD16R,0.800000X1.200000*%
%ADD17C,0.240000*%
%ADD18R,1.200000X0.800000*%
%ADD19R,1.500000X1.400000*%
%ADD20R,2.200000X0.600000*%
%ADD21R,1.270000X0.760000*%
%ADD22R,1.100000X0.450000*%
%ADD23R,1.500000X0.400000*%


D10*
X656590Y199000D03*
X656590Y182000D03*
X656590Y211972D03*
X656590Y228972D03*
X770636Y198746D03*
X770636Y181746D03*
X770636Y211718D03*
X770636Y228718D03*
D11*
X759804Y901700D03*
X739304Y901700D03*
D10*
X795020Y147710D03*
X795020Y164710D03*
X813816Y566556D03*
X813816Y583556D03*
X814324Y549774D03*
X814324Y532774D03*
X917448Y537582D03*
X917448Y520582D03*
X671068Y566810D03*
X671068Y583810D03*
X671068Y549520D03*
X671068Y532520D03*
D12*
X597780Y782574D03*
X580780Y782574D03*
X580780Y824738D03*
X597780Y824738D03*
D10*
X536702Y715382D03*
X536702Y698382D03*
X646684Y669426D03*
X646684Y686426D03*
X536702Y685156D03*
X536702Y668156D03*
D12*
X277994Y46482D03*
X260994Y46482D03*
X277994Y67056D03*
X260994Y67056D03*
X504580Y33528D03*
X521580Y33528D03*
X133976Y70866D03*
X116976Y70866D03*
X133976Y50038D03*
X116976Y50038D03*
D10*
X375666Y780660D03*
X375666Y763660D03*
D12*
X486546Y734060D03*
X503546Y734060D03*
D10*
X375666Y750434D03*
X375666Y733434D03*
D12*
X482972Y33528D03*
X465972Y33528D03*
D10*
X586232Y163186D03*
X586232Y146186D03*
X601726Y163186D03*
X601726Y146186D03*
X553466Y183778D03*
X553466Y200778D03*
X656590Y164202D03*
X656590Y147202D03*
X769874Y113674D03*
X769874Y130674D03*
X656844Y113674D03*
X656844Y130674D03*
X823214Y201558D03*
X823214Y218558D03*
X807720Y201558D03*
X807720Y218558D03*
X799592Y110100D03*
X799592Y93100D03*
X901192Y159122D03*
X901192Y142122D03*
D12*
X652916Y262382D03*
X669916Y262382D03*
X652916Y247142D03*
X669916Y247142D03*
D10*
X657098Y93844D03*
X657098Y76844D03*
X771398Y45348D03*
X771398Y62348D03*
X656844Y43062D03*
X656844Y60062D03*
D12*
X854084Y52578D03*
X871084Y52578D03*
D10*
X799338Y54746D03*
X799338Y71746D03*
D13*
X131572Y97444D03*
X131572Y149444D03*
X144272Y97444D03*
X118872Y97444D03*
X106172Y97444D03*
X144272Y149444D03*
X118872Y149444D03*
X106172Y149444D03*
X276098Y93126D03*
X276098Y145126D03*
X288798Y93126D03*
X263398Y93126D03*
X250698Y93126D03*
X288798Y145126D03*
X263398Y145126D03*
X250698Y145126D03*
D14*
X611988Y450690D03*
X592988Y450690D03*
X602488Y430690D03*
X601828Y416400D03*
X582828Y416400D03*
X592328Y396400D03*
X602082Y380332D03*
X583082Y380332D03*
X592582Y360332D03*
D15*
X575470Y481940D03*
X575470Y462940D03*
X595470Y472440D03*
D16*
X461662Y856234D03*
D17*
X476862Y851434D02*
X482462Y851434D01*
X476862Y851434D02*
X476862Y861034D01*
X482462Y861034D01*
X482462Y851434D01*
X482462Y853714D02*
X476862Y853714D01*
X476862Y855994D02*
X482462Y855994D01*
X482462Y858274D02*
X476862Y858274D01*
X476862Y860554D02*
X482462Y860554D01*
D18*
X297180Y940706D03*
D17*
X301980Y955906D02*
X301980Y961506D01*
X301980Y955906D02*
X292380Y955906D01*
X292380Y961506D01*
X301980Y961506D01*
X301980Y958186D02*
X292380Y958186D01*
X292380Y960466D02*
X301980Y960466D01*
D16*
X323740Y909828D03*
D17*
X338940Y905028D02*
X344540Y905028D01*
X338940Y905028D02*
X338940Y914628D01*
X344540Y914628D01*
X344540Y905028D01*
X344540Y907308D02*
X338940Y907308D01*
X338940Y909588D02*
X344540Y909588D01*
X344540Y911868D02*
X338940Y911868D01*
X338940Y914148D02*
X344540Y914148D01*
D18*
X457454Y836024D03*
D17*
X452654Y820824D02*
X452654Y815224D01*
X452654Y820824D02*
X462254Y820824D01*
X462254Y815224D01*
X452654Y815224D01*
X452654Y817504D02*
X462254Y817504D01*
X462254Y819784D02*
X452654Y819784D01*
D16*
X328566Y856996D03*
D17*
X343766Y852196D02*
X349366Y852196D01*
X343766Y852196D02*
X343766Y861796D01*
X349366Y861796D01*
X349366Y852196D01*
X349366Y854476D02*
X343766Y854476D01*
X343766Y856756D02*
X349366Y856756D01*
X349366Y859036D02*
X343766Y859036D01*
X343766Y861316D02*
X349366Y861316D01*
D18*
X301498Y831452D03*
D17*
X296698Y816252D02*
X296698Y810652D01*
X296698Y816252D02*
X306298Y816252D01*
X306298Y810652D01*
X296698Y810652D01*
X296698Y812932D02*
X306298Y812932D01*
X306298Y815212D02*
X296698Y815212D01*
D18*
X350520Y497696D03*
D17*
X345720Y482496D02*
X345720Y476896D01*
X345720Y482496D02*
X355320Y482496D01*
X355320Y476896D01*
X345720Y476896D01*
X345720Y479176D02*
X355320Y479176D01*
X355320Y481456D02*
X345720Y481456D01*
D15*
X306992Y69190D03*
X306992Y50190D03*
X326992Y59690D03*
X328582Y147930D03*
X328582Y128930D03*
X348582Y138430D03*
D14*
X331572Y428338D03*
X312572Y428338D03*
X322072Y408338D03*
X687680Y967326D03*
X668680Y967326D03*
X678180Y947326D03*
X649122Y981362D03*
X668122Y981362D03*
X658622Y1001362D03*
D19*
X546100Y873596D03*
X546100Y853096D03*
X472440Y689520D03*
X472440Y710020D03*
D15*
X399956Y66904D03*
X399956Y47904D03*
X419956Y57404D03*
D14*
X312318Y486570D03*
X331318Y486570D03*
X321818Y506570D03*
D15*
X331564Y93370D03*
X331564Y112370D03*
X311564Y102870D03*
D10*
X513080Y813952D03*
X513080Y830952D03*
D12*
X332114Y961136D03*
X349114Y961136D03*
D10*
X491744Y830952D03*
X491744Y813952D03*
X376174Y813190D03*
X376174Y830190D03*
X350520Y87766D03*
X350520Y104766D03*
X350266Y68444D03*
X350266Y51444D03*
D12*
X329302Y459740D03*
X312302Y459740D03*
D10*
X919734Y369960D03*
X919734Y386960D03*
D12*
X597780Y803656D03*
X580780Y803656D03*
D10*
X552196Y832476D03*
X552196Y815476D03*
D12*
X251850Y199390D03*
X268850Y199390D03*
X251850Y224790D03*
X268850Y224790D03*
X251850Y250190D03*
X268850Y250190D03*
X251850Y351790D03*
X268850Y351790D03*
X251850Y326390D03*
X268850Y326390D03*
X251850Y300990D03*
X268850Y300990D03*
X251850Y275590D03*
X268850Y275590D03*
X251850Y173990D03*
X268850Y173990D03*
D10*
X913130Y332604D03*
X913130Y315604D03*
X913130Y295012D03*
X913130Y278012D03*
X686816Y983116D03*
X686816Y1000116D03*
X657860Y922156D03*
X657860Y939156D03*
D12*
X456320Y256794D03*
X473320Y256794D03*
X571890Y269494D03*
X588890Y269494D03*
X456320Y282194D03*
X473320Y282194D03*
X571890Y294894D03*
X588890Y294894D03*
X456574Y307594D03*
X473574Y307594D03*
X456574Y332994D03*
X473574Y332994D03*
X456320Y366522D03*
X473320Y366522D03*
X456574Y391922D03*
X473574Y391922D03*
X756784Y877824D03*
X739784Y877824D03*
X349114Y981710D03*
X332114Y981710D03*
D18*
X491232Y256794D03*
X555502Y345694D03*
X491232Y269494D03*
X491232Y282194D03*
X491232Y294894D03*
X491232Y307594D03*
X491232Y320294D03*
X491232Y332994D03*
X491232Y345694D03*
X555502Y332994D03*
X555502Y320294D03*
X555502Y307594D03*
X555502Y294894D03*
X555502Y282194D03*
X555502Y269494D03*
X555502Y256794D03*
X491232Y366776D03*
X555502Y455676D03*
X491232Y379476D03*
X491232Y392176D03*
X491232Y404876D03*
X491232Y417576D03*
X491232Y430276D03*
X491232Y442976D03*
X491232Y455676D03*
X555502Y442976D03*
X555502Y430276D03*
X555502Y417576D03*
X555502Y404876D03*
X555502Y392176D03*
X555502Y379476D03*
X555502Y366776D03*
D15*
X610964Y508406D03*
X610964Y527406D03*
X590964Y517906D03*
D20*
X543906Y782066D03*
X491906Y782066D03*
X543906Y794766D03*
X543906Y769366D03*
X543906Y756666D03*
X491906Y794766D03*
X491906Y769366D03*
X491906Y756666D03*
X619598Y693166D03*
X567598Y693166D03*
X619598Y705866D03*
X619598Y680466D03*
X619598Y667766D03*
X567598Y705866D03*
X567598Y680466D03*
X567598Y667766D03*
X577758Y922782D03*
X629758Y922782D03*
X577758Y910082D03*
X577758Y935482D03*
X577758Y948182D03*
X629758Y910082D03*
X629758Y935482D03*
X629758Y948182D03*
D21*
X671220Y810260D03*
X614020Y810260D03*
X671220Y822960D03*
X671220Y797560D03*
X671220Y784860D03*
X614020Y822960D03*
X614020Y797560D03*
X614020Y784860D03*
D20*
X456022Y759714D03*
X404022Y759714D03*
X456022Y772414D03*
X456022Y747014D03*
X456022Y734314D03*
X404022Y772414D03*
X404022Y747014D03*
X404022Y734314D03*
D22*
X466074Y50910D03*
X466074Y57410D03*
X466074Y63910D03*
X466074Y70410D03*
X466074Y76910D03*
X466074Y83410D03*
X466074Y89910D03*
X466074Y96410D03*
X521430Y96410D03*
X521430Y89910D03*
X521430Y83410D03*
X521430Y76910D03*
X521430Y70410D03*
X521430Y63910D03*
X521430Y57410D03*
X521430Y50910D03*
D20*
X621538Y131826D03*
X566928Y131826D03*
X621538Y119126D03*
X621538Y106426D03*
X566928Y119126D03*
X566928Y106426D03*
X621538Y93726D03*
X566928Y93726D03*
X621538Y81026D03*
X566928Y81026D03*
X621538Y68326D03*
X621538Y55626D03*
X566928Y68326D03*
X566928Y55626D03*
X621538Y42926D03*
X566928Y42926D03*
D23*
X521644Y207604D03*
X521644Y201104D03*
X521644Y194604D03*
X521644Y188104D03*
X521644Y181604D03*
X521644Y175104D03*
X521644Y168604D03*
X521644Y162104D03*
X521644Y155604D03*
X521644Y149104D03*
X521644Y142604D03*
X521644Y136104D03*
X521644Y129604D03*
X521644Y123104D03*
X449144Y123104D03*
X449144Y129604D03*
X449144Y136104D03*
X449144Y142604D03*
X449144Y149104D03*
X449144Y155604D03*
X449144Y162104D03*
X449144Y168604D03*
X449144Y175104D03*
X449144Y181604D03*
X449144Y188104D03*
X449144Y194604D03*
X449144Y201104D03*
X449144Y207604D03*
D20*
X742026Y216154D03*
X690026Y216154D03*
X742026Y228854D03*
X742026Y203454D03*
X742026Y190754D03*
X690026Y228854D03*
X690026Y203454D03*
X690026Y190754D03*
X742280Y143002D03*
X690280Y143002D03*
X742280Y155702D03*
X742280Y130302D03*
X742280Y117602D03*
X690280Y155702D03*
X690280Y130302D03*
X690280Y117602D03*
X875884Y172974D03*
X823884Y172974D03*
X875884Y185674D03*
X875884Y160274D03*
X875884Y147574D03*
X823884Y185674D03*
X823884Y160274D03*
X823884Y147574D03*
X742788Y80010D03*
X690788Y80010D03*
X742788Y92710D03*
X742788Y67310D03*
X742788Y54610D03*
X690788Y92710D03*
X690788Y67310D03*
X690788Y54610D03*
X876900Y97536D03*
X824900Y97536D03*
X876900Y110236D03*
X876900Y84836D03*
X876900Y72136D03*
X824900Y110236D03*
X824900Y84836D03*
X824900Y72136D03*
M02*
