G04 EAGLE Gerber RS-274X export*
G75*
%MOMM*%
%FSLAX34Y34*%
%LPD*%
%INSoldermask Bottom*%
%IPPOS*%
%AMOC8*
5,1,8,0,0,1.08239X$1,22.5*%
G01*
%ADD10C,3.505200*%
%ADD11R,97.536000X5.842000*%
%ADD12R,5.842000X106.172000*%
%ADD13C,2.997200*%
%ADD14R,1.203200X1.303200*%
%ADD15R,1.603200X1.703200*%
%ADD16C,2.108200*%
%ADD17R,1.303200X1.203200*%
%ADD18P,2.034460X8X292.500000*%
%ADD19P,1.869504X8X202.500000*%
%ADD20R,0.803200X2.403200*%
%ADD21R,1.003200X1.103200*%
%ADD22R,1.103200X1.003200*%
%ADD23R,1.003200X1.403200*%
%ADD24C,0.441406*%
%ADD25R,1.403200X1.003200*%
%ADD26R,2.453200X2.453200*%
%ADD27C,2.184400*%
%ADD28C,2.908300*%
%ADD29R,1.703200X1.603200*%
%ADD30C,1.727200*%
%ADD31R,2.082800X2.082800*%
%ADD32C,2.082800*%
%ADD33C,2.603500*%
%ADD34C,1.879600*%
%ADD35C,1.511200*%
%ADD36C,1.625600*%
%ADD37R,1.625600X1.625600*%
%ADD38R,2.403200X0.803200*%
%ADD39R,1.473200X0.963200*%
%ADD40R,1.303200X0.653200*%
%ADD41R,1.703200X0.603200*%
%ADD42C,1.711200*%
%ADD43C,3.503200*%
%ADD44C,3.203200*%
%ADD45C,2.003200*%
%ADD46C,1.503200*%
%ADD47P,1.869504X8X22.500000*%
%ADD48C,1.109600*%
%ADD49C,1.009600*%
%ADD50C,0.959600*%
%ADD51C,1.209600*%
%ADD52C,1.703200*%
%ADD53C,1.259600*%
%ADD54C,1.059600*%


D10*
X952500Y-2540D03*
X-5080Y-2540D03*
X-5080Y1041400D03*
X952500Y1041400D03*
D11*
X441960Y1052830D03*
D12*
X963930Y551180D03*
X-16510Y487680D03*
D11*
X505460Y-13970D03*
D13*
X597916Y738632D03*
X563880Y738632D03*
X597916Y639572D03*
X563880Y639572D03*
X865124Y594106D03*
X899160Y594106D03*
X865124Y693166D03*
X899160Y693166D03*
X586994Y879348D03*
X621030Y879348D03*
X586994Y978408D03*
X621030Y978408D03*
D14*
X656590Y199000D03*
X656590Y182000D03*
X656590Y211972D03*
X656590Y228972D03*
X770636Y198746D03*
X770636Y181746D03*
X770636Y211718D03*
X770636Y228718D03*
D15*
X759804Y901700D03*
X739304Y901700D03*
D14*
X795020Y147710D03*
X795020Y164710D03*
X813816Y566556D03*
X813816Y583556D03*
X814324Y549774D03*
X814324Y532774D03*
D16*
X828548Y605790D03*
X828548Y511810D03*
D14*
X917448Y537582D03*
X917448Y520582D03*
X671068Y566810D03*
X671068Y583810D03*
X671068Y549520D03*
X671068Y532520D03*
D17*
X597780Y782574D03*
X580780Y782574D03*
X580780Y824738D03*
X597780Y824738D03*
D14*
X536702Y715382D03*
X536702Y698382D03*
X646684Y669426D03*
X646684Y686426D03*
X536702Y685156D03*
X536702Y668156D03*
D17*
X277994Y46482D03*
X260994Y46482D03*
X277994Y67056D03*
X260994Y67056D03*
X504580Y33528D03*
X521580Y33528D03*
X133976Y70866D03*
X116976Y70866D03*
X133976Y50038D03*
X116976Y50038D03*
D14*
X375666Y780660D03*
X375666Y763660D03*
D17*
X486546Y734060D03*
X503546Y734060D03*
D14*
X375666Y750434D03*
X375666Y733434D03*
D17*
X482972Y33528D03*
X465972Y33528D03*
D14*
X586232Y163186D03*
X586232Y146186D03*
X601726Y163186D03*
X601726Y146186D03*
X553466Y183778D03*
X553466Y200778D03*
X656590Y164202D03*
X656590Y147202D03*
X769874Y113674D03*
X769874Y130674D03*
X656844Y113674D03*
X656844Y130674D03*
X823214Y201558D03*
X823214Y218558D03*
X807720Y201558D03*
X807720Y218558D03*
X799592Y110100D03*
X799592Y93100D03*
X901192Y159122D03*
X901192Y142122D03*
D17*
X652916Y262382D03*
X669916Y262382D03*
X652916Y247142D03*
X669916Y247142D03*
D14*
X657098Y93844D03*
X657098Y76844D03*
X771398Y45348D03*
X771398Y62348D03*
X656844Y43062D03*
X656844Y60062D03*
D17*
X854084Y52578D03*
X871084Y52578D03*
D14*
X799338Y54746D03*
X799338Y71746D03*
D18*
X471424Y414274D03*
X471424Y465074D03*
X471424Y439674D03*
D19*
X917448Y472440D03*
X917448Y497840D03*
D20*
X131572Y97444D03*
X131572Y149444D03*
X144272Y97444D03*
X118872Y97444D03*
X106172Y97444D03*
X144272Y149444D03*
X118872Y149444D03*
X106172Y149444D03*
X276098Y93126D03*
X276098Y145126D03*
X288798Y93126D03*
X263398Y93126D03*
X250698Y93126D03*
X288798Y145126D03*
X263398Y145126D03*
X250698Y145126D03*
D21*
X611988Y450690D03*
X592988Y450690D03*
X602488Y430690D03*
X601828Y416400D03*
X582828Y416400D03*
X592328Y396400D03*
X602082Y380332D03*
X583082Y380332D03*
X592582Y360332D03*
D22*
X575470Y481940D03*
X575470Y462940D03*
X595470Y472440D03*
D23*
X461662Y856234D03*
D24*
X476853Y851425D02*
X482471Y851425D01*
X476853Y851425D02*
X476853Y861043D01*
X482471Y861043D01*
X482471Y851425D01*
X482471Y855618D02*
X476853Y855618D01*
X476853Y859811D02*
X482471Y859811D01*
D25*
X297180Y940706D03*
D24*
X301989Y955897D02*
X301989Y961515D01*
X301989Y955897D02*
X292371Y955897D01*
X292371Y961515D01*
X301989Y961515D01*
X301989Y960090D02*
X292371Y960090D01*
D23*
X323740Y909828D03*
D24*
X338931Y905019D02*
X344549Y905019D01*
X338931Y905019D02*
X338931Y914637D01*
X344549Y914637D01*
X344549Y905019D01*
X344549Y909212D02*
X338931Y909212D01*
X338931Y913405D02*
X344549Y913405D01*
D25*
X457454Y836024D03*
D24*
X452645Y820833D02*
X452645Y815215D01*
X452645Y820833D02*
X462263Y820833D01*
X462263Y815215D01*
X452645Y815215D01*
X452645Y819408D02*
X462263Y819408D01*
D23*
X328566Y856996D03*
D24*
X343757Y852187D02*
X349375Y852187D01*
X343757Y852187D02*
X343757Y861805D01*
X349375Y861805D01*
X349375Y852187D01*
X349375Y856380D02*
X343757Y856380D01*
X343757Y860573D02*
X349375Y860573D01*
D25*
X301498Y831452D03*
D24*
X296689Y816261D02*
X296689Y810643D01*
X296689Y816261D02*
X306307Y816261D01*
X306307Y810643D01*
X296689Y810643D01*
X296689Y814836D02*
X306307Y814836D01*
D25*
X350520Y497696D03*
D24*
X345711Y482505D02*
X345711Y476887D01*
X345711Y482505D02*
X355329Y482505D01*
X355329Y476887D01*
X345711Y476887D01*
X345711Y481080D02*
X355329Y481080D01*
D22*
X306992Y69190D03*
X306992Y50190D03*
X326992Y59690D03*
X328582Y147930D03*
X328582Y128930D03*
X348582Y138430D03*
D21*
X331572Y428338D03*
X312572Y428338D03*
X322072Y408338D03*
X687680Y967326D03*
X668680Y967326D03*
X678180Y947326D03*
X649122Y981362D03*
X668122Y981362D03*
X658622Y1001362D03*
D26*
X447040Y984758D03*
X497078Y984758D03*
X547116Y984758D03*
X547116Y909828D03*
X497078Y909828D03*
X447040Y909828D03*
X296926Y984758D03*
X296926Y909828D03*
D27*
X259588Y431800D02*
X239776Y431800D01*
X239776Y551688D02*
X259588Y551688D01*
X361696Y431800D02*
X381508Y431800D01*
X381508Y551688D02*
X361696Y551688D01*
D28*
X379159Y491744D02*
X406210Y491744D01*
D29*
X546100Y873596D03*
X546100Y853096D03*
X472440Y689520D03*
X472440Y710020D03*
D30*
X41910Y680212D02*
X41910Y664972D01*
X67310Y664972D02*
X67310Y680212D01*
X92710Y680212D02*
X92710Y664972D01*
X118110Y664972D02*
X118110Y680212D01*
X143510Y680212D02*
X143510Y664972D01*
X168910Y664972D02*
X168910Y680212D01*
X194310Y680212D02*
X194310Y664972D01*
X219710Y664972D02*
X219710Y680212D01*
X245110Y680212D02*
X245110Y664972D01*
D22*
X399956Y66904D03*
X399956Y47904D03*
X419956Y57404D03*
D21*
X312318Y486570D03*
X331318Y486570D03*
X321818Y506570D03*
D22*
X331564Y93370D03*
X331564Y112370D03*
X311564Y102870D03*
D14*
X513080Y813952D03*
X513080Y830952D03*
D17*
X332114Y961136D03*
X349114Y961136D03*
D14*
X491744Y830952D03*
X491744Y813952D03*
X376174Y813190D03*
X376174Y830190D03*
X350520Y87766D03*
X350520Y104766D03*
X350266Y68444D03*
X350266Y51444D03*
D17*
X329302Y459740D03*
X312302Y459740D03*
D14*
X919734Y369960D03*
X919734Y386960D03*
D17*
X597780Y803656D03*
X580780Y803656D03*
D14*
X552196Y832476D03*
X552196Y815476D03*
D17*
X251850Y199390D03*
X268850Y199390D03*
X251850Y224790D03*
X268850Y224790D03*
X251850Y250190D03*
X268850Y250190D03*
X251850Y351790D03*
X268850Y351790D03*
X251850Y326390D03*
X268850Y326390D03*
X251850Y300990D03*
X268850Y300990D03*
X251850Y275590D03*
X268850Y275590D03*
X251850Y173990D03*
X268850Y173990D03*
D14*
X913130Y332604D03*
X913130Y315604D03*
X913130Y295012D03*
X913130Y278012D03*
X686816Y983116D03*
X686816Y1000116D03*
X657860Y922156D03*
X657860Y939156D03*
D17*
X456320Y256794D03*
X473320Y256794D03*
X571890Y269494D03*
X588890Y269494D03*
X456320Y282194D03*
X473320Y282194D03*
X571890Y294894D03*
X588890Y294894D03*
X456574Y307594D03*
X473574Y307594D03*
X456574Y332994D03*
X473574Y332994D03*
X456320Y366522D03*
X473320Y366522D03*
X456574Y391922D03*
X473574Y391922D03*
X756784Y877824D03*
X739784Y877824D03*
X349114Y981710D03*
X332114Y981710D03*
D31*
X784860Y583946D03*
D32*
X784860Y558546D03*
X784860Y533146D03*
D31*
X696722Y583946D03*
D32*
X696722Y558546D03*
X696722Y533146D03*
D33*
X883666Y543306D03*
X883666Y509778D03*
X778510Y486918D03*
D25*
X491232Y256794D03*
X555502Y345694D03*
X491232Y269494D03*
X491232Y282194D03*
X491232Y294894D03*
X491232Y307594D03*
X491232Y320294D03*
X491232Y332994D03*
X491232Y345694D03*
X555502Y332994D03*
X555502Y320294D03*
X555502Y307594D03*
X555502Y294894D03*
X555502Y282194D03*
X555502Y269494D03*
X555502Y256794D03*
X491232Y366776D03*
X555502Y455676D03*
X491232Y379476D03*
X491232Y392176D03*
X491232Y404876D03*
X491232Y417576D03*
X491232Y430276D03*
X491232Y442976D03*
X491232Y455676D03*
X555502Y442976D03*
X555502Y430276D03*
X555502Y417576D03*
X555502Y404876D03*
X555502Y392176D03*
X555502Y379476D03*
X555502Y366776D03*
D26*
X376174Y706628D03*
X376174Y656590D03*
X376174Y606552D03*
X301244Y606552D03*
X301244Y656590D03*
X301244Y706628D03*
X376174Y856742D03*
X301244Y856742D03*
X508254Y706120D03*
X508254Y656082D03*
X508254Y606044D03*
X433324Y606044D03*
X433324Y656082D03*
X433324Y706120D03*
X508254Y856234D03*
X433324Y856234D03*
D34*
X710184Y985520D02*
X726948Y985520D01*
X726948Y960120D02*
X710184Y960120D01*
X710184Y934720D02*
X726948Y934720D01*
D10*
X893826Y960120D03*
D22*
X610964Y508406D03*
X610964Y527406D03*
X590964Y517906D03*
D35*
X37782Y72136D02*
X24702Y72136D01*
X24702Y376936D02*
X37782Y376936D01*
X37782Y351536D02*
X24702Y351536D01*
X24702Y326136D02*
X37782Y326136D01*
X37782Y300736D02*
X24702Y300736D01*
X24702Y275336D02*
X37782Y275336D01*
X37782Y249936D02*
X24702Y249936D01*
X24702Y224536D02*
X37782Y224536D01*
X37782Y199136D02*
X24702Y199136D01*
X24702Y173736D02*
X37782Y173736D01*
X37782Y148336D02*
X24702Y148336D01*
X177102Y376936D02*
X190182Y376936D01*
X190182Y351536D02*
X177102Y351536D01*
X177102Y199136D02*
X190182Y199136D01*
X190182Y173736D02*
X177102Y173736D01*
X177102Y148336D02*
X190182Y148336D01*
X190182Y122936D02*
X177102Y122936D01*
X177102Y46736D02*
X190182Y46736D01*
X37782Y46736D02*
X24702Y46736D01*
X24702Y97536D02*
X37782Y97536D01*
X37782Y122936D02*
X24702Y122936D01*
X177102Y72136D02*
X190182Y72136D01*
X190182Y97536D02*
X177102Y97536D01*
X177102Y326136D02*
X190182Y326136D01*
X190182Y224536D02*
X177102Y224536D01*
X177102Y249936D02*
X190182Y249936D01*
X190182Y275336D02*
X177102Y275336D01*
X177102Y300736D02*
X190182Y300736D01*
X190182Y402336D02*
X177102Y402336D01*
X177102Y427736D02*
X190182Y427736D01*
X190182Y453136D02*
X177102Y453136D01*
X177102Y478536D02*
X190182Y478536D01*
X190182Y503936D02*
X177102Y503936D01*
X177102Y529336D02*
X190182Y529336D01*
X190182Y554736D02*
X177102Y554736D01*
X177102Y580136D02*
X190182Y580136D01*
X190182Y605536D02*
X177102Y605536D01*
X177102Y630936D02*
X190182Y630936D01*
X37782Y402336D02*
X24702Y402336D01*
X24702Y427736D02*
X37782Y427736D01*
X37782Y453136D02*
X24702Y453136D01*
X24702Y478536D02*
X37782Y478536D01*
X37782Y503936D02*
X24702Y503936D01*
X24702Y529336D02*
X37782Y529336D01*
X37782Y554736D02*
X24702Y554736D01*
X24702Y580136D02*
X37782Y580136D01*
X37782Y605536D02*
X24702Y605536D01*
X24702Y630936D02*
X37782Y630936D01*
X158242Y510476D02*
X158242Y497396D01*
X132842Y497396D02*
X132842Y510476D01*
X107442Y510476D02*
X107442Y497396D01*
X82042Y497396D02*
X82042Y510476D01*
X56642Y510476D02*
X56642Y497396D01*
D36*
X248430Y728948D03*
X248430Y748948D03*
X248430Y768948D03*
X248430Y788948D03*
X248430Y808948D03*
X248430Y828948D03*
X248430Y848948D03*
X248430Y868948D03*
X248430Y888948D03*
D37*
X248430Y908948D03*
D36*
X28430Y728948D03*
X28430Y748948D03*
X28430Y768948D03*
X28430Y788948D03*
X28430Y808948D03*
X28430Y828948D03*
X28430Y848948D03*
X28430Y868948D03*
X28430Y888948D03*
X28430Y908948D03*
D35*
X157734Y446214D02*
X157734Y433134D01*
X106934Y610934D02*
X106934Y624014D01*
X208534Y624014D02*
X208534Y610934D01*
D38*
X543906Y782066D03*
X491906Y782066D03*
X543906Y794766D03*
X543906Y769366D03*
X543906Y756666D03*
X491906Y794766D03*
X491906Y769366D03*
X491906Y756666D03*
X619598Y693166D03*
X567598Y693166D03*
X619598Y705866D03*
X619598Y680466D03*
X619598Y667766D03*
X567598Y705866D03*
X567598Y680466D03*
X567598Y667766D03*
D35*
X229044Y72390D02*
X215964Y72390D01*
X215964Y377190D02*
X229044Y377190D01*
X229044Y351790D02*
X215964Y351790D01*
X215964Y326390D02*
X229044Y326390D01*
X229044Y300990D02*
X215964Y300990D01*
X215964Y275590D02*
X229044Y275590D01*
X229044Y250190D02*
X215964Y250190D01*
X215964Y224790D02*
X229044Y224790D01*
X229044Y199390D02*
X215964Y199390D01*
X215964Y173990D02*
X229044Y173990D01*
X229044Y148590D02*
X215964Y148590D01*
X368364Y377190D02*
X381444Y377190D01*
X381444Y351790D02*
X368364Y351790D01*
X368364Y199390D02*
X381444Y199390D01*
X381444Y173990D02*
X368364Y173990D01*
X368364Y148590D02*
X381444Y148590D01*
X381444Y123190D02*
X368364Y123190D01*
X368364Y46990D02*
X381444Y46990D01*
X229044Y46990D02*
X215964Y46990D01*
X215964Y97790D02*
X229044Y97790D01*
X229044Y123190D02*
X215964Y123190D01*
X368364Y72390D02*
X381444Y72390D01*
X381444Y97790D02*
X368364Y97790D01*
X368364Y326390D02*
X381444Y326390D01*
X381444Y224790D02*
X368364Y224790D01*
X368364Y250190D02*
X381444Y250190D01*
X381444Y275590D02*
X368364Y275590D01*
X368364Y300990D02*
X381444Y300990D01*
D38*
X577758Y922782D03*
X629758Y922782D03*
X577758Y910082D03*
X577758Y935482D03*
X577758Y948182D03*
X629758Y910082D03*
X629758Y935482D03*
X629758Y948182D03*
D39*
X671220Y810260D03*
X614020Y810260D03*
X671220Y822960D03*
X671220Y797560D03*
X671220Y784860D03*
X614020Y822960D03*
X614020Y797560D03*
X614020Y784860D03*
D38*
X456022Y759714D03*
X404022Y759714D03*
X456022Y772414D03*
X456022Y747014D03*
X456022Y734314D03*
X404022Y772414D03*
X404022Y747014D03*
X404022Y734314D03*
D40*
X466074Y50910D03*
X466074Y57410D03*
X466074Y63910D03*
X466074Y70410D03*
X466074Y76910D03*
X466074Y83410D03*
X466074Y89910D03*
X466074Y96410D03*
X521430Y96410D03*
X521430Y89910D03*
X521430Y83410D03*
X521430Y76910D03*
X521430Y70410D03*
X521430Y63910D03*
X521430Y57410D03*
X521430Y50910D03*
D38*
X621538Y131826D03*
X566928Y131826D03*
X621538Y119126D03*
X621538Y106426D03*
X566928Y119126D03*
X566928Y106426D03*
X621538Y93726D03*
X566928Y93726D03*
X621538Y81026D03*
X566928Y81026D03*
X621538Y68326D03*
X621538Y55626D03*
X566928Y68326D03*
X566928Y55626D03*
X621538Y42926D03*
X566928Y42926D03*
D41*
X521644Y207604D03*
X521644Y201104D03*
X521644Y194604D03*
X521644Y188104D03*
X521644Y181604D03*
X521644Y175104D03*
X521644Y168604D03*
X521644Y162104D03*
X521644Y155604D03*
X521644Y149104D03*
X521644Y142604D03*
X521644Y136104D03*
X521644Y129604D03*
X521644Y123104D03*
X449144Y123104D03*
X449144Y129604D03*
X449144Y136104D03*
X449144Y142604D03*
X449144Y149104D03*
X449144Y155604D03*
X449144Y162104D03*
X449144Y168604D03*
X449144Y175104D03*
X449144Y181604D03*
X449144Y188104D03*
X449144Y194604D03*
X449144Y201104D03*
X449144Y207604D03*
D38*
X742026Y216154D03*
X690026Y216154D03*
X742026Y228854D03*
X742026Y203454D03*
X742026Y190754D03*
X690026Y228854D03*
X690026Y203454D03*
X690026Y190754D03*
X742280Y143002D03*
X690280Y143002D03*
X742280Y155702D03*
X742280Y130302D03*
X742280Y117602D03*
X690280Y155702D03*
X690280Y130302D03*
X690280Y117602D03*
X875884Y172974D03*
X823884Y172974D03*
X875884Y185674D03*
X875884Y160274D03*
X875884Y147574D03*
X823884Y185674D03*
X823884Y160274D03*
X823884Y147574D03*
X742788Y80010D03*
X690788Y80010D03*
X742788Y92710D03*
X742788Y67310D03*
X742788Y54610D03*
X690788Y92710D03*
X690788Y67310D03*
X690788Y54610D03*
X876900Y97536D03*
X824900Y97536D03*
X876900Y110236D03*
X876900Y84836D03*
X876900Y72136D03*
X824900Y110236D03*
X824900Y84836D03*
X824900Y72136D03*
D34*
X727710Y863346D02*
X710946Y863346D01*
X710946Y837946D02*
X727710Y837946D01*
X727710Y812546D02*
X710946Y812546D01*
D10*
X894588Y837946D03*
D42*
X748030Y449072D03*
X728218Y437642D03*
X705866Y423164D03*
X694944Y402844D03*
X691896Y379984D03*
X696722Y357632D03*
X708660Y338074D03*
X726440Y323596D03*
X748030Y315976D03*
X770890Y315976D03*
X792480Y323596D03*
X810260Y338074D03*
X822198Y357632D03*
X827024Y379984D03*
X823976Y402844D03*
X813054Y423164D03*
X790702Y437642D03*
X770890Y449072D03*
X748030Y426212D03*
X728218Y412750D03*
X716280Y392684D03*
X716280Y369824D03*
X728218Y350266D03*
X748030Y338836D03*
X770890Y338836D03*
X790702Y350266D03*
X802640Y369824D03*
X802640Y392684D03*
X790702Y412750D03*
X770890Y426212D03*
X748030Y401320D03*
X736600Y381508D03*
X748030Y361696D03*
X770890Y361696D03*
X782320Y381508D03*
X770890Y401320D03*
X759460Y381508D03*
D43*
X874365Y267619D03*
X644555Y497429D03*
D44*
X709585Y672047D03*
X735245Y632424D03*
X768514Y666581D03*
X742096Y706275D03*
D43*
X859470Y761469D03*
X635574Y575587D03*
D45*
X881634Y439728D03*
X881634Y414728D03*
X906634Y439728D03*
X906634Y414728D03*
D46*
X868234Y427228D03*
D33*
X883666Y475996D03*
D19*
X634746Y364490D03*
X634746Y389890D03*
D47*
X634746Y442468D03*
X634746Y417068D03*
D48*
X523494Y487353D03*
D49*
X807720Y235712D03*
D50*
X538480Y199644D03*
X538198Y171704D03*
X601218Y934974D03*
X634238Y960882D03*
X646938Y908304D03*
X529590Y808990D03*
X392458Y813054D03*
X397510Y649224D03*
X523584Y114554D03*
X512318Y343662D03*
X612394Y400812D03*
D48*
X527723Y522398D03*
D50*
X536384Y508034D03*
D51*
X824738Y440182D03*
D50*
X331283Y669477D03*
X349758Y651256D03*
X888238Y383794D03*
X568960Y245872D03*
X497362Y536010D03*
D48*
X843942Y370994D03*
D50*
X408686Y34798D03*
X852304Y338836D03*
X470916Y809752D03*
X460248Y598830D03*
X460756Y535968D03*
X586407Y493189D03*
X332824Y386842D03*
X311658Y224790D03*
X436090Y825246D03*
X469336Y598830D03*
X469844Y535968D03*
X561437Y505049D03*
X342166Y386842D03*
X311658Y199390D03*
X773430Y243586D03*
X800100Y185420D03*
X770636Y92964D03*
X716788Y91948D03*
X716026Y154686D03*
X741680Y42926D03*
X835660Y57658D03*
X847598Y104648D03*
X589534Y134366D03*
X471170Y797052D03*
X431292Y733298D03*
X428752Y765556D03*
X617728Y655066D03*
X589534Y702056D03*
D49*
X533908Y439674D03*
X619506Y294894D03*
D50*
X675640Y701040D03*
X615491Y364695D03*
X247142Y45720D03*
X99568Y50038D03*
X67310Y741680D03*
X591566Y192532D03*
X536448Y39878D03*
X417498Y80694D03*
X615922Y842010D03*
X754888Y946658D03*
X641604Y254790D03*
X455930Y804164D03*
X487512Y598830D03*
X488020Y535968D03*
X569184Y496286D03*
X762218Y287810D03*
X828548Y297688D03*
X412563Y607635D03*
X451414Y535926D03*
X323482Y386842D03*
X311658Y250190D03*
X713504Y229852D03*
X417068Y40894D03*
X842518Y463550D03*
X554657Y525955D03*
X277368Y370360D03*
X835660Y456720D03*
X561084Y519529D03*
X286582Y370360D03*
D51*
X755650Y244856D03*
X821944Y132842D03*
D50*
X726186Y304546D03*
X709930Y179324D03*
D51*
X743204Y244602D03*
D50*
X678303Y380361D03*
X682376Y388610D03*
X680146Y421199D03*
X697738Y435102D03*
X673608Y321672D03*
X498602Y162334D03*
X655750Y319962D03*
X485648Y168910D03*
X568960Y233172D03*
X569468Y220358D03*
X684022Y247142D03*
X675894Y179324D03*
X742188Y178562D03*
X639318Y144272D03*
X674370Y108458D03*
X673100Y41910D03*
X771398Y76962D03*
X786356Y92964D03*
D51*
X889508Y56642D03*
D50*
X852678Y87884D03*
X598424Y36830D03*
X593852Y125730D03*
X617474Y163576D03*
X799338Y40894D03*
D51*
X545338Y100330D03*
D52*
X729488Y277622D03*
X767334Y257810D03*
X861824Y213108D03*
D50*
X544576Y745744D03*
X513334Y745744D03*
X433070Y746760D03*
D51*
X769874Y145542D03*
D50*
X720090Y133096D03*
X721106Y67310D03*
X359156Y750570D03*
X646684Y701294D03*
X594868Y680466D03*
X648462Y716026D03*
X699262Y648462D03*
X579910Y842010D03*
X577596Y765302D03*
X517398Y684276D03*
X295910Y370332D03*
X301753Y154841D03*
D52*
X832612Y631444D03*
D50*
X756920Y851916D03*
D53*
X-16510Y89916D03*
X76454Y1052830D03*
X208788Y1052830D03*
X341122Y1052830D03*
X473456Y1052830D03*
X605790Y1052830D03*
X738124Y1052830D03*
X870458Y1052830D03*
X76454Y-13970D03*
X208788Y-13970D03*
X341122Y-13970D03*
X473456Y-13970D03*
X-16510Y233172D03*
X-16510Y376428D03*
X-16510Y519684D03*
X-16510Y662940D03*
X-16510Y806196D03*
X-16510Y949452D03*
X963930Y519684D03*
X963930Y662940D03*
X963930Y806196D03*
X963930Y949452D03*
X963676Y376428D03*
X963930Y233172D03*
X963930Y89916D03*
D50*
X397990Y144780D03*
X917448Y554482D03*
X912396Y456692D03*
X268732Y728980D03*
X270510Y617982D03*
X415294Y536190D03*
X419466Y509552D03*
X743204Y863600D03*
X509414Y938792D03*
X502412Y932942D03*
X311658Y275590D03*
X442171Y535983D03*
X313886Y386842D03*
X473456Y837692D03*
X432829Y536166D03*
X304544Y386842D03*
X311628Y300990D03*
X442976Y816356D03*
X478424Y598830D03*
X478932Y535968D03*
X351628Y386842D03*
X311912Y173990D03*
X536381Y733046D03*
X129540Y593852D03*
X131826Y439928D03*
X525780Y872744D03*
X420370Y725424D03*
X427794Y121470D03*
X391056Y136322D03*
X434594Y114808D03*
D51*
X818388Y36830D03*
X704088Y39878D03*
X718838Y103172D03*
X839216Y36830D03*
X795782Y133350D03*
X769620Y163830D03*
X901240Y99568D03*
D54*
X781558Y1011936D03*
X858266Y1011936D03*
X922020Y1011936D03*
X922020Y907542D03*
X858774Y907542D03*
X781304Y907542D03*
X781812Y785876D03*
X922274Y785876D03*
X922274Y890270D03*
X859028Y890270D03*
X781558Y890270D03*
M02*
