M48
;GenerationSoftware,Autodesk,EAGLE,9.5.0*%
;CreationDate,2020-02-28T08:22:18Z*%
FMAT,2
ICI,OFF
METRIC,TZ,000.000
T5C0.350
T4C1.016
T3C1.200
T2C1.300
T1C3.302
%
G90
M71
T1
X-3302Y11938
X57508Y12388
T2
X3572Y8383
X52480Y6625
T3
X48640Y2875
X4912Y7133
X7412Y7133
X7412Y4633
X4912Y4633
X4912Y9633
X7412Y9633
X51140Y7875
X51140Y5375
X48640Y5375
X48640Y7875
X48640Y10375
X51140Y10375
X51140Y2875
T4
X25486Y4339
X22946Y4339
X25486Y6879
X22946Y6879
X25486Y9419
X22946Y9419
T5
X43647Y16760
X47152Y22500
X43647Y13483
X10246Y20087
X43647Y10181
X47152Y20672
X44612Y23389
X42707Y23389
X42707Y20087
X47152Y21586
X42707Y16760
X42707Y13509
X42707Y10181
X42732Y6879
X15580Y21611
X31353Y20722
X33588Y14702
X27518Y17801
X30074Y13830
X10246Y21865
X35138Y12721
X31582Y4339
X43641Y6879
X47152Y19732
X44612Y20087
X44612Y16760
X44612Y13483
X44586Y6854
X44612Y10181
X43647Y20087
X47152Y23415
M30