M48
;GenerationSoftware,Autodesk,EAGLE,9.5.0*%
;CreationDate,2019-11-15T04:40:47Z*%
FMAT,2
ICI,OFF
METRIC,TZ,000.000
T23C0.350
T22C0.400
T21C0.450
T20C0.500
T19C0.600
T18C0.650
T17C0.700
T16C0.800
T15C0.813
T14C0.900
T13C1.000
T12C1.016
T11C1.118
T10C1.200
T9C1.300
T8C1.321
T7C1.500
T6C1.600
T5C1.613
T4C1.803
T3C2.000
T2C3.300
T1C3.302
%
G90
M71
T1
X95250Y104140
X-508Y104140
X-508Y-254
X95250Y-254
X89383Y96012
X89459Y83795
T2
X64455Y49743
X87436Y26762
X85947Y76147
X63557Y57559
T3
X73524Y63242
X76851Y66658
X74210Y70627
X70958Y67205
T4
X39268Y49174
T5
X89916Y59411
X89916Y69317
X86512Y59411
X56388Y63957
X59792Y63957
X56388Y73863
X58699Y87935
X86512Y69317
X62103Y87935
X58699Y97841
X62103Y97841
X59792Y73863
T6
X88367Y47600
X77851Y48692
X88367Y50978
X88367Y54331
T7
X30124Y70663
X50825Y60604
X50825Y70612
X50825Y65608
X43332Y60604
X43332Y65608
X37617Y70663
X37617Y65659
X37617Y60655
X30124Y60655
X30124Y65659
X54712Y90983
X43332Y70612
X43332Y85623
X50825Y85623
X49708Y98476
X29693Y90983
X29693Y98476
X44704Y90983
X49708Y90983
X37617Y85674
X54712Y98476
X30124Y85674
X44704Y98476
T8
X37160Y55169
X37160Y43180
X24968Y55169
X24968Y43180
T9
X86823Y42723
T10
X88163Y41473
X88163Y43973
X90663Y41473
X90663Y43973
T11
X71933Y81255
X71933Y83795
X71933Y86335
X71857Y93472
X71857Y98552
X71857Y96012
T12
X24511Y67259
X19431Y67259
X16891Y67259
X63475Y44247
X63475Y38989
X63475Y36449
X14351Y67259
X11811Y67259
X9271Y67259
X6731Y67259
X4191Y67259
X91745Y49784
X91745Y47244
X21971Y67259
X63475Y41707
T13
X69672Y55855
X74803Y44907
X78486Y58395
X78486Y55855
X78486Y53315
X69672Y58395
X75946Y38151
X69672Y53315
X69672Y35763
X69190Y37998
X69494Y40284
X70587Y42316
X72822Y43764
X77089Y40132
X78232Y38151
X77089Y36170
X74803Y36170
X73660Y38151
X74803Y40132
X77089Y42621
X79070Y41275
X80264Y39268
X80264Y36982
X79070Y35027
X77089Y33884
X74803Y33884
X72949Y27762
X76733Y25781
X86182Y21311
X72822Y35027
X71628Y36982
X71628Y39268
X72822Y41275
X74803Y42621
X77089Y44907
X79070Y43764
X81305Y42316
X82398Y40284
X82702Y37998
X82220Y35763
X81026Y33807
X79248Y32360
X77089Y31598
X74803Y31598
X72644Y32360
X83261Y63144
X70866Y33807
T14
X82855Y60579
X82855Y51181
T15
X47142Y41427
X47142Y46507
X47142Y43967
T16
X3124Y60554
X3124Y7214
X3124Y37694
X3124Y35154
X3124Y32614
X3124Y30074
X3124Y27534
X3124Y24994
X3124Y22454
X3124Y19914
X3124Y17374
X3124Y14834
X18364Y37694
X18364Y35154
X18364Y19914
X18364Y17374
X18364Y14834
X18364Y12294
X18364Y4674
X3124Y4674
X3124Y9754
X3124Y12294
X18364Y7214
X18364Y9754
X18364Y32614
X18364Y22454
X18364Y24994
X18364Y27534
X18364Y30074
X18364Y40234
X18364Y42774
X18364Y45314
X18364Y47854
X18364Y50394
X18364Y52934
X18364Y55474
X18364Y58014
X18364Y60554
X18364Y63094
X3124Y40234
X3124Y42774
X3124Y45314
X3124Y47854
X3124Y50394
X3124Y52934
X3124Y55474
X3124Y58014
X3124Y63094
X15824Y50394
X13284Y50394
X10744Y50394
X8204Y50394
X5664Y50394
X15773Y43967
X10693Y61747
X20853Y61747
X22250Y7239
X22250Y37719
X22250Y35179
X22250Y32639
X22250Y30099
X22250Y27559
X22250Y25019
X22250Y22479
X22250Y19939
X22250Y17399
X22250Y14859
X37490Y37719
X37490Y35179
X37490Y19939
X37490Y17399
X37490Y14859
X37490Y12319
X37490Y4699
X22250Y4699
X22250Y9779
X22250Y12319
X37490Y7239
X37490Y9779
X37490Y32639
X37490Y22479
X37490Y27559
X37490Y30099
X37490Y25019
T17
X24843Y76895
X24843Y80895
X24843Y82895
X24843Y84895
X24843Y86895
X2843Y90895
X24843Y88895
X24843Y90895
X2843Y72895
X2843Y74895
X2843Y76895
X2843Y78895
X2843Y80895
X2843Y82895
X2843Y84895
X2843Y86895
X24843Y72895
X24843Y74895
X2843Y88895
X24843Y78895
T18
X47346Y-1397
X96393Y66294
X-1651Y23317
X-1651Y37643
X96393Y51968
X-1651Y94945
X-1651Y51968
X-1651Y80620
X20879Y-1397
X96393Y8992
X96393Y23317
X96368Y37643
X96393Y94945
X96393Y80620
X-1651Y66294
X34112Y-1397
X73812Y105283
X7645Y-1397
X87046Y105283
X60579Y105283
X47346Y105283
X34112Y105283
X20879Y105283
X7645Y105283
X-1651Y8992
T19
X70409Y3988
X81839Y3683
X82194Y13284
X54534Y10033
X76962Y16383
X75565Y24486
X90124Y9957
X82474Y44018
X79578Y13335
X83922Y3683
X71884Y10317
X76987Y14554
X88951Y5664
X74320Y24460
T20
X52349Y48735
X52772Y52240
X84394Y37099
T21
X78156Y89027
X85903Y89027
X92227Y89027
X92227Y78588
X78181Y78588
X78130Y90754
X85877Y90754
X92202Y90754
X92202Y101194
X85827Y101194
X78156Y101194
T22
X80772Y23571
X61951Y29489
X53391Y43967
T23
X41707Y4089
X84252Y46355
X55466Y52596
X27737Y37036
X83566Y45672
X56108Y51953
X28658Y37036
X72619Y30455
X42779Y12147
X42037Y72542
X52578Y87274
X13183Y43993
X12954Y59385
X53638Y73305
X31191Y17399
X35163Y38684
X47893Y53597
X47842Y59883
X44298Y81636
X31163Y30099
X30454Y38684
X43283Y53617
X47346Y83769
X31389Y38684
X44217Y53598
X31166Y27559
X50941Y93879
X74320Y86360
X41947Y50955
X41529Y53619
X27051Y61798
X26873Y72898
X91240Y45669
X91745Y55448
X58641Y49319
X39799Y14478
X53848Y19964
X53820Y17170
X60122Y93497
X63424Y96088
X64694Y90830
X52959Y80899
X39246Y81305
X39751Y64922
X52358Y11455
X51232Y34366
X61239Y40081
X53638Y50803
X33128Y66948
X34976Y65126
X88824Y38379
X56896Y24587
X49736Y53601
X40869Y3480
X85230Y33884
X47092Y80975
X46025Y59883
X46076Y53597
X33282Y38684
X31166Y22479
X43609Y82525
X70993Y17932
X46934Y59883
X50241Y93294
X46984Y53597
X56144Y50505
X34217Y38684
X31166Y19939
X77343Y24359
X80010Y18542
X77064Y9296
X71679Y9195
X71603Y15469
X74168Y4293
X83566Y5766
X84760Y10465
X58953Y13437
X47117Y79705
X43129Y73330
X42875Y76556
X61773Y65507
X58953Y70206
X67564Y70104
X61549Y36469
X24714Y4572
X6731Y74168
X59157Y19253
X53645Y3988
X41750Y8069
X61592Y84201
X75489Y94666
X43459Y11481
X64160Y25479
X45593Y80416
X48751Y59883
X48802Y53597
X56918Y49629
X76222Y28781
X82855Y29769
X41256Y60763
X45141Y53593
X75692Y85192
X30175Y15484
X29591Y37033
X51740Y68428
X57760Y76530
X57991Y84201
X69926Y64846
X64846Y71603
X59487Y68047
X64668Y70129
X35916Y75057
X72111Y6731
X72009Y13310
X32348Y38684
X43307Y74676
X51333Y74574
X54458Y74574
X9957Y5004
X79934Y4089
X61747Y16358
X59385Y12573
X59842Y3683
X85268Y8788
X31166Y25019
X78636Y9296
X77140Y7696
X67310Y4191
X67437Y10846
X63932Y14427
X74219Y17856
X67589Y17932
X68402Y24714
X56947Y22036
X56896Y23317
X48565Y16891
X65575Y31996
X49860Y16233
X67361Y32167
X69774Y43510
X68015Y42120
X68238Y38861
X67830Y38036
X71350Y22985
X39106Y13632
M30