G04 EAGLE Gerber RS-274X export*
G75*
%MOMM*%
%FSLAX34Y34*%
%LPD*%
%INBottom Copper*%
%IPPOS*%
%AMOC8*
5,1,8,0,0,1.08239X$1,22.5*%
G01*
%ADD10C,2.794000*%
%ADD11R,1.000000X1.100000*%
%ADD12R,1.400000X1.500000*%
%ADD13C,1.905000*%
%ADD14R,1.100000X1.000000*%
%ADD15P,1.814519X8X292.500000*%
%ADD16P,1.649562X8X202.500000*%
%ADD17R,0.600000X2.200000*%
%ADD18R,0.800000X0.900000*%
%ADD19R,0.900000X0.800000*%
%ADD20R,0.800000X1.200000*%
%ADD21C,0.240000*%
%ADD22R,1.200000X0.800000*%
%ADD23R,2.250000X2.250000*%
%ADD24C,1.981200*%
%ADD25C,2.705100*%
%ADD26R,1.500000X1.400000*%
%ADD27C,1.524000*%
%ADD28R,1.879600X1.879600*%
%ADD29C,1.879600*%
%ADD30C,2.400300*%
%ADD31C,1.676400*%
%ADD32C,1.308000*%
%ADD33C,1.422400*%
%ADD34R,1.422400X1.422400*%
%ADD35R,2.200000X0.600000*%
%ADD36R,1.270000X0.760000*%
%ADD37R,1.100000X0.450000*%
%ADD38R,1.500000X0.400000*%
%ADD39C,1.508000*%
%ADD40C,3.000000*%
%ADD41C,1.800000*%
%ADD42P,1.649562X8X22.500000*%
%ADD43C,0.254000*%
%ADD44C,0.406400*%
%ADD45C,0.508000*%
%ADD46C,0.906400*%
%ADD47C,0.806400*%
%ADD48C,0.756400*%
%ADD49C,3.810000*%
%ADD50C,0.609600*%
%ADD51C,5.080000*%
%ADD52C,0.304800*%
%ADD53C,0.812800*%
%ADD54C,1.006400*%
%ADD55C,1.500000*%
%ADD56C,1.056400*%
%ADD57C,3.302000*%
%ADD58C,1.016000*%
%ADD59C,0.856400*%

G36*
X12702Y-43178D02*
X12702Y-43178D01*
X12704Y-43179D01*
X12747Y-43159D01*
X12791Y-43141D01*
X12791Y-43139D01*
X12793Y-43138D01*
X12826Y-43053D01*
X12826Y-22657D01*
X12826Y-22656D01*
X12826Y-22655D01*
X12807Y-22611D01*
X12788Y-22566D01*
X12787Y-22566D01*
X12786Y-22565D01*
X12741Y-22548D01*
X12696Y-22530D01*
X12695Y-22531D01*
X12694Y-22531D01*
X12611Y-22567D01*
X11296Y-23882D01*
X5214Y-27393D01*
X-1569Y-29211D01*
X-8591Y-29211D01*
X-15374Y-27393D01*
X-21456Y-23882D01*
X-26422Y-18916D01*
X-29933Y-12834D01*
X-31751Y-6051D01*
X-31751Y971D01*
X-29933Y7754D01*
X-26422Y13836D01*
X-21456Y18802D01*
X-15374Y22313D01*
X-8591Y24131D01*
X-1569Y24131D01*
X5214Y22313D01*
X11296Y18802D01*
X12611Y17487D01*
X12612Y17487D01*
X12612Y17486D01*
X12658Y17468D01*
X12702Y17450D01*
X12703Y17451D01*
X12704Y17450D01*
X12748Y17471D01*
X12792Y17490D01*
X12792Y17491D01*
X12793Y17492D01*
X12826Y17577D01*
X12826Y1018540D01*
X12825Y1018542D01*
X12826Y1018544D01*
X12806Y1018587D01*
X12788Y1018631D01*
X12786Y1018631D01*
X12785Y1018633D01*
X12700Y1018666D01*
X8919Y1018666D01*
X8893Y1018655D01*
X8856Y1018649D01*
X5214Y1016547D01*
X-1569Y1014729D01*
X-8591Y1014729D01*
X-15374Y1016547D01*
X-19016Y1018649D01*
X-19045Y1018653D01*
X-19079Y1018666D01*
X-45593Y1018666D01*
X-45595Y1018665D01*
X-45597Y1018666D01*
X-45640Y1018646D01*
X-45684Y1018628D01*
X-45684Y1018626D01*
X-45686Y1018625D01*
X-45719Y1018540D01*
X-45719Y-43053D01*
X-45718Y-43055D01*
X-45719Y-43057D01*
X-45699Y-43100D01*
X-45681Y-43144D01*
X-45679Y-43144D01*
X-45678Y-43146D01*
X-45593Y-43179D01*
X12700Y-43179D01*
X12702Y-43178D01*
G37*
G36*
X938527Y20205D02*
X938527Y20205D01*
X938564Y20211D01*
X942206Y22313D01*
X948989Y24131D01*
X956011Y24131D01*
X962794Y22313D01*
X966436Y20211D01*
X966465Y20207D01*
X966499Y20194D01*
X993013Y20194D01*
X993015Y20195D01*
X993017Y20194D01*
X993060Y20214D01*
X993104Y20232D01*
X993104Y20234D01*
X993106Y20235D01*
X993139Y20320D01*
X993139Y1081913D01*
X993138Y1081915D01*
X993139Y1081917D01*
X993119Y1081960D01*
X993101Y1082004D01*
X993099Y1082004D01*
X993098Y1082006D01*
X993013Y1082039D01*
X934720Y1082039D01*
X934718Y1082038D01*
X934716Y1082039D01*
X934673Y1082019D01*
X934629Y1082001D01*
X934629Y1081999D01*
X934627Y1081998D01*
X934594Y1081913D01*
X934594Y1061517D01*
X934594Y1061516D01*
X934594Y1061515D01*
X934613Y1061471D01*
X934632Y1061426D01*
X934633Y1061426D01*
X934634Y1061425D01*
X934679Y1061408D01*
X934724Y1061390D01*
X934725Y1061391D01*
X934726Y1061391D01*
X934809Y1061427D01*
X936124Y1062742D01*
X942206Y1066253D01*
X948989Y1068071D01*
X956011Y1068071D01*
X962794Y1066253D01*
X968876Y1062742D01*
X973842Y1057776D01*
X977353Y1051694D01*
X979171Y1044911D01*
X979171Y1037889D01*
X977353Y1031106D01*
X973842Y1025024D01*
X968876Y1020058D01*
X962794Y1016547D01*
X956011Y1014729D01*
X948989Y1014729D01*
X942206Y1016547D01*
X936124Y1020058D01*
X934809Y1021373D01*
X934808Y1021373D01*
X934808Y1021374D01*
X934762Y1021392D01*
X934718Y1021410D01*
X934717Y1021409D01*
X934716Y1021410D01*
X934672Y1021389D01*
X934628Y1021370D01*
X934628Y1021369D01*
X934627Y1021368D01*
X934594Y1021283D01*
X934594Y969920D01*
X934600Y969905D01*
X934598Y969887D01*
X935737Y965638D01*
X935737Y954602D01*
X934598Y950353D01*
X934600Y950337D01*
X934594Y950320D01*
X934594Y850590D01*
X934600Y850575D01*
X934598Y850557D01*
X936499Y843464D01*
X936499Y832428D01*
X934598Y825335D01*
X934600Y825319D01*
X934594Y825302D01*
X934594Y20320D01*
X934595Y20318D01*
X934594Y20316D01*
X934614Y20273D01*
X934632Y20229D01*
X934634Y20229D01*
X934635Y20227D01*
X934720Y20194D01*
X938501Y20194D01*
X938527Y20205D01*
G37*
G36*
X-25196Y1023494D02*
X-25196Y1023494D01*
X-25195Y1023494D01*
X-25151Y1023513D01*
X-25106Y1023532D01*
X-25106Y1023533D01*
X-25105Y1023534D01*
X-25088Y1023579D01*
X-25070Y1023624D01*
X-25071Y1023625D01*
X-25071Y1023626D01*
X-25107Y1023709D01*
X-26422Y1025024D01*
X-29933Y1031106D01*
X-31751Y1037889D01*
X-31751Y1044911D01*
X-29933Y1051694D01*
X-26422Y1057776D01*
X-21456Y1062742D01*
X-15374Y1066253D01*
X-8591Y1068071D01*
X-1569Y1068071D01*
X5214Y1066253D01*
X11296Y1062742D01*
X16262Y1057776D01*
X19773Y1051694D01*
X21591Y1044911D01*
X21591Y1037889D01*
X19773Y1031106D01*
X16262Y1025024D01*
X14947Y1023709D01*
X14947Y1023708D01*
X14946Y1023708D01*
X14928Y1023662D01*
X14910Y1023618D01*
X14911Y1023617D01*
X14910Y1023616D01*
X14931Y1023572D01*
X14950Y1023528D01*
X14951Y1023528D01*
X14952Y1023527D01*
X15037Y1023494D01*
X929640Y1023494D01*
X929642Y1023495D01*
X929644Y1023494D01*
X929687Y1023514D01*
X929731Y1023532D01*
X929731Y1023534D01*
X929733Y1023535D01*
X929766Y1023620D01*
X929766Y1027401D01*
X929762Y1027411D01*
X929762Y1027412D01*
X929755Y1027427D01*
X929749Y1027464D01*
X927647Y1031106D01*
X925829Y1037889D01*
X925829Y1044911D01*
X927647Y1051694D01*
X929749Y1055336D01*
X929753Y1055365D01*
X929766Y1055399D01*
X929766Y1081913D01*
X929765Y1081915D01*
X929766Y1081917D01*
X929746Y1081960D01*
X929728Y1082004D01*
X929726Y1082004D01*
X929725Y1082006D01*
X929640Y1082039D01*
X-45593Y1082039D01*
X-45595Y1082038D01*
X-45597Y1082039D01*
X-45640Y1082019D01*
X-45684Y1082001D01*
X-45684Y1081999D01*
X-45686Y1081998D01*
X-45719Y1081913D01*
X-45719Y1023620D01*
X-45718Y1023618D01*
X-45719Y1023616D01*
X-45699Y1023573D01*
X-45681Y1023529D01*
X-45679Y1023529D01*
X-45678Y1023527D01*
X-45593Y1023494D01*
X-25197Y1023494D01*
X-25196Y1023494D01*
G37*
G36*
X993015Y-43178D02*
X993015Y-43178D01*
X993017Y-43179D01*
X993060Y-43159D01*
X993104Y-43141D01*
X993104Y-43139D01*
X993106Y-43138D01*
X993139Y-43053D01*
X993139Y15240D01*
X993138Y15242D01*
X993139Y15244D01*
X993119Y15287D01*
X993101Y15331D01*
X993099Y15331D01*
X993098Y15333D01*
X993013Y15366D01*
X972617Y15366D01*
X972616Y15366D01*
X972615Y15366D01*
X972571Y15347D01*
X972526Y15328D01*
X972526Y15327D01*
X972525Y15326D01*
X972508Y15281D01*
X972490Y15236D01*
X972491Y15235D01*
X972491Y15234D01*
X972527Y15151D01*
X973842Y13836D01*
X977353Y7754D01*
X979171Y971D01*
X979171Y-6051D01*
X977353Y-12834D01*
X973842Y-18916D01*
X968876Y-23882D01*
X962794Y-27393D01*
X956011Y-29211D01*
X948989Y-29211D01*
X942206Y-27393D01*
X936124Y-23882D01*
X931158Y-18916D01*
X927647Y-12834D01*
X925829Y-6051D01*
X925829Y971D01*
X927647Y7754D01*
X931158Y13836D01*
X932473Y15151D01*
X932473Y15152D01*
X932474Y15152D01*
X932492Y15198D01*
X932510Y15242D01*
X932509Y15243D01*
X932510Y15244D01*
X932489Y15288D01*
X932470Y15332D01*
X932469Y15332D01*
X932468Y15333D01*
X932383Y15366D01*
X17780Y15366D01*
X17778Y15365D01*
X17776Y15366D01*
X17733Y15346D01*
X17689Y15328D01*
X17689Y15326D01*
X17687Y15325D01*
X17654Y15240D01*
X17654Y11459D01*
X17665Y11433D01*
X17671Y11396D01*
X19773Y7754D01*
X21591Y971D01*
X21591Y-6051D01*
X19773Y-12834D01*
X17671Y-16476D01*
X17667Y-16505D01*
X17654Y-16539D01*
X17654Y-43053D01*
X17655Y-43055D01*
X17654Y-43057D01*
X17674Y-43100D01*
X17692Y-43144D01*
X17694Y-43144D01*
X17695Y-43146D01*
X17780Y-43179D01*
X993013Y-43179D01*
X993015Y-43178D01*
G37*
G36*
X923039Y900431D02*
X923039Y900431D01*
X923042Y900431D01*
X923389Y900451D01*
X923747Y900471D01*
X923750Y900471D01*
X923753Y900471D01*
X924093Y900530D01*
X924450Y900590D01*
X924452Y900591D01*
X924455Y900591D01*
X924800Y900691D01*
X925134Y900787D01*
X925137Y900789D01*
X925140Y900789D01*
X925464Y900924D01*
X925792Y901060D01*
X925795Y901062D01*
X925797Y901063D01*
X926109Y901235D01*
X926416Y901405D01*
X926418Y901407D01*
X926421Y901408D01*
X926718Y901619D01*
X926997Y901818D01*
X926999Y901819D01*
X927001Y901821D01*
X927269Y902061D01*
X927528Y902292D01*
X927530Y902295D01*
X927532Y902296D01*
X927770Y902564D01*
X928002Y902824D01*
X928004Y902826D01*
X928006Y902828D01*
X928204Y903109D01*
X928414Y903405D01*
X928416Y903408D01*
X928417Y903410D01*
X928580Y903706D01*
X928758Y904029D01*
X928759Y904032D01*
X928761Y904034D01*
X928892Y904352D01*
X929030Y904687D01*
X929031Y904690D01*
X929032Y904693D01*
X929127Y905022D01*
X929227Y905372D01*
X929228Y905375D01*
X929228Y905378D01*
X929287Y905727D01*
X929346Y906074D01*
X929346Y906077D01*
X929347Y906080D01*
X929385Y906780D01*
X929385Y921259D01*
X929372Y921498D01*
X929367Y921737D01*
X929352Y921853D01*
X929345Y921970D01*
X929305Y922206D01*
X929274Y922443D01*
X929245Y922557D01*
X929226Y922672D01*
X929160Y922902D01*
X929102Y923135D01*
X929061Y923244D01*
X929029Y923357D01*
X928937Y923578D01*
X928853Y923802D01*
X928801Y923907D01*
X928756Y924015D01*
X928640Y924225D01*
X928532Y924438D01*
X928468Y924536D01*
X928411Y924638D01*
X928272Y924833D01*
X928141Y925034D01*
X928066Y925124D01*
X927999Y925219D01*
X927839Y925397D01*
X927686Y925582D01*
X927602Y925663D01*
X927524Y925750D01*
X927345Y925909D01*
X927172Y926076D01*
X927079Y926147D01*
X926992Y926225D01*
X926797Y926363D01*
X926607Y926509D01*
X926507Y926569D01*
X926411Y926637D01*
X926201Y926753D01*
X925996Y926876D01*
X925890Y926924D01*
X925787Y926981D01*
X925566Y927072D01*
X925348Y927172D01*
X925237Y927208D01*
X925129Y927253D01*
X924899Y927319D01*
X924671Y927394D01*
X924557Y927417D01*
X924444Y927450D01*
X924208Y927490D01*
X923973Y927538D01*
X923857Y927549D01*
X923742Y927568D01*
X923503Y927582D01*
X923264Y927604D01*
X923147Y927601D01*
X923030Y927608D01*
X922791Y927594D01*
X922552Y927589D01*
X922436Y927574D01*
X922319Y927567D01*
X922083Y927527D01*
X921846Y927495D01*
X921732Y927467D01*
X921617Y927447D01*
X921387Y927381D01*
X921154Y927323D01*
X921045Y927282D01*
X920932Y927249D01*
X920711Y927157D01*
X920487Y927074D01*
X920381Y927020D01*
X920275Y926976D01*
X920075Y926865D01*
X919861Y926757D01*
X910003Y921065D01*
X899344Y918209D01*
X888308Y918209D01*
X877649Y921065D01*
X868092Y926583D01*
X860289Y934386D01*
X854771Y943943D01*
X851915Y954602D01*
X851915Y965638D01*
X854771Y976297D01*
X860289Y985854D01*
X868092Y993657D01*
X877649Y999175D01*
X888308Y1002031D01*
X899344Y1002031D01*
X910003Y999175D01*
X919861Y993483D01*
X920075Y993375D01*
X920285Y993259D01*
X920393Y993214D01*
X920497Y993162D01*
X920722Y993079D01*
X920943Y992987D01*
X921056Y992955D01*
X921165Y992914D01*
X921397Y992856D01*
X921628Y992790D01*
X921743Y992771D01*
X921857Y992743D01*
X922094Y992711D01*
X922330Y992672D01*
X922447Y992665D01*
X922563Y992650D01*
X922803Y992645D01*
X923042Y992632D01*
X923159Y992639D01*
X923275Y992637D01*
X923514Y992659D01*
X923753Y992673D01*
X923868Y992692D01*
X923985Y992703D01*
X924219Y992753D01*
X924455Y992793D01*
X924568Y992825D01*
X924682Y992849D01*
X924909Y992924D01*
X925140Y992991D01*
X925248Y993036D01*
X925359Y993072D01*
X925576Y993172D01*
X925797Y993264D01*
X925900Y993321D01*
X926006Y993370D01*
X926211Y993493D01*
X926421Y993609D01*
X926516Y993677D01*
X926616Y993738D01*
X926806Y993884D01*
X927001Y994022D01*
X927088Y994100D01*
X927181Y994172D01*
X927353Y994338D01*
X927532Y994498D01*
X927609Y994585D01*
X927694Y994666D01*
X927846Y994851D01*
X928006Y995030D01*
X928073Y995125D01*
X928148Y995215D01*
X928279Y995416D01*
X928417Y995611D01*
X928474Y995714D01*
X928537Y995812D01*
X928645Y996026D01*
X928761Y996235D01*
X928805Y996343D01*
X928858Y996448D01*
X928941Y996673D01*
X929032Y996894D01*
X929065Y997006D01*
X929105Y997116D01*
X929163Y997349D01*
X929228Y997579D01*
X929248Y997694D01*
X929276Y997808D01*
X929307Y998045D01*
X929347Y998281D01*
X929353Y998400D01*
X929368Y998514D01*
X929372Y998742D01*
X929385Y998981D01*
X929385Y1012698D01*
X929385Y1012701D01*
X929385Y1012704D01*
X929367Y1013032D01*
X929345Y1013409D01*
X929345Y1013412D01*
X929345Y1013415D01*
X929287Y1013755D01*
X929226Y1014112D01*
X929225Y1014114D01*
X929225Y1014117D01*
X929125Y1014462D01*
X929029Y1014796D01*
X929027Y1014799D01*
X929027Y1014802D01*
X928892Y1015126D01*
X928756Y1015454D01*
X928754Y1015457D01*
X928753Y1015459D01*
X928581Y1015771D01*
X928411Y1016078D01*
X928409Y1016080D01*
X928408Y1016083D01*
X928197Y1016380D01*
X927999Y1016659D01*
X927997Y1016661D01*
X927995Y1016663D01*
X927755Y1016931D01*
X927524Y1017190D01*
X927521Y1017192D01*
X927520Y1017194D01*
X927252Y1017432D01*
X926992Y1017664D01*
X926990Y1017666D01*
X926988Y1017668D01*
X926707Y1017866D01*
X926411Y1018076D01*
X926408Y1018078D01*
X926406Y1018079D01*
X926110Y1018242D01*
X925787Y1018420D01*
X925784Y1018421D01*
X925782Y1018423D01*
X925464Y1018554D01*
X925129Y1018692D01*
X925126Y1018693D01*
X925123Y1018694D01*
X924794Y1018789D01*
X924444Y1018889D01*
X924441Y1018890D01*
X924439Y1018890D01*
X924085Y1018950D01*
X923742Y1019008D01*
X923739Y1019008D01*
X923736Y1019009D01*
X923036Y1019047D01*
X775716Y1019047D01*
X775713Y1019047D01*
X775710Y1019047D01*
X775363Y1019027D01*
X775005Y1019007D01*
X775002Y1019007D01*
X774999Y1019007D01*
X774659Y1018948D01*
X774302Y1018888D01*
X774300Y1018887D01*
X774297Y1018887D01*
X773952Y1018787D01*
X773618Y1018691D01*
X773615Y1018689D01*
X773612Y1018689D01*
X773288Y1018554D01*
X772960Y1018418D01*
X772957Y1018416D01*
X772955Y1018415D01*
X772643Y1018243D01*
X772336Y1018073D01*
X772334Y1018071D01*
X772331Y1018070D01*
X772034Y1017859D01*
X771755Y1017661D01*
X771753Y1017659D01*
X771751Y1017657D01*
X771483Y1017417D01*
X771224Y1017186D01*
X771223Y1017183D01*
X771220Y1017182D01*
X770982Y1016914D01*
X770750Y1016654D01*
X770748Y1016652D01*
X770746Y1016650D01*
X770548Y1016369D01*
X770338Y1016073D01*
X770337Y1016070D01*
X770335Y1016068D01*
X770172Y1015772D01*
X769994Y1015449D01*
X769993Y1015446D01*
X769991Y1015444D01*
X769860Y1015126D01*
X769722Y1014791D01*
X769721Y1014788D01*
X769720Y1014785D01*
X769623Y1014447D01*
X769525Y1014106D01*
X769524Y1014103D01*
X769524Y1014101D01*
X769463Y1013743D01*
X769406Y1013404D01*
X769406Y1013401D01*
X769405Y1013398D01*
X769367Y1012698D01*
X769367Y906780D01*
X769367Y906777D01*
X769367Y906774D01*
X769387Y906427D01*
X769407Y906069D01*
X769407Y906066D01*
X769407Y906063D01*
X769466Y905723D01*
X769526Y905366D01*
X769527Y905364D01*
X769527Y905361D01*
X769627Y905016D01*
X769723Y904682D01*
X769725Y904679D01*
X769725Y904676D01*
X769860Y904352D01*
X769996Y904024D01*
X769998Y904021D01*
X769999Y904019D01*
X770171Y903707D01*
X770341Y903400D01*
X770343Y903398D01*
X770344Y903395D01*
X770555Y903098D01*
X770754Y902819D01*
X770755Y902817D01*
X770757Y902815D01*
X770997Y902547D01*
X771228Y902288D01*
X771231Y902287D01*
X771232Y902284D01*
X771500Y902046D01*
X771760Y901814D01*
X771762Y901812D01*
X771764Y901810D01*
X772045Y901612D01*
X772341Y901402D01*
X772344Y901401D01*
X772346Y901399D01*
X772642Y901236D01*
X772965Y901058D01*
X772968Y901057D01*
X772970Y901055D01*
X773288Y900924D01*
X773623Y900786D01*
X773626Y900785D01*
X773629Y900784D01*
X773958Y900690D01*
X774308Y900589D01*
X774311Y900588D01*
X774314Y900588D01*
X774667Y900528D01*
X775010Y900470D01*
X775013Y900470D01*
X775016Y900469D01*
X775716Y900431D01*
X923036Y900431D01*
X923039Y900431D01*
G37*
G36*
X836436Y778765D02*
X836436Y778765D01*
X836440Y778765D01*
X836794Y778785D01*
X837143Y778805D01*
X837147Y778805D01*
X837152Y778806D01*
X837502Y778866D01*
X837845Y778924D01*
X837849Y778925D01*
X837854Y778926D01*
X838206Y779028D01*
X838530Y779121D01*
X838534Y779123D01*
X838538Y779124D01*
X838864Y779260D01*
X839188Y779394D01*
X839192Y779396D01*
X839196Y779398D01*
X839503Y779568D01*
X839812Y779739D01*
X839815Y779741D01*
X839819Y779744D01*
X840118Y779956D01*
X840392Y780152D01*
X840395Y780154D01*
X840399Y780157D01*
X840921Y780624D01*
X843099Y782803D01*
X849179Y786313D01*
X855960Y788129D01*
X862980Y788129D01*
X869760Y786313D01*
X875840Y782803D01*
X878018Y780624D01*
X878021Y780622D01*
X878024Y780618D01*
X878287Y780384D01*
X878549Y780150D01*
X878553Y780147D01*
X878556Y780144D01*
X878840Y779943D01*
X879130Y779738D01*
X879134Y779735D01*
X879137Y779733D01*
X879448Y779562D01*
X879754Y779393D01*
X879758Y779391D01*
X879761Y779389D01*
X880086Y779255D01*
X880412Y779121D01*
X880416Y779119D01*
X880420Y779118D01*
X880759Y779021D01*
X881097Y778924D01*
X881101Y778923D01*
X881105Y778922D01*
X881461Y778862D01*
X881799Y778804D01*
X881803Y778804D01*
X881808Y778803D01*
X882507Y778765D01*
X923036Y778765D01*
X923039Y778765D01*
X923042Y778765D01*
X923389Y778785D01*
X923747Y778805D01*
X923750Y778805D01*
X923753Y778805D01*
X924093Y778864D01*
X924450Y778924D01*
X924452Y778925D01*
X924455Y778925D01*
X924800Y779025D01*
X925134Y779121D01*
X925137Y779123D01*
X925140Y779123D01*
X925464Y779258D01*
X925792Y779394D01*
X925795Y779396D01*
X925797Y779397D01*
X926109Y779569D01*
X926416Y779739D01*
X926418Y779741D01*
X926421Y779742D01*
X926718Y779953D01*
X926997Y780152D01*
X926999Y780153D01*
X927001Y780155D01*
X927269Y780395D01*
X927528Y780626D01*
X927530Y780629D01*
X927532Y780630D01*
X927770Y780898D01*
X928002Y781158D01*
X928004Y781160D01*
X928006Y781162D01*
X928204Y781443D01*
X928414Y781739D01*
X928416Y781742D01*
X928417Y781744D01*
X928580Y782040D01*
X928758Y782363D01*
X928759Y782366D01*
X928761Y782368D01*
X928892Y782686D01*
X929030Y783021D01*
X929031Y783024D01*
X929032Y783027D01*
X929126Y783354D01*
X929227Y783706D01*
X929228Y783709D01*
X929228Y783712D01*
X929288Y784065D01*
X929346Y784408D01*
X929346Y784411D01*
X929347Y784414D01*
X929385Y785114D01*
X929385Y798645D01*
X929372Y798884D01*
X929367Y799123D01*
X929352Y799239D01*
X929345Y799356D01*
X929305Y799592D01*
X929274Y799829D01*
X929245Y799943D01*
X929226Y800058D01*
X929160Y800288D01*
X929102Y800521D01*
X929061Y800630D01*
X929029Y800743D01*
X928937Y800964D01*
X928853Y801189D01*
X928801Y801293D01*
X928756Y801401D01*
X928640Y801611D01*
X928532Y801824D01*
X928468Y801922D01*
X928411Y802024D01*
X928272Y802219D01*
X928141Y802420D01*
X928066Y802510D01*
X927999Y802605D01*
X927839Y802784D01*
X927686Y802968D01*
X927602Y803049D01*
X927524Y803136D01*
X927345Y803296D01*
X927172Y803462D01*
X927079Y803533D01*
X926992Y803611D01*
X926797Y803749D01*
X926607Y803895D01*
X926507Y803955D01*
X926411Y804023D01*
X926201Y804139D01*
X925996Y804262D01*
X925890Y804310D01*
X925787Y804367D01*
X925566Y804458D01*
X925348Y804558D01*
X925237Y804594D01*
X925129Y804639D01*
X924899Y804705D01*
X924671Y804780D01*
X924557Y804803D01*
X924444Y804836D01*
X924208Y804876D01*
X923973Y804924D01*
X923857Y804935D01*
X923742Y804955D01*
X923503Y804968D01*
X923264Y804990D01*
X923147Y804987D01*
X923030Y804994D01*
X922791Y804980D01*
X922552Y804975D01*
X922436Y804960D01*
X922319Y804953D01*
X922083Y804913D01*
X921846Y804881D01*
X921732Y804853D01*
X921617Y804833D01*
X921387Y804767D01*
X921154Y804709D01*
X921045Y804668D01*
X920932Y804635D01*
X920711Y804543D01*
X920487Y804460D01*
X920381Y804406D01*
X920275Y804362D01*
X920075Y804251D01*
X919861Y804143D01*
X910765Y798891D01*
X900106Y796035D01*
X889070Y796035D01*
X878411Y798891D01*
X868854Y804409D01*
X861051Y812212D01*
X855533Y821769D01*
X852677Y832428D01*
X852677Y843464D01*
X855533Y854123D01*
X861051Y863680D01*
X868854Y871483D01*
X878411Y877001D01*
X889070Y879857D01*
X900106Y879857D01*
X910765Y877001D01*
X919861Y871749D01*
X920075Y871641D01*
X920285Y871525D01*
X920393Y871480D01*
X920497Y871428D01*
X920722Y871344D01*
X920943Y871253D01*
X921056Y871221D01*
X921165Y871180D01*
X921397Y871122D01*
X921628Y871056D01*
X921743Y871037D01*
X921857Y871009D01*
X922094Y870977D01*
X922330Y870937D01*
X922447Y870931D01*
X922563Y870916D01*
X922803Y870911D01*
X923042Y870898D01*
X923159Y870905D01*
X923275Y870903D01*
X923514Y870925D01*
X923753Y870939D01*
X923868Y870958D01*
X923985Y870969D01*
X924219Y871018D01*
X924455Y871059D01*
X924568Y871091D01*
X924682Y871115D01*
X924909Y871190D01*
X925140Y871257D01*
X925248Y871302D01*
X925359Y871338D01*
X925576Y871438D01*
X925797Y871530D01*
X925900Y871587D01*
X926006Y871636D01*
X926211Y871759D01*
X926421Y871875D01*
X926516Y871943D01*
X926616Y872004D01*
X926806Y872150D01*
X927001Y872288D01*
X927088Y872366D01*
X927181Y872438D01*
X927353Y872604D01*
X927532Y872764D01*
X927609Y872851D01*
X927694Y872932D01*
X927846Y873117D01*
X928006Y873296D01*
X928073Y873391D01*
X928148Y873481D01*
X928279Y873682D01*
X928417Y873877D01*
X928473Y873980D01*
X928537Y874078D01*
X928645Y874292D01*
X928761Y874501D01*
X928805Y874609D01*
X928858Y874714D01*
X928941Y874939D01*
X929032Y875160D01*
X929065Y875272D01*
X929105Y875382D01*
X929163Y875615D01*
X929228Y875845D01*
X929248Y875960D01*
X929276Y876074D01*
X929307Y876311D01*
X929347Y876547D01*
X929353Y876666D01*
X929368Y876780D01*
X929372Y877008D01*
X929385Y877247D01*
X929385Y891032D01*
X929385Y891035D01*
X929385Y891038D01*
X929365Y891385D01*
X929345Y891743D01*
X929345Y891746D01*
X929345Y891749D01*
X929286Y892089D01*
X929226Y892446D01*
X929225Y892448D01*
X929225Y892451D01*
X929125Y892796D01*
X929029Y893130D01*
X929027Y893133D01*
X929027Y893136D01*
X928892Y893460D01*
X928756Y893788D01*
X928754Y893791D01*
X928753Y893793D01*
X928581Y894105D01*
X928411Y894412D01*
X928409Y894414D01*
X928408Y894417D01*
X928197Y894714D01*
X927999Y894993D01*
X927997Y894995D01*
X927995Y894997D01*
X927755Y895265D01*
X927524Y895524D01*
X927521Y895526D01*
X927520Y895528D01*
X927252Y895766D01*
X926992Y895998D01*
X926990Y896000D01*
X926988Y896002D01*
X926707Y896200D01*
X926411Y896410D01*
X926408Y896412D01*
X926406Y896413D01*
X926110Y896576D01*
X925787Y896754D01*
X925784Y896755D01*
X925782Y896757D01*
X925464Y896888D01*
X925129Y897026D01*
X925126Y897027D01*
X925123Y897028D01*
X924794Y897123D01*
X924444Y897223D01*
X924441Y897224D01*
X924439Y897224D01*
X924085Y897284D01*
X923742Y897342D01*
X923739Y897342D01*
X923736Y897343D01*
X923036Y897381D01*
X775970Y897381D01*
X775967Y897381D01*
X775964Y897381D01*
X775617Y897361D01*
X775259Y897341D01*
X775256Y897341D01*
X775253Y897341D01*
X774913Y897282D01*
X774556Y897222D01*
X774554Y897221D01*
X774551Y897221D01*
X774206Y897121D01*
X773872Y897025D01*
X773869Y897023D01*
X773866Y897023D01*
X773542Y896888D01*
X773214Y896752D01*
X773211Y896750D01*
X773209Y896749D01*
X772897Y896577D01*
X772590Y896407D01*
X772588Y896405D01*
X772585Y896404D01*
X772288Y896193D01*
X772009Y895995D01*
X772007Y895993D01*
X772005Y895991D01*
X771737Y895751D01*
X771478Y895520D01*
X771477Y895517D01*
X771474Y895516D01*
X771236Y895248D01*
X771004Y894988D01*
X771002Y894986D01*
X771000Y894984D01*
X770802Y894703D01*
X770592Y894407D01*
X770591Y894404D01*
X770589Y894402D01*
X770426Y894106D01*
X770248Y893783D01*
X770247Y893780D01*
X770245Y893778D01*
X770114Y893460D01*
X769976Y893125D01*
X769975Y893122D01*
X769974Y893119D01*
X769880Y892790D01*
X769779Y892440D01*
X769778Y892437D01*
X769778Y892435D01*
X769717Y892077D01*
X769660Y891738D01*
X769660Y891735D01*
X769659Y891732D01*
X769621Y891032D01*
X769621Y785114D01*
X769621Y785111D01*
X769621Y785108D01*
X769641Y784761D01*
X769661Y784403D01*
X769661Y784400D01*
X769661Y784397D01*
X769720Y784057D01*
X769780Y783700D01*
X769781Y783698D01*
X769781Y783695D01*
X769884Y783341D01*
X769977Y783016D01*
X769979Y783013D01*
X769979Y783010D01*
X770114Y782686D01*
X770250Y782358D01*
X770252Y782355D01*
X770253Y782353D01*
X770425Y782041D01*
X770595Y781734D01*
X770597Y781732D01*
X770598Y781729D01*
X770809Y781432D01*
X771008Y781153D01*
X771009Y781151D01*
X771011Y781149D01*
X771251Y780881D01*
X771482Y780622D01*
X771485Y780621D01*
X771486Y780618D01*
X771754Y780380D01*
X772014Y780148D01*
X772016Y780146D01*
X772018Y780144D01*
X772299Y779946D01*
X772595Y779736D01*
X772598Y779734D01*
X772600Y779733D01*
X772896Y779570D01*
X773219Y779392D01*
X773222Y779391D01*
X773224Y779389D01*
X773542Y779258D01*
X773877Y779120D01*
X773880Y779119D01*
X773883Y779118D01*
X774212Y779024D01*
X774562Y778923D01*
X774565Y778922D01*
X774568Y778922D01*
X774921Y778862D01*
X775264Y778804D01*
X775267Y778804D01*
X775270Y778803D01*
X775970Y778765D01*
X836432Y778765D01*
X836436Y778765D01*
G37*
D10*
X597916Y738632D03*
X563880Y738632D03*
X597916Y639572D03*
X563880Y639572D03*
X865124Y594106D03*
X899160Y594106D03*
X865124Y693166D03*
X899160Y693166D03*
X586994Y879348D03*
X621030Y879348D03*
X586994Y978408D03*
X621030Y978408D03*
D11*
X656590Y199000D03*
X656590Y182000D03*
X656590Y211972D03*
X656590Y228972D03*
X770636Y198746D03*
X770636Y181746D03*
X770636Y211718D03*
X770636Y228718D03*
D12*
X759804Y901700D03*
X739304Y901700D03*
D11*
X795020Y147710D03*
X795020Y164710D03*
X813816Y566556D03*
X813816Y583556D03*
X814324Y549774D03*
X814324Y532774D03*
D13*
X828548Y605790D03*
X828548Y511810D03*
D11*
X917448Y537582D03*
X917448Y520582D03*
X671068Y566810D03*
X671068Y583810D03*
X671068Y549520D03*
X671068Y532520D03*
D14*
X597780Y782574D03*
X580780Y782574D03*
X580780Y824738D03*
X597780Y824738D03*
D11*
X536702Y715382D03*
X536702Y698382D03*
X646684Y669426D03*
X646684Y686426D03*
X536702Y685156D03*
X536702Y668156D03*
D14*
X277994Y46482D03*
X260994Y46482D03*
X277994Y67056D03*
X260994Y67056D03*
X504580Y33528D03*
X521580Y33528D03*
X133976Y70866D03*
X116976Y70866D03*
X133976Y50038D03*
X116976Y50038D03*
D11*
X375666Y780660D03*
X375666Y763660D03*
D14*
X486546Y734060D03*
X503546Y734060D03*
D11*
X375666Y750434D03*
X375666Y733434D03*
D14*
X482972Y33528D03*
X465972Y33528D03*
D11*
X586232Y163186D03*
X586232Y146186D03*
X601726Y163186D03*
X601726Y146186D03*
X553466Y183778D03*
X553466Y200778D03*
X656590Y164202D03*
X656590Y147202D03*
X769874Y113674D03*
X769874Y130674D03*
X656844Y113674D03*
X656844Y130674D03*
X823214Y201558D03*
X823214Y218558D03*
X807720Y201558D03*
X807720Y218558D03*
X799592Y110100D03*
X799592Y93100D03*
X901192Y159122D03*
X901192Y142122D03*
D14*
X652916Y262382D03*
X669916Y262382D03*
X652916Y247142D03*
X669916Y247142D03*
D11*
X657098Y93844D03*
X657098Y76844D03*
X771398Y45348D03*
X771398Y62348D03*
X656844Y43062D03*
X656844Y60062D03*
D14*
X854084Y52578D03*
X871084Y52578D03*
D11*
X799338Y54746D03*
X799338Y71746D03*
D15*
X471424Y414274D03*
X471424Y465074D03*
X471424Y439674D03*
D16*
X917448Y472440D03*
X917448Y497840D03*
D17*
X131572Y97444D03*
X131572Y149444D03*
X144272Y97444D03*
X118872Y97444D03*
X106172Y97444D03*
X144272Y149444D03*
X118872Y149444D03*
X106172Y149444D03*
X276098Y93126D03*
X276098Y145126D03*
X288798Y93126D03*
X263398Y93126D03*
X250698Y93126D03*
X288798Y145126D03*
X263398Y145126D03*
X250698Y145126D03*
D18*
X611988Y450690D03*
X592988Y450690D03*
X602488Y430690D03*
X601828Y416400D03*
X582828Y416400D03*
X592328Y396400D03*
X602082Y380332D03*
X583082Y380332D03*
X592582Y360332D03*
D19*
X575470Y481940D03*
X575470Y462940D03*
X595470Y472440D03*
D20*
X461662Y856234D03*
D21*
X476862Y851434D02*
X482462Y851434D01*
X476862Y851434D02*
X476862Y861034D01*
X482462Y861034D01*
X482462Y851434D01*
X482462Y853714D02*
X476862Y853714D01*
X476862Y855994D02*
X482462Y855994D01*
X482462Y858274D02*
X476862Y858274D01*
X476862Y860554D02*
X482462Y860554D01*
D22*
X297180Y940706D03*
D21*
X301980Y955906D02*
X301980Y961506D01*
X301980Y955906D02*
X292380Y955906D01*
X292380Y961506D01*
X301980Y961506D01*
X301980Y958186D02*
X292380Y958186D01*
X292380Y960466D02*
X301980Y960466D01*
D20*
X323740Y909828D03*
D21*
X338940Y905028D02*
X344540Y905028D01*
X338940Y905028D02*
X338940Y914628D01*
X344540Y914628D01*
X344540Y905028D01*
X344540Y907308D02*
X338940Y907308D01*
X338940Y909588D02*
X344540Y909588D01*
X344540Y911868D02*
X338940Y911868D01*
X338940Y914148D02*
X344540Y914148D01*
D22*
X457454Y836024D03*
D21*
X452654Y820824D02*
X452654Y815224D01*
X452654Y820824D02*
X462254Y820824D01*
X462254Y815224D01*
X452654Y815224D01*
X452654Y817504D02*
X462254Y817504D01*
X462254Y819784D02*
X452654Y819784D01*
D20*
X328566Y856996D03*
D21*
X343766Y852196D02*
X349366Y852196D01*
X343766Y852196D02*
X343766Y861796D01*
X349366Y861796D01*
X349366Y852196D01*
X349366Y854476D02*
X343766Y854476D01*
X343766Y856756D02*
X349366Y856756D01*
X349366Y859036D02*
X343766Y859036D01*
X343766Y861316D02*
X349366Y861316D01*
D22*
X301498Y831452D03*
D21*
X296698Y816252D02*
X296698Y810652D01*
X296698Y816252D02*
X306298Y816252D01*
X306298Y810652D01*
X296698Y810652D01*
X296698Y812932D02*
X306298Y812932D01*
X306298Y815212D02*
X296698Y815212D01*
D22*
X350520Y497696D03*
D21*
X345720Y482496D02*
X345720Y476896D01*
X345720Y482496D02*
X355320Y482496D01*
X355320Y476896D01*
X345720Y476896D01*
X345720Y479176D02*
X355320Y479176D01*
X355320Y481456D02*
X345720Y481456D01*
D19*
X306992Y69190D03*
X306992Y50190D03*
X326992Y59690D03*
X328582Y147930D03*
X328582Y128930D03*
X348582Y138430D03*
D18*
X331572Y428338D03*
X312572Y428338D03*
X322072Y408338D03*
X687680Y967326D03*
X668680Y967326D03*
X678180Y947326D03*
X649122Y981362D03*
X668122Y981362D03*
X658622Y1001362D03*
D23*
X447040Y984758D03*
X497078Y984758D03*
X547116Y984758D03*
X547116Y909828D03*
X497078Y909828D03*
X447040Y909828D03*
X296926Y984758D03*
X296926Y909828D03*
D24*
X259588Y431800D02*
X239776Y431800D01*
X239776Y551688D02*
X259588Y551688D01*
X361696Y431800D02*
X381508Y431800D01*
X381508Y551688D02*
X361696Y551688D01*
D25*
X379159Y491744D02*
X406210Y491744D01*
D26*
X546100Y873596D03*
X546100Y853096D03*
X472440Y689520D03*
X472440Y710020D03*
D27*
X41910Y680212D02*
X41910Y664972D01*
X67310Y664972D02*
X67310Y680212D01*
X92710Y680212D02*
X92710Y664972D01*
X118110Y664972D02*
X118110Y680212D01*
X143510Y680212D02*
X143510Y664972D01*
X168910Y664972D02*
X168910Y680212D01*
X194310Y680212D02*
X194310Y664972D01*
X219710Y664972D02*
X219710Y680212D01*
X245110Y680212D02*
X245110Y664972D01*
D19*
X399956Y66904D03*
X399956Y47904D03*
X419956Y57404D03*
D18*
X312318Y486570D03*
X331318Y486570D03*
X321818Y506570D03*
D19*
X331564Y93370D03*
X331564Y112370D03*
X311564Y102870D03*
D11*
X513080Y813952D03*
X513080Y830952D03*
D14*
X332114Y961136D03*
X349114Y961136D03*
D11*
X491744Y830952D03*
X491744Y813952D03*
X376174Y813190D03*
X376174Y830190D03*
X350520Y87766D03*
X350520Y104766D03*
X350266Y68444D03*
X350266Y51444D03*
D14*
X329302Y459740D03*
X312302Y459740D03*
D11*
X919734Y369960D03*
X919734Y386960D03*
D14*
X597780Y803656D03*
X580780Y803656D03*
D11*
X552196Y832476D03*
X552196Y815476D03*
D14*
X251850Y199390D03*
X268850Y199390D03*
X251850Y224790D03*
X268850Y224790D03*
X251850Y250190D03*
X268850Y250190D03*
X251850Y351790D03*
X268850Y351790D03*
X251850Y326390D03*
X268850Y326390D03*
X251850Y300990D03*
X268850Y300990D03*
X251850Y275590D03*
X268850Y275590D03*
X251850Y173990D03*
X268850Y173990D03*
D11*
X913130Y332604D03*
X913130Y315604D03*
X913130Y295012D03*
X913130Y278012D03*
X686816Y983116D03*
X686816Y1000116D03*
X657860Y922156D03*
X657860Y939156D03*
D14*
X456320Y256794D03*
X473320Y256794D03*
X571890Y269494D03*
X588890Y269494D03*
X456320Y282194D03*
X473320Y282194D03*
X571890Y294894D03*
X588890Y294894D03*
X456574Y307594D03*
X473574Y307594D03*
X456574Y332994D03*
X473574Y332994D03*
X456320Y366522D03*
X473320Y366522D03*
X456574Y391922D03*
X473574Y391922D03*
X756784Y877824D03*
X739784Y877824D03*
X349114Y981710D03*
X332114Y981710D03*
D28*
X784860Y583946D03*
D29*
X784860Y558546D03*
X784860Y533146D03*
D28*
X696722Y583946D03*
D29*
X696722Y558546D03*
X696722Y533146D03*
D30*
X883666Y543306D03*
X883666Y509778D03*
X778510Y486918D03*
D22*
X491232Y256794D03*
X555502Y345694D03*
X491232Y269494D03*
X491232Y282194D03*
X491232Y294894D03*
X491232Y307594D03*
X491232Y320294D03*
X491232Y332994D03*
X491232Y345694D03*
X555502Y332994D03*
X555502Y320294D03*
X555502Y307594D03*
X555502Y294894D03*
X555502Y282194D03*
X555502Y269494D03*
X555502Y256794D03*
X491232Y366776D03*
X555502Y455676D03*
X491232Y379476D03*
X491232Y392176D03*
X491232Y404876D03*
X491232Y417576D03*
X491232Y430276D03*
X491232Y442976D03*
X491232Y455676D03*
X555502Y442976D03*
X555502Y430276D03*
X555502Y417576D03*
X555502Y404876D03*
X555502Y392176D03*
X555502Y379476D03*
X555502Y366776D03*
D23*
X376174Y706628D03*
X376174Y656590D03*
X376174Y606552D03*
X301244Y606552D03*
X301244Y656590D03*
X301244Y706628D03*
X376174Y856742D03*
X301244Y856742D03*
X508254Y706120D03*
X508254Y656082D03*
X508254Y606044D03*
X433324Y606044D03*
X433324Y656082D03*
X433324Y706120D03*
X508254Y856234D03*
X433324Y856234D03*
D31*
X710184Y985520D02*
X726948Y985520D01*
X726948Y960120D02*
X710184Y960120D01*
X710184Y934720D02*
X726948Y934720D01*
D19*
X610964Y508406D03*
X610964Y527406D03*
X590964Y517906D03*
D32*
X37782Y72136D02*
X24702Y72136D01*
X24702Y376936D02*
X37782Y376936D01*
X37782Y351536D02*
X24702Y351536D01*
X24702Y326136D02*
X37782Y326136D01*
X37782Y300736D02*
X24702Y300736D01*
X24702Y275336D02*
X37782Y275336D01*
X37782Y249936D02*
X24702Y249936D01*
X24702Y224536D02*
X37782Y224536D01*
X37782Y199136D02*
X24702Y199136D01*
X24702Y173736D02*
X37782Y173736D01*
X37782Y148336D02*
X24702Y148336D01*
X177102Y376936D02*
X190182Y376936D01*
X190182Y351536D02*
X177102Y351536D01*
X177102Y199136D02*
X190182Y199136D01*
X190182Y173736D02*
X177102Y173736D01*
X177102Y148336D02*
X190182Y148336D01*
X190182Y122936D02*
X177102Y122936D01*
X177102Y46736D02*
X190182Y46736D01*
X37782Y46736D02*
X24702Y46736D01*
X24702Y97536D02*
X37782Y97536D01*
X37782Y122936D02*
X24702Y122936D01*
X177102Y72136D02*
X190182Y72136D01*
X190182Y97536D02*
X177102Y97536D01*
X177102Y326136D02*
X190182Y326136D01*
X190182Y224536D02*
X177102Y224536D01*
X177102Y249936D02*
X190182Y249936D01*
X190182Y275336D02*
X177102Y275336D01*
X177102Y300736D02*
X190182Y300736D01*
X190182Y402336D02*
X177102Y402336D01*
X177102Y427736D02*
X190182Y427736D01*
X190182Y453136D02*
X177102Y453136D01*
X177102Y478536D02*
X190182Y478536D01*
X190182Y503936D02*
X177102Y503936D01*
X177102Y529336D02*
X190182Y529336D01*
X190182Y554736D02*
X177102Y554736D01*
X177102Y580136D02*
X190182Y580136D01*
X190182Y605536D02*
X177102Y605536D01*
X177102Y630936D02*
X190182Y630936D01*
X37782Y402336D02*
X24702Y402336D01*
X24702Y427736D02*
X37782Y427736D01*
X37782Y453136D02*
X24702Y453136D01*
X24702Y478536D02*
X37782Y478536D01*
X37782Y503936D02*
X24702Y503936D01*
X24702Y529336D02*
X37782Y529336D01*
X37782Y554736D02*
X24702Y554736D01*
X24702Y580136D02*
X37782Y580136D01*
X37782Y605536D02*
X24702Y605536D01*
X24702Y630936D02*
X37782Y630936D01*
X158242Y510476D02*
X158242Y497396D01*
X132842Y497396D02*
X132842Y510476D01*
X107442Y510476D02*
X107442Y497396D01*
X82042Y497396D02*
X82042Y510476D01*
X56642Y510476D02*
X56642Y497396D01*
D33*
X248430Y728948D03*
X248430Y748948D03*
X248430Y768948D03*
X248430Y788948D03*
X248430Y808948D03*
X248430Y828948D03*
X248430Y848948D03*
X248430Y868948D03*
X248430Y888948D03*
D34*
X248430Y908948D03*
D33*
X28430Y728948D03*
X28430Y748948D03*
X28430Y768948D03*
X28430Y788948D03*
X28430Y808948D03*
X28430Y828948D03*
X28430Y848948D03*
X28430Y868948D03*
X28430Y888948D03*
X28430Y908948D03*
D32*
X157734Y446214D02*
X157734Y433134D01*
X106934Y610934D02*
X106934Y624014D01*
X208534Y624014D02*
X208534Y610934D01*
D35*
X543906Y782066D03*
X491906Y782066D03*
X543906Y794766D03*
X543906Y769366D03*
X543906Y756666D03*
X491906Y794766D03*
X491906Y769366D03*
X491906Y756666D03*
X619598Y693166D03*
X567598Y693166D03*
X619598Y705866D03*
X619598Y680466D03*
X619598Y667766D03*
X567598Y705866D03*
X567598Y680466D03*
X567598Y667766D03*
D32*
X229044Y72390D02*
X215964Y72390D01*
X215964Y377190D02*
X229044Y377190D01*
X229044Y351790D02*
X215964Y351790D01*
X215964Y326390D02*
X229044Y326390D01*
X229044Y300990D02*
X215964Y300990D01*
X215964Y275590D02*
X229044Y275590D01*
X229044Y250190D02*
X215964Y250190D01*
X215964Y224790D02*
X229044Y224790D01*
X229044Y199390D02*
X215964Y199390D01*
X215964Y173990D02*
X229044Y173990D01*
X229044Y148590D02*
X215964Y148590D01*
X368364Y377190D02*
X381444Y377190D01*
X381444Y351790D02*
X368364Y351790D01*
X368364Y199390D02*
X381444Y199390D01*
X381444Y173990D02*
X368364Y173990D01*
X368364Y148590D02*
X381444Y148590D01*
X381444Y123190D02*
X368364Y123190D01*
X368364Y46990D02*
X381444Y46990D01*
X229044Y46990D02*
X215964Y46990D01*
X215964Y97790D02*
X229044Y97790D01*
X229044Y123190D02*
X215964Y123190D01*
X368364Y72390D02*
X381444Y72390D01*
X381444Y97790D02*
X368364Y97790D01*
X368364Y326390D02*
X381444Y326390D01*
X381444Y224790D02*
X368364Y224790D01*
X368364Y250190D02*
X381444Y250190D01*
X381444Y275590D02*
X368364Y275590D01*
X368364Y300990D02*
X381444Y300990D01*
D35*
X577758Y922782D03*
X629758Y922782D03*
X577758Y910082D03*
X577758Y935482D03*
X577758Y948182D03*
X629758Y910082D03*
X629758Y935482D03*
X629758Y948182D03*
D36*
X671220Y810260D03*
X614020Y810260D03*
X671220Y822960D03*
X671220Y797560D03*
X671220Y784860D03*
X614020Y822960D03*
X614020Y797560D03*
X614020Y784860D03*
D35*
X456022Y759714D03*
X404022Y759714D03*
X456022Y772414D03*
X456022Y747014D03*
X456022Y734314D03*
X404022Y772414D03*
X404022Y747014D03*
X404022Y734314D03*
D37*
X466074Y50910D03*
X466074Y57410D03*
X466074Y63910D03*
X466074Y70410D03*
X466074Y76910D03*
X466074Y83410D03*
X466074Y89910D03*
X466074Y96410D03*
X521430Y96410D03*
X521430Y89910D03*
X521430Y83410D03*
X521430Y76910D03*
X521430Y70410D03*
X521430Y63910D03*
X521430Y57410D03*
X521430Y50910D03*
D35*
X621538Y131826D03*
X566928Y131826D03*
X621538Y119126D03*
X621538Y106426D03*
X566928Y119126D03*
X566928Y106426D03*
X621538Y93726D03*
X566928Y93726D03*
X621538Y81026D03*
X566928Y81026D03*
X621538Y68326D03*
X621538Y55626D03*
X566928Y68326D03*
X566928Y55626D03*
X621538Y42926D03*
X566928Y42926D03*
D38*
X521644Y207604D03*
X521644Y201104D03*
X521644Y194604D03*
X521644Y188104D03*
X521644Y181604D03*
X521644Y175104D03*
X521644Y168604D03*
X521644Y162104D03*
X521644Y155604D03*
X521644Y149104D03*
X521644Y142604D03*
X521644Y136104D03*
X521644Y129604D03*
X521644Y123104D03*
X449144Y123104D03*
X449144Y129604D03*
X449144Y136104D03*
X449144Y142604D03*
X449144Y149104D03*
X449144Y155604D03*
X449144Y162104D03*
X449144Y168604D03*
X449144Y175104D03*
X449144Y181604D03*
X449144Y188104D03*
X449144Y194604D03*
X449144Y201104D03*
X449144Y207604D03*
D35*
X742026Y216154D03*
X690026Y216154D03*
X742026Y228854D03*
X742026Y203454D03*
X742026Y190754D03*
X690026Y228854D03*
X690026Y203454D03*
X690026Y190754D03*
X742280Y143002D03*
X690280Y143002D03*
X742280Y155702D03*
X742280Y130302D03*
X742280Y117602D03*
X690280Y155702D03*
X690280Y130302D03*
X690280Y117602D03*
X875884Y172974D03*
X823884Y172974D03*
X875884Y185674D03*
X875884Y160274D03*
X875884Y147574D03*
X823884Y185674D03*
X823884Y160274D03*
X823884Y147574D03*
X742788Y80010D03*
X690788Y80010D03*
X742788Y92710D03*
X742788Y67310D03*
X742788Y54610D03*
X690788Y92710D03*
X690788Y67310D03*
X690788Y54610D03*
X876900Y97536D03*
X824900Y97536D03*
X876900Y110236D03*
X876900Y84836D03*
X876900Y72136D03*
X824900Y110236D03*
X824900Y84836D03*
X824900Y72136D03*
D31*
X727710Y863346D02*
X710946Y863346D01*
X710946Y837946D02*
X727710Y837946D01*
X727710Y812546D02*
X710946Y812546D01*
D39*
X748030Y449072D03*
X728218Y437642D03*
X705866Y423164D03*
X694944Y402844D03*
X691896Y379984D03*
X696722Y357632D03*
X708660Y338074D03*
X726440Y323596D03*
X748030Y315976D03*
X770890Y315976D03*
X792480Y323596D03*
X810260Y338074D03*
X822198Y357632D03*
X827024Y379984D03*
X823976Y402844D03*
X813054Y423164D03*
X790702Y437642D03*
X770890Y449072D03*
X748030Y426212D03*
X728218Y412750D03*
X716280Y392684D03*
X716280Y369824D03*
X728218Y350266D03*
X748030Y338836D03*
X770890Y338836D03*
X790702Y350266D03*
X802640Y369824D03*
X802640Y392684D03*
X790702Y412750D03*
X770890Y426212D03*
X748030Y401320D03*
X736600Y381508D03*
X748030Y361696D03*
X770890Y361696D03*
X782320Y381508D03*
X770890Y401320D03*
X759460Y381508D03*
D40*
X709585Y672047D03*
X735245Y632424D03*
X768514Y666581D03*
X742096Y706275D03*
D41*
X881634Y439728D03*
X881634Y414728D03*
X906634Y439728D03*
X906634Y414728D03*
D30*
X883666Y475996D03*
D16*
X634746Y364490D03*
X634746Y389890D03*
D42*
X634746Y442468D03*
X634746Y417068D03*
D43*
X500026Y397333D02*
X500026Y387019D01*
X500026Y397333D02*
X492483Y404876D01*
X492483Y430276D02*
X491232Y430276D01*
X500026Y437819D02*
X500026Y448133D01*
X500026Y437819D02*
X492483Y430276D01*
X492483Y294894D02*
X491232Y294894D01*
X491232Y320294D02*
X492483Y320294D01*
X500026Y327837D02*
X500026Y338151D01*
X500026Y327837D02*
X492483Y320294D01*
X500026Y338151D02*
X492483Y345694D01*
X491232Y345694D01*
X500026Y354488D01*
X500026Y371933D01*
X500026Y312751D02*
X500026Y302437D01*
X500026Y312751D02*
X492483Y320294D01*
X500026Y302437D02*
X492483Y294894D01*
X500026Y287351D02*
X500026Y275259D01*
X500026Y287351D02*
X492483Y294894D01*
X500026Y275259D02*
X494261Y269494D01*
X500026Y412419D02*
X500026Y422733D01*
X492483Y404876D02*
X491232Y404876D01*
X492483Y404876D02*
X500026Y412419D01*
X500026Y422733D02*
X492483Y430276D01*
X491232Y269494D02*
X494261Y269494D01*
X807720Y218558D02*
X823214Y218558D01*
X875884Y147574D02*
X895740Y147574D01*
X901192Y142122D01*
X875884Y147574D02*
X867331Y147574D01*
X844550Y170355D02*
X844550Y207772D01*
X833764Y218558D01*
X823214Y218558D01*
X844550Y170355D02*
X867331Y147574D01*
D44*
X782320Y381508D02*
X770890Y392938D01*
X770890Y401320D01*
X770890Y426212D01*
D43*
X480822Y455676D02*
X471424Y465074D01*
X492483Y379476D02*
X500026Y371933D01*
X492483Y379476D02*
X491232Y379476D01*
X492483Y379476D02*
X500026Y387019D01*
D45*
X471424Y465074D02*
X493703Y487353D01*
X523494Y487353D01*
D46*
X523494Y487353D03*
D43*
X807720Y235712D02*
X807720Y218558D01*
D47*
X807720Y235712D03*
D43*
X419260Y234475D02*
X419260Y440596D01*
X521572Y149176D02*
X521644Y149104D01*
X521572Y149176D02*
X514765Y149176D01*
X501693Y136104D02*
X449144Y136104D01*
X501693Y136104D02*
X514765Y149176D01*
X449144Y136104D02*
X449144Y129604D01*
X449144Y123104D01*
X429452Y224283D02*
X419260Y234475D01*
X429452Y147575D02*
X440923Y136104D01*
X429452Y147575D02*
X429452Y224283D01*
X440923Y136104D02*
X449144Y136104D01*
D48*
X538480Y199644D03*
X538198Y171704D03*
D49*
X671220Y777150D02*
X671220Y783336D01*
D50*
X671220Y784860D02*
X671220Y797560D01*
D27*
X741960Y706410D02*
X742096Y706275D01*
X741960Y706410D02*
X708642Y706410D01*
X684784Y682552D01*
X684784Y627612D01*
X729223Y583173D01*
D45*
X688458Y566810D02*
X671068Y566810D01*
X688458Y566810D02*
X696722Y558546D01*
X793632Y549774D02*
X814324Y549774D01*
X813816Y566556D02*
X792870Y566556D01*
X784860Y558546D01*
D51*
X742096Y706275D02*
X671384Y776986D01*
X671220Y776986D01*
D43*
X685062Y981362D02*
X686816Y983116D01*
X685062Y981362D02*
X668122Y981362D01*
X668680Y980804D01*
X668680Y967326D01*
D52*
X600710Y935482D02*
X577758Y935482D01*
D43*
X600710Y935482D02*
X601218Y934974D01*
D48*
X601218Y934974D03*
X634238Y960882D03*
D43*
X647286Y967326D02*
X668680Y967326D01*
X647286Y967326D02*
X640841Y960881D01*
X634238Y960882D01*
X657860Y922156D02*
X657860Y908812D01*
D44*
X647192Y908050D02*
X646938Y908304D01*
X647192Y908050D02*
X647192Y898144D01*
D48*
X646938Y908304D03*
D43*
X647954Y898906D02*
X657860Y908812D01*
X647954Y898906D02*
X647192Y898144D01*
X413766Y981710D02*
X349114Y981710D01*
X413766Y981710D02*
X430022Y965454D01*
X527812Y965454D01*
X547116Y984758D01*
X524628Y813952D02*
X513080Y813952D01*
X524628Y813952D02*
X529590Y808990D01*
D48*
X529590Y808990D03*
D43*
X376310Y813054D02*
X376174Y813190D01*
X376310Y813054D02*
X392458Y813054D01*
D48*
X392458Y813054D03*
X397510Y649224D03*
D43*
X397510Y627888D01*
X376174Y606552D01*
D45*
X647954Y812546D02*
X647954Y898906D01*
X671220Y784860D02*
X671220Y783336D01*
X662940Y797560D02*
X647954Y812546D01*
X662940Y797560D02*
X671220Y797560D01*
D43*
X671220Y777150D02*
X671220Y776986D01*
X523584Y98564D02*
X521430Y96410D01*
X523584Y98564D02*
X523584Y114554D01*
D48*
X523584Y114554D03*
D44*
X538480Y199644D02*
X538480Y205297D01*
X523503Y220274D01*
X523503Y487343D01*
D48*
X512318Y343662D03*
D43*
X523503Y354847D01*
X523503Y487343D01*
D45*
X523494Y487353D02*
X523503Y487362D01*
D48*
X612394Y400812D03*
D46*
X527723Y522398D03*
D53*
X660330Y544624D02*
X665226Y549520D01*
X671068Y549520D01*
X549949Y544624D02*
X527723Y522398D01*
X549949Y544624D02*
X660330Y544624D01*
X671068Y549520D02*
X687696Y549520D01*
X696722Y558546D01*
D43*
X312318Y486570D02*
X312302Y486554D01*
X312302Y459740D01*
X312302Y428608D01*
X312572Y428338D01*
X268850Y199390D02*
X268850Y173990D01*
X268850Y199390D02*
X268850Y224790D01*
X268850Y250190D01*
X268850Y275590D01*
X268850Y300990D01*
X268850Y326390D01*
X268850Y351790D01*
X256912Y363728D01*
X213994Y363728D02*
X206120Y371602D01*
X206120Y382524D01*
X213994Y363728D02*
X256912Y363728D01*
X276098Y93126D02*
X275962Y92990D01*
X275962Y69088D01*
X277994Y67056D01*
X277994Y46482D01*
X290694Y33782D02*
X361696Y33782D01*
X290694Y33782D02*
X277994Y46482D01*
D48*
X536384Y508034D03*
D43*
X366238Y38324D02*
X361696Y33782D01*
X483257Y504593D02*
X533200Y504593D01*
X536384Y507777D02*
X536384Y508034D01*
X536384Y507777D02*
X533200Y504593D01*
X483257Y504593D02*
X419260Y440596D01*
D52*
X288798Y145126D02*
X288798Y137668D01*
X267970Y116840D01*
D43*
X206120Y382524D02*
X213994Y390398D01*
X271707Y390398D01*
X309647Y428338D02*
X312572Y428338D01*
X309647Y428338D02*
X271707Y390398D01*
X577758Y935482D02*
X586819Y935482D01*
X592328Y940991D01*
X592328Y954532D01*
X587756Y959104D01*
X572430Y959104D01*
X547116Y984418D01*
X547116Y984758D01*
D54*
X824738Y440182D03*
D53*
X778510Y486410D01*
X778510Y486918D01*
D52*
X267970Y116840D02*
X256032Y116840D01*
D43*
X324764Y128930D02*
X328582Y128930D01*
X324764Y128930D02*
X319952Y124118D01*
X319952Y98323D01*
X324905Y93370D02*
X331564Y93370D01*
X324905Y93370D02*
X319952Y98323D01*
X344916Y93370D02*
X350520Y87766D01*
X344916Y93370D02*
X331564Y93370D01*
X374015Y46101D02*
X366238Y38324D01*
X374015Y46101D02*
X374904Y46990D01*
X366238Y38324D02*
X303560Y38324D01*
X324764Y128930D02*
X328582Y128930D01*
X324764Y128930D02*
X294894Y99060D01*
X294894Y46990D01*
X303560Y38324D01*
X131572Y73270D02*
X131572Y97444D01*
X131572Y73270D02*
X133976Y70866D01*
X133976Y50038D01*
X137278Y46736D01*
X183642Y46736D01*
X144272Y141399D02*
X144272Y149444D01*
X144272Y141399D02*
X129887Y127014D01*
X117791Y127014D01*
X88392Y97615D01*
X99314Y33274D02*
X172720Y33274D01*
X183642Y44196D01*
X183642Y46736D01*
X88392Y44196D02*
X88392Y97615D01*
X88392Y44196D02*
X99314Y33274D01*
X240566Y101374D02*
X256032Y116840D01*
X240566Y101374D02*
X240566Y36294D01*
X243078Y33782D01*
X290694Y33782D01*
X194310Y672592D02*
X194310Y674828D01*
X248430Y728948D01*
D44*
X296658Y680720D01*
X320040Y680720D02*
X331283Y669477D01*
D48*
X331283Y669477D03*
X349758Y651256D03*
D44*
X376174Y624840D01*
X376174Y606552D01*
X320040Y680720D02*
X296658Y680720D01*
D43*
X902970Y535060D02*
X917448Y520582D01*
X902970Y535060D02*
X902970Y552196D01*
X887476Y567690D01*
X865167Y567690D01*
X774813Y596900D02*
X767390Y589478D01*
D48*
X888238Y383794D03*
D43*
X553466Y200778D02*
X539614Y200778D01*
X538480Y199644D01*
X504580Y33528D02*
X482972Y33528D01*
X481693Y33528D01*
X473899Y25734D01*
X394382Y25734D01*
X374015Y46101D01*
D52*
X312318Y486570D02*
X281686Y517202D01*
X281686Y589026D02*
X263680Y607032D01*
X281686Y589026D02*
X281686Y517202D01*
X263680Y607032D02*
X263680Y620811D01*
X268291Y625422D01*
X357304Y625422D01*
X376174Y606552D01*
D43*
X767390Y589478D02*
X767390Y571952D01*
X780796Y558546D02*
X784860Y558546D01*
X780796Y558546D02*
X767390Y571952D01*
D45*
X784860Y558546D02*
X793632Y549774D01*
D44*
X523503Y487343D02*
X523494Y487353D01*
D27*
X696722Y558546D02*
X704596Y558546D01*
X729223Y583173D01*
D43*
X491232Y455676D02*
X480822Y455676D01*
X492483Y455676D02*
X500026Y448133D01*
X492483Y455676D02*
X491232Y455676D01*
D44*
X582828Y455582D02*
X582828Y416400D01*
X583082Y416146D01*
X583082Y380332D01*
X582828Y455582D02*
X575470Y462940D01*
X582828Y455582D02*
X588096Y455582D01*
X592988Y450690D01*
D45*
X575470Y462940D02*
X566522Y462940D01*
X542100Y487362D02*
X523503Y487362D01*
X542100Y487362D02*
X566522Y462940D01*
D44*
X538198Y199362D02*
X538198Y171704D01*
X538198Y199362D02*
X538480Y199644D01*
D52*
X582828Y416400D02*
X589018Y416400D01*
D43*
X536384Y508034D02*
X540414Y512064D01*
X585122Y512064D02*
X590964Y517906D01*
X585122Y512064D02*
X540414Y512064D01*
X774813Y596900D02*
X802386Y596900D01*
X840275Y592582D02*
X865167Y567690D01*
X806704Y592582D02*
X802386Y596900D01*
X806704Y592582D02*
X840275Y592582D01*
X923801Y288683D02*
X913130Y278012D01*
X923801Y288683D02*
X923802Y295402D01*
X923802Y345182D01*
X888238Y380746D02*
X888238Y383794D01*
X888238Y380746D02*
X923802Y345182D01*
D27*
X784860Y558546D02*
X753850Y558546D01*
X729223Y583173D01*
D52*
X612394Y400812D02*
X604606Y400812D01*
X589018Y416400D01*
D43*
X554441Y443166D02*
X546454Y435179D01*
X546454Y425096D01*
X555502Y442976D02*
X555312Y443166D01*
X554441Y443166D01*
X553974Y417576D02*
X555502Y417576D01*
X553974Y417576D02*
X546454Y425096D01*
X546708Y410033D02*
X546708Y399719D01*
X554251Y417576D02*
X555502Y417576D01*
X554251Y417576D02*
X546708Y410033D01*
X546708Y399719D02*
X554251Y392176D01*
X554251Y282194D02*
X555502Y282194D01*
X554251Y282194D02*
X546708Y274651D01*
X546708Y264060D01*
X546708Y315137D02*
X546708Y325451D01*
X554251Y332994D02*
X555502Y332994D01*
X554251Y332994D02*
X546708Y325451D01*
X546708Y315137D02*
X554251Y307594D01*
X546708Y340537D02*
X546708Y358217D01*
X546708Y340537D02*
X554251Y332994D01*
X555267Y366776D02*
X555502Y366776D01*
X555267Y366776D02*
X546708Y358217D01*
X546708Y374319D02*
X546708Y384633D01*
X554251Y366776D02*
X555502Y366776D01*
X554251Y366776D02*
X546708Y374319D01*
X546708Y384633D02*
X554251Y392176D01*
X555502Y392176D01*
X546708Y300051D02*
X546708Y289737D01*
X554251Y307594D02*
X555502Y307594D01*
X554251Y307594D02*
X546708Y300051D01*
X546708Y289737D02*
X554251Y282194D01*
D48*
X568960Y245872D03*
D45*
X671068Y583810D02*
X696586Y583810D01*
X696722Y583946D01*
X784860Y583946D02*
X785250Y583556D01*
D43*
X628856Y904288D02*
X617601Y904288D01*
X617474Y935482D02*
X629758Y935482D01*
X614934Y906955D02*
X617601Y904288D01*
X614934Y932942D02*
X617474Y935482D01*
X614934Y932942D02*
X614934Y906955D01*
X642620Y890524D02*
X642620Y765714D01*
X660146Y748188D01*
X636524Y639572D02*
X597916Y639572D01*
X642620Y890524D02*
X628856Y904288D01*
X660146Y748188D02*
X660146Y663194D01*
X636524Y639572D01*
D27*
X508254Y522478D02*
X411226Y522478D01*
X508254Y522478D02*
X533019Y547243D01*
X563880Y578104D01*
X563880Y639572D01*
X411226Y522478D02*
X392684Y503936D01*
X392684Y491744D01*
D48*
X497362Y536010D03*
D44*
X521786Y536010D01*
X533019Y547243D01*
D53*
X881634Y439728D02*
X901954Y460048D01*
X901954Y525018D02*
X883666Y543306D01*
X901954Y525018D02*
X901954Y460048D01*
X813886Y583486D02*
X813816Y583556D01*
X813886Y583486D02*
X837641Y583486D01*
X877821Y543306D02*
X883666Y543306D01*
X877821Y543306D02*
X837641Y583486D01*
X813816Y583556D02*
X785250Y583556D01*
D46*
X843942Y370994D03*
D43*
X392684Y452882D02*
X392684Y491744D01*
X392684Y452882D02*
X371602Y431800D01*
X350520Y452882D01*
X350520Y479696D01*
X341512Y59690D02*
X326992Y59690D01*
X341512Y59690D02*
X350266Y68444D01*
X358856Y68444D01*
X365006Y62294D01*
X395346Y62294D02*
X399956Y66904D01*
X395346Y62294D02*
X365006Y62294D01*
D44*
X399956Y66904D02*
X408084Y58776D01*
X408084Y34798D01*
X408686Y34798D01*
D48*
X408686Y34798D03*
D53*
X873506Y447856D02*
X881634Y439728D01*
X873506Y447856D02*
X873506Y448564D01*
X854964Y448564D01*
X844196Y437796D01*
X844196Y371248D01*
X843942Y370994D01*
D48*
X852304Y338836D03*
D43*
X553974Y256794D02*
X546708Y264060D01*
X553974Y256794D02*
X555502Y256794D01*
X553974Y256794D02*
X564896Y245872D01*
X568960Y245872D01*
D52*
X752002Y349838D02*
X759159Y342681D01*
X743620Y349838D02*
X734314Y359144D01*
X752360Y372364D02*
X755328Y369396D01*
X763190Y369396D01*
X770890Y361696D01*
X752002Y349838D02*
X743620Y349838D01*
X734314Y359144D02*
X734314Y364248D01*
X742430Y372364D01*
X752360Y372364D01*
X759159Y327723D02*
X764206Y322676D01*
X764206Y322660D01*
X770890Y315976D01*
X759159Y327723D02*
X759159Y342681D01*
D43*
X858536Y332604D02*
X913130Y332604D01*
X858536Y332604D02*
X852304Y338836D01*
X487544Y809752D02*
X491744Y813952D01*
X487544Y809752D02*
X470916Y809752D01*
D48*
X470916Y809752D03*
X460248Y598830D03*
D43*
X459994Y598576D01*
X459994Y536730D01*
X460756Y535968D01*
D48*
X460756Y535968D03*
X586407Y493189D03*
D43*
X586915Y492427D02*
X598408Y492427D01*
X586407Y492935D02*
X586407Y493189D01*
X586407Y492935D02*
X586915Y492427D01*
X752428Y436546D02*
X758190Y430784D01*
X744554Y436546D02*
X719836Y461264D01*
X744554Y436546D02*
X752428Y436546D01*
X758190Y430784D02*
X758190Y430667D01*
X758364Y430493D01*
X758364Y411654D01*
X748030Y401320D01*
X629571Y461264D02*
X598408Y492427D01*
X629571Y461264D02*
X719836Y461264D01*
D48*
X332824Y386842D03*
D43*
X328760Y382778D01*
X328760Y241892D01*
X311658Y224790D01*
D48*
X311658Y224790D03*
X436090Y825246D03*
D43*
X418772Y842310D02*
X418772Y891478D01*
X349114Y961136D01*
X435836Y825246D02*
X436090Y825246D01*
X435836Y825246D02*
X418772Y842310D01*
D48*
X469336Y598830D03*
D43*
X469082Y598576D01*
X469082Y536730D01*
X469844Y535968D01*
D48*
X469844Y535968D03*
X561437Y505049D03*
D43*
X597281Y505049D01*
X806921Y359490D02*
X813990Y366560D01*
X806921Y359490D02*
X798360Y359490D01*
X797250Y360600D01*
X801290Y408649D02*
X801290Y441669D01*
X801290Y408649D02*
X813990Y395949D01*
X813990Y366560D01*
X801290Y441669D02*
X773567Y469392D01*
X784409Y360600D02*
X775171Y351362D01*
X758364Y351362D01*
X748030Y361696D01*
X632938Y469392D02*
X597281Y505049D01*
X632938Y469392D02*
X773567Y469392D01*
X784409Y360600D02*
X797250Y360600D01*
D48*
X342166Y386842D03*
D43*
X334038Y378714D01*
X334038Y221770D01*
X311658Y199390D01*
D48*
X311658Y199390D03*
D43*
X689908Y228972D02*
X690026Y228854D01*
X689908Y228972D02*
X656590Y228972D01*
X770636Y228718D02*
X773430Y231512D01*
X773430Y243586D01*
D48*
X773430Y243586D03*
D43*
X823214Y201558D02*
X823884Y200888D01*
X823884Y185674D01*
X823884Y194792D02*
X817118Y201558D01*
X807720Y201558D01*
X823884Y194792D02*
X823884Y185674D01*
X815984Y185674D02*
X795020Y164710D01*
X815984Y185674D02*
X823884Y185674D01*
X800354Y185674D01*
X800100Y185420D01*
D48*
X800100Y185420D03*
D43*
X768994Y114554D02*
X745328Y114554D01*
X742280Y117602D01*
X768994Y114554D02*
X769874Y113674D01*
X770636Y112912D01*
X770636Y92964D01*
D48*
X770636Y92964D03*
X716788Y91948D03*
D43*
X691090Y80312D02*
X690788Y80010D01*
X691090Y80312D02*
X705485Y80312D01*
X716788Y91615D02*
X716788Y91948D01*
X716788Y91615D02*
X705485Y80312D01*
D48*
X716026Y154686D03*
D43*
X690328Y143050D02*
X690280Y143002D01*
X690328Y143050D02*
X704469Y143050D01*
X716026Y154607D02*
X716026Y154686D01*
X716026Y154607D02*
X704469Y143050D01*
X742788Y54610D02*
X752050Y45348D01*
X771398Y45348D01*
X771652Y45094D01*
D48*
X741680Y42926D03*
D43*
X840740Y52578D02*
X854084Y52578D01*
X840740Y52578D02*
X835660Y57658D01*
D48*
X835660Y57658D03*
D43*
X840486Y97536D02*
X824900Y97536D01*
X840486Y97536D02*
X847598Y104648D01*
D48*
X847598Y104648D03*
D43*
X566928Y119126D02*
X566928Y131826D01*
X566928Y134669D01*
X586232Y146186D02*
X601726Y146186D01*
X589534Y134366D02*
X574294Y119126D01*
X566928Y119126D01*
D48*
X589534Y134366D03*
D43*
X490890Y793750D02*
X491906Y794766D01*
X490890Y793750D02*
X475996Y793750D01*
X472694Y797052D01*
X471170Y797052D01*
D48*
X471170Y797052D03*
D43*
X456022Y734314D02*
X455006Y733298D01*
X431292Y733298D01*
D48*
X431292Y733298D03*
D43*
X422910Y759714D02*
X404022Y759714D01*
D48*
X428752Y765556D03*
D43*
X422910Y759714D01*
X619598Y667766D02*
X619598Y656936D01*
X617728Y655066D01*
D48*
X617728Y655066D03*
X589534Y702056D03*
D43*
X568154Y693722D02*
X567598Y693166D01*
X568154Y693722D02*
X581279Y693722D01*
X589534Y701977D02*
X589534Y702056D01*
X589534Y701977D02*
X581279Y693722D01*
D47*
X533908Y439674D03*
X619506Y294894D03*
D43*
X521644Y155604D02*
X521462Y155422D01*
X514511Y155422D01*
X501693Y142604D02*
X449144Y142604D01*
X501693Y142604D02*
X514511Y155422D01*
X521898Y155350D02*
X531368Y155350D01*
X521898Y155350D02*
X521644Y155604D01*
X531368Y155350D02*
X553642Y177624D01*
X597780Y824738D02*
X612242Y824738D01*
X614020Y822960D01*
D45*
X785232Y532774D02*
X814324Y532774D01*
X785232Y532774D02*
X784860Y533146D01*
D43*
X456276Y734060D02*
X456022Y734314D01*
X456276Y734060D02*
X486546Y734060D01*
X619598Y667766D02*
X619734Y667902D01*
X645160Y667902D01*
X646684Y669426D01*
D48*
X675640Y701040D03*
X615491Y364695D03*
D43*
X263398Y93126D02*
X263398Y69460D01*
X260994Y67056D01*
X260994Y46482D01*
X260232Y45720D01*
X247142Y45720D01*
D48*
X247142Y45720D03*
D43*
X566928Y134669D02*
X578445Y146186D01*
X586232Y146186D01*
X118872Y97444D02*
X118872Y72762D01*
X116976Y70866D01*
X116976Y50038D01*
X99568Y50038D01*
D48*
X99568Y50038D03*
X67310Y741680D03*
D43*
X553466Y183778D02*
X553642Y183602D01*
X553642Y177624D01*
X562220Y192532D02*
X591566Y192532D01*
X562220Y192532D02*
X553466Y183778D01*
D48*
X591566Y192532D03*
D43*
X521362Y57478D02*
X521430Y57410D01*
X521362Y57478D02*
X516297Y57478D01*
X513136Y54317D01*
X513136Y36327D01*
X515935Y33528D02*
X521580Y33528D01*
X515935Y33528D02*
X513136Y36327D01*
X521580Y33528D02*
X527930Y39878D01*
X536448Y39878D01*
D48*
X536448Y39878D03*
X417498Y80694D03*
D43*
X597780Y824738D02*
X615052Y842010D01*
X615922Y842010D01*
D48*
X615922Y842010D03*
D43*
X754888Y906616D02*
X759804Y901700D01*
X754888Y906616D02*
X754888Y946658D01*
D48*
X754888Y946658D03*
D43*
X873642Y72136D02*
X876900Y72136D01*
X873642Y72136D02*
X854084Y52578D01*
X743204Y41402D02*
X741680Y42926D01*
X743204Y41402D02*
X767960Y41402D01*
X771652Y45094D01*
X652916Y247142D02*
X652916Y262382D01*
X653932Y247142D02*
X672220Y228854D01*
X653932Y247142D02*
X652916Y247142D01*
X672220Y228854D02*
X690026Y228854D01*
X652916Y262382D02*
X649196Y262382D01*
X641604Y254790D01*
D48*
X641604Y254790D03*
D43*
X314850Y800100D02*
X301498Y813452D01*
X439530Y800100D02*
X457454Y818024D01*
X439530Y800100D02*
X314850Y800100D01*
X311260Y879348D02*
X341740Y909828D01*
X295367Y879348D02*
X284734Y868715D01*
X284734Y830216D02*
X301498Y813452D01*
X295367Y879348D02*
X311260Y879348D01*
X284734Y868715D02*
X284734Y830216D01*
X457454Y818024D02*
X462788Y812690D01*
X462788Y804164D01*
X455930Y804164D01*
D48*
X455930Y804164D03*
X487512Y598830D03*
D43*
X487258Y598576D01*
X487258Y536730D01*
X488020Y535968D01*
D48*
X488020Y535968D03*
X569184Y496286D03*
D43*
X572663Y499765D01*
X596817Y499765D01*
X775171Y436546D02*
X781224Y430493D01*
X781224Y421932D01*
X791464Y386979D02*
X793924Y384519D01*
X793924Y378498D01*
X758364Y445714D02*
X758364Y453353D01*
X758364Y445714D02*
X767532Y436546D01*
X775171Y436546D01*
X781224Y421932D02*
X779098Y419806D01*
X779098Y407727D01*
X758364Y453353D02*
X746389Y465328D01*
X779098Y407727D02*
X791464Y395361D01*
X791464Y386979D01*
X764735Y376233D02*
X759460Y381508D01*
X775500Y371174D02*
X786601Y371174D01*
X775500Y371174D02*
X770441Y376233D01*
X764735Y376233D01*
X631255Y465328D02*
X596817Y499765D01*
X631255Y465328D02*
X746389Y465328D01*
X793924Y378498D02*
X786601Y371174D01*
D48*
X762218Y287810D03*
D43*
X771842Y297434D02*
X828294Y297434D01*
X771842Y297434D02*
X762218Y287810D01*
X828294Y297434D02*
X828548Y297688D01*
D48*
X828548Y297688D03*
X412563Y607635D03*
D43*
X412563Y611734D01*
X420917Y620088D01*
D48*
X451414Y535926D03*
X323482Y386842D03*
D43*
X323482Y262014D01*
X311658Y250190D01*
D48*
X311658Y250190D03*
D43*
X451414Y614913D02*
X446239Y620088D01*
X451414Y614913D02*
X451414Y535926D01*
X446239Y620088D02*
X420917Y620088D01*
D48*
X713504Y229852D03*
D44*
X748030Y308187D02*
X748030Y315976D01*
X721882Y238230D02*
X713504Y229852D01*
D48*
X417068Y40894D03*
D44*
X418940Y56388D02*
X419956Y57404D01*
X418940Y56388D02*
X418940Y42766D01*
X417068Y40894D01*
X721882Y248717D02*
X743204Y270039D01*
X743204Y303361D02*
X748030Y308187D01*
X721882Y248717D02*
X721882Y238230D01*
X743204Y270039D02*
X743204Y303361D01*
D43*
X894840Y427934D02*
X906634Y439728D01*
X894840Y427934D02*
X894840Y408681D01*
X816140Y347298D02*
X813172Y350266D01*
X790702Y350266D01*
X816140Y347298D02*
X833457Y347298D01*
X894840Y408681D01*
D48*
X842518Y463550D03*
D43*
X835152Y463550D01*
X789940Y508762D01*
X559435Y530733D02*
X554657Y525955D01*
D48*
X554657Y525955D03*
X277368Y370360D03*
D43*
X279146Y368582D01*
X279146Y168240D01*
X263398Y152492D01*
X263398Y145126D01*
X263398Y151638D01*
X206502Y180340D02*
X198374Y188468D01*
X148844Y188468D01*
X118872Y158496D01*
X254508Y160528D02*
X263398Y151638D01*
X254508Y160528D02*
X211836Y160528D01*
X206502Y165862D01*
X206502Y180340D01*
X118872Y158496D02*
X118872Y149444D01*
X918428Y409843D02*
X918428Y419613D01*
X906634Y431407D02*
X906634Y439728D01*
X906634Y431407D02*
X918428Y419613D01*
X911940Y377754D02*
X919734Y369960D01*
X911940Y377754D02*
X911940Y403355D01*
X918428Y409843D01*
X607637Y530733D02*
X559435Y530733D01*
X607637Y530733D02*
X610964Y527406D01*
X615688Y532130D01*
X679450Y508762D02*
X789940Y508762D01*
X656082Y532130D02*
X615688Y532130D01*
X656082Y532130D02*
X679450Y508762D01*
X829980Y338074D02*
X906634Y414728D01*
X829980Y338074D02*
X810260Y338074D01*
D48*
X835660Y456720D03*
D43*
X835660Y457295D01*
X788257Y504698D01*
X566572Y525780D02*
X561084Y520291D01*
X561084Y519529D01*
D48*
X561084Y519529D03*
X286582Y370360D03*
D43*
X287852Y369090D01*
X287852Y164754D01*
X276098Y153000D01*
X276098Y145126D01*
X276098Y134874D01*
X268224Y127000D01*
X246888Y127000D01*
X196406Y184340D02*
X156137Y184340D01*
X131572Y159775D02*
X131572Y149444D01*
X237490Y136398D02*
X246888Y127000D01*
X237490Y136398D02*
X208788Y136398D01*
X202438Y142748D01*
X202438Y178308D01*
X196406Y184340D01*
X156137Y184340D02*
X131572Y159775D01*
X566572Y525780D02*
X597827Y525780D01*
X610964Y512643D02*
X610964Y508406D01*
X610964Y512643D02*
X597827Y525780D01*
X610964Y511454D02*
X627576Y528066D01*
X610964Y511454D02*
X610964Y508406D01*
X654399Y528066D02*
X677767Y504698D01*
X654399Y528066D02*
X627576Y528066D01*
X677767Y504698D02*
X788257Y504698D01*
X762372Y203454D02*
X742026Y203454D01*
X762372Y203454D02*
X770636Y211718D01*
X765928Y203454D02*
X742026Y203454D01*
X765928Y203454D02*
X770636Y198746D01*
D44*
X742026Y203454D02*
X732395Y203454D01*
X727470Y208379D01*
X748030Y331668D02*
X748030Y338836D01*
X748030Y331668D02*
X759126Y320572D01*
X759126Y307824D01*
X727470Y236776D02*
X727470Y208379D01*
X748792Y267716D02*
X748792Y297490D01*
X759126Y307824D01*
D54*
X755650Y244856D03*
D44*
X748792Y267716D02*
X727470Y246394D01*
D43*
X727470Y236776D02*
X747570Y236776D01*
X755650Y244856D01*
D44*
X727470Y246394D02*
X727470Y236776D01*
D43*
X795020Y147710D02*
X823748Y147710D01*
X823884Y147574D01*
D54*
X821944Y132842D03*
D44*
X821944Y145634D02*
X823884Y147574D01*
X821944Y145634D02*
X821944Y132842D01*
X724408Y306324D02*
X724408Y321564D01*
X724408Y306324D02*
X726186Y304546D01*
X724408Y321564D02*
X726440Y323596D01*
D48*
X726186Y304546D03*
D43*
X689264Y191516D02*
X690026Y190754D01*
X689264Y191516D02*
X664074Y191516D01*
X656590Y199000D01*
X656590Y211972D01*
D48*
X709930Y179324D03*
D44*
X701456Y179324D01*
X690026Y190754D01*
D54*
X743204Y244602D03*
D44*
X772866Y302260D02*
X780232Y309626D01*
X798012Y309626D02*
X805434Y317048D01*
X805434Y326390D01*
X792988Y338836D01*
X770890Y338836D01*
X780232Y309626D02*
X798012Y309626D01*
X772866Y302260D02*
X761465Y302260D01*
X754380Y295175D01*
X754380Y256540D01*
X743204Y245364D01*
X743204Y244602D01*
D43*
X597780Y278384D02*
X588890Y269494D01*
D48*
X678303Y380361D03*
D43*
X674747Y376805D01*
X674747Y360003D01*
X597780Y283036D02*
X597780Y278384D01*
X597780Y283036D02*
X674747Y360003D01*
D48*
X682376Y388610D03*
D43*
X595494Y294894D02*
X588890Y294894D01*
X595494Y294894D02*
X638420Y337820D01*
X646799Y337820D02*
X670457Y361478D01*
X670457Y385879D02*
X674309Y389731D01*
X681254Y389731D01*
X682376Y388610D01*
X646799Y337820D02*
X638420Y337820D01*
X670457Y361478D02*
X670457Y385879D01*
X700278Y390398D02*
X705866Y395986D01*
X705866Y423164D01*
X636737Y341884D02*
X615147Y320294D01*
X645115Y341884D02*
X666393Y363162D01*
X666393Y387562D02*
X675286Y396456D01*
X615147Y320294D02*
X555502Y320294D01*
X636737Y341884D02*
X645115Y341884D01*
X666393Y363162D02*
X666393Y387562D01*
X684591Y396456D02*
X690649Y390398D01*
X700278Y390398D01*
X684591Y396456D02*
X675286Y396456D01*
X662329Y364845D02*
X643432Y345948D01*
X685959Y402844D02*
X685324Y403479D01*
X685959Y402844D02*
X694944Y402844D01*
X676562Y403479D02*
X662329Y389246D01*
X676562Y403479D02*
X685324Y403479D01*
X643432Y345948D02*
X555756Y345948D01*
X555502Y345694D01*
X662329Y364845D02*
X662329Y389246D01*
X563938Y379476D02*
X555502Y379476D01*
D48*
X680146Y421199D03*
D43*
X658265Y366529D02*
X641749Y350012D01*
X658265Y366529D02*
X658265Y390929D01*
X680146Y412810D02*
X680146Y421199D01*
X680146Y412810D02*
X658265Y390929D01*
X641749Y350012D02*
X625856Y350012D01*
X623316Y352552D01*
X600362Y352552D02*
X592582Y360332D01*
X600362Y352552D02*
X623316Y352552D01*
X592582Y360332D02*
X583082Y360332D01*
X563938Y379476D01*
D48*
X697738Y435102D03*
D43*
X557842Y404876D02*
X555502Y404876D01*
X673570Y423922D02*
X684749Y435102D01*
X697738Y435102D01*
X654201Y368451D02*
X639826Y354076D01*
X654201Y392612D02*
X673570Y411981D01*
X654201Y392612D02*
X654201Y368451D01*
X673570Y411981D02*
X673570Y423922D01*
X639826Y354076D02*
X627539Y354076D01*
X624999Y356616D01*
X610807Y356616D02*
X600043Y367379D01*
X592494Y374929D01*
X592494Y396234D02*
X592328Y396400D01*
X592494Y396234D02*
X592494Y374929D01*
X610807Y356616D02*
X624999Y356616D01*
X600043Y367379D02*
X597986Y367379D01*
X597739Y367626D01*
X581535Y367626D01*
X565150Y397568D02*
X557842Y404876D01*
X565150Y384011D02*
X581535Y367626D01*
X565150Y384011D02*
X565150Y397568D01*
X728218Y412750D02*
X728218Y415681D01*
X690827Y453072D01*
X447802Y457549D02*
X447802Y394459D01*
X447802Y457549D02*
X486464Y496211D01*
X447802Y394459D02*
X427706Y374363D01*
X427706Y237648D01*
X442770Y222584D01*
X458332Y222584D01*
X512312Y168604D02*
X521644Y168604D01*
X512312Y168604D02*
X458332Y222584D01*
X486464Y496211D02*
X545430Y496211D01*
X626821Y453072D02*
X690827Y453072D01*
X626821Y453072D02*
X604439Y430690D01*
X602488Y430690D01*
X622057Y453072D02*
X617145Y457984D01*
X595608Y457984D01*
X569201Y472440D02*
X545430Y496211D01*
X622057Y453072D02*
X626821Y453072D01*
X595608Y457984D02*
X581152Y472440D01*
X569201Y472440D01*
D48*
X673608Y321672D03*
D43*
X498372Y162104D02*
X449144Y162104D01*
X498372Y162104D02*
X498602Y162334D01*
D48*
X498602Y162334D03*
D43*
X673716Y321564D02*
X707390Y321564D01*
X673716Y321564D02*
X673608Y321672D01*
X707390Y321564D02*
X728218Y342392D01*
X728218Y350266D01*
D48*
X655750Y319962D03*
X485648Y168910D03*
D43*
X485342Y168604D02*
X449144Y168604D01*
X485342Y168604D02*
X485648Y168910D01*
X697992Y368808D02*
X710692Y381508D01*
X736600Y381508D01*
X658904Y323116D02*
X655750Y319962D01*
X658904Y323116D02*
X658904Y334429D01*
X693284Y368808D01*
X697992Y368808D01*
D48*
X568960Y233172D03*
D43*
X578567Y233172D01*
X662968Y317573D01*
X662968Y326079D01*
X694521Y357632D02*
X696722Y357632D01*
X694521Y357632D02*
X662968Y326079D01*
D48*
X569468Y220358D03*
D43*
X571500Y220358D01*
X667032Y315890D01*
X667032Y324396D01*
X716280Y361442D02*
X716280Y369824D01*
X689934Y347298D02*
X667032Y324396D01*
X689934Y347298D02*
X702136Y347298D01*
X716280Y361442D01*
X716280Y392684D02*
X723256Y392684D01*
X423545Y439039D02*
X423545Y236061D01*
X423545Y439039D02*
X484781Y500275D01*
X456648Y218520D02*
X441086Y218520D01*
X423545Y236061D01*
X456648Y218520D02*
X513136Y162032D01*
X521572Y162032D01*
X521644Y162104D01*
X723256Y392684D02*
X740156Y409585D01*
X729154Y427308D02*
X722414Y427308D01*
X692522Y457200D01*
X740156Y416306D02*
X740156Y409585D01*
X740156Y416306D02*
X729154Y427308D01*
X547475Y500275D02*
X484781Y500275D01*
X612573Y472462D02*
X627835Y457200D01*
X612573Y472462D02*
X595492Y472462D01*
X595470Y472440D01*
X627835Y457200D02*
X692522Y457200D01*
X595470Y474391D02*
X580911Y488950D01*
X595470Y474391D02*
X595470Y472440D01*
X558800Y488950D02*
X547475Y500275D01*
X558800Y488950D02*
X580911Y488950D01*
D48*
X684022Y247142D03*
D43*
X675758Y247142D01*
X670814Y246244D02*
X669916Y247142D01*
X670814Y252086D02*
X675758Y247142D01*
X673218Y182000D02*
X656590Y182000D01*
X673218Y182000D02*
X675894Y179324D01*
D48*
X675894Y179324D03*
D43*
X742026Y190754D02*
X761628Y190754D01*
X770636Y181746D01*
X742026Y178724D02*
X742026Y190754D01*
X742026Y178724D02*
X742188Y178562D01*
D48*
X742188Y178562D03*
D43*
X656590Y147202D02*
X642248Y147202D01*
X639318Y144272D01*
D48*
X639318Y144272D03*
D43*
X669154Y113674D02*
X674370Y108458D01*
X669154Y113674D02*
X656844Y113674D01*
D48*
X674370Y108458D03*
D43*
X673100Y41910D02*
X657996Y41910D01*
X656844Y43062D01*
D48*
X673100Y41910D03*
X771398Y76962D03*
D43*
X771398Y62348D01*
X799456Y92964D02*
X799592Y93100D01*
X799456Y92964D02*
X786356Y92964D01*
D48*
X786356Y92964D03*
D54*
X889508Y56642D03*
D43*
X855726Y84836D02*
X852678Y87884D01*
D48*
X852678Y87884D03*
D43*
X598424Y36830D02*
X573024Y36830D01*
X566928Y42926D01*
D48*
X598424Y36830D03*
D43*
X574548Y106426D02*
X566928Y106426D01*
X574548Y106426D02*
X593852Y125730D01*
D48*
X593852Y125730D03*
D43*
X586232Y163186D02*
X601726Y163186D01*
X617084Y163186D02*
X617474Y163576D01*
X617084Y163186D02*
X601726Y163186D01*
D48*
X617474Y163576D03*
D43*
X799338Y54746D02*
X799338Y40894D01*
D48*
X799338Y40894D03*
D54*
X545338Y100330D03*
D27*
X643636Y277622D02*
X729488Y277622D01*
D55*
X729488Y277622D03*
D43*
X670814Y261484D02*
X669916Y262382D01*
X670814Y261484D02*
X670814Y252086D01*
X670814Y246244D01*
D55*
X767334Y257810D03*
D27*
X861824Y213108D02*
X861824Y213100D01*
D55*
X861824Y213108D03*
D43*
X871084Y52578D02*
X885444Y52578D01*
X889508Y56642D01*
X876900Y84836D02*
X855726Y84836D01*
X543906Y747868D02*
X543906Y756666D01*
X543906Y747868D02*
X543179Y747141D01*
X544576Y745744D01*
D48*
X544576Y745744D03*
D43*
X513334Y743848D02*
X503546Y734060D01*
X513334Y743848D02*
X513334Y745744D01*
D48*
X513334Y745744D03*
D43*
X456022Y747014D02*
X433324Y747014D01*
X433070Y746760D01*
D48*
X433070Y746760D03*
D43*
X769874Y145542D02*
X769874Y130674D01*
D54*
X769874Y145542D03*
D43*
X742280Y130302D02*
X739486Y133096D01*
X720090Y133096D01*
D48*
X720090Y133096D03*
D43*
X721106Y67310D02*
X742788Y67310D01*
D48*
X721106Y67310D03*
D43*
X375666Y750434D02*
X375666Y763660D01*
X375666Y750434D02*
X359292Y750434D01*
X359156Y750570D01*
D48*
X359156Y750570D03*
D43*
X646684Y701294D02*
X646684Y686426D01*
D48*
X646684Y701294D03*
D43*
X619598Y680466D02*
X594868Y680466D01*
D48*
X594868Y680466D03*
D43*
X536702Y685156D02*
X536702Y698382D01*
D27*
X817114Y257810D02*
X861824Y213100D01*
X817114Y257810D02*
X767334Y257810D01*
X598932Y179324D02*
X575818Y179324D01*
X598932Y179324D02*
X617502Y197894D01*
X617502Y251488D02*
X643636Y277622D01*
X617502Y251488D02*
X617502Y197894D01*
X575818Y179324D02*
X545338Y148844D01*
X545338Y100330D01*
D48*
X648462Y716026D03*
X699262Y648462D03*
D43*
X579882Y823840D02*
X580780Y824738D01*
X579882Y823840D02*
X560832Y823840D01*
X552196Y832476D01*
X579910Y825608D02*
X580780Y824738D01*
X579910Y825608D02*
X579910Y842010D01*
D48*
X579910Y842010D03*
D43*
X580780Y782574D02*
X589416Y773938D01*
X605282Y773938D01*
X614020Y782676D01*
X614020Y784860D01*
X580780Y782574D02*
X577596Y779390D01*
X577596Y765302D01*
D48*
X577596Y765302D03*
D43*
X536702Y685156D02*
X518278Y685156D01*
X517398Y684276D01*
D48*
X517398Y684276D03*
X295910Y370332D03*
X301753Y154841D03*
D52*
X295910Y160684D02*
X295910Y370332D01*
X295910Y160684D02*
X301753Y154841D01*
D55*
X832612Y631444D03*
D43*
X756784Y852052D02*
X756784Y877824D01*
X756784Y852052D02*
X756920Y851916D01*
D48*
X756920Y851916D03*
D43*
X674370Y108458D02*
X670306Y104394D01*
X652272Y104394D01*
X649304Y101426D02*
X649304Y84638D01*
X657098Y76844D01*
X649304Y101426D02*
X652272Y104394D01*
D56*
X-16510Y89916D03*
X76454Y1052830D03*
X208788Y1052830D03*
X341122Y1052830D03*
X473456Y1052830D03*
X605790Y1052830D03*
X738124Y1052830D03*
X870458Y1052830D03*
X76454Y-13970D03*
X208788Y-13970D03*
X341122Y-13970D03*
X473456Y-13970D03*
X-16510Y233172D03*
X-16510Y376428D03*
X-16510Y519684D03*
X-16510Y662940D03*
X-16510Y806196D03*
X-16510Y949452D03*
X963930Y519684D03*
X963930Y662940D03*
X963930Y806196D03*
X963930Y949452D03*
X963676Y376428D03*
X963930Y233172D03*
X963930Y89916D03*
D43*
X521644Y201104D02*
X521462Y201286D01*
X456320Y282194D02*
X450759Y282194D01*
X448026Y279461D01*
X448026Y246573D02*
X451441Y243158D01*
X466749Y243158D01*
X448026Y246573D02*
X448026Y279461D01*
X508621Y201286D02*
X521462Y201286D01*
X508621Y201286D02*
X466749Y243158D01*
X465065Y239094D02*
X449249Y239094D01*
X443962Y244381D01*
X451521Y307594D02*
X456574Y307594D01*
X451521Y307594D02*
X443962Y300035D01*
X443962Y244381D01*
X465065Y239094D02*
X509555Y194604D01*
X521644Y194604D01*
X447820Y234776D02*
X439898Y242698D01*
X447820Y234776D02*
X463636Y234776D01*
X456574Y332994D02*
X451775Y332994D01*
X439898Y321117D01*
X439898Y242698D01*
X510308Y188104D02*
X521644Y188104D01*
X510308Y188104D02*
X463636Y234776D01*
X473320Y256794D02*
X491232Y256794D01*
X456320Y256794D02*
X456320Y248356D01*
X457454Y247222D01*
X468432Y247222D01*
X508050Y207604D02*
X521644Y207604D01*
X508050Y207604D02*
X468432Y247222D01*
X555502Y269494D02*
X571890Y269494D01*
X491232Y282194D02*
X473320Y282194D01*
X555502Y294894D02*
X571890Y294894D01*
X491232Y307594D02*
X473574Y307594D01*
X473574Y332994D02*
X491232Y332994D01*
X490978Y366522D02*
X473320Y366522D01*
X490978Y366522D02*
X491232Y366776D01*
X490978Y391922D02*
X473574Y391922D01*
X490978Y391922D02*
X491232Y392176D01*
X431770Y239331D02*
X444453Y226648D01*
X460269Y226648D01*
X456574Y391922D02*
X451013Y391922D01*
X431770Y372679D01*
X431770Y239331D01*
X511813Y175104D02*
X521644Y175104D01*
X511813Y175104D02*
X460269Y226648D01*
X446137Y230712D02*
X435834Y241015D01*
X446137Y230712D02*
X461953Y230712D01*
X456320Y366522D02*
X450759Y366522D01*
X435834Y351597D01*
X435834Y241015D01*
X511061Y181604D02*
X521644Y181604D01*
X511061Y181604D02*
X461953Y230712D01*
D48*
X397990Y144780D03*
D43*
X383032Y224790D02*
X374904Y224790D01*
X383032Y224790D02*
X398018Y209804D01*
X398018Y144808D02*
X397990Y144780D01*
X398018Y144808D02*
X398018Y209804D01*
X331318Y461756D02*
X331318Y486570D01*
X331318Y461756D02*
X329302Y459740D01*
X322072Y452510D01*
X322072Y408338D01*
X359030Y388902D02*
X359030Y240664D01*
X374904Y224790D01*
X359030Y388902D02*
X339594Y408338D01*
X322072Y408338D01*
X374904Y250190D02*
X388018Y250190D01*
X394669Y243539D01*
X394669Y224329D01*
X404814Y214184D01*
X404814Y128747D01*
X342916Y112370D02*
X331564Y112370D01*
X342916Y112370D02*
X350520Y104766D01*
X348582Y129388D02*
X348582Y138430D01*
X348582Y129388D02*
X331564Y112370D01*
X348582Y129032D02*
X367124Y110490D01*
X348582Y129032D02*
X348582Y138430D01*
X386557Y110490D02*
X404814Y128747D01*
X386557Y110490D02*
X367124Y110490D01*
X350266Y51444D02*
X349012Y50190D01*
X306992Y50190D01*
X348429Y49725D02*
X356616Y57912D01*
X389440Y57912D01*
X399448Y47904D02*
X399956Y47904D01*
X399448Y47904D02*
X389440Y57912D01*
X347964Y50190D02*
X306992Y50190D01*
X347964Y50190D02*
X348429Y49725D01*
X299444Y90750D02*
X311564Y102870D01*
X299444Y57738D02*
X306992Y50190D01*
X299444Y57738D02*
X299444Y90750D01*
X350520Y497696D02*
X350520Y534416D01*
X367792Y551688D01*
X371602Y551688D01*
X368046Y551688D01*
X322928Y506570D01*
X321818Y506570D01*
X917448Y537582D02*
X917448Y554482D01*
D48*
X917448Y554482D03*
X912396Y456692D03*
D43*
X922648Y446440D01*
X922691Y389917D01*
X919734Y386960D01*
X481731Y508911D02*
X415196Y442375D01*
X415196Y232791D01*
X425388Y222599D01*
X442773Y116024D02*
X460302Y116024D01*
X442773Y116024D02*
X425388Y133409D01*
X474368Y60503D02*
X471207Y57342D01*
X466142Y57342D01*
X466074Y57410D01*
X474368Y60503D02*
X474368Y101958D01*
X425388Y133409D02*
X425388Y222599D01*
X460302Y116024D02*
X474368Y101958D01*
D45*
X671068Y532520D02*
X696096Y532520D01*
X696722Y533146D01*
D43*
X526690Y508911D02*
X481731Y508911D01*
X828778Y475996D02*
X883666Y475996D01*
X471275Y57410D02*
X474368Y54317D01*
X471275Y57410D02*
X466074Y57410D01*
X474368Y54317D02*
X474368Y36082D01*
X471814Y33528D01*
X465972Y33528D01*
D44*
X253698Y903680D02*
X248430Y908948D01*
X253698Y903680D02*
X256559Y903680D01*
X268732Y891507D01*
D48*
X268732Y728980D03*
X270510Y617982D03*
D44*
X268732Y728980D02*
X268732Y891507D01*
X270510Y617982D02*
X270510Y607822D01*
X302768Y575564D02*
X377178Y575564D01*
X302768Y575564D02*
X270510Y607822D01*
D48*
X415294Y536190D03*
D44*
X415294Y537448D02*
X377178Y575564D01*
X415294Y537448D02*
X415294Y536190D01*
D48*
X419466Y509552D03*
D44*
X526316Y509552D01*
X663408Y532520D02*
X671068Y532520D01*
X663408Y532520D02*
X658972Y536956D01*
X531074Y514310D02*
X526316Y509552D01*
X553720Y536956D02*
X658972Y536956D01*
X553720Y536956D02*
X531074Y514310D01*
D43*
X531074Y513294D01*
X526690Y508911D01*
X696482Y532520D02*
X714144Y514858D01*
X696482Y532520D02*
X696096Y532520D01*
X789916Y514858D02*
X828778Y475996D01*
X789916Y514858D02*
X714144Y514858D01*
X875884Y160274D02*
X900040Y160274D01*
X901192Y159122D01*
X875884Y160274D02*
X867585Y160274D01*
X913130Y295012D02*
X913130Y315604D01*
X913130Y295012D02*
X903986Y285868D01*
X884682Y197612D02*
X866394Y197612D01*
X858012Y189230D01*
X858012Y169847D02*
X867585Y160274D01*
X903986Y216916D02*
X903986Y285868D01*
X903986Y216916D02*
X884682Y197612D01*
X858012Y189230D02*
X858012Y169847D01*
D50*
X671220Y810260D02*
X671220Y822960D01*
D49*
X671220Y890168D01*
X712216Y931164D01*
D57*
X671220Y822960D02*
X673760Y820420D01*
X700004Y811530D02*
X719328Y811530D01*
X691114Y820420D02*
X673760Y820420D01*
X691114Y820420D02*
X700004Y811530D01*
D48*
X743204Y863600D03*
D43*
X743712Y863092D01*
X743712Y836930D01*
X719328Y812546D01*
X715010Y931164D02*
X718566Y934720D01*
X715010Y931164D02*
X712216Y931164D01*
X719328Y812546D02*
X719328Y811530D01*
D49*
X735245Y632424D02*
X739563Y628106D01*
X790666Y628106D01*
X805297Y642737D01*
X805297Y708639D02*
X719328Y794608D01*
X805297Y708639D02*
X805297Y642737D01*
D58*
X719328Y794608D02*
X719328Y812546D01*
D49*
X704946Y808990D02*
X719328Y794608D01*
D48*
X509414Y938792D03*
D43*
X577298Y948642D02*
X577758Y948182D01*
X577298Y948642D02*
X567633Y948642D01*
X557529Y938538D02*
X511192Y938538D01*
X510938Y938792D01*
X509414Y938792D01*
X557529Y938538D02*
X567633Y948642D01*
D48*
X502412Y932942D03*
D43*
X566582Y922782D02*
X577758Y922782D01*
X566582Y922782D02*
X557390Y931974D01*
X503380Y931974D01*
X502412Y932942D01*
X658622Y1001362D02*
X685570Y1001362D01*
X686816Y1000116D01*
X720090Y905606D02*
X720090Y864108D01*
X719328Y863346D01*
X727767Y1000506D02*
X687206Y1000506D01*
X686816Y1000116D01*
X742188Y927704D02*
X720090Y905606D01*
X742188Y986085D02*
X727767Y1000506D01*
X742188Y986085D02*
X742188Y927704D01*
X616212Y1001362D02*
X603758Y988908D01*
X616212Y1001362D02*
X658622Y1001362D01*
X641604Y922782D02*
X629758Y922782D01*
X645668Y937523D02*
X641359Y941832D01*
X611886Y941832D02*
X603758Y949960D01*
X603758Y988908D01*
X645668Y926846D02*
X641604Y922782D01*
X645668Y926846D02*
X645668Y937523D01*
X641359Y941832D02*
X611886Y941832D01*
X629758Y948182D02*
X657860Y948182D01*
X657860Y939156D01*
X680639Y947326D02*
X718566Y985253D01*
X680639Y947326D02*
X678180Y947326D01*
X718566Y985253D02*
X718566Y985520D01*
X677324Y948182D02*
X657860Y948182D01*
X677324Y948182D02*
X678180Y947326D01*
D48*
X311658Y275590D03*
D43*
X442171Y597197D02*
X433324Y606044D01*
X442171Y597197D02*
X442171Y535983D01*
D48*
X442171Y535983D03*
X313886Y386842D03*
D43*
X314140Y386842D01*
X318204Y382778D01*
X318204Y282136D01*
X311658Y275590D01*
X433324Y856234D02*
X461662Y856234D01*
X457454Y842772D02*
X457454Y836024D01*
X457454Y842772D02*
X443992Y856234D01*
X433324Y856234D01*
D48*
X473456Y837692D03*
D43*
X459122Y837692D01*
X457454Y836024D01*
X433324Y656082D02*
X433324Y644906D01*
X432829Y577822D02*
X432829Y536166D01*
X432829Y577822D02*
X405130Y605521D01*
D48*
X432829Y536166D03*
X304544Y386842D03*
D43*
X312420Y378968D02*
X312418Y301780D01*
X311628Y300990D01*
X312420Y378968D02*
X304544Y386842D01*
D48*
X311628Y300990D03*
D43*
X405130Y616712D02*
X433324Y644906D01*
X405130Y616712D02*
X405130Y605521D01*
X296926Y909828D02*
X296926Y940452D01*
X297180Y940706D01*
X276098Y930656D02*
X296926Y909828D01*
X276098Y991108D02*
X286004Y1001014D01*
X481076Y1001014D01*
X276098Y991108D02*
X276098Y930656D01*
X497078Y984758D02*
X497078Y985012D01*
X481076Y1001014D01*
X323740Y909828D02*
X296926Y909828D01*
X346566Y856996D02*
X375920Y856996D01*
X376174Y856742D01*
X376174Y830190D01*
X376174Y856742D02*
X416560Y816356D01*
X442976Y816356D01*
D48*
X442976Y816356D03*
X478424Y598830D03*
D43*
X478170Y598576D01*
X478170Y536730D01*
X478932Y535968D01*
D48*
X478932Y535968D03*
X351628Y386842D03*
D43*
X351466Y386842D01*
X339436Y374812D01*
X339436Y195164D01*
X318262Y173990D02*
X311912Y173990D01*
D48*
X311912Y173990D03*
D43*
X318262Y173990D02*
X339436Y195164D01*
X301244Y856742D02*
X301498Y856996D01*
X328566Y856996D01*
X301498Y856488D02*
X301244Y856742D01*
X301498Y856488D02*
X301498Y831452D01*
X597780Y782721D02*
X612619Y797560D01*
X597780Y782721D02*
X597780Y782574D01*
X612619Y797560D02*
X614020Y797560D01*
D48*
X536381Y733046D03*
D43*
X515776Y756666D02*
X491906Y756666D01*
X536381Y736060D02*
X536381Y733046D01*
X536381Y736060D02*
X515776Y756666D01*
X483526Y721106D02*
X472440Y710020D01*
X524441Y721106D02*
X536381Y733046D01*
X524441Y721106D02*
X483526Y721106D01*
X543906Y769366D02*
X556260Y769366D01*
X561594Y774700D01*
X561594Y806078D01*
X552196Y815476D01*
X535940Y842936D02*
X546100Y853096D01*
X535940Y831732D02*
X552196Y815476D01*
X535940Y831732D02*
X535940Y842936D01*
X552196Y815476D02*
X568960Y815476D01*
X580780Y803656D01*
X248430Y888948D02*
X158496Y799014D01*
X158496Y627953D02*
X147828Y617285D01*
X147828Y336550D01*
X183642Y300736D01*
X158496Y627953D02*
X158496Y799014D01*
X181610Y654463D02*
X163196Y636049D01*
X163196Y518722D01*
X167576Y514342D01*
X167576Y342202D02*
X183642Y326136D01*
X167576Y342202D02*
X167576Y514342D01*
X181610Y802128D02*
X248430Y868948D01*
X181610Y802128D02*
X181610Y654463D01*
X248430Y848948D02*
X260604Y861122D01*
X260604Y892810D01*
X254560Y898854D01*
X242010Y898854D01*
X154432Y811276D01*
X154432Y629636D02*
X143510Y618714D01*
X154432Y629636D02*
X154432Y811276D01*
X143510Y290068D02*
X183642Y249936D01*
X143510Y290068D02*
X143510Y618714D01*
D48*
X129540Y593852D03*
D43*
X106934Y616458D01*
X106934Y617474D01*
D48*
X131826Y439928D03*
D43*
X107442Y464312D01*
X107442Y503936D01*
X567462Y705730D02*
X567598Y705866D01*
X567462Y705730D02*
X546354Y705730D01*
X536702Y715382D01*
X567598Y667766D02*
X557692Y657860D01*
X530352Y657860D01*
X523822Y664390D01*
X523822Y668962D02*
X516964Y675820D01*
X468376Y675820D01*
X352673Y675820D01*
X306593Y629740D01*
X255214Y629740D01*
X220914Y595440D01*
X523822Y664390D02*
X523822Y668962D01*
X173490Y595440D02*
X167768Y601162D01*
X173490Y595440D02*
X220914Y595440D01*
X472440Y679884D02*
X472440Y689520D01*
X472440Y679884D02*
X468376Y675820D01*
X167768Y625730D02*
X167768Y601162D01*
X167768Y625730D02*
X173990Y631952D01*
X182626Y631952D01*
X183642Y630936D01*
X379183Y679884D02*
X397076Y697777D01*
X397076Y727368D02*
X404022Y734314D01*
X397076Y727368D02*
X397076Y697777D01*
X379183Y679884D02*
X350989Y679884D01*
X219929Y600964D02*
X188214Y600964D01*
X183642Y605536D01*
X219929Y600964D02*
X252769Y633804D01*
X304909Y633804D02*
X350989Y679884D01*
X304909Y633804D02*
X252769Y633804D01*
X526632Y873596D02*
X546100Y873596D01*
X526632Y873596D02*
X525780Y872744D01*
D48*
X525780Y872744D03*
X420370Y725424D03*
D43*
X412912Y725424D01*
X404022Y734314D01*
X597780Y803656D02*
X602967Y803656D01*
X608555Y809244D02*
X613004Y809244D01*
X614020Y810260D01*
X608555Y809244D02*
X602967Y803656D01*
X567598Y680466D02*
X549012Y680466D01*
X536702Y668156D01*
X567804Y680260D02*
X578739Y680260D01*
X567804Y680260D02*
X567598Y680466D01*
X604345Y705866D02*
X619598Y705866D01*
X604345Y705866D02*
X578739Y680260D01*
X403904Y772532D02*
X383794Y772532D01*
X375666Y780660D01*
X403904Y772532D02*
X404022Y772414D01*
X389246Y747014D02*
X375666Y733434D01*
X389246Y747014D02*
X404022Y747014D01*
X455974Y772366D02*
X456022Y772414D01*
X422246Y747014D02*
X404022Y747014D01*
X447598Y772366D02*
X455974Y772366D01*
X447598Y772366D02*
X422246Y747014D01*
X491906Y769366D02*
X491906Y782066D01*
X619598Y693166D02*
X627126Y693166D01*
X633476Y699516D01*
X633476Y711708D01*
X625856Y719328D01*
X553466Y719328D01*
X543052Y729742D02*
X543052Y735838D01*
X509524Y769366D01*
X543052Y729742D02*
X553466Y719328D01*
X509524Y769366D02*
X491906Y769366D01*
X543906Y782066D02*
X543906Y794766D01*
X509857Y794766D01*
X503555Y788464D01*
X464623Y759762D02*
X456070Y759762D01*
X464623Y759762D02*
X473964Y769103D01*
X473964Y782828D01*
X479600Y788464D01*
X503555Y788464D01*
X456070Y759762D02*
X456022Y759714D01*
X183642Y173736D02*
X183642Y169593D01*
X136999Y122950D01*
X122696Y122950D01*
X106172Y106426D02*
X106172Y97444D01*
X106172Y106426D02*
X122696Y122950D01*
X173320Y148336D02*
X183642Y148336D01*
X173320Y148336D02*
X144272Y119288D01*
X144272Y97444D01*
X739784Y901220D02*
X739304Y901700D01*
X739784Y901220D02*
X739784Y877824D01*
X752004Y889000D02*
X739304Y901700D01*
X761329Y889000D02*
X765302Y885027D01*
X761329Y889000D02*
X752004Y889000D01*
X765302Y885027D02*
X765302Y779780D01*
X927889Y709395D02*
X927889Y458442D01*
X623570Y42926D02*
X621538Y42926D01*
X623570Y42926D02*
X644398Y22098D01*
X872903Y22098D01*
X927835Y77029D01*
X927889Y458442D01*
X927889Y709395D02*
X912876Y724408D01*
X820674Y724408D01*
X765302Y779780D01*
X388112Y377190D02*
X374904Y377190D01*
X421218Y221022D02*
X421218Y109348D01*
X447225Y83342D01*
X421218Y221022D02*
X411132Y231108D01*
X411132Y354170D01*
X388112Y377190D01*
X447225Y83342D02*
X466006Y83342D01*
X466074Y83410D01*
X251850Y199390D02*
X222504Y199390D01*
X222504Y224790D02*
X251850Y224790D01*
X251850Y250190D02*
X222504Y250190D01*
X546862Y64008D02*
X555244Y55626D01*
X546862Y64008D02*
X521528Y64008D01*
X521430Y63910D01*
X555244Y55626D02*
X566928Y55626D01*
X521462Y142422D02*
X521644Y142604D01*
X521462Y142422D02*
X514511Y142422D01*
X505008Y132919D01*
X505008Y81481D01*
X516079Y70410D01*
X521430Y70410D01*
X563112Y89910D02*
X566928Y93726D01*
X563112Y89910D02*
X526631Y89910D01*
X531938Y133015D02*
X529031Y135922D01*
X521826Y135922D01*
X521430Y89910D02*
X526631Y89910D01*
X521826Y135922D02*
X521644Y136104D01*
X531938Y133015D02*
X531938Y95217D01*
X526631Y89910D01*
X556561Y68326D02*
X566928Y68326D01*
X556561Y68326D02*
X547909Y76978D01*
X521498Y76978D01*
X521430Y76910D01*
X521462Y129422D02*
X514511Y129422D01*
X521430Y76910D02*
X521362Y76842D01*
X516297Y76842D01*
X521462Y129422D02*
X521644Y129604D01*
X514511Y129422D02*
X509072Y123983D01*
X509072Y84067D01*
X516297Y76842D01*
X398940Y290162D02*
X388112Y300990D01*
X374904Y300990D01*
X398940Y225805D02*
X409026Y215719D01*
X465888Y64096D02*
X466074Y63910D01*
X448984Y64096D02*
X409026Y104054D01*
X448984Y64096D02*
X465888Y64096D01*
X398940Y225805D02*
X398940Y290162D01*
X409026Y215719D02*
X409026Y104054D01*
X387510Y326390D02*
X374904Y326390D01*
X387510Y326390D02*
X403004Y310896D01*
X403004Y227741D01*
X413090Y217655D01*
X413090Y105737D01*
X448417Y70410D01*
X466074Y70410D01*
X447733Y76842D02*
X417154Y107420D01*
X417154Y219338D01*
X407068Y229425D01*
X388018Y351790D02*
X374904Y351790D01*
X388018Y351790D02*
X407068Y332740D01*
X407068Y229425D01*
X447733Y76842D02*
X466006Y76842D01*
X466074Y76910D01*
D48*
X427794Y121470D03*
D43*
X427794Y108752D01*
X446636Y89910D02*
X466074Y89910D01*
X446636Y89910D02*
X427794Y108752D01*
X298450Y377190D02*
X222504Y377190D01*
D48*
X391056Y136322D03*
D43*
X304800Y370840D02*
X298450Y377190D01*
X391056Y183492D02*
X391056Y136322D01*
X304800Y166370D02*
X304800Y370840D01*
X304800Y166370D02*
X308356Y162814D01*
X315722Y162814D01*
X387604Y186944D02*
X391056Y183492D01*
X339852Y186944D02*
X315722Y162814D01*
X339852Y186944D02*
X387604Y186944D01*
X251850Y351790D02*
X222504Y351790D01*
X222504Y326390D02*
X251850Y326390D01*
X251850Y300990D02*
X222504Y300990D01*
X222504Y275590D02*
X251850Y275590D01*
X565610Y81026D02*
X566928Y81026D01*
X565610Y81026D02*
X563158Y83478D01*
X521498Y83478D01*
X521430Y83410D01*
X516297Y83342D02*
X513136Y86503D01*
X515040Y123104D02*
X521644Y123104D01*
X515040Y123104D02*
X513136Y121200D01*
X513136Y86503D01*
X521362Y83342D02*
X521430Y83410D01*
X521362Y83342D02*
X516297Y83342D01*
D48*
X434594Y114808D03*
D43*
X452992Y96410D02*
X466074Y96410D01*
X452992Y96410D02*
X434594Y114808D01*
X251850Y173990D02*
X222504Y173990D01*
X607744Y102269D02*
X610493Y99520D01*
X634711Y99520D01*
X607744Y102269D02*
X607744Y128954D01*
X610616Y131826D01*
X621538Y131826D01*
X824900Y72136D02*
X824900Y56804D01*
X798322Y30226D01*
X647795Y30226D01*
X640842Y93389D02*
X634711Y99520D01*
X640842Y37179D02*
X647795Y30226D01*
X640842Y37179D02*
X640842Y93389D01*
X824900Y56804D02*
X824900Y43342D01*
X818388Y36830D01*
D54*
X818388Y36830D03*
D43*
X690788Y54610D02*
X685708Y49530D01*
X685708Y44612D01*
X675386Y34290D01*
X621538Y106426D02*
X621744Y106632D01*
X636141Y106632D01*
X649478Y34290D02*
X675386Y34290D01*
X644906Y97867D02*
X636141Y106632D01*
X644906Y97867D02*
X644906Y38862D01*
X649478Y34290D01*
X690788Y54610D02*
X704088Y41310D01*
X704088Y39878D01*
D54*
X704088Y39878D03*
D43*
X685502Y122380D02*
X624792Y122380D01*
X621538Y119126D01*
X685502Y122380D02*
X690280Y117602D01*
X704710Y103172D01*
X718838Y103172D01*
D54*
X718838Y103172D03*
D43*
X875884Y172974D02*
X875884Y185674D01*
X876138Y173228D02*
X875884Y172974D01*
X876138Y173228D02*
X903315Y173228D01*
X909066Y167477D01*
X631952Y93726D02*
X621538Y93726D01*
X631952Y93726D02*
X636778Y88900D01*
X636778Y35495D02*
X646111Y26162D01*
X909066Y64008D02*
X909066Y167477D01*
X636778Y88900D02*
X636778Y35495D01*
X646111Y26162D02*
X839216Y26162D01*
X871220Y26162D01*
X909066Y64008D01*
X839216Y36830D02*
X839216Y26162D01*
D54*
X839216Y36830D03*
D43*
X742026Y216154D02*
X742026Y228854D01*
X760113Y220218D02*
X780288Y220218D01*
X756049Y216154D02*
X742026Y216154D01*
X756049Y216154D02*
X760113Y220218D01*
X748630Y85852D02*
X742788Y80010D01*
X785114Y215392D02*
X780288Y220218D01*
X785114Y215392D02*
X785114Y172466D01*
X779526Y166878D01*
X779526Y133350D02*
X779526Y89662D01*
X775716Y85852D01*
X748630Y85852D01*
X779526Y133350D02*
X795782Y133350D01*
D54*
X795782Y133350D03*
D43*
X779526Y133350D02*
X779526Y166878D01*
X690788Y92710D02*
X689654Y93844D01*
X657098Y93844D01*
X742486Y92408D02*
X742788Y92710D01*
X742486Y92408D02*
X729107Y92408D01*
X704009Y67310D02*
X690788Y67310D01*
X704009Y67310D02*
X729107Y92408D01*
X690788Y67310D02*
X688756Y65278D01*
X662060Y65278D01*
X656844Y60062D01*
X690280Y155702D02*
X683168Y162814D01*
X657978Y162814D01*
X656590Y164202D01*
X729234Y155702D02*
X742280Y155702D01*
X703834Y130302D02*
X690280Y130302D01*
X703834Y130302D02*
X729234Y155702D01*
X690280Y130302D02*
X688248Y128270D01*
X659248Y128270D01*
X656844Y130674D01*
X690026Y203454D02*
X690026Y216154D01*
X735838Y167640D02*
X748284Y167640D01*
X756158Y159766D01*
X756158Y149597D02*
X749563Y143002D01*
X742280Y143002D01*
X756158Y149597D02*
X756158Y159766D01*
X735838Y167640D02*
X700024Y203454D01*
X690026Y203454D01*
X756158Y159766D02*
X760222Y163830D01*
X769620Y163830D01*
D54*
X769620Y163830D03*
D43*
X824764Y110100D02*
X824900Y110236D01*
X824764Y110100D02*
X799592Y110100D01*
X876598Y109934D02*
X876900Y110236D01*
X876598Y109934D02*
X863219Y109934D01*
X838121Y84836D02*
X824900Y84836D01*
X838121Y84836D02*
X863219Y109934D01*
X824900Y84836D02*
X824002Y83938D01*
X811530Y83938D01*
X799338Y71746D01*
X823884Y160274D02*
X823884Y172974D01*
X823884Y160274D02*
X823932Y160226D01*
X833882Y160226D01*
X871172Y122936D01*
X891032Y114554D02*
X891032Y100584D01*
X887984Y97536D01*
X876900Y97536D01*
X871172Y122936D02*
X882650Y122936D01*
X891032Y114554D01*
X891032Y100584D02*
X892048Y99568D01*
X901240Y99568D01*
D54*
X901240Y99568D03*
D43*
X374904Y173990D02*
X335613Y173990D01*
X271845Y110222D01*
X257971Y110222D02*
X251254Y103505D01*
X251254Y93682D01*
X250698Y93126D01*
X257971Y110222D02*
X271845Y110222D01*
X288798Y121158D02*
X288798Y93126D01*
X288798Y121158D02*
X323850Y156210D01*
X367284Y156210D02*
X374904Y148590D01*
X367284Y156210D02*
X323850Y156210D01*
X297180Y958706D02*
X297180Y984504D01*
X296926Y984758D01*
X308492Y984758D01*
X311218Y982032D01*
X332114Y961136D01*
X332114Y981710D02*
X331792Y982032D01*
X311218Y982032D01*
X479662Y856234D02*
X508254Y856234D01*
X508254Y847090D01*
X508254Y835778D01*
X513080Y830952D01*
X507882Y847090D02*
X491744Y830952D01*
X507882Y847090D02*
X508254Y847090D01*
D59*
X781558Y1011936D03*
X858266Y1011936D03*
X922020Y1011936D03*
X922020Y907542D03*
X858774Y907542D03*
X781304Y907542D03*
X781812Y785876D03*
X922274Y785876D03*
X922274Y890270D03*
X859028Y890270D03*
X781558Y890270D03*
M02*
