G04 EAGLE Gerber RS-274X export*
G75*
%MOMM*%
%FSLAX34Y34*%
%LPD*%
%IN*%
%IPPOS*%
%AMOC8*
5,1,8,0,0,1.08239X$1,22.5*%
G01*
%ADD10C,0.254000*%


D10*
X-55880Y-53340D02*
X1003300Y-53340D01*
X1003300Y1092200D01*
X-55880Y1092200D01*
X-55880Y-53340D01*
X969010Y-3080D02*
X968939Y-4159D01*
X968798Y-5231D01*
X968587Y-6291D01*
X968308Y-7335D01*
X967960Y-8359D01*
X967546Y-9357D01*
X967068Y-10327D01*
X966528Y-11263D01*
X965927Y-12162D01*
X965269Y-13019D01*
X964557Y-13832D01*
X963792Y-14597D01*
X962979Y-15309D01*
X962122Y-15967D01*
X961223Y-16568D01*
X960287Y-17108D01*
X959317Y-17586D01*
X958319Y-18000D01*
X957295Y-18348D01*
X956251Y-18627D01*
X955191Y-18838D01*
X954119Y-18979D01*
X953040Y-19050D01*
X951960Y-19050D01*
X950881Y-18979D01*
X949809Y-18838D01*
X948749Y-18627D01*
X947705Y-18348D01*
X946681Y-18000D01*
X945683Y-17586D01*
X944713Y-17108D01*
X943777Y-16568D01*
X942878Y-15967D01*
X942021Y-15309D01*
X941208Y-14597D01*
X940444Y-13832D01*
X939731Y-13019D01*
X939073Y-12162D01*
X938472Y-11263D01*
X937932Y-10327D01*
X937454Y-9357D01*
X937040Y-8359D01*
X936692Y-7335D01*
X936413Y-6291D01*
X936202Y-5231D01*
X936061Y-4159D01*
X935990Y-3080D01*
X935990Y-2000D01*
X936061Y-921D01*
X936202Y151D01*
X936413Y1211D01*
X936692Y2255D01*
X937040Y3279D01*
X937454Y4277D01*
X937932Y5247D01*
X938472Y6183D01*
X939073Y7082D01*
X939731Y7939D01*
X940444Y8752D01*
X941208Y9517D01*
X942021Y10229D01*
X942878Y10887D01*
X943777Y11488D01*
X944713Y12028D01*
X945683Y12506D01*
X946681Y12920D01*
X947705Y13268D01*
X948749Y13547D01*
X949809Y13758D01*
X950881Y13899D01*
X951960Y13970D01*
X953040Y13970D01*
X954119Y13899D01*
X955191Y13758D01*
X956251Y13547D01*
X957295Y13268D01*
X958319Y12920D01*
X959317Y12506D01*
X960287Y12028D01*
X961223Y11488D01*
X962122Y10887D01*
X962979Y10229D01*
X963792Y9517D01*
X964557Y8752D01*
X965269Y7939D01*
X965927Y7082D01*
X966528Y6183D01*
X967068Y5247D01*
X967546Y4277D01*
X967960Y3279D01*
X968308Y2255D01*
X968587Y1211D01*
X968798Y151D01*
X968939Y-921D01*
X969010Y-2000D01*
X969010Y-3080D01*
X11430Y-3080D02*
X11359Y-4159D01*
X11218Y-5231D01*
X11007Y-6291D01*
X10728Y-7335D01*
X10380Y-8359D01*
X9966Y-9357D01*
X9488Y-10327D01*
X8948Y-11263D01*
X8347Y-12162D01*
X7689Y-13019D01*
X6977Y-13832D01*
X6212Y-14597D01*
X5399Y-15309D01*
X4542Y-15967D01*
X3643Y-16568D01*
X2707Y-17108D01*
X1737Y-17586D01*
X739Y-18000D01*
X-285Y-18348D01*
X-1329Y-18627D01*
X-2389Y-18838D01*
X-3461Y-18979D01*
X-4540Y-19050D01*
X-5620Y-19050D01*
X-6699Y-18979D01*
X-7771Y-18838D01*
X-8831Y-18627D01*
X-9875Y-18348D01*
X-10899Y-18000D01*
X-11897Y-17586D01*
X-12867Y-17108D01*
X-13803Y-16568D01*
X-14702Y-15967D01*
X-15559Y-15309D01*
X-16372Y-14597D01*
X-17137Y-13832D01*
X-17849Y-13019D01*
X-18507Y-12162D01*
X-19108Y-11263D01*
X-19648Y-10327D01*
X-20126Y-9357D01*
X-20540Y-8359D01*
X-20888Y-7335D01*
X-21167Y-6291D01*
X-21378Y-5231D01*
X-21519Y-4159D01*
X-21590Y-3080D01*
X-21590Y-2000D01*
X-21519Y-921D01*
X-21378Y151D01*
X-21167Y1211D01*
X-20888Y2255D01*
X-20540Y3279D01*
X-20126Y4277D01*
X-19648Y5247D01*
X-19108Y6183D01*
X-18507Y7082D01*
X-17849Y7939D01*
X-17137Y8752D01*
X-16372Y9517D01*
X-15559Y10229D01*
X-14702Y10887D01*
X-13803Y11488D01*
X-12867Y12028D01*
X-11897Y12506D01*
X-10899Y12920D01*
X-9875Y13268D01*
X-8831Y13547D01*
X-7771Y13758D01*
X-6699Y13899D01*
X-5620Y13970D01*
X-4540Y13970D01*
X-3461Y13899D01*
X-2389Y13758D01*
X-1329Y13547D01*
X-285Y13268D01*
X739Y12920D01*
X1737Y12506D01*
X2707Y12028D01*
X3643Y11488D01*
X4542Y10887D01*
X5399Y10229D01*
X6212Y9517D01*
X6977Y8752D01*
X7689Y7939D01*
X8347Y7082D01*
X8948Y6183D01*
X9488Y5247D01*
X9966Y4277D01*
X10380Y3279D01*
X10728Y2255D01*
X11007Y1211D01*
X11218Y151D01*
X11359Y-921D01*
X11430Y-2000D01*
X11430Y-3080D01*
X11430Y1040860D02*
X11359Y1039781D01*
X11218Y1038709D01*
X11007Y1037649D01*
X10728Y1036605D01*
X10380Y1035581D01*
X9966Y1034583D01*
X9488Y1033613D01*
X8948Y1032677D01*
X8347Y1031778D01*
X7689Y1030921D01*
X6977Y1030108D01*
X6212Y1029344D01*
X5399Y1028631D01*
X4542Y1027973D01*
X3643Y1027372D01*
X2707Y1026832D01*
X1737Y1026354D01*
X739Y1025940D01*
X-285Y1025592D01*
X-1329Y1025313D01*
X-2389Y1025102D01*
X-3461Y1024961D01*
X-4540Y1024890D01*
X-5620Y1024890D01*
X-6699Y1024961D01*
X-7771Y1025102D01*
X-8831Y1025313D01*
X-9875Y1025592D01*
X-10899Y1025940D01*
X-11897Y1026354D01*
X-12867Y1026832D01*
X-13803Y1027372D01*
X-14702Y1027973D01*
X-15559Y1028631D01*
X-16372Y1029344D01*
X-17137Y1030108D01*
X-17849Y1030921D01*
X-18507Y1031778D01*
X-19108Y1032677D01*
X-19648Y1033613D01*
X-20126Y1034583D01*
X-20540Y1035581D01*
X-20888Y1036605D01*
X-21167Y1037649D01*
X-21378Y1038709D01*
X-21519Y1039781D01*
X-21590Y1040860D01*
X-21590Y1041940D01*
X-21519Y1043019D01*
X-21378Y1044091D01*
X-21167Y1045151D01*
X-20888Y1046195D01*
X-20540Y1047219D01*
X-20126Y1048217D01*
X-19648Y1049187D01*
X-19108Y1050123D01*
X-18507Y1051022D01*
X-17849Y1051879D01*
X-17137Y1052692D01*
X-16372Y1053457D01*
X-15559Y1054169D01*
X-14702Y1054827D01*
X-13803Y1055428D01*
X-12867Y1055968D01*
X-11897Y1056446D01*
X-10899Y1056860D01*
X-9875Y1057208D01*
X-8831Y1057487D01*
X-7771Y1057698D01*
X-6699Y1057839D01*
X-5620Y1057910D01*
X-4540Y1057910D01*
X-3461Y1057839D01*
X-2389Y1057698D01*
X-1329Y1057487D01*
X-285Y1057208D01*
X739Y1056860D01*
X1737Y1056446D01*
X2707Y1055968D01*
X3643Y1055428D01*
X4542Y1054827D01*
X5399Y1054169D01*
X6212Y1053457D01*
X6977Y1052692D01*
X7689Y1051879D01*
X8347Y1051022D01*
X8948Y1050123D01*
X9488Y1049187D01*
X9966Y1048217D01*
X10380Y1047219D01*
X10728Y1046195D01*
X11007Y1045151D01*
X11218Y1044091D01*
X11359Y1043019D01*
X11430Y1041940D01*
X11430Y1040860D01*
X969010Y1040860D02*
X968939Y1039781D01*
X968798Y1038709D01*
X968587Y1037649D01*
X968308Y1036605D01*
X967960Y1035581D01*
X967546Y1034583D01*
X967068Y1033613D01*
X966528Y1032677D01*
X965927Y1031778D01*
X965269Y1030921D01*
X964557Y1030108D01*
X963792Y1029344D01*
X962979Y1028631D01*
X962122Y1027973D01*
X961223Y1027372D01*
X960287Y1026832D01*
X959317Y1026354D01*
X958319Y1025940D01*
X957295Y1025592D01*
X956251Y1025313D01*
X955191Y1025102D01*
X954119Y1024961D01*
X953040Y1024890D01*
X951960Y1024890D01*
X950881Y1024961D01*
X949809Y1025102D01*
X948749Y1025313D01*
X947705Y1025592D01*
X946681Y1025940D01*
X945683Y1026354D01*
X944713Y1026832D01*
X943777Y1027372D01*
X942878Y1027973D01*
X942021Y1028631D01*
X941208Y1029344D01*
X940444Y1030108D01*
X939731Y1030921D01*
X939073Y1031778D01*
X938472Y1032677D01*
X937932Y1033613D01*
X937454Y1034583D01*
X937040Y1035581D01*
X936692Y1036605D01*
X936413Y1037649D01*
X936202Y1038709D01*
X936061Y1039781D01*
X935990Y1040860D01*
X935990Y1041940D01*
X936061Y1043019D01*
X936202Y1044091D01*
X936413Y1045151D01*
X936692Y1046195D01*
X937040Y1047219D01*
X937454Y1048217D01*
X937932Y1049187D01*
X938472Y1050123D01*
X939073Y1051022D01*
X939731Y1051879D01*
X940444Y1052692D01*
X941208Y1053457D01*
X942021Y1054169D01*
X942878Y1054827D01*
X943777Y1055428D01*
X944713Y1055968D01*
X945683Y1056446D01*
X946681Y1056860D01*
X947705Y1057208D01*
X948749Y1057487D01*
X949809Y1057698D01*
X950881Y1057839D01*
X951960Y1057910D01*
X953040Y1057910D01*
X954119Y1057839D01*
X955191Y1057698D01*
X956251Y1057487D01*
X957295Y1057208D01*
X958319Y1056860D01*
X959317Y1056446D01*
X960287Y1055968D01*
X961223Y1055428D01*
X962122Y1054827D01*
X962979Y1054169D01*
X963792Y1053457D01*
X964557Y1052692D01*
X965269Y1051879D01*
X965927Y1051022D01*
X966528Y1050123D01*
X967068Y1049187D01*
X967546Y1048217D01*
X967960Y1047219D01*
X968308Y1046195D01*
X968587Y1045151D01*
X968798Y1044091D01*
X968939Y1043019D01*
X969010Y1041940D01*
X969010Y1040860D01*
X893286Y943610D02*
X892207Y943681D01*
X891135Y943822D01*
X890075Y944033D01*
X889031Y944312D01*
X888007Y944660D01*
X887009Y945074D01*
X886039Y945552D01*
X885103Y946092D01*
X884204Y946693D01*
X883347Y947351D01*
X882534Y948064D01*
X881770Y948828D01*
X881057Y949641D01*
X880399Y950498D01*
X879798Y951397D01*
X879258Y952333D01*
X878780Y953303D01*
X878366Y954301D01*
X878018Y955325D01*
X877739Y956369D01*
X877528Y957429D01*
X877387Y958501D01*
X877316Y959580D01*
X877316Y960660D01*
X877387Y961739D01*
X877528Y962811D01*
X877739Y963871D01*
X878018Y964915D01*
X878366Y965939D01*
X878780Y966937D01*
X879258Y967907D01*
X879798Y968843D01*
X880399Y969742D01*
X881057Y970599D01*
X881770Y971412D01*
X882534Y972177D01*
X883347Y972889D01*
X884204Y973547D01*
X885103Y974148D01*
X886039Y974688D01*
X887009Y975166D01*
X888007Y975580D01*
X889031Y975928D01*
X890075Y976207D01*
X891135Y976418D01*
X892207Y976559D01*
X893286Y976630D01*
X894366Y976630D01*
X895445Y976559D01*
X896517Y976418D01*
X897577Y976207D01*
X898621Y975928D01*
X899645Y975580D01*
X900643Y975166D01*
X901613Y974688D01*
X902549Y974148D01*
X903448Y973547D01*
X904305Y972889D01*
X905118Y972177D01*
X905883Y971412D01*
X906595Y970599D01*
X907253Y969742D01*
X907854Y968843D01*
X908394Y967907D01*
X908872Y966937D01*
X909286Y965939D01*
X909634Y964915D01*
X909913Y963871D01*
X910124Y962811D01*
X910265Y961739D01*
X910336Y960660D01*
X910336Y959580D01*
X910265Y958501D01*
X910124Y957429D01*
X909913Y956369D01*
X909634Y955325D01*
X909286Y954301D01*
X908872Y953303D01*
X908394Y952333D01*
X907854Y951397D01*
X907253Y950498D01*
X906595Y949641D01*
X905883Y948828D01*
X905118Y948064D01*
X904305Y947351D01*
X903448Y946693D01*
X902549Y946092D01*
X901613Y945552D01*
X900643Y945074D01*
X899645Y944660D01*
X898621Y944312D01*
X897577Y944033D01*
X896517Y943822D01*
X895445Y943681D01*
X894366Y943610D01*
X893286Y943610D01*
X894048Y821436D02*
X892969Y821507D01*
X891897Y821648D01*
X890837Y821859D01*
X889793Y822138D01*
X888769Y822486D01*
X887771Y822900D01*
X886801Y823378D01*
X885865Y823918D01*
X884966Y824519D01*
X884109Y825177D01*
X883296Y825890D01*
X882532Y826654D01*
X881819Y827467D01*
X881161Y828324D01*
X880560Y829223D01*
X880020Y830159D01*
X879542Y831129D01*
X879128Y832127D01*
X878780Y833151D01*
X878501Y834195D01*
X878290Y835255D01*
X878149Y836327D01*
X878078Y837406D01*
X878078Y838486D01*
X878149Y839565D01*
X878290Y840637D01*
X878501Y841697D01*
X878780Y842741D01*
X879128Y843765D01*
X879542Y844763D01*
X880020Y845733D01*
X880560Y846669D01*
X881161Y847568D01*
X881819Y848425D01*
X882532Y849238D01*
X883296Y850003D01*
X884109Y850715D01*
X884966Y851373D01*
X885865Y851974D01*
X886801Y852514D01*
X887771Y852992D01*
X888769Y853406D01*
X889793Y853754D01*
X890837Y854033D01*
X891897Y854244D01*
X892969Y854385D01*
X894048Y854456D01*
X895128Y854456D01*
X896207Y854385D01*
X897279Y854244D01*
X898339Y854033D01*
X899383Y853754D01*
X900407Y853406D01*
X901405Y852992D01*
X902375Y852514D01*
X903311Y851974D01*
X904210Y851373D01*
X905067Y850715D01*
X905880Y850003D01*
X906645Y849238D01*
X907357Y848425D01*
X908015Y847568D01*
X908616Y846669D01*
X909156Y845733D01*
X909634Y844763D01*
X910048Y843765D01*
X910396Y842741D01*
X910675Y841697D01*
X910886Y840637D01*
X911027Y839565D01*
X911098Y838486D01*
X911098Y837406D01*
X911027Y836327D01*
X910886Y835255D01*
X910675Y834195D01*
X910396Y833151D01*
X910048Y832127D01*
X909634Y831129D01*
X909156Y830159D01*
X908616Y829223D01*
X908015Y828324D01*
X907357Y827467D01*
X906645Y826654D01*
X905880Y825890D01*
X905067Y825177D01*
X904210Y824519D01*
X903311Y823918D01*
X902375Y823378D01*
X901405Y822900D01*
X900407Y822486D01*
X899383Y822138D01*
X898339Y821859D01*
X897279Y821648D01*
X896207Y821507D01*
X895128Y821436D01*
X894048Y821436D01*
X857865Y267079D02*
X857936Y266001D01*
X858077Y264930D01*
X858287Y263870D01*
X858567Y262827D01*
X858914Y261804D01*
X859328Y260806D01*
X859806Y259837D01*
X860346Y258901D01*
X860946Y258003D01*
X861604Y257146D01*
X862316Y256334D01*
X863080Y255570D01*
X863892Y254858D01*
X864749Y254200D01*
X865647Y253600D01*
X866583Y253060D01*
X867552Y252582D01*
X868550Y252168D01*
X869573Y251821D01*
X870616Y251541D01*
X871676Y251331D01*
X872747Y251190D01*
X873825Y251119D01*
X874905Y251119D01*
X875983Y251190D01*
X877054Y251331D01*
X878114Y251541D01*
X879157Y251821D01*
X880180Y252168D01*
X881178Y252582D01*
X882147Y253060D01*
X883083Y253600D01*
X883981Y254200D01*
X884838Y254858D01*
X885650Y255570D01*
X886414Y256334D01*
X887127Y257146D01*
X887784Y258003D01*
X888384Y258901D01*
X888925Y259837D01*
X889402Y260806D01*
X889816Y261804D01*
X890163Y262827D01*
X890443Y263870D01*
X890653Y264930D01*
X890794Y266001D01*
X890865Y267079D01*
X890865Y268159D01*
X890794Y269237D01*
X890653Y270308D01*
X890443Y271368D01*
X890163Y272411D01*
X889816Y273434D01*
X889402Y274432D01*
X888925Y275401D01*
X888384Y276337D01*
X887784Y277235D01*
X887127Y278092D01*
X886414Y278904D01*
X885650Y279668D01*
X884838Y280381D01*
X883981Y281038D01*
X883083Y281638D01*
X882147Y282179D01*
X881178Y282656D01*
X880180Y283070D01*
X879157Y283417D01*
X878114Y283697D01*
X877054Y283907D01*
X875983Y284048D01*
X874905Y284119D01*
X873825Y284119D01*
X872747Y284048D01*
X871676Y283907D01*
X870616Y283697D01*
X869573Y283417D01*
X868550Y283070D01*
X867552Y282656D01*
X866583Y282179D01*
X865647Y281638D01*
X864749Y281038D01*
X863892Y280381D01*
X863080Y279668D01*
X862316Y278904D01*
X861604Y278092D01*
X860946Y277235D01*
X860346Y276337D01*
X859806Y275401D01*
X859328Y274432D01*
X858914Y273434D01*
X858567Y272411D01*
X858287Y271368D01*
X858077Y270308D01*
X857936Y269237D01*
X857865Y268159D01*
X857865Y267079D01*
X628055Y496889D02*
X628126Y495811D01*
X628267Y494740D01*
X628477Y493680D01*
X628757Y492637D01*
X629104Y491614D01*
X629518Y490616D01*
X629996Y489647D01*
X630536Y488711D01*
X631136Y487813D01*
X631794Y486956D01*
X632506Y486144D01*
X633270Y485380D01*
X634082Y484668D01*
X634939Y484010D01*
X635837Y483410D01*
X636773Y482870D01*
X637742Y482392D01*
X638740Y481978D01*
X639763Y481631D01*
X640806Y481351D01*
X641866Y481141D01*
X642937Y481000D01*
X644015Y480929D01*
X645095Y480929D01*
X646173Y481000D01*
X647244Y481141D01*
X648304Y481351D01*
X649347Y481631D01*
X650370Y481978D01*
X651368Y482392D01*
X652337Y482870D01*
X653273Y483410D01*
X654171Y484010D01*
X655028Y484668D01*
X655840Y485380D01*
X656604Y486144D01*
X657317Y486956D01*
X657974Y487813D01*
X658574Y488711D01*
X659115Y489647D01*
X659592Y490616D01*
X660006Y491614D01*
X660353Y492637D01*
X660633Y493680D01*
X660843Y494740D01*
X660984Y495811D01*
X661055Y496889D01*
X661055Y497969D01*
X660984Y499047D01*
X660843Y500118D01*
X660633Y501178D01*
X660353Y502221D01*
X660006Y503244D01*
X659592Y504242D01*
X659115Y505211D01*
X658574Y506147D01*
X657974Y507045D01*
X657317Y507902D01*
X656604Y508714D01*
X655840Y509478D01*
X655028Y510191D01*
X654171Y510848D01*
X653273Y511448D01*
X652337Y511989D01*
X651368Y512466D01*
X650370Y512880D01*
X649347Y513227D01*
X648304Y513507D01*
X647244Y513717D01*
X646173Y513858D01*
X645095Y513929D01*
X644015Y513929D01*
X642937Y513858D01*
X641866Y513717D01*
X640806Y513507D01*
X639763Y513227D01*
X638740Y512880D01*
X637742Y512466D01*
X636773Y511989D01*
X635837Y511448D01*
X634939Y510848D01*
X634082Y510191D01*
X633270Y509478D01*
X632506Y508714D01*
X631794Y507902D01*
X631136Y507045D01*
X630536Y506147D01*
X629996Y505211D01*
X629518Y504242D01*
X629104Y503244D01*
X628757Y502221D01*
X628477Y501178D01*
X628267Y500118D01*
X628126Y499047D01*
X628055Y497969D01*
X628055Y496889D01*
X858483Y744989D02*
X859563Y744960D01*
X860643Y745002D01*
X861717Y745114D01*
X862782Y745296D01*
X863833Y745547D01*
X864865Y745866D01*
X865874Y746253D01*
X866855Y746704D01*
X867805Y747219D01*
X868719Y747794D01*
X869594Y748429D01*
X870425Y749119D01*
X871209Y749862D01*
X871943Y750654D01*
X872624Y751493D01*
X873248Y752375D01*
X873813Y753295D01*
X874317Y754251D01*
X874757Y755238D01*
X875132Y756251D01*
X875440Y757286D01*
X875679Y758340D01*
X875849Y759407D01*
X875949Y760482D01*
X875978Y761562D01*
X875937Y762642D01*
X875825Y763716D01*
X875643Y764781D01*
X875391Y765832D01*
X875072Y766864D01*
X874686Y767873D01*
X874234Y768854D01*
X873720Y769804D01*
X873144Y770718D01*
X872510Y771593D01*
X871820Y772424D01*
X871077Y773208D01*
X870284Y773942D01*
X869445Y774623D01*
X868563Y775247D01*
X867643Y775812D01*
X866687Y776316D01*
X865701Y776756D01*
X864687Y777131D01*
X863652Y777439D01*
X862598Y777678D01*
X861532Y777848D01*
X860456Y777948D01*
X859376Y777977D01*
X858296Y777936D01*
X857222Y777824D01*
X856157Y777642D01*
X855106Y777391D01*
X854074Y777071D01*
X853066Y776685D01*
X852084Y776233D01*
X851134Y775719D01*
X850220Y775143D01*
X849346Y774509D01*
X848514Y773819D01*
X847730Y773076D01*
X846996Y772283D01*
X846315Y771444D01*
X845691Y770563D01*
X845126Y769642D01*
X844622Y768686D01*
X844182Y767700D01*
X843807Y766687D01*
X843499Y765651D01*
X843260Y764598D01*
X843090Y763531D01*
X842990Y762455D01*
X842961Y761375D01*
X843003Y760296D01*
X843114Y759221D01*
X843297Y758156D01*
X843548Y757105D01*
X843867Y756074D01*
X844254Y755065D01*
X844705Y754083D01*
X845220Y753133D01*
X845795Y752219D01*
X846429Y751345D01*
X847120Y750513D01*
X847863Y749729D01*
X848655Y748995D01*
X849494Y748315D01*
X850376Y747690D01*
X851296Y747125D01*
X852252Y746621D01*
X853239Y746181D01*
X854252Y745806D01*
X855287Y745498D01*
X856341Y745259D01*
X857408Y745089D01*
X858483Y744989D01*
X634588Y559108D02*
X635668Y559079D01*
X636748Y559120D01*
X637822Y559232D01*
X638887Y559414D01*
X639938Y559665D01*
X640970Y559985D01*
X641979Y560371D01*
X642960Y560823D01*
X643910Y561337D01*
X644824Y561913D01*
X645699Y562547D01*
X646530Y563237D01*
X647314Y563980D01*
X648048Y564773D01*
X648729Y565612D01*
X649353Y566493D01*
X649918Y567414D01*
X650422Y568370D01*
X650862Y569356D01*
X651237Y570369D01*
X651545Y571405D01*
X651784Y572458D01*
X651954Y573525D01*
X652054Y574601D01*
X652083Y575681D01*
X652042Y576760D01*
X651930Y577835D01*
X651748Y578900D01*
X651496Y579951D01*
X651177Y580982D01*
X650791Y581991D01*
X650339Y582973D01*
X649824Y583923D01*
X649249Y584837D01*
X648615Y585711D01*
X647924Y586543D01*
X647182Y587327D01*
X646389Y588061D01*
X645550Y588741D01*
X644668Y589366D01*
X643748Y589931D01*
X642792Y590435D01*
X641805Y590875D01*
X640792Y591250D01*
X639757Y591558D01*
X638703Y591797D01*
X637636Y591967D01*
X636561Y592067D01*
X635481Y592096D01*
X634401Y592054D01*
X633327Y591942D01*
X632262Y591760D01*
X631211Y591509D01*
X630179Y591190D01*
X629170Y590803D01*
X628189Y590352D01*
X627239Y589837D01*
X626325Y589262D01*
X625450Y588627D01*
X624619Y587937D01*
X623835Y587194D01*
X623101Y586402D01*
X622420Y585563D01*
X621796Y584681D01*
X621231Y583761D01*
X620727Y582805D01*
X620287Y581818D01*
X619912Y580805D01*
X619604Y579770D01*
X619365Y578716D01*
X619195Y577649D01*
X619095Y576574D01*
X619066Y575494D01*
X619107Y574414D01*
X619219Y573340D01*
X619401Y572275D01*
X619653Y571224D01*
X619972Y570192D01*
X620358Y569183D01*
X620810Y568202D01*
X621324Y567252D01*
X621900Y566338D01*
X622534Y565463D01*
X623224Y564632D01*
X623967Y563848D01*
X624760Y563114D01*
X625599Y562433D01*
X626481Y561809D01*
X627401Y561244D01*
X628357Y560740D01*
X629343Y560300D01*
X630357Y559925D01*
X631392Y559617D01*
X632446Y559378D01*
X633512Y559208D01*
X634588Y559108D01*
X867915Y420728D02*
X867279Y420791D01*
X866653Y420915D01*
X866042Y421101D01*
X865452Y421345D01*
X864888Y421646D01*
X864357Y422001D01*
X863864Y422406D01*
X863412Y422858D01*
X863007Y423351D01*
X862652Y423882D01*
X862351Y424446D01*
X862107Y425036D01*
X861921Y425647D01*
X861797Y426273D01*
X861734Y426909D01*
X861734Y427547D01*
X861797Y428183D01*
X861921Y428809D01*
X862107Y429420D01*
X862351Y430010D01*
X862652Y430574D01*
X863007Y431105D01*
X863412Y431598D01*
X863864Y432050D01*
X864357Y432455D01*
X864888Y432810D01*
X865452Y433111D01*
X866042Y433355D01*
X866653Y433541D01*
X867279Y433665D01*
X867915Y433728D01*
X868553Y433728D01*
X869189Y433665D01*
X869815Y433541D01*
X870426Y433355D01*
X871016Y433111D01*
X871580Y432810D01*
X872111Y432455D01*
X872604Y432050D01*
X873056Y431598D01*
X873461Y431105D01*
X873816Y430574D01*
X874117Y430010D01*
X874361Y429420D01*
X874547Y428809D01*
X874671Y428183D01*
X874734Y427547D01*
X874734Y426909D01*
X874671Y426273D01*
X874547Y425647D01*
X874361Y425036D01*
X874117Y424446D01*
X873816Y423882D01*
X873461Y423351D01*
X873056Y422858D01*
X872604Y422406D01*
X872111Y422001D01*
X871580Y421646D01*
X871016Y421345D01*
X870426Y421101D01*
X869815Y420915D01*
X869189Y420791D01*
X868553Y420728D01*
X867915Y420728D01*
M02*
