M48
;GenerationSoftware,Autodesk,EAGLE,9.5.0*%
;CreationDate,2019-12-16T21:12:59Z*%
FMAT,2
ICI,OFF
METRIC,TZ,000.000
T4C0.350
T3C0.800
T2C1.000
T1C1.016
%
G90
M71
T1
X212090Y59436
X214630Y55880
X212090Y55880
X188214Y23368
X188214Y25908
X184404Y23368
X184404Y25908
X199136Y23368
X199136Y25908
X202438Y23368
X202438Y25908
X191770Y23368
X191770Y25908
X195580Y23368
X195580Y25908
X177038Y23368
X177038Y25908
X180848Y23368
X180848Y25908
X234188Y69342
X234188Y66802
X237744Y69342
X237744Y66802
X215646Y17272
X213106Y17272
X215646Y13716
X213106Y13716
X167132Y36449
X167132Y38989
X170434Y36449
X170434Y38989
X218440Y71120
X218440Y68580
X221742Y71120
X221742Y68580
X215900Y30734
X213360Y30734
X215900Y26924
X213360Y26924
X139700Y36322
X139700Y38862
X158369Y36449
X158369Y38989
X104648Y69342
X161798Y36449
X161798Y38989
X201676Y71628
X201676Y69088
X204978Y71628
X204978Y69088
X213868Y44450
X211328Y44450
X213868Y41021
X211328Y41021
X148971Y36322
X148971Y38862
X143383Y36322
X143383Y38862
X23114Y36322
X23114Y38862
X54229Y70866
X54229Y68326
X57531Y70866
X57531Y68326
X85090Y59436
X82550Y59436
X85090Y55880
X82550Y55880
X58674Y23368
X58674Y25908
X54864Y23368
X54864Y25908
X69596Y23368
X69596Y25908
X72898Y23368
X72898Y25908
X62230Y23368
X62230Y25908
X66040Y23368
X66040Y25908
X47498Y23368
X47498Y25908
X51308Y23368
X51308Y25908
X13843Y38862
X13843Y36322
X19431Y38862
X19431Y36322
X81788Y41021
X84328Y41021
X81788Y44450
X84328Y44450
X75438Y69088
X75438Y71628
X72136Y69088
X72136Y71628
X32258Y38989
X32258Y36449
X28829Y38989
X28829Y36449
X10160Y38862
X10160Y36322
X83820Y26924
X86360Y26924
X83820Y30734
X86360Y30734
X92202Y68580
X92202Y71120
X88900Y68580
X88900Y71120
X40894Y38989
X40894Y36449
X37592Y38989
X37592Y36449
X83566Y13716
X86106Y13716
X83566Y17272
X86106Y17272
X108204Y66802
X108204Y69342
X104648Y66802
X281940Y36322
X281940Y38862
X313055Y70866
X313055Y68326
X316357Y70866
X316357Y68326
X343916Y59436
X341376Y59436
X343916Y55880
X341376Y55880
X317500Y23368
X317500Y25908
X313690Y23368
X313690Y25908
X328422Y23368
X328422Y25908
X331724Y23368
X331724Y25908
X321056Y23368
X321056Y25908
X324866Y23368
X324866Y25908
X306324Y23368
X306324Y25908
X310134Y23368
X363474Y69342
X363474Y66802
X367030Y69342
X367030Y66802
X344932Y17272
X342392Y17272
X344932Y13716
X342392Y13716
X296418Y36449
X296418Y38989
X299720Y36449
X299720Y38989
X347726Y71120
X347726Y68580
X351028Y71120
X351028Y68580
X345186Y30734
X342646Y30734
X345186Y26924
X342646Y26924
X268986Y36322
X268986Y38862
X287655Y36449
X287655Y38989
X291084Y36449
X291084Y38989
X330962Y71628
X330962Y69088
X334264Y71628
X334264Y69088
X343154Y44450
X340614Y44450
X343154Y41021
X340614Y41021
X278257Y36322
X278257Y38862
X272669Y36322
X272669Y38862
X310134Y25908
X152654Y36322
X152654Y38862
X183769Y70866
X183769Y68326
X187071Y70866
X187071Y68326
X214630Y59436
T2
X182016Y52273
X183439Y50495
X183972Y48260
X49276Y45212
X183439Y46025
X182016Y44247
X179959Y43256
X177673Y43256
X175616Y44247
X174193Y46025
X173660Y48260
X175616Y52273
X177673Y53264
X179959Y50978
X181788Y48920
X181178Y46355
X176454Y46355
X175844Y48920
X177673Y50978
X178816Y47498
X178816Y45212
X174193Y50495
X267208Y16764
X269748Y16764
X272288Y16764
X309245Y53264
X311302Y52273
X312725Y50495
X313258Y48260
X312725Y46025
X311302Y44247
X309245Y43256
X306959Y43256
X304902Y44247
X303479Y46025
X302946Y48260
X304902Y52273
X306959Y53264
X309245Y50978
X311074Y48920
X310464Y46355
X305740Y46355
X305130Y48920
X306959Y50978
X308102Y47498
X308102Y45212
X303479Y50495
X8382Y16764
X10922Y16764
X13462Y16764
X50419Y53264
X52476Y52273
X53899Y50495
X54432Y48260
X53899Y46025
X52476Y44247
X50419Y43256
X48133Y43256
X46076Y44247
X44653Y46025
X44120Y48260
X46076Y52273
X48133Y53264
X50419Y50978
X52248Y48920
X51638Y46355
X46914Y46355
X46304Y48920
X48133Y50978
X49276Y47498
X44653Y50495
X137922Y16764
X140462Y16764
X143002Y16764
X179959Y53264
T3
X67310Y18288
X176530Y18288
X168910Y18288
X199390Y18288
X196850Y18288
X194310Y18288
X191770Y18288
X189230Y18288
X186690Y18288
X184150Y18288
X181610Y18288
X179070Y18288
X199390Y3048
X196850Y3048
X181610Y3048
X179070Y3048
X176530Y3048
X173990Y3048
X166370Y3048
X166370Y18288
X171450Y18288
X173990Y18288
X168910Y3048
X171450Y3048
X194310Y3048
X184150Y3048
X186690Y3048
X189230Y3048
X191770Y3048
X39370Y18288
X69850Y18288
X64770Y18288
X62230Y18288
X59690Y18288
X57150Y18288
X54610Y18288
X52070Y18288
X49530Y18288
X46990Y18288
X69850Y3048
X67310Y3048
X52070Y3048
X49530Y3048
X46990Y3048
X44450Y3048
X36830Y3048
X36830Y18288
X41910Y18288
X321056Y18288
X44450Y18288
X39370Y3048
X41910Y3048
X298196Y18288
X328676Y18288
X326136Y18288
X323596Y18288
X318516Y18288
X315976Y18288
X313436Y18288
X310896Y18288
X308356Y18288
X305816Y18288
X328676Y3048
X326136Y3048
X310896Y3048
X308356Y3048
X305816Y3048
X303276Y3048
X295656Y3048
X295656Y18288
X300736Y18288
X303276Y18288
X298196Y3048
X300736Y3048
X323596Y3048
X313436Y3048
X315976Y3048
X318516Y3048
X321056Y3048
X64770Y3048
X54610Y3048
X57150Y3048
X59690Y3048
X62230Y3048
T4
X79248Y56896
X86360Y92456
X69596Y50292
X69342Y52070
X51308Y39624
X80264Y57912
X104140Y94234
X65532Y33020
X185420Y10668
X182880Y5588
X175260Y9398
X147320Y29972
X154940Y29972
X163576Y30480
X172212Y30480
X166116Y53340
X162560Y48768
X170688Y64516
X173736Y59944
X226060Y62484
X226441Y57785
X227076Y45212
X226568Y43180
X229108Y30988
X227584Y28448
X229108Y17272
X227584Y14743
X200152Y86868
X202692Y86360
X217424Y86360
X219964Y85344
X233172Y85852
X235712Y84836
X189484Y75692
X188826Y72644
X206606Y73660
X206756Y76708
X328422Y58928
X300990Y44196
X328422Y57404
X314251Y90350
X292354Y17780
X336042Y56388
X280162Y21844
X362458Y60261
X349250Y55372
X296291Y22733
X287401Y22733
X279019Y22733
X269621Y22733
X298831Y21971
X309118Y21336
X286258Y32004
X277622Y32004
X293370Y31496
X267970Y29972
X315214Y60960
X300990Y46736
X316738Y59944
X304038Y10668
X308356Y9398
X292354Y14224
X305054Y15240
X271526Y6096
X300990Y71882
X315214Y46736
X335026Y7620
X333502Y9652
X303530Y23368
X302006Y23368
X313078Y72898
X311658Y61468
X316230Y85852
X313182Y86360
X369062Y75184
X368912Y71120
X352806Y76200
X352425Y72390
X336042Y76708
X335892Y73660
X318112Y72644
X318770Y75692
X364998Y84836
X362458Y85852
X349250Y85344
X346710Y86360
X331978Y86360
X329438Y86868
X356870Y14743
X358394Y17272
X356870Y28448
X358394Y30988
X355854Y43180
X356362Y45212
X355727Y57785
X355346Y62484
X33528Y14224
X299974Y64516
X291846Y48768
X295402Y53340
X301498Y30480
X292862Y30480
X284226Y29972
X276606Y29972
X304546Y9398
X312166Y5588
X297561Y21971
X288798Y21844
X324358Y33020
X55880Y10668
X53340Y5588
X45720Y9398
X17780Y29972
X25400Y29972
X34036Y30480
X42672Y30480
X36576Y53340
X33020Y48768
X41148Y64516
X314706Y10668
X44196Y59944
X96520Y62484
X96901Y57785
X97536Y45212
X97028Y43180
X99568Y30988
X98044Y28448
X99568Y17272
X98044Y14743
X70612Y86868
X73152Y86360
X87884Y86360
X90424Y85344
X103632Y85852
X106172Y84836
X59944Y75692
X59286Y72644
X362966Y94234
X339090Y57912
X77066Y73660
X77216Y76708
X303022Y59944
X93599Y72390
X93980Y76200
X110086Y71120
X110236Y75184
X54356Y86360
X57404Y85852
X52832Y61468
X54252Y72898
X43180Y23368
X44704Y23368
X74676Y9652
X76200Y7620
X56388Y46736
X42164Y71882
X12700Y6096
X46228Y15240
X49530Y9398
X195072Y33020
X233680Y94234
X209804Y57912
X180848Y39624
X198882Y52070
X199136Y50292
X215900Y92456
X208788Y56896
X193548Y33020
X179832Y41656
X199136Y55372
X180848Y40640
X199136Y53848
X199644Y90424
X207772Y55880
X191516Y34036
X233172Y43180
X221996Y38100
X171704Y45212
X199136Y58928
X171704Y44196
X199136Y57404
X184965Y90350
X206756Y56388
X168275Y21971
X159512Y21844
X45212Y10668
X233172Y60261
X219964Y55372
X167005Y22733
X158115Y22733
X149733Y22733
X140335Y22733
X169545Y21971
X179832Y21336
X194310Y9398
X156972Y32004
X148336Y32004
X70104Y90424
X164084Y31496
X138684Y29972
X163068Y17780
X185928Y60960
X171704Y46736
X187452Y59944
X174752Y10668
X179070Y9398
X163068Y14224
X175768Y15240
X142240Y6096
X171704Y71882
X185928Y46736
X205740Y7620
X204216Y9652
X174244Y23368
X172720Y23368
X183792Y72898
X182372Y61468
X186944Y85852
X183896Y86360
X239776Y75184
X239626Y71120
X223520Y76200
X223139Y72390
X57912Y59944
X42164Y46736
X56388Y60960
X33528Y17780
X9144Y29972
X34544Y31496
X18796Y32004
X323596Y9398
X27432Y32004
X64770Y9398
X50292Y21336
X40005Y21971
X10795Y22733
X20193Y22733
X28575Y22733
X37465Y22733
X90424Y55372
X103632Y60261
X21336Y21844
X29972Y21844
X38735Y21971
X77216Y56388
X55425Y90350
X69596Y57404
X42164Y44196
X69596Y58928
X42164Y45212
X92456Y38100
X103632Y43180
X61976Y34036
X78232Y55880
X69596Y53848
X51308Y40640
X69596Y55372
X50292Y41656
X64008Y33020
X310134Y39624
X328168Y52070
X328422Y50292
X345186Y92456
X338074Y56896
X322834Y33020
X309118Y41656
X328422Y55372
X310134Y40640
X328422Y53848
X328930Y90424
X337058Y55880
X320802Y34036
X362458Y43180
X351282Y38100
X300990Y45212
X150876Y21844
M30